<svg xmlns="http://www.w3.org/2000/svg" id="Capa_1" data-name="Capa 1" viewBox="0 0 1616.88 249.36"><defs><style>.cls-1{fill:#fff;}.cls-2{fill:#00a8d7;}.cls-3{fill:none;stroke:#913f94;stroke-miterlimit:10;stroke-width:6px;}.cls-4{fill:#6dc729;}</style></defs><path class="cls-1" d="M466.13,428.45h88.14v26.72h-59.2v26.72h54.75v26.73H495.07v51.21H466.13Z" transform="translate(-151.56 -415.32)"></path><path class="cls-1" d="M575.05,428.45H625.9a89.64,89.64,0,0,1,19,1.95,45.18,45.18,0,0,1,15.77,6.49,32.35,32.35,0,0,1,10.76,12.25q4,7.69,4,19.21,0,13.9-7.24,23.66t-21.16,12.34l33.4,55.48h-34.7l-27.46-52.51H604v52.51h-29Zm29,54.37h17.07q3.9,0,8.26-.28a25.64,25.64,0,0,0,7.89-1.67,13.66,13.66,0,0,0,5.84-4.36q2.33-3,2.32-8.35a13.87,13.87,0,0,0-2-8,13.68,13.68,0,0,0-5.19-4.55,23.41,23.41,0,0,0-7.24-2.13,59.31,59.31,0,0,0-8-.56H604Z" transform="translate(-151.56 -415.32)"></path><path class="cls-1" d="M696.41,428.45h89.26v26.72H725.36v24.5h57v26.72h-57v26.72H789v26.72h-92.6Z" transform="translate(-151.56 -415.32)"></path><path class="cls-1" d="M956,559.83H876.41a86.21,86.21,0,0,1-28.48-4.54A63.87,63.87,0,0,1,825.38,542a61.62,61.62,0,0,1-14.84-21.16q-5.4-12.42-5.39-28.39a66.94,66.94,0,0,1,5.48-27.28,64.89,64.89,0,0,1,14.94-21.34A67.35,67.35,0,0,1,847.83,430a76.14,76.14,0,0,1,27.47-4.91,74.67,74.67,0,0,1,27.46,5A68.51,68.51,0,0,1,925,444,65,65,0,0,1,940,465.28a66.31,66.31,0,0,1,5.47,27.19,59.6,59.6,0,0,1-1.57,13.73,52.49,52.49,0,0,1-4.74,12.62A41,41,0,0,1,931,529.49a41.43,41.43,0,0,1-11.69,7.7v.37H956Zm-120.8-67.36A40.44,40.44,0,0,0,859.71,530a40,40,0,0,0,31.18,0,40.75,40.75,0,0,0,12.71-8.63,41,41,0,0,0,0-57.71A41.07,41.07,0,0,0,890.89,455a40,40,0,0,0-31.18,0A41.07,41.07,0,0,0,847,463.61a40.53,40.53,0,0,0-11.78,28.86Z" transform="translate(-151.56 -415.32)"></path><path class="cls-1" d="M1081.1,509.17a63.43,63.43,0,0,1-3.53,21.53,47.28,47.28,0,0,1-10.49,17.07,48,48,0,0,1-17.34,11.32,72.83,72.83,0,0,1-48.07,0,48.05,48.05,0,0,1-17.35-11.32,47.12,47.12,0,0,1-10.48-17.07,63.19,63.19,0,0,1-3.53-21.53V428.45h29v79.61a32,32,0,0,0,2,11.32,27.14,27.14,0,0,0,5.47,9,24.91,24.91,0,0,0,8.45,5.94,26.49,26.49,0,0,0,10.66,2.13,25.91,25.91,0,0,0,10.58-2.13,25.11,25.11,0,0,0,8.35-5.94,27.16,27.16,0,0,0,5.48-9,32,32,0,0,0,2-11.32V428.45h28.95Z" transform="translate(-151.56 -415.32)"></path><path class="cls-1" d="M1108.93,428.45h89.26v26.72h-60.31v24.5h57v26.72h-57v26.72h63.65v26.72h-92.6Z" transform="translate(-151.56 -415.32)"></path><path class="cls-1" d="M1224.72,428.45h39.35l55.85,91.3h.37v-91.3h29V559.83h-37.85L1254,466.31h-.37v93.52h-29Z" transform="translate(-151.56 -415.32)"></path><path class="cls-1" d="M1401.38,454.06H1363.9V428.45h103.92v25.61h-37.49V559.83h-28.95Z" transform="translate(-151.56 -415.32)"></path><path class="cls-1" d="M1593.26,509.17a63.68,63.68,0,0,1-3.52,21.53,47.42,47.42,0,0,1-10.49,17.07,48.05,48.05,0,0,1-17.35,11.32,72.8,72.8,0,0,1-48.06,0,48,48,0,0,1-17.35-11.32A47.28,47.28,0,0,1,1486,530.7a63.43,63.43,0,0,1-3.53-21.53V428.45h29v79.61a32,32,0,0,0,1.95,11.32,27.16,27.16,0,0,0,5.48,9,24.87,24.87,0,0,0,8.44,5.94,26.58,26.58,0,0,0,10.67,2.13,25.94,25.94,0,0,0,10.58-2.13,25.21,25.21,0,0,0,8.35-5.94,27.14,27.14,0,0,0,5.47-9,32,32,0,0,0,2-11.32V428.45h29Z" transform="translate(-151.56 -415.32)"></path><path class="cls-1" d="M1620,428.45h43.8L1694,514.18h.38l30.43-85.73h43.61V559.83h-29V459.07h-.37L1704.6,559.83h-22.08L1649.3,459.07h-.37V559.83h-29Z" transform="translate(-151.56 -415.32)"></path><path class="cls-2" d="M467.13,623.56c2.16,6.34,7.16,18.37,14,18.37h.32c5.64-.32,8.66-6.92,11.34-17.61l1,1c2.67,2.82,5.43,5.73,11.76,5.73,5.76,0,8.89-3.11,12-6.55,4.31,21.23,8.17,34.85,16.45,34.85,9.64,0,12.33-15.51,15.18-31.93.16-.94.33-1.9.5-2.86,1.84,1.87,4.18,3.27,8.45,3.27,6.14,0,9-1.87,11.41-3.69,2.26,6.47,7.16,17.77,13.76,17.77h.32c5.65-.32,8.66-6.92,11.34-17.61l1,1c2.67,2.82,5.44,5.73,11.76,5.73,5.76,0,8.89-3.11,12-6.55,4.32,21.23,8.17,34.85,16.46,34.85,9.63,0,12.32-15.51,15.17-31.93.16-.94.33-1.9.5-2.86,1.84,1.87,4.18,3.27,8.46,3.27,6.27,0,9.16-2,11.56-3.82,2.24,6.45,7.17,17.9,13.81,17.9H686c5.65-.32,8.67-6.92,11.35-17.61l1,1c2.67,2.82,5.43,5.73,11.76,5.73,5.76,0,8.89-3.11,12-6.55,4.31,21.23,8.17,34.85,16.45,34.85,9.64,0,12.33-15.51,15.18-31.93.16-.94.32-1.9.49-2.86,1.84,1.87,4.19,3.27,8.46,3.27,6.28,0,9.16-2,11.57-3.82,2.24,6.45,7.16,17.9,13.8,17.9h.32c5.65-.32,8.67-6.92,11.34-17.61l1,1c2.68,2.82,5.44,5.73,11.77,5.73,5.75,0,8.89-3.11,12-6.55,4.32,21.23,8.17,34.85,16.46,34.85,9.64,0,12.32-15.51,15.17-31.93.16-.94.33-1.9.5-2.86,1.84,1.87,4.18,3.27,8.46,3.27,6.67,0,9.5-2.21,12-4.16l.1-.08c2.17,6.35,7.16,18.32,14,18.32h.31c5.65-.32,8.67-6.92,11.35-17.61l1,1c2.67,2.82,5.43,5.73,11.76,5.73,5.76,0,8.89-3.11,12-6.55,4.31,21.23,8.17,34.85,16.45,34.85,9.64,0,12.33-15.51,15.18-31.93.16-.94.33-1.9.5-2.86,1.84,1.87,4.18,3.27,8.45,3.27,6.14,0,9-1.87,11.41-3.69,2.26,6.47,7.16,17.77,13.76,17.77h.32c5.64-.32,8.66-6.92,11.34-17.61l1,1c2.67,2.82,5.43,5.73,11.76,5.73,5.76,0,8.89-3.11,12-6.55,4.31,21.23,8.17,34.85,16.45,34.85,9.64,0,12.33-15.51,15.18-31.93.16-.94.33-1.9.5-2.86,1.84,1.87,4.18,3.27,8.45,3.27,6.28,0,9.17-2,11.57-3.82,2.24,6.45,7.16,17.9,13.8,17.9h.32c5.65-.32,8.67-6.92,11.34-17.61l1,1c2.67,2.82,5.43,5.73,11.76,5.73,5.76,0,8.89-3.11,12-6.55,4.31,21.23,8.17,34.85,16.45,34.85a8.23,8.23,0,0,0,1.67-.16v-1.35a4.93,4.93,0,0,1-1.67.29c-6.21,0-10.18-14.13-13.27-28.69,3.07,5.94,6.93,10.6,13.27,10.6a14.9,14.9,0,0,0,1.67-.09v-.63a12.77,12.77,0,0,1-1.67.11c-6.92,0-10.9-6.89-14.14-14.17l-.54-2.7c3.41-3.66,7.28-7,14.68-7,.58,0,1.14,0,1.67.05V615c-.53,0-1.09,0-1.67,0-7.42,0-11.57,3.17-14.89,6.59-.15-.74-.29-1.47-.43-2.2-4.12-20.88-6.76-32.69-13.17-32.69-6.63,0-9,10-12.36,26.22-.59,2.89-1.22,5.94-1.92,8.93-2.25-1.72-5.18-3-9.89-3.06h-.25a25.75,25.75,0,0,0-12.24,3.37c-.13-.4-.26-.8-.38-1.2l-.09-.33c-2.74-9.83-5.32-19.11-12.64-19.11-5.46,0-7.71,7.41-10,19.86-2.51-3.11-5.64-6.38-14.1-6.38-7.41,0-11.57,3.17-14.89,6.59-.14-.74-.29-1.47-.43-2.2-4.12-20.88-6.76-32.69-13.17-32.69-6.63,0-9,10-12.36,26.22-.59,2.89-1.22,5.94-1.92,8.93-2.25-1.72-5.18-3-9.89-3.06h-.25a25.45,25.45,0,0,0-12.09,3.3c-.14-.49-.28-1-.41-1.46-2.74-9.83-5.32-19.11-12.64-19.11-5.46,0-7.71,7.41-10,19.86-2.51-3.11-5.64-6.38-14.1-6.38-7.42,0-11.57,3.17-14.89,6.59-.14-.74-.29-1.47-.43-2.2-4.12-20.88-6.76-32.69-13.17-32.69-6.63,0-9,10-12.36,26.22-.59,2.89-1.22,5.94-1.92,8.93-2.25-1.72-5.18-3-9.89-3.06h-.25a25.75,25.75,0,0,0-12.24,3.37c-.21-.64-.4-1.28-.58-1.9l-.66.07c-2.71-9.72-5.31-18.81-12.55-18.81-5.47,0-7.72,7.41-10,19.86-2.52-3.11-5.65-6.38-14.1-6.38-7.42,0-11.58,3.17-14.89,6.59-.15-.74-.29-1.47-.44-2.2-4.11-20.88-6.76-32.69-13.16-32.69-6.63,0-9,10-12.36,26.22-.6,2.89-1.23,5.94-1.92,8.93-2.26-1.72-5.19-3-9.89-3.06H788a25.7,25.7,0,0,0-12.23,3.37c-.13-.4-.26-.8-.38-1.19l-.09-.34c-2.74-9.83-5.32-19.11-12.64-19.11-5.47,0-7.71,7.41-10,19.86-2.51-3.11-5.65-6.38-14.1-6.38-7.42,0-11.57,3.17-14.89,6.59-.14-.74-.29-1.47-.43-2.2-4.12-20.88-6.76-32.69-13.17-32.69-6.63,0-9,10-12.36,26.22-.59,2.89-1.22,5.94-1.92,8.93-2.25-1.72-5.18-3-9.89-3.06h-.25a25.75,25.75,0,0,0-12.24,3.37c-.13-.4-.26-.8-.38-1.2l-.09-.33c-2.73-9.83-5.32-19.11-12.63-19.11-5.47,0-7.72,7.41-10,19.86-2.52-3.11-5.65-6.38-14.1-6.38-7.42,0-11.58,3.17-14.89,6.59-.15-.74-.29-1.47-.44-2.2-4.11-20.88-6.76-32.69-13.17-32.69-6.63,0-9,10-12.35,26.22-.6,2.89-1.23,5.94-1.92,8.93-2.26-1.72-5.19-3-9.9-3.06h-.25a25.45,25.45,0,0,0-12.09,3.3c-.14-.49-.27-1-.41-1.46-2.73-9.83-5.32-19.11-12.64-19.11-5.46,0-7.71,7.41-10,19.86-2.51-3.11-5.64-6.38-14.1-6.38-7.41,0-11.57,3.17-14.89,6.59-.14-.74-.29-1.47-.43-2.2-4.12-20.88-6.76-32.69-13.17-32.69-6.63,0-9,10-12.35,26.22-.6,2.89-1.23,5.94-1.92,8.93-2.26-1.72-5.19-3-9.9-3.06h-.25a25.67,25.67,0,0,0-12.23,3.37c-.21-.64-.41-1.28-.59-1.9l-2.12.2c.17.6.47,1.6.89,2.83Zm14.08,17.15h-.15c-3.63,0-7.77-7-10.63-14.2,2.59,2.63,6.33,5.38,10.65,5.38h.26a10.71,10.71,0,0,0,8.39-4.33C487.67,634.77,485,640.5,481.21,640.71Zm9.27-15.92c-2.14,3.63-4.87,6.38-9.19,6.49h-.22c-4.9,0-9.2-4.29-11.54-7.14l-.45-1.31a24.6,24.6,0,0,1,12-3.5h.22a14.29,14.29,0,0,1,9.7,3.34C490.83,623.39,490.66,624.09,490.48,624.79Zm4.79-11.8c2.31-11.2,5.17-25.14,10.22-25.14,4.41,0,7.68,14.8,10.34,28.12-2.66-5.75-5.54-10-10.34-10-5.68,0-8.39,4.66-10.85,10.11Q495,614.55,495.27,613Zm21.84,10.65c-3.18,3.51-6.19,6.82-11.62,6.82-5.68,0-8.17-2.63-10.81-5.42-.55-.57-1.1-1.15-1.67-1.71.18-.77.37-1.56.55-2.37.4-.86.78-1.74,1.17-2.61,2.54-5.8,5.18-11.8,10.76-11.8,5.15,0,8.29,7,11.26,14.08.19,1,.38,1.88.56,2.8ZM534,658.15c-6.21,0-10.17-14.13-13.27-28.69,3.08,5.95,6.93,10.6,13.27,10.6,6.81,0,10.1-4.25,12.46-9.47C544.14,643.62,541.07,658.15,534,658.15ZM547.3,625.7c-2.56,6.88-5.36,13.75-13.32,13.75-6.92,0-10.9-6.89-14.13-14.17q-.29-1.37-.54-2.7c3.4-3.66,7.28-7,14.67-7,8.32,0,11,3.37,13.61,6.64l.27.33C547.68,623.54,547.49,624.6,547.3,625.7Zm10.81-23c4.91,0,7.67,8.06,9.8,15.54-2.14-3-4.9-5.33-9.8-5.33-3.26,0-5.39,1.69-7,4.22C552.73,609.33,554.87,602.67,558.11,602.67Zm11,20.79c-2.42,1.88-5,3.78-11,3.78a9.75,9.75,0,0,1-8.26-3.76c.18-1,.35-1.94.54-2.9,1.74-4,3.89-7.09,7.72-7.09,5.39,0,8,3.48,10.29,7.21.18.6.44,1.47.8,2.52l-.26.18Zm14.31,17.25h-.15c-3.63,0-7.77-7-10.63-14.2,2.59,2.63,6.33,5.38,10.65,5.38h.26a10.71,10.71,0,0,0,8.39-4.33C589.85,634.77,587.2,640.5,583.39,640.71Zm9.27-15.92c-2.14,3.63-4.87,6.38-9.19,6.49h-.22c-4.9,0-9.2-4.29-11.54-7.14-.08-.25-.17-.49-.25-.72h.1c-.07-.21-.13-.43-.19-.64a24.54,24.54,0,0,1,11.89-3.44h.22a14.29,14.29,0,0,1,9.7,3.34C593,623.39,592.84,624.09,592.66,624.79Zm4.8-11.8c2.3-11.2,5.16-25.14,10.21-25.14,4.41,0,7.68,14.8,10.34,28.12-2.66-5.75-5.54-10-10.34-10-5.68,0-8.39,4.66-10.85,10.11C597,615.05,597.24,614,597.46,613Zm21.83,10.65c-3.18,3.51-6.19,6.82-11.62,6.82-5.68,0-8.17-2.63-10.81-5.42-.55-.57-1.09-1.15-1.67-1.71.18-.77.37-1.56.55-2.37.4-.86.78-1.74,1.17-2.61,2.54-5.8,5.18-11.8,10.76-11.8,5.15,0,8.29,7,11.26,14.08.19,1,.38,1.88.56,2.8Zm16.88,34.51c-6.22,0-10.18-14.13-13.28-28.69,3.08,5.95,6.94,10.6,13.28,10.6,6.8,0,10.09-4.25,12.45-9.47C646.32,643.62,643.25,658.15,636.17,658.15Zm13.31-32.45c-2.56,6.88-5.36,13.75-13.31,13.75-6.93,0-10.91-6.89-14.14-14.17q-.28-1.37-.54-2.7c3.4-3.66,7.28-7,14.68-7,8.31,0,11,3.37,13.61,6.64l.26.33C649.86,623.54,649.67,624.6,649.48,625.7Zm10.82-23c4.91,0,7.66,8.06,9.79,15.54-2.14-3-4.9-5.33-9.79-5.33-3.27,0-5.4,1.69-7,4.22C654.91,609.33,657.05,602.67,660.3,602.67Zm11,20.74c-2.43,1.9-5,3.83-11,3.83a9.75,9.75,0,0,1-8.27-3.76c.18-1,.35-1.94.54-2.9,1.74-4,3.89-7.09,7.73-7.09,5.7,0,8.3,3.9,10.67,7.87l.55,1.91-.19.13Zm14.45,17.3h-.16c-3.63,0-7.77-7-10.62-14.2,2.59,2.63,6.33,5.38,10.64,5.38h.27a10.73,10.73,0,0,0,8.39-4.33C692.24,634.77,689.59,640.5,685.78,640.71Zm9.27-15.92c-2.14,3.63-4.87,6.38-9.2,6.49h-.21c-4.9,0-9.21-4.29-11.54-7.14-.16-.44-.31-.88-.45-1.31a24.56,24.56,0,0,1,12-3.5h.23a14.31,14.31,0,0,1,9.7,3.34C695.4,623.39,695.23,624.09,695.05,624.79Zm4.79-11.8c2.31-11.2,5.17-25.14,10.22-25.14,4.41,0,7.68,14.8,10.34,28.12-2.67-5.75-5.54-10-10.34-10-5.69,0-8.39,4.66-10.86,10.11C699.42,615.05,699.63,614,699.84,613Zm21.84,10.65c-3.18,3.51-6.19,6.82-11.62,6.82-5.69,0-8.18-2.63-10.82-5.42-.54-.57-1.09-1.15-1.67-1.71.19-.77.37-1.56.56-2.37.4-.86.78-1.74,1.16-2.61,2.55-5.8,5.18-11.8,10.77-11.8,5.15,0,8.29,7,11.26,14.08.19,1,.37,1.88.56,2.8Zm16.87,34.51c-6.21,0-10.17-14.13-13.27-28.69,3.07,5.94,6.93,10.6,13.27,10.6,6.81,0,10.1-4.25,12.46-9.47C748.71,643.62,745.64,658.15,738.55,658.15Zm13.31-32.45c-2.55,6.88-5.36,13.75-13.31,13.75-6.92,0-10.9-6.89-14.14-14.17q-.27-1.37-.54-2.7c3.41-3.66,7.29-7,14.68-7,8.32,0,11,3.37,13.61,6.64l.27.33C752.24,623.54,752.05,624.6,751.86,625.7Zm10.82-23c4.91,0,7.66,8.06,9.8,15.54-2.14-3-4.91-5.33-9.8-5.33-3.26,0-5.4,1.69-7,4.22C757.29,609.33,759.43,602.67,762.68,602.67Zm11,20.74c-2.44,1.9-5,3.83-11,3.83a9.73,9.73,0,0,1-8.26-3.76c.17-1,.35-1.94.53-2.9,1.75-4,3.89-7.09,7.73-7.09,5.7,0,8.31,3.9,10.68,7.87.18.65.36,1.29.54,1.91l-.19.13Zm14.44,17.3H788c-3.63,0-7.77-7-10.62-14.2,2.58,2.63,6.32,5.38,10.64,5.38h.26a10.73,10.73,0,0,0,8.4-4.33C794.62,634.77,792,640.5,788.16,640.71Zm9.27-15.92c-2.14,3.63-4.87,6.38-9.19,6.49H788c-4.9,0-9.21-4.29-11.54-7.14-.16-.44-.31-.88-.46-1.31a24.64,24.64,0,0,1,12-3.5h.23a14.31,14.31,0,0,1,9.7,3.34C797.79,623.39,797.61,624.09,797.43,624.79Zm4.8-11.8c2.3-11.2,5.17-25.14,10.22-25.14,4.4,0,7.68,14.8,10.33,28.12-2.66-5.75-5.53-10-10.33-10-5.69,0-8.39,4.66-10.86,10.11C801.8,615.05,802,614,802.23,613Zm21.84,10.65c-3.19,3.51-6.2,6.82-11.62,6.82-5.69,0-8.18-2.63-10.82-5.42-.54-.57-1.09-1.15-1.67-1.71.18-.77.37-1.56.55-2.37.4-.86.79-1.74,1.17-2.61,2.55-5.8,5.18-11.8,10.77-11.8,5.15,0,8.28,7,11.26,14.08.18,1,.37,1.88.55,2.8Zm16.87,34.51c-6.21,0-10.18-14.13-13.27-28.69,3.07,5.94,6.93,10.6,13.27,10.6,6.81,0,10.09-4.25,12.46-9.47C851.09,643.62,848,658.15,840.94,658.15Zm13.31-32.45c-2.55,6.88-5.36,13.75-13.31,13.75-6.93,0-10.91-6.89-14.14-14.17q-.27-1.37-.54-2.7c3.4-3.66,7.28-7,14.68-7,8.31,0,11,3.37,13.61,6.64l.27.33C854.63,623.54,854.44,624.6,854.25,625.7Zm10.82-23c4.91,0,7.66,8.06,9.79,15.54-2.14-3-4.9-5.33-9.79-5.33-3.26,0-5.4,1.69-7,4.22C859.68,609.33,861.82,602.67,865.07,602.67Zm11.14,20.66c-2.47,1.92-5,3.91-11.14,3.91a9.75,9.75,0,0,1-8.27-3.76l.54-2.9c1.75-4,3.89-7.09,7.73-7.09,5.73,0,8.33,3.94,10.72,7.93.2.57.39,1,.58,1.65l.21,0Zm15,17.38h-.16c-3.63,0-7.76-7-10.62-14.2,2.59,2.63,6.33,5.38,10.65,5.38h.26a10.71,10.71,0,0,0,8.39-4.33C897.7,634.77,895.05,640.5,891.24,640.71Zm9.27-15.92c-2.14,3.63-4.87,6.38-9.19,6.49h-.22c-4.9,0-9.21-4.29-11.54-7.14-.15-.44-.31-.88-.45-1.31a24.6,24.6,0,0,1,12-3.5h.22a14.31,14.31,0,0,1,9.7,3.34C900.86,623.39,900.69,624.09,900.51,624.79ZM905.3,613c2.31-11.2,5.17-25.14,10.22-25.14,4.41,0,7.68,14.8,10.34,28.12-2.66-5.75-5.54-10-10.34-10-5.69,0-8.39,4.66-10.85,10.11Q905,614.55,905.3,613Zm21.84,10.65c-3.18,3.51-6.19,6.82-11.62,6.82-5.68,0-8.18-2.63-10.81-5.42-.55-.57-1.1-1.15-1.68-1.71.19-.77.38-1.56.56-2.37.4-.86.78-1.74,1.16-2.61,2.55-5.8,5.19-11.8,10.77-11.8,5.15,0,8.29,7,11.26,14.08.19,1,.37,1.88.56,2.8ZM944,658.15c-6.21,0-10.17-14.13-13.27-28.69,3.07,5.95,6.93,10.6,13.27,10.6,6.81,0,10.1-4.25,12.46-9.47C954.17,643.62,951.1,658.15,944,658.15Zm13.31-32.45c-2.55,6.88-5.35,13.75-13.31,13.75-6.92,0-10.9-6.89-14.13-14.17-.19-.91-.37-1.81-.55-2.7,3.41-3.66,7.29-7,14.68-7,8.32,0,11,3.37,13.61,6.64l.27.33C957.7,623.54,957.52,624.6,957.32,625.7Zm10.82-23c4.91,0,7.66,8.06,9.8,15.54-2.14-3-4.9-5.33-9.8-5.33-3.26,0-5.39,1.69-7,4.22C962.75,609.33,964.89,602.67,968.14,602.67Zm11,20.79c-2.42,1.88-5,3.78-11,3.78a9.75,9.75,0,0,1-8.26-3.76c.17-1,.35-1.94.53-2.9,1.75-4,3.9-7.09,7.73-7.09,5.39,0,8,3.48,10.28,7.21.18.6.45,1.47.8,2.52l-.25.18Zm14.31,17.25h-.15c-3.63,0-7.77-7-10.63-14.2,2.59,2.63,6.33,5.38,10.65,5.38h.26a10.71,10.71,0,0,0,8.39-4.33C999.88,634.77,997.23,640.5,993.42,640.71Zm9.27-15.92c-2.14,3.63-4.87,6.38-9.19,6.49h-.22c-4.9,0-9.21-4.29-11.54-7.14-.08-.25-.17-.49-.25-.72h.09l-.18-.64a24.54,24.54,0,0,1,11.89-3.44h.22a14.29,14.29,0,0,1,9.7,3.34C1003,623.39,1002.87,624.09,1002.69,624.79Zm4.79-11.8c2.31-11.2,5.17-25.14,10.22-25.14,4.41,0,7.68,14.8,10.34,28.12-2.66-5.75-5.54-10-10.34-10-5.69,0-8.39,4.66-10.85,10.11Q1007.17,614.55,1007.48,613Zm21.84,10.65c-3.18,3.51-6.19,6.82-11.62,6.82-5.68,0-8.18-2.63-10.81-5.42-.55-.57-1.1-1.15-1.68-1.71.19-.77.38-1.56.56-2.37.4-.86.78-1.74,1.17-2.61,2.54-5.8,5.18-11.8,10.76-11.8,5.15,0,8.29,7,11.26,14.08.19,1,.37,1.88.56,2.8Zm16.87,34.51c-6.21,0-10.17-14.13-13.27-28.69,3.07,5.95,6.93,10.6,13.27,10.6,6.81,0,10.1-4.25,12.46-9.47C1056.35,643.62,1053.28,658.15,1046.19,658.15Zm13.32-32.45c-2.56,6.88-5.36,13.75-13.32,13.75-6.92,0-10.9-6.89-14.13-14.17-.19-.91-.37-1.81-.55-2.7,3.41-3.66,7.29-7,14.68-7,8.32,0,11,3.37,13.61,6.64l.27.33C1059.89,623.54,1059.7,624.6,1059.51,625.7Zm10.81-23c4.91,0,7.67,8.06,9.8,15.54-2.14-3-4.9-5.33-9.8-5.33-3.26,0-5.39,1.69-7,4.22C1064.94,609.33,1067.08,602.67,1070.32,602.67Zm11,20.74c-2.43,1.9-5,3.83-11,3.83a9.75,9.75,0,0,1-8.26-3.76c.17-1,.35-1.94.54-2.9,1.74-4,3.89-7.09,7.72-7.09,5.71,0,8.31,3.9,10.68,7.87.19.65.37,1.29.54,1.91l-.19.13Zm14.45,17.3h-.16c-3.63,0-7.77-7-10.62-14.2,2.59,2.63,6.33,5.38,10.64,5.38h.26a10.73,10.73,0,0,0,8.4-4.33C1102.27,634.77,1099.61,640.5,1095.81,640.71Zm9.27-15.92c-2.14,3.63-4.88,6.38-9.2,6.49h-.21c-4.9,0-9.21-4.29-11.54-7.14-.16-.44-.31-.88-.45-1.31a24.56,24.56,0,0,1,12-3.5h.23a14.31,14.31,0,0,1,9.7,3.34C1105.43,623.39,1105.26,624.09,1105.08,624.79Zm4.79-11.8c2.3-11.2,5.17-25.14,10.22-25.14,4.4,0,7.68,14.8,10.33,28.12-2.66-5.75-5.53-10-10.33-10-5.69,0-8.39,4.66-10.86,10.11C1109.44,615.05,1109.66,614,1109.87,613Zm21.84,10.65c-3.18,3.51-6.19,6.82-11.62,6.82-5.69,0-8.18-2.63-10.82-5.42-.54-.57-1.09-1.15-1.67-1.71.19-.77.37-1.56.56-2.37.39-.86.78-1.74,1.16-2.61,2.55-5.8,5.18-11.8,10.77-11.8,5.15,0,8.29,7,11.26,14.08.18,1,.37,1.88.56,2.8Z" transform="translate(-151.56 -415.32)"></path><path class="cls-1" d="M1212.75,653.65a26.49,26.49,0,0,1-10.53,8.46,32.33,32.33,0,0,1-13,2.57,36.31,36.31,0,0,1-13.25-2.35,29.43,29.43,0,0,1-17-16.67,35,35,0,0,1,0-25.52,29.76,29.76,0,0,1,17-16.66,35.5,35.5,0,0,1,13.25-2.4,32.77,32.77,0,0,1,12,2.18,23.73,23.73,0,0,1,9.78,7.31l-4.82,3.85a17.29,17.29,0,0,0-7.55-6.24,23.72,23.72,0,0,0-9.42-2,28.75,28.75,0,0,0-11.11,2,24.36,24.36,0,0,0-13.79,14.11,30.5,30.5,0,0,0,0,21,24.38,24.38,0,0,0,13.79,14.1,28.75,28.75,0,0,0,11.11,2,23.15,23.15,0,0,0,5-.56,22.79,22.79,0,0,0,5-1.71,23.71,23.71,0,0,0,4.68-2.9,18.93,18.93,0,0,0,3.93-4.23Z" transform="translate(-151.56 -415.32)"></path><path class="cls-1" d="M1219.45,632.88a32.89,32.89,0,0,1,2.41-12.74,30.21,30.21,0,0,1,6.69-10,30.51,30.51,0,0,1,10.31-6.62,37.83,37.83,0,0,1,26.52,0,29.7,29.7,0,0,1,17,16.66,35,35,0,0,1,0,25.52,29.38,29.38,0,0,1-17,16.67,38.59,38.59,0,0,1-26.52,0,29.38,29.38,0,0,1-17-16.67A33.17,33.17,0,0,1,1219.45,632.88Zm5.89,0a29.07,29.07,0,0,0,1.87,10.52A24.38,24.38,0,0,0,1241,657.5a31.16,31.16,0,0,0,22.23,0A24.3,24.3,0,0,0,1277,643.4a30.35,30.35,0,0,0,0-21,24.28,24.28,0,0,0-13.79-14.11,31.16,31.16,0,0,0-22.23,0,24.36,24.36,0,0,0-13.79,14.11A29,29,0,0,0,1225.34,632.88Z" transform="translate(-151.56 -415.32)"></path><path class="cls-1" d="M1298,602.62h7.59l38.47,53h.18v-53h5.89v60.52h-7.58l-38.48-53h-.18v53H1298Z" transform="translate(-151.56 -415.32)"></path><path class="cls-1" d="M1369.15,651.94a14.77,14.77,0,0,0,6,5.73,18.46,18.46,0,0,0,8.44,1.88,17.22,17.22,0,0,0,5.53-.86,14.18,14.18,0,0,0,4.51-2.39,11.3,11.3,0,0,0,3-3.72,10.66,10.66,0,0,0,1.11-4.91,9.12,9.12,0,0,0-1.38-5.21,10.82,10.82,0,0,0-3.71-3.38,27.82,27.82,0,0,0-5.22-2.27c-1.93-.62-3.93-1.25-6-1.88s-4-1.34-6-2.13a20,20,0,0,1-5.22-3.13,14.05,14.05,0,0,1-3.71-4.82,16.7,16.7,0,0,1-1.38-7.19,15,15,0,0,1,1.65-7.13,15.41,15.41,0,0,1,4.47-5.22,20.22,20.22,0,0,1,6.47-3.16,27.33,27.33,0,0,1,7.67-1.07,26,26,0,0,1,9.6,1.75,18.06,18.06,0,0,1,7.63,5.86l-5.08,3.51a14.74,14.74,0,0,0-5.23-4.5,15.79,15.79,0,0,0-7.1-1.49,19.8,19.8,0,0,0-5.44.73,13.74,13.74,0,0,0-4.51,2.13,10.87,10.87,0,0,0-3.08,3.55,10.48,10.48,0,0,0-1.16,5c0,3,.81,5.35,2.41,7a17,17,0,0,0,6,3.85,67.78,67.78,0,0,0,7.85,2.48,39.31,39.31,0,0,1,7.86,2.86,16.69,16.69,0,0,1,6,5q2.42,3.21,2.42,8.85a15.88,15.88,0,0,1-1.61,7.27,16.29,16.29,0,0,1-4.33,5.34,19.11,19.11,0,0,1-6.3,3.29,24.8,24.8,0,0,1-7.4,1.11,31,31,0,0,1-11.52-2.09,21,21,0,0,1-9-7.06Z" transform="translate(-151.56 -415.32)"></path><path class="cls-1" d="M1462,640a36.9,36.9,0,0,1-1.16,9.32,21,21,0,0,1-3.89,7.87,19.3,19.3,0,0,1-7.14,5.47,29.71,29.71,0,0,1-21.69,0,19.3,19.3,0,0,1-7.14-5.47,21,21,0,0,1-3.89-7.87,36.9,36.9,0,0,1-1.16-9.32V602.62h5.9v35.9a41,41,0,0,0,.62,6.93,20.44,20.44,0,0,0,2.45,6.84,14.93,14.93,0,0,0,5.18,5.21,20.28,20.28,0,0,0,17.77,0,14.93,14.93,0,0,0,5.18-5.21,20.66,20.66,0,0,0,2.45-6.84,42.11,42.11,0,0,0,.62-6.93v-35.9h5.9Z" transform="translate(-151.56 -415.32)"></path><path class="cls-1" d="M1478.14,602.62H1484V658h29.46v5.13h-35.35Z" transform="translate(-151.56 -415.32)"></path><path class="cls-1" d="M1528.58,607.75H1507v-5.13h49.09v5.13h-21.6v55.39h-5.89Z" transform="translate(-151.56 -415.32)"></path><path class="cls-1" d="M1561.69,632.88a32.9,32.9,0,0,1,2.42-12.74,29.7,29.7,0,0,1,17-16.66,37.8,37.8,0,0,1,26.51,0,29.76,29.76,0,0,1,17,16.66,35,35,0,0,1,0,25.52,29.43,29.43,0,0,1-17,16.67,38.56,38.56,0,0,1-26.51,0,29.38,29.38,0,0,1-17-16.67A33.17,33.17,0,0,1,1561.69,632.88Zm5.9,0a29.07,29.07,0,0,0,1.87,10.52,24.38,24.38,0,0,0,13.79,14.1,31.16,31.16,0,0,0,22.23,0,24.3,24.3,0,0,0,13.79-14.1,30.35,30.35,0,0,0,0-21,24.28,24.28,0,0,0-13.79-14.11,31.16,31.16,0,0,0-22.23,0,24.36,24.36,0,0,0-13.79,14.11A29,29,0,0,0,1567.59,632.88Z" transform="translate(-151.56 -415.32)"></path><path class="cls-1" d="M1640.26,602.62h16.6q1.25,0,3.39.09a34.18,34.18,0,0,1,4.64.51,28.78,28.78,0,0,1,5.09,1.37,14,14,0,0,1,8,7.26,15,15,0,0,1,1.34,6.67,14.71,14.71,0,0,1-1.56,7.18,13.94,13.94,0,0,1-3.93,4.57,16.61,16.61,0,0,1-5.22,2.61,35.15,35.15,0,0,1-5.45,1.2l18.39,29.06h-6.69l-17.77-28.72h-11v28.72h-5.88Zm5.88,26.67h12.5a21.5,21.5,0,0,0,7.55-1.11,12.6,12.6,0,0,0,4.51-2.74,8.61,8.61,0,0,0,2.18-3.5,10.37,10.37,0,0,0,0-6.84,8.61,8.61,0,0,0-2.18-3.5,12.6,12.6,0,0,0-4.51-2.74,21.5,21.5,0,0,0-7.55-1.11h-12.5Z" transform="translate(-151.56 -415.32)"></path><path class="cls-1" d="M1700.24,586.55h7.14l-12,12.31H1691Zm-7,16.07h5.89v60.52h-5.89Z" transform="translate(-151.56 -415.32)"></path><path class="cls-1" d="M1735.77,602.62h6.07l26.6,60.52h-6.61L1755,647.07h-33.48l-7.14,16.07h-6.16Zm2.76,6.15-14.73,33.17h29Z" transform="translate(-151.56 -415.32)"></path><path class="cls-3" d="M343.49,501.07l-1.36-3a83.85,83.85,0,0,0-146.32-.42l-2,3.38" transform="translate(-151.56 -415.32)"></path><path class="cls-3" d="M194.4,576.84l.47,1.45a83.85,83.85,0,0,0,148.72-1.45" transform="translate(-151.56 -415.32)"></path><path class="cls-3" d="M362.9,576.84a101.45,101.45,0,0,1-188.09,0" transform="translate(-151.56 -415.32)"></path><path class="cls-3" d="M363,501.07l-1.24-3a101.45,101.45,0,0,0-185.77,0l-1.35,3" transform="translate(-151.56 -415.32)"></path><path class="cls-3" d="M383.27,576.84a120.57,120.57,0,0,1-228.83,0" transform="translate(-151.56 -415.32)"></path><path class="cls-3" d="M383.29,501.07l-1.16-3.49a120.57,120.57,0,0,0-226.74.53l-1,3" transform="translate(-151.56 -415.32)"></path><circle class="cls-4" cx="117.56" cy="56.87" r="6.53"></circle><circle class="cls-4" cx="117.56" cy="189.75" r="6.53"></circle><path class="cls-4" d="M327.06,555.47a118.07,118.07,0,0,1-3.47-14.14c-.47-2.49-1-5-1.32-7.57-3.27-16.57-5.53-25.9-10.75-25.9-5.59,0-7.61,8.44-10.43,22.23-.5,2.45-1,5-1.62,7.57a13.17,13.17,0,0,0-8.34-2.6h-.22a21.52,21.52,0,0,0-10.2,2.8c-.12-.41-.23-.82-.34-1.23-2.31-8.34-4.49-16.21-10.66-16.21-4.62,0-6.51,6.29-8.47,16.84-2.12-2.63-4.76-5.41-11.89-5.41-6.26,0-9.77,2.7-12.57,5.59q-.18-.95-.36-1.86c-3.47-17.71-5.7-27.72-11.11-27.72-5.59,0-7.61,8.44-10.43,22.23-.5,2.45-1,5-1.62,7.57l-.11-.08-.18.75.12.09c-.15.6-.29,1.2-.45,1.8l-.12.2a28.13,28.13,0,0,1-1.66,5.76c-1.15,3.16-2.49,5.65-4.13,6.81-.13.5-.25,1-.38,1.5,3.91-1.17,6.18-6.51,8.22-14.67l.82.86c2.25,2.39,4.58,4.86,9.92,4.86,4.86,0,7.5-2.64,10.16-5.56,3.63,18,6.89,29.56,13.88,29.56,8.13,0,10.4-13.16,12.8-27.08q.21-1.2.42-2.43a9.06,9.06,0,0,0,7.14,2.78c5.18,0,7.62-1.59,9.62-3.13,1.91,5.48,6,15.07,11.61,15.07h.27c4.76-.26,7.31-5.86,9.57-14.92l.81.86c2.26,2.39,4.59,4.86,9.93,4.86,4.86,0,7.5-2.64,10.15-5.56,2.94,14.52,5.62,24.83,10.21,28.28A92.83,92.83,0,0,1,327.06,555.47ZM216.69,530.21c1.94-9.5,4.36-21.31,8.62-21.31,3.72,0,6.48,12.54,8.72,23.84-2.25-4.88-4.67-8.51-8.72-8.51-4.8,0-7.08,4-9.16,8.57C216.33,532,216.51,531.09,216.69,530.21Zm18.42,9c-2.68,3-5.22,5.78-9.8,5.78-4.8,0-6.9-2.23-9.13-4.59-.45-.49-.92-1-1.41-1.45.16-.66.32-1.33.47-2,.34-.73.66-1.48,1-2.22,2.14-4.91,4.37-10,9.08-10,4.34,0,7,6,9.5,11.94.16.8.31,1.59.47,2.37Zm14.24,29.26c-5.24,0-8.59-12-11.2-24.33,2.59,5,5.85,9,11.2,9,5.74,0,8.52-3.6,10.51-8C257.92,556.18,255.33,568.5,249.35,568.5ZM260.58,541c-2.16,5.84-4.52,11.66-11.23,11.66-5.84,0-9.2-5.84-11.93-12-.15-.77-.31-1.53-.46-2.29,2.88-3.1,6.15-6,12.39-6,7,0,9.28,2.86,11.48,5.63l.23.28Q260.82,539.6,260.58,541Zm9.13-19.52c4.14,0,6.46,6.83,8.26,13.17-1.81-2.51-4.14-4.51-8.26-4.51-2.76,0-4.56,1.43-5.94,3.58C265.16,527.11,267,521.46,269.71,521.46ZM279,539.09a13,13,0,0,1-9.25,3.2,8.2,8.2,0,0,1-7-3.19q.21-1.23.45-2.46c1.47-3.4,3.28-6,6.52-6,4.54,0,6.75,2.94,8.67,6.1.15.52.38,1.26.67,2.14l-.21.16ZM291,553.71h-.13c-3.06,0-6.55-6-9-12,2.18,2.23,5.34,4.57,9,4.57h.22a9,9,0,0,0,7.08-3.67C296.48,548.67,294.24,553.53,291,553.71Zm7.82-13.49c-1.8,3.07-4.11,5.4-7.75,5.49h-.18c-4.14,0-7.77-3.64-9.74-6.06l-.21-.61h.08c-.06-.18-.11-.36-.16-.54a20.64,20.64,0,0,1,10-2.92h.19a12,12,0,0,1,8.18,2.84C299.15,539,299,539.62,298.85,540.22Zm4-10c1.94-9.5,4.36-21.31,8.62-21.31,3.72,0,6.48,12.54,8.72,23.84-2.25-4.88-4.67-8.51-8.72-8.51-4.8,0-7.08,4-9.16,8.57C302.54,532,302.72,531.09,302.9,530.21Zm18.42,9c-2.68,3-5.22,5.78-9.8,5.78-4.8,0-6.9-2.23-9.13-4.59-.46-.49-.92-1-1.41-1.45.16-.66.32-1.33.47-2,.34-.73.66-1.48,1-2.22,2.15-4.91,4.38-10,9.09-10,4.34,0,7,6,9.5,11.94.16.8.31,1.59.47,2.37Z" transform="translate(-151.56 -415.32)"></path></svg>