<?xml version="1.0" encoding="utf-8"?>
<!-- Generator: Adobe Illustrator 27.1.0, SVG Export Plug-In . SVG Version: 6.00 Build 0)  -->
<svg version="1.1" id="Capa_1" xmlns="http://www.w3.org/2000/svg" xmlns:xlink="http://www.w3.org/1999/xlink" x="0px" y="0px"
	 viewBox="0 0 1080 163.09" style="enable-background:new 0 0 1080 163.09;" xml:space="preserve">
<style type="text/css">
	.st0{fill:none;stroke:#924392;stroke-width:6;stroke-miterlimit:10;}
	.st1{fill:#9BC558;}
	.st2{fill:#FFFFFF;}
	.st3{fill:#FFFFFF;stroke:#FFFFFF;stroke-width:9;stroke-miterlimit:10;}
	.st4{fill:#FFFFFF;stroke:#FFFFFF;stroke-miterlimit:10;}
</style>
<symbol  id="Nuevo_símbolo_4" viewBox="-902.33 -133.67 1801.8 254.32">
	<g>
		<path class="st0" d="M-710.4,31.83l-1.36,2.96c-14.32,25.7-41.77,43.08-73.27,43.08c-31.34,0-58.66-17.2-73.04-42.66l-2.01-3.38"
			/>
		<path class="st0" d="M-859.48-43.94l0.47-1.45c14.11-26.41,41.95-44.38,73.98-44.38c32.62,0,60.89,18.63,74.74,45.83"/>
		<path class="st0" d="M-690.99-43.94c-15.03-37.18-51.48-63.41-94.04-63.41c-42.57,0-79.01,26.23-94.04,63.41"/>
		<path class="st0" d="M-690.91,31.83l-1.24,2.96c-15.69,35.72-51.37,60.66-92.88,60.66c-41.51,0-77.2-24.94-92.88-60.66l-1.35-2.96
			"/>
		<path class="st0" d="M-670.62-43.94c-15.91-47.95-61.13-82.54-114.42-82.54c-53.29,0-98.5,34.59-114.42,82.54"/>
		<path class="st0" d="M-670.59,31.83l-1.16,3.49c-16.85,46.24-61.21,79.26-113.28,79.26c-52.27,0-96.76-33.27-113.47-79.79
			l-0.98-2.96"/>
	</g>
	<g>
		<g>
			<circle class="st1" cx="-784.77" cy="60.7" r="6.53"/>
			<circle class="st1" cx="-784.77" cy="-72.18" r="6.53"/>
		</g>
		<path class="st1" d="M-726.82-22.58c-1.5,4.64-2.56,9.36-3.47,14.15c-0.48,2.49-1.05,5.03-1.32,7.57
			c-3.27,16.57-5.53,25.9-10.75,25.9c-5.59,0-7.61-8.45-10.43-22.23c-0.5-2.45-1.03-5.04-1.62-7.57c-1.9,1.45-4.37,2.55-8.35,2.6
			c-0.07,0-0.14,0-0.21,0c-4.39,0-8.09-1.62-10.2-2.8c-0.12,0.41-0.23,0.83-0.34,1.23c-2.31,8.34-4.49,16.21-10.66,16.21
			c-4.61,0-6.51-6.29-8.46-16.84c-2.12,2.64-4.77,5.41-11.9,5.41c-6.26,0-9.76-2.69-12.56-5.58c-0.12,0.62-0.24,1.24-0.36,1.86
			c-3.47,17.71-5.7,27.72-11.11,27.72c-5.59,0-7.61-8.45-10.43-22.23c-0.5-2.45-1.03-5.04-1.62-7.57c-0.04,0.03-0.08,0.05-0.12,0.08
			c-0.06-0.25-0.11-0.51-0.17-0.76c0.04-0.03,0.08-0.06,0.11-0.09c-0.14-0.6-0.29-1.2-0.44-1.8c-0.04-0.07-0.09-0.13-0.13-0.2
			c-0.38-1.8-0.83-3.94-1.66-5.76c-1.14-3.16-2.49-5.65-4.13-6.82c-0.13-0.5-0.25-1-0.38-1.5c3.91,1.18,6.18,6.51,8.22,14.68
			c0.28-0.28,0.55-0.57,0.82-0.86c2.25-2.39,4.58-4.86,9.92-4.86c4.86,0,7.5,2.64,10.16,5.56c3.64-18.01,6.89-29.55,13.88-29.55
			c8.13,0,10.4,13.15,12.8,27.08c0.14,0.79,0.28,1.61,0.42,2.42c1.55-1.58,3.53-2.78,7.14-2.78c5.18,0,7.62,1.59,9.62,3.13
			c1.91-5.48,6.04-15.07,11.61-15.07c0.09,0,0.18,0,0.27,0.01c4.77,0.26,7.31,5.86,9.57,14.93c0.28-0.28,0.55-0.57,0.82-0.86
			c2.26-2.39,4.58-4.86,9.92-4.86c4.86,0,7.5,2.64,10.16,5.56c2.93-14.51,5.62-24.83,10.21-28.28
			C-724.04-31.29-725.45-26.83-726.82-22.58z M-837.2,2.69c1.94,9.5,4.36,21.31,8.62,21.31c3.72,0,6.48-12.54,8.72-23.84
			c-2.25,4.88-4.67,8.51-8.72,8.51c-4.8,0-7.08-3.96-9.16-8.57C-837.56,0.94-837.38,1.8-837.2,2.69z M-818.77-6.35
			c-2.69-2.97-5.22-5.78-9.8-5.78c-4.8,0-6.9,2.23-9.13,4.59c-0.46,0.49-0.92,0.98-1.41,1.45c0.16,0.65,0.31,1.32,0.47,2.01
			c0.33,0.73,0.66,1.47,0.98,2.21c2.15,4.92,4.37,10,9.08,10c4.34,0,6.99-5.96,9.5-11.94c0.16-0.8,0.32-1.59,0.47-2.37
			C-818.66-6.22-818.72-6.29-818.77-6.35z M-804.54-35.6c-5.24,0-8.59,11.98-11.2,24.32c2.59-5.04,5.85-8.99,11.2-8.99
			c5.74,0,8.52,3.61,10.51,8.03C-795.97-23.28-798.56-35.6-804.54-35.6z M-793.31-8.09c-2.15-5.83-4.52-11.66-11.23-11.66
			c-5.84,0-9.2,5.84-11.93,12.01c-0.15,0.77-0.31,1.53-0.46,2.29c2.87,3.1,6.14,5.96,12.38,5.96c7.01,0,9.29-2.86,11.48-5.63
			c0.08-0.1,0.15-0.19,0.23-0.28C-792.99-6.26-793.15-7.16-793.31-8.09z M-784.18,11.44c4.14,0,6.46-6.83,8.26-13.17
			c-1.81,2.51-4.14,4.52-8.26,4.52c-2.75,0-4.55-1.44-5.93-3.58C-788.73,5.79-786.92,11.44-784.18,11.44z M-774.93-6.19
			c-2.04-1.59-4.21-3.2-9.25-3.2c-3.63,0-5.4,1.38-6.97,3.19c0.15,0.82,0.3,1.64,0.45,2.46c1.47,3.4,3.28,6,6.52,6
			c4.54,0,6.75-2.95,8.67-6.11c0.15-0.51,0.38-1.25,0.68-2.14c-0.11-0.08-0.19-0.14-0.22-0.15L-774.93-6.19z M-762.86-20.81
			c-0.04,0-0.09,0-0.13,0c-3.06,0-6.55,5.97-8.96,12.04c2.18-2.23,5.34-4.56,8.98-4.56c0.07,0,0.15,0,0.22,0
			c3.15,0.08,5.36,1.54,7.08,3.67C-757.4-15.78-759.64-20.64-762.86-20.81z M-755.03-7.32c-1.81-3.08-4.11-5.4-7.76-5.5
			c-0.06,0-0.12,0-0.18,0c-4.13,0-7.77,3.63-9.74,6.06c-0.07,0.2-0.14,0.41-0.21,0.61c0.03,0,0.05,0,0.08,0
			c-0.05,0.18-0.1,0.36-0.15,0.54c1.9,1.11,5.66,2.92,10.03,2.92c0.06,0,0.13,0,0.19,0c3.96-0.05,6.33-1.27,8.19-2.84
			C-754.74-6.13-754.88-6.73-755.03-7.32z M-750.99,2.69c1.94,9.5,4.36,21.31,8.62,21.31c3.72,0,6.48-12.54,8.72-23.84
			c-2.25,4.88-4.67,8.51-8.72,8.51c-4.8,0-7.08-3.96-9.16-8.57C-751.35,0.94-751.17,1.8-750.99,2.69z M-732.56-6.35
			c-2.69-2.97-5.22-5.78-9.8-5.78c-4.8,0-6.9,2.23-9.13,4.59c-0.46,0.49-0.92,0.98-1.41,1.45c0.16,0.65,0.31,1.32,0.47,2.01
			c0.33,0.73,0.66,1.47,0.98,2.21c2.15,4.92,4.37,10,9.08,10c4.34,0,6.99-5.96,9.5-11.94c0.16-0.8,0.32-1.59,0.47-2.37
			C-732.45-6.22-732.51-6.29-732.56-6.35z"/>
	</g>
	<path class="st2" d="M-557.05,26.75v-50.28h-22.24c-2.76,0-5,2.24-5,5v126.01c0,4.74,3.58,8.58,8,8.58h79.71c2.76,0,5-2.24,5-5
		V91.67h-57.46c-4.42,0-8-3.84-8-8.58V59.93h51.44l-5.36-24.6h-38.08C-553.47,35.33-557.05,31.49-557.05,26.75z"/>
	<path class="st2" d="M-381.61-23.53c-4.42,0-8,3.84-8,8.58v27.37c2.23,27.04-32.16,16.8-49.39,18.71v-46.08
		c0-4.74-3.58-8.58-8-8.58h-18.46v131.01c0,4.74,3.58,8.58,8,8.58h58.05c39.82,3.27,55.66-57.53,20.58-72.74
		c11.56-3.99,15.88-10.93,15.88-27.33v-39.52H-381.61z M-439,83.3V54.67h34.1c26.95-1.73,26.84,38.39,0.98,37.21
		c0,0-27.08,0-27.08,0C-435.42,91.88-439,88.04-439,83.3z"/>
	<path class="st2" d="M-333.36-14.95v122.43c0,4.74,3.58,8.58,8,8.58h82.65c2.76,0,5-2.24,5-5V91.67h-61.19
		c-12.43,0.18-6.84-22.7-8-29.85h57.91l-5.36-24.6h-52.54V9.85c0-4.74,3.58-8.58,8-8.58h64.32v-19.81c0-2.76-2.24-5-5-5h-85.78
		C-329.78-23.53-333.36-19.69-333.36-14.95z"/>
	<path class="st2" d="M13.72,116.06h19.83C28.02,68.91,57.94-31.8-19.96-28.37c-31.56,0-51.35,15.98-51.35,49.61v94.81
		c7.66-1.13,27.78,4.5,27.64-8.58c0,0,0-83.5,0-83.5c0-17.24,8.62-28.17,23.32-28.17c17.44,0,26.07,8.83,26.07,27.12v84.55
		C5.72,112.22,9.3,116.06,13.72,116.06z"/>
	<path class="st2" d="M266.4-23.53l-55.66,93.76v-85.18c0.25-12.49-17.98-7.73-25.28-8.58v131.01c0,4.74,3.58,8.58,8,8.58h20.81
		l51.74-89.77v81.19c-0.26,12.54,18.17,7.71,25.48,8.58V-14.95C291.73-27.4,273.69-22.7,266.4-23.53z"/>
	<path class="st2" d="M62.36-14.95v122.43c0,4.74,3.58,8.58,8,8.58h82.65c2.76,0,5-2.24,5-5V91.67H96.82
		c-12.43,0.18-6.84-22.7-8-29.85h57.91l-5.36-24.6H88.82V9.85c0-4.74,3.58-8.58,8-8.58h64.32v-19.81c0-2.76-2.24-5-5-5H70.36
		C65.95-23.53,62.36-19.69,62.36-14.95z"/>
	<path class="st2" d="M429.41,24.5c-11.83-78.6-121.28-66.56-116.23,20.18c-7.65,86.97,106.13,104.27,116.23,25.65l-21.49,0
		c-2.92,0-5.36,2.97-7.36,5.24c-24.97,38.25-61.65,17.68-59.74-29.21c-3.08-48.68,39.06-67.84,59.84-27.52
		c1.75,2.72,4.43,5.66,7.52,5.66C408.18,24.5,429.41,24.5,429.41,24.5z"/>
	<g>
		<path class="st3" d="M-192.03,100.13c21.53,21.25,61.09,21.25,82.63,0c25.45-22.17,25.57-73.77,2.43-98.63
			c10.86-12.93,16.93-12.49,0.81-25.04l-13.77,15.17C-192.7-43.83-241.51,48.28-192.03,100.13z M-131.28,3.78l-14.28,16.41
			c-5.1,5.68,5.44,10.79,8.61,13.93l17.82-19.73c14.15,16.17,12.93,62.43-4.05,75.87c-15.7,15.18-39.4,15.18-55.08,0
			c-18.37-14.94-18.37-65.48,0-80.42C-166.16-2.47-144.51-5.38-131.28,3.78z"/>
	</g>
	<path class="st2" d="M564.87-15.17v133.74c9.25-0.69,28.62,4.02,28.54-10.97c0,0,0-96.4,0-96.4c0-6.06,4.63-10.97,10.34-10.97
		h46.88c13.18,0.02,10.09-17.77,10.34-26.37h-85.77C569.5-26.15,564.87-21.23,564.87-15.17z"/>
	<path class="st2" d="M873.09-26.15l-26.08,49.69l-27.52-49.69h-14.47c-8.15,0-13.1,9.54-8.73,16.85l30.6,51.2
		c2.13,3.56,2.14,8.11,0.04,11.69l-28.36,48.19c-4.3,7.31,0.65,16.79,8.77,16.79h15.03l24.64-46.86l24.85,46.86h14.28
		c8.15,0,13.09-9.54,8.74-16.84l-27.95-46.84c-2.13-3.57-2.14-8.11-0.03-11.69l30.99-52.54c4.31-7.31-0.64-16.8-8.76-16.8H873.09z"
		/>
	<path class="st2" d="M675.22-15.16v122.43c0,4.74,3.58,8.58,8,8.58h82.65c2.76,0,5-2.24,5-5V91.47h-61.19
		c-12.43,0.18-6.84-22.7-8-29.85h57.91l-5.36-24.6h-52.54V9.65c0-4.74,3.58-8.58,8-8.58H774v-19.81c0-2.76-2.24-5-5-5h-85.78
		C678.8-23.74,675.22-19.9,675.22-15.16z"/>
	<path class="st2" d="M-524.41-78.54c-15.16,7.8-32.33-6.29-31.57-22.44c-0.74-16.06,16.31-30.17,31.48-22.53
		c3.98,2.63,9.14,4.3,12.66-0.14c-19.11-21.75-53.44-5.35-52.22,22.57c-1.27,27.43,33.26,43.93,52.14,22.85
		C-515.25-82.81-520.49-81.28-524.41-78.54z"/>
	<path class="st2" d="M-373.08-72.63c33.68-21.32,6.14-77.23-30.9-56.52C-437.56-107.58-410.34-52.09-373.08-72.63z M-399.74-79.48
		c-24.83-15.29-4.82-58.57,22.49-42.72C-352.87-106.67-372.24-63.79-399.74-79.48z"/>
	<path class="st2" d="M-223.87-69.65c4.37,0,7.91-3.89,7.91-8.68v-55.29c-3.76-0.15-8.21-0.23-10.46,3.54
		c-0.81-0.38-30.02,48.02-30.94,43.66c0,0,0-47.2,0-47.2c-4.41-0.04-8,3.87-8,8.7c0,0,0,55.27,0,55.27
		c3.76,0.14,8.21,0.23,10.46-3.53c0,0,29.9-44.43,29.9-44.43C-222.22-120.33-224.64-69.61-223.87-69.65z"/>
	<path class="st2" d="M-91.92-78.38c-9.12,4.34-24.82-1.04-17.37-12.16c9.6-9.06,31.28-7.05,30.32-25.09
		c-0.48-22.82-32.73-22.21-44.47-8.13c5.44,9.89,15.33-3.51,23.07-1.73c8.93-0.89,16.27,7.4,10.74,14.9
		c-7.16,7.63-21.88,6.21-27.86,15.44c-12.47,24.41,21.04,33.8,37.35,20.38C-82.25-79.89-87.59-80.63-91.92-78.38z"/>
	<path class="st2" d="M26.44-120.74c5.39-6.61,19.05-6.68,24.44,0c11.36,9.19-4.51,51.01,12.41,51.68
		c-1.66-21.29,9.08-65.22-24.57-64.61c-33.8-0.67-23.1,43.27-24.74,64.61C30.91-69.69,15.01-111.62,26.44-120.74z"/>
	<path class="st2" d="M156.98-69.7c4.41,0.04,8-3.87,8-8.7c0.97-1.15-2.26-48.97,1.86-47.32c6.77-0.83,23.91,3.73,23.63-7.95h-25.55
		c-4.38,0-7.93,3.9-7.93,8.7V-69.7z"/>
	<path class="st2" d="M284.76-69.7h45.56c0.08-10.41-12.26-7.78-18.82-8.04v-47.23c0-4.83-3.59-8.74-8-8.7v55.93
		C296.93-77.5,284.7-80.09,284.76-69.7z"/>
	<path class="st2" d="M469.56-72.63c33.68-21.32,6.14-77.23-30.9-56.52C405.09-107.58,432.31-52.09,469.56-72.63z M442.91-79.48
		c-24.83-15.29-4.82-58.57,22.49-42.72C489.77-106.67,470.4-63.79,442.91-79.48z"/>
	<path class="st2" d="M607.24-128.02l-7.41,14.39c-1.33-0.12,0.83,0,0,0h-14.83c-0.05-6.5,1.81-20.12-8-19.92v55.27
		c0,4.81,3.55,8.7,7.93,8.7c9.39-0.14,25.7,1.53,32-5.62c11.05-10.62,6.78-33.56-9.33-37.4l11.71-20.95
		C614.14-134.03,609.95-133.28,607.24-128.02z M599.83-105.68c14.17-1.74,20.36,15.77,11.49,24.63c-4.44,4.77-16.9,3.32-23.33,3.52
		c-1.65,0-2.99-1.47-2.99-3.28v-24.87H599.83z"/>
	<path class="st2" d="M722-51.24c6.12-3.73,2.32-9.75-2.33-12.8C712.34-61.85,719.62-54.49,722-51.24z M716.39-69.7
		c4.41,0.04,8-3.87,8-8.7c0,0,0-55.27,0-55.27c-4.41-0.04-8,3.87-8,8.7C716.39-124.97,716.39-69.7,716.39-69.7z"/>
	<path class="st2" d="M866.36-128.26l-4.09,10.31h-30.73c-3.17-7.19-4.08-17.2-14.49-15.54c34.79,85.42,25.42,85.04,60.05,0
		C872.79-133.89,868.07-133.01,866.36-128.26z M834.7-110h24.49C844.62-73.81,849.09-73.74,834.7-110z"/>
	<g>
		<path class="st4" d="M444.75,116.06H464c38.88-74.21,17.92-73.11,57.09,0c4.76-0.87,24.77,3.49,20.69-7.01
			c0,0-39.04-73.7-39.04-73.7v-54.2c0.13-7.92-16.03-4.03-20.49-4.9c-2.76,0-5,2.24-5,5v54.1l-37.43,73.77
			C438.18,112.37,440.8,116.06,444.75,116.06z"/>
	</g>
</symbol>
<use xlink:href="#Nuevo_símbolo_4"  width="1801.8" height="254.32" id="XMLID_00000131364405886492595840000005713307751954161289_" x="-902.33" y="-133.67" transform="matrix(0.5924 0 0 -0.5924 540.8441 77.6879)" style="overflow:visible;"/>
</svg>
