<?xml version="1.0" encoding="utf-8"?>
<!-- Generator: Adobe Illustrator 25.4.1, SVG Export Plug-In . SVG Version: 6.00 Build 0)  -->
<svg version="1.1" id="Capa_1" xmlns="http://www.w3.org/2000/svg" xmlns:xlink="http://www.w3.org/1999/xlink" x="0px" y="0px"
	 viewBox="0 0 200 112" style="enable-background:new 0 0 200 112;" xml:space="preserve">
<style type="text/css">
	.st0{clip-path:url(#SVGID_00000072261535661060881780000012531875010157481634_);}
	.st1{clip-path:url(#SVGID_00000164515300375347193380000014304643875929992845_);}
	.st2{fill:url(#SVGID_00000079482801159459949360000016568376831819374769_);}
	.st3{clip-path:url(#SVGID_00000164515300375347193380000014304643875929992845_);fill:#74B634;}
	.st4{fill:url(#SVGID_00000134963742886596528240000017162025611833633689_);}
	.st5{fill:url(#SVGID_00000136388084186939386970000016234873795506021291_);}
	
		.st6{clip-path:url(#SVGID_00000164515300375347193380000014304643875929992845_);fill:#FFFFFF;stroke:#FFFFFF;stroke-miterlimit:10;}
	
		.st7{clip-path:url(#SVGID_00000164515300375347193380000014304643875929992845_);fill:none;stroke:#FFFFFF;stroke-width:2;stroke-linecap:round;stroke-linejoin:round;stroke-miterlimit:10;}
	.st8{clip-path:url(#SVGID_00000164515300375347193380000014304643875929992845_);fill:#A9CC73;}
	
		.st9{clip-path:url(#SVGID_00000164515300375347193380000014304643875929992845_);fill:url(#SVGID_00000134228948410571058410000014386969787857208451_);}
	
		.st10{clip-path:url(#SVGID_00000164515300375347193380000014304643875929992845_);fill:url(#SVGID_00000114785829071151478240000001315199430907909030_);}
	
		.st11{clip-path:url(#SVGID_00000164515300375347193380000014304643875929992845_);fill:none;stroke:#37556B;stroke-width:0.75;stroke-linecap:round;stroke-linejoin:round;stroke-miterlimit:10;}
	.st12{clip-path:url(#SVGID_00000164515300375347193380000014304643875929992845_);fill:#FFFFFF;}
	.st13{fill:url(#SVGID_00000106828284044551728500000005090277760729386644_);}
	.st14{fill:url(#SVGID_00000143617443165182531550000011615732246267313819_);}
	.st15{fill:url(#SVGID_00000126291951284645880630000008971283843991740811_);}
	
		.st16{clip-path:url(#SVGID_00000164515300375347193380000014304643875929992845_);fill:url(#SVGID_00000045607010154668774400000005087807444831202718_);stroke:url(#SVGID_00000157999375965356108360000004768065367178201001_);stroke-miterlimit:10;}
	
		.st17{clip-path:url(#SVGID_00000164515300375347193380000014304643875929992845_);fill:url(#SVGID_00000023260051741738099650000012735528386654123904_);stroke:url(#SVGID_00000132770990944547466930000002134944331483712667_);stroke-miterlimit:10;}
	.st18{fill:url(#SVGID_00000072960685574656968420000005539144567914464660_);}
	.st19{fill:none;stroke:#8F4090;stroke-linecap:round;stroke-linejoin:round;stroke-miterlimit:10;}
	.st20{fill:#74B634;}
	.st21{clip-path:url(#SVGID_00000155140180744380631710000000583606319685537200_);}
	
		.st22{fill:url(#SVGID_00000039826711490128833870000009529952687520188288_);stroke:url(#SVGID_00000001629447375378876660000012137415548115101573_);stroke-miterlimit:10;}
	
		.st23{fill:url(#SVGID_00000115490565532897367890000003872654829234130101_);stroke:url(#SVGID_00000183234935005500381160000016856057687239885985_);stroke-miterlimit:10;}
	
		.st24{fill:url(#SVGID_00000116237556981304154070000006967776615276331419_);stroke:url(#SVGID_00000035529137118232381130000004589236685958437294_);stroke-miterlimit:10;}
	.st25{clip-path:url(#SVGID_00000145762860424081506050000014317759943317731976_);}
	
		.st26{fill:url(#SVGID_00000055666555347822789610000003208430298062478998_);stroke:url(#SVGID_00000018944863865632003730000014515816181437473698_);stroke-miterlimit:10;}
	
		.st27{fill:url(#SVGID_00000045605896545020068780000010100026923538398393_);stroke:url(#SVGID_00000127026911048010945770000000974966295914829190_);stroke-miterlimit:10;}
	
		.st28{fill:url(#SVGID_00000140706216509552114230000006518687674470532245_);stroke:url(#SVGID_00000111909321901020666500000015958427279210220192_);stroke-miterlimit:10;}
	.st29{clip-path:url(#SVGID_00000102522837684678511930000015401171107824998051_);}
	
		.st30{fill:url(#SVGID_00000083805288720706478960000018004372040793663108_);stroke:url(#SVGID_00000026130233343308079220000014980794345419928762_);stroke-miterlimit:10;}
	
		.st31{fill:url(#SVGID_00000150783795109123081150000015293961170023831941_);stroke:url(#SVGID_00000049213642084450965670000012645917774671755951_);stroke-miterlimit:10;}
	
		.st32{fill:url(#SVGID_00000086678684285588989900000006323382696763238066_);stroke:url(#SVGID_00000041254130816927930360000000772663933188712370_);stroke-miterlimit:10;}
	.st33{clip-path:url(#SVGID_00000177444593072692639140000008338988604682255028_);}
	
		.st34{fill:url(#SVGID_00000122001744025898402010000017767621503420814513_);stroke:url(#SVGID_00000060734890039864268160000005576686068211843463_);stroke-miterlimit:10;}
	
		.st35{fill:url(#SVGID_00000002372285544439673680000011451914193612901538_);stroke:url(#SVGID_00000124868651793051733590000013677750731880772270_);stroke-miterlimit:10;}
	
		.st36{fill:url(#SVGID_00000070091022565643218030000016780212235638737813_);stroke:url(#SVGID_00000176007837631530929570000012308931641442865820_);stroke-miterlimit:10;}
	.st37{clip-path:url(#SVGID_00000164515300375347193380000014304643875929992845_);fill:#37556B;}
	
		.st38{clip-path:url(#SVGID_00000164515300375347193380000014304643875929992845_);fill:none;stroke:#37556B;stroke-linecap:round;stroke-linejoin:round;stroke-miterlimit:10;}
	
		.st39{clip-path:url(#SVGID_00000164515300375347193380000014304643875929992845_);fill:url(#SVGID_00000052070434944660907180000016628449836600696231_);}
	
		.st40{clip-path:url(#SVGID_00000164515300375347193380000014304643875929992845_);fill:url(#SVGID_00000182510981132713992240000013701678811952265611_);}
</style>
<symbol  id="Nuevo_símbolo" viewBox="-86.5 -69.49 173 138.97">
	<g>
		<defs>
			
				<rect id="SVGID_1_" x="-26.82" y="-12.01" transform="matrix(6.123234e-17 -1 1 6.123234e-17 -33.303 42.6716)" width="63" height="100"/>
		</defs>
		<clipPath id="SVGID_00000084514374665752971370000012759661728140189578_">
			<use xlink:href="#SVGID_1_"  style="overflow:visible;"/>
		</clipPath>
		<g style="clip-path:url(#SVGID_00000084514374665752971370000012759661728140189578_);">
			<defs>
				<rect id="SVGID_00000158726943306281216310000016416456374642956439_" x="-86.5" y="5.87" width="173" height="63.61"/>
			</defs>
			<clipPath id="SVGID_00000168831196227802107460000015750677164679653760_">
				<use xlink:href="#SVGID_00000158726943306281216310000016416456374642956439_"  style="overflow:visible;"/>
			</clipPath>
			<g style="clip-path:url(#SVGID_00000168831196227802107460000015750677164679653760_);">
				
					<linearGradient id="SVGID_00000106141803847935378130000011567812318234350777_" gradientUnits="userSpaceOnUse" x1="200.298" y1="-481.7409" x2="216.0936" y2="-476.2235" gradientTransform="matrix(0.9996 -0.028 0.028 0.9996 -163.7317 470.7899)">
					<stop  offset="0" style="stop-color:#B3B3B2"/>
					<stop  offset="1" style="stop-color:#F1F1F1"/>
				</linearGradient>
				<path style="fill:url(#SVGID_00000106141803847935378130000011567812318234350777_);" d="M26.33,9.83c0,0,16.45-21.9,17.74-36.9
					c0,0,1.8-8.96-11.68-11.16l-1,13.45c0,0-0.55,8.8-4.72,18.88c0,0-2.94,8.79-5.9,12.83L26.33,9.83z"/>
			</g>
			<polygon style="clip-path:url(#SVGID_00000168831196227802107460000015750677164679653760_);fill:#74B634;" points="27.99,-8.85 
				36.49,-5.82 33.72,-1.01 25.84,-3.11 			"/>
			<polygon style="clip-path:url(#SVGID_00000168831196227802107460000015750677164679653760_);fill:#74B634;" points="
				31.19,-21.56 31.75,-27.22 43.62,-23.12 42.04,-17.82 31.11,-20.92 			"/>
			<path style="clip-path:url(#SVGID_00000168831196227802107460000015750677164679653760_);fill:#74B634;" d="M38.27-24.97
				c0,0,1.62-8.03,1.25-10.95l-1.58-0.81c0,0-0.07,6.97-1.44,11.14L38.27-24.97z"/>
			<path style="clip-path:url(#SVGID_00000168831196227802107460000015750677164679653760_);fill:#74B634;" d="M31.75-27.22
				l1.33,0.46c0,0,1.36-6.86,0.6-11.27l-1.11-0.2L31.75-27.22z"/>
			<g style="clip-path:url(#SVGID_00000168831196227802107460000015750677164679653760_);">
				
					<linearGradient id="SVGID_00000124872925068730817510000009910370576688716189_" gradientUnits="userSpaceOnUse" x1="25495.8418" y1="-16.6216" x2="25513" y2="-7.3668" gradientTransform="matrix(-0.6273 -0.0119 -0.019 0.9998 15975.1084 303.8797)">
					<stop  offset="0" style="stop-color:#B3B3B2"/>
					<stop  offset="1" style="stop-color:#F1F1F1"/>
				</linearGradient>
				<path style="fill:url(#SVGID_00000124872925068730817510000009910370576688716189_);" d="M-16.38,9.22
					c0,0-16.63-21.75-18.05-36.74c0,0-1.88-8.94,11.57-11.26l1.12,13.44c0,0,0.63,8.79,4.88,18.84c0,0,3.02,8.76,6,12.78
					L-16.38,9.22z"/>
			</g>
			<polygon style="clip-path:url(#SVGID_00000168831196227802107460000015750677164679653760_);fill:#74B634;" points="
				-18.02,-9.44 -26.48,-6.33 -23.67,-1.55 -15.82,-3.72 			"/>
			<polygon style="clip-path:url(#SVGID_00000168831196227802107460000015750677164679653760_);fill:#74B634;" points="
				-21.33,-22.13 -21.94,-27.77 -33.76,-23.57 -32.13,-18.29 -21.25,-21.48 			"/>
			<path style="clip-path:url(#SVGID_00000168831196227802107460000015750677164679653760_);fill:#74B634;" d="M-28.43-25.47
				c0,0-1.69-8.02-1.35-10.93l1.57-0.82c0,0,0.13,6.97,1.54,11.13L-28.43-25.47z"/>
			<path style="clip-path:url(#SVGID_00000168831196227802107460000015750677164679653760_);fill:#74B634;" d="M-21.94-27.77
				l-1.32,0.47c0,0-1.42-6.85-0.7-11.26l1.11-0.21L-21.94-27.77z"/>
			<g style="clip-path:url(#SVGID_00000168831196227802107460000015750677164679653760_);">
				
					<linearGradient id="SVGID_00000081639567677842134850000008227322299651935158_" gradientUnits="userSpaceOnUse" x1="179.5365" y1="-425.8846" x2="179.5365" y2="-473.5955" gradientTransform="matrix(0.9996 -0.028 0.028 0.9996 -163.7317 470.7899)">
					<stop  offset="0" style="stop-color:#F1F1F1"/>
					<stop  offset="1" style="stop-color:#B3B3B2"/>
				</linearGradient>
				<path style="fill:url(#SVGID_00000081639567677842134850000008227322299651935158_);" d="M11.11,5.14L-5.47,5.6
					C-19.74,6-30.99,17.9-30.59,32.18l0,0c0.4,14.28,12.3,25.53,26.58,25.13l16.57-0.46c14.28-0.4,25.53-12.3,25.13-26.58l0,0
					C37.28,15.99,25.38,4.74,11.11,5.14z"/>
			</g>
			
				<path style="clip-path:url(#SVGID_00000168831196227802107460000015750677164679653760_);fill:#FFFFFF;stroke:#FFFFFF;stroke-miterlimit:10;" d="
				M6.26,61.34l1.93-4.45L4.31,57l-3.96,0.11l2.31,4.33c0,0,0.7-0.83,1.78-0.86S6.26,61.34,6.26,61.34"/>
			
				<circle style="clip-path:url(#SVGID_00000168831196227802107460000015750677164679653760_);fill:none;stroke:#FFFFFF;stroke-width:2;stroke-linecap:round;stroke-linejoin:round;stroke-miterlimit:10;" cx="4.5" cy="62.92" r="2.34"/>
			<path style="clip-path:url(#SVGID_00000168831196227802107460000015750677164679653760_);fill:#A9CC73;" d="M-23.96,48.75
				l-3.82,0.66c0,0-7.99-8.61-4.56-27.46l3.59-0.1c0,0-2.96,6.84-1.23,15.22C-29.99,37.07-28.94,42.93-23.96,48.75z"/>
			<path style="clip-path:url(#SVGID_00000168831196227802107460000015750677164679653760_);fill:#74B634;" d="M-29.23,47.37
				c0,0-5.47-8.03-3.56-22.6l-2.54,0.07c0,0-4.39,13.02,3.53,22.88L-29.23,47.37z"/>
			<path style="clip-path:url(#SVGID_00000168831196227802107460000015750677164679653760_);fill:#A9CC73;" d="M-35.53,26.55
				l-2.19,0.06c0,0-3.76,11.43,3.04,20.1l2.21-0.3C-32.46,46.4-38.68,38.89-35.53,26.55z"/>
			<path style="clip-path:url(#SVGID_00000168831196227802107460000015750677164679653760_);fill:#A9CC73;" d="M31.91,47.14
				l3.86,0.44c0,0,7.52-9.04,3.02-27.67l-3.59,0.1c0,0,3.34,6.66,2.08,15.13C37.28,35.15,36.57,41.06,31.91,47.14z"/>
			<path style="clip-path:url(#SVGID_00000168831196227802107460000015750677164679653760_);fill:#74B634;" d="M37.1,45.47
				c0,0,5.02-8.32,2.29-22.77l2.55-0.07c0,0,5.12,12.75-2.25,23.04L37.1,45.47z"/>
			<path style="clip-path:url(#SVGID_00000168831196227802107460000015750677164679653760_);fill:#A9CC73;" d="M42.24,24.33
				l2.19-0.06c0,0,4.41,11.2-1.92,20.24l-2.23-0.18C40.29,44.33,46.09,36.48,42.24,24.33z"/>
			
				<linearGradient id="SVGID_00000120533422865287746670000006805822373451140999_" gradientUnits="userSpaceOnUse" x1="188.1124" y1="-437.422" x2="203.767" y2="-437.422" gradientTransform="matrix(0.9996 -0.028 0.028 0.9996 -163.7317 470.7899)">
				<stop  offset="0" style="stop-color:#273C4E"/>
				<stop  offset="1" style="stop-color:#8F4090"/>
			</linearGradient>
			
				<path style="clip-path:url(#SVGID_00000168831196227802107460000015750677164679653760_);fill:url(#SVGID_00000120533422865287746670000006805822373451140999_);" d="
				M27.57,28.92c0.68-6.03-2.21-11.31-6.46-11.79c-4.25-0.48-8.25,4.02-8.94,10.04s2.21,11.31,6.46,11.79S26.88,34.95,27.57,28.92z"
				/>
			
				<linearGradient id="SVGID_00000021099059576667979470000013289851343919059386_" gradientUnits="userSpaceOnUse" x1="155.5329" y1="-436.741" x2="171.402" y2="-436.741" gradientTransform="matrix(0.9996 -0.028 0.028 0.9996 -163.7317 470.7899)">
				<stop  offset="0" style="stop-color:#273C4E"/>
				<stop  offset="1" style="stop-color:#8F4090"/>
			</linearGradient>
			
				<path style="clip-path:url(#SVGID_00000168831196227802107460000015750677164679653760_);fill:url(#SVGID_00000021099059576667979470000013289851343919059386_);" d="
				M-20.08,31.54c-1.49-5.88,0.67-11.5,4.81-12.55s8.72,2.87,10.21,8.75s-0.67,11.5-4.81,12.55C-14.03,41.34-18.6,37.42-20.08,31.54
				z"/>
			
				<ellipse transform="matrix(0.9937 -0.1125 0.1125 0.9937 -3.0276 2.4201)" style="clip-path:url(#SVGID_00000168831196227802107460000015750677164679653760_);fill:none;stroke:#37556B;stroke-width:0.75;stroke-linecap:round;stroke-linejoin:round;stroke-miterlimit:10;" cx="19.93" cy="28.04" rx="10" ry="14.18"/>
			
				<ellipse transform="matrix(0.2454 -0.9694 0.9694 0.2454 -38.2234 10.1867)" style="clip-path:url(#SVGID_00000168831196227802107460000015750677164679653760_);fill:none;stroke:#37556B;stroke-width:0.75;stroke-linecap:round;stroke-linejoin:round;stroke-miterlimit:10;" cx="-12.57" cy="29.65" rx="14.18" ry="10"/>
			
				<ellipse transform="matrix(0.8797 -0.4755 0.4755 0.8797 -13.4359 14.8507)" style="clip-path:url(#SVGID_00000168831196227802107460000015750677164679653760_);fill:#FFFFFF;" cx="22.63" cy="33.98" rx="1.84" ry="3.92"/>
			
				<ellipse transform="matrix(0.9712 -0.2381 0.2381 0.9712 -8.4525 -0.7986)" style="clip-path:url(#SVGID_00000168831196227802107460000015750677164679653760_);fill:#FFFFFF;" cx="-7.53" cy="34.59" rx="1.64" ry="3.48"/>
			
				<path style="clip-path:url(#SVGID_00000168831196227802107460000015750677164679653760_);fill:none;stroke:#FFFFFF;stroke-width:2;stroke-linecap:round;stroke-linejoin:round;stroke-miterlimit:10;" d="
				M8.45,66.15c0,0,2.3-3.01-0.15-5.32"/>
			
				<path style="clip-path:url(#SVGID_00000168831196227802107460000015750677164679653760_);fill:none;stroke:#FFFFFF;stroke-width:2;stroke-linecap:round;stroke-linejoin:round;stroke-miterlimit:10;" d="
				M10.64,67.17c0,0,2.26-4.21-0.21-7.49"/>
			
				<path style="clip-path:url(#SVGID_00000168831196227802107460000015750677164679653760_);fill:none;stroke:#FFFFFF;stroke-width:2;stroke-linecap:round;stroke-linejoin:round;stroke-miterlimit:10;" d="
				M0.16,60.98c0,0-2.3,3.01,0.15,5.32"/>
			
				<path style="clip-path:url(#SVGID_00000168831196227802107460000015750677164679653760_);fill:none;stroke:#FFFFFF;stroke-width:2;stroke-linecap:round;stroke-linejoin:round;stroke-miterlimit:10;" d="
				M-2.03,59.97c0,0-2.26,4.21,0.21,7.49"/>
			<g style="clip-path:url(#SVGID_00000168831196227802107460000015750677164679653760_);">
				
					<linearGradient id="SVGID_00000014628135319569717470000007299634559891240855_" gradientUnits="userSpaceOnUse" x1="182.7189" y1="-473.8566" x2="182.7189" y2="-506.298" gradientTransform="matrix(0.9996 -0.028 0.028 0.9996 -163.7317 470.7899)">
					<stop  offset="0" style="stop-color:#F1F1F1"/>
					<stop  offset="1" style="stop-color:#B3B3B2"/>
				</linearGradient>
				<path style="fill:url(#SVGID_00000014628135319569717470000007299634559891240855_);" d="M21.14,6.93
					c2.45-2.77,7.49-17.2,7.49-17.2c5.85-17.88,1.97-24.59,1.97-24.59c-6.55-14.85-26.4-12.82-26.4-12.82s-19.04-0.8-24.61,12.88
					s8.91,41.3,8.91,41.3l0,0.1c0,0,3.4-1,6.28-0.9l9.73-0.27l6.67-0.19c0,0,3.78-0.11,7.42,0.87L21.14,6.93z"/>
			</g>
			<g style="clip-path:url(#SVGID_00000168831196227802107460000015750677164679653760_);">
				
					<linearGradient id="SVGID_00000168814121041514474700000017698497831133874609_" gradientUnits="userSpaceOnUse" x1="153.2534" y1="-513.1506" x2="180.8502" y2="-513.1506" gradientTransform="matrix(0.9996 -0.028 0.028 0.9996 -163.7317 470.7899)">
					<stop  offset="0" style="stop-color:#F1F1F1"/>
					<stop  offset="1" style="stop-color:#B3B3B2"/>
				</linearGradient>
				<path style="fill:url(#SVGID_00000168814121041514474700000017698497831133874609_);" d="M-21.64-25.29l-4.27-31.9
					c0,0-1.63-6.62,6.59-9.38c0,0,11.24-4.28,18.25,1.47c0,0,3.43,2.85,2.71,17.44c0,0-8.76,0.2-15.63,4.91
					C-14-42.75-22.61-38.31-21.64-25.29z"/>
			</g>
			<g style="clip-path:url(#SVGID_00000168831196227802107460000015750677164679653760_);">
				
					<linearGradient id="SVGID_00000109028218169690973730000000474062803061183658_" gradientUnits="userSpaceOnUse" x1="183.2033" y1="-513.0872" x2="210.7757" y2="-513.0872" gradientTransform="matrix(0.9996 -0.028 0.028 0.9996 -163.7317 470.7899)">
					<stop  offset="0" style="stop-color:#B3B3B2"/>
					<stop  offset="1" style="stop-color:#F1F1F1"/>
				</linearGradient>
				<path style="fill:url(#SVGID_00000109028218169690973730000000474062803061183658_);" d="M31.91-26.73l2.34-32.1
					c0,0,1.25-6.71-7.1-9c0,0-11.45-3.65-18.12,2.49c0,0-3.27,3.03-1.72,17.57c0,0,10.37-0.08,17.16,5.17
					C24.47-42.59,32.51-37.74,31.91-26.73z"/>
			</g>
			
				<linearGradient id="SVGID_00000157305991732306989790000016055686996836870061_" gradientUnits="userSpaceOnUse" x1="165.9214" y1="-533.0667" x2="165.9214" y2="-521.7858" gradientTransform="matrix(0.9996 -0.028 0.028 0.9996 -163.7317 470.7899)">
				<stop  offset="0" style="stop-color:#273C4E"/>
				<stop  offset="1" style="stop-color:#8F4090"/>
			</linearGradient>
			
				<linearGradient id="SVGID_00000088849263527584587880000006413156329796881025_" gradientUnits="userSpaceOnUse" x1="151.9501" y1="-527.6171" x2="179.9196" y2="-527.6171" gradientTransform="matrix(0.9996 -0.028 0.028 0.9996 -163.7317 470.7899)">
				<stop  offset="0" style="stop-color:#273C4E"/>
				<stop  offset="1" style="stop-color:#8F4090"/>
			</linearGradient>
			
				<path style="clip-path:url(#SVGID_00000168831196227802107460000015750677164679653760_);fill:url(#SVGID_00000157305991732306989790000016055686996836870061_);stroke:url(#SVGID_00000088849263527584587880000006413156329796881025_);stroke-miterlimit:10;" d="
				M-25.6-54.87l-0.39-2.83c0,0-1.66-7.81,10.57-9.92c0,0,9.8-2.24,14.77,3.04c0,0,1.02,1.5,1.47,3.7
				C0.82-60.88-4.55-52.22-25.6-54.87z"/>
			
				<linearGradient id="SVGID_00000008107948567674546790000017255598554179750077_" gradientUnits="userSpaceOnUse" x1="199.426" y1="-532.848" x2="199.426" y2="-522.037" gradientTransform="matrix(0.9996 -0.028 0.028 0.9996 -163.7317 470.7899)">
				<stop  offset="0" style="stop-color:#273C4E"/>
				<stop  offset="1" style="stop-color:#8F4090"/>
			</linearGradient>
			
				<linearGradient id="SVGID_00000073001471706258859750000009882265382443101106_" gradientUnits="userSpaceOnUse" x1="185.4734" y1="-527.6578" x2="213.3517" y2="-527.6578" gradientTransform="matrix(0.9996 -0.028 0.028 0.9996 -163.7317 470.7899)">
				<stop  offset="0" style="stop-color:#273C4E"/>
				<stop  offset="1" style="stop-color:#8F4090"/>
			</linearGradient>
			
				<path style="clip-path:url(#SVGID_00000168831196227802107460000015750677164679653760_);fill:url(#SVGID_00000008107948567674546790000017255598554179750077_);stroke:url(#SVGID_00000073001471706258859750000009882265382443101106_);stroke-miterlimit:10;" d="
				M34.05-56.58l0.23-2.85c0,0,1.22-7.89-11.08-9.31c0,0-9.88-1.69-14.53,3.86c0,0-0.93,1.56-1.25,3.78
				C7.42-61.11,13.25-52.76,34.05-56.58z"/>
			<g style="clip-path:url(#SVGID_00000168831196227802107460000015750677164679653760_);">
				
					<linearGradient id="SVGID_00000095321386990015270670000015796759846832495548_" gradientUnits="userSpaceOnUse" x1="182.8249" y1="-494.2428" x2="182.8249" y2="-515.0395" gradientTransform="matrix(0.9996 -0.028 0.028 0.9996 -163.7317 470.7899)">
					<stop  offset="0" style="stop-color:#F1F1F1"/>
					<stop  offset="1" style="stop-color:#B3B3B2"/>
				</linearGradient>
				<path style="fill:url(#SVGID_00000095321386990015270670000015796759846832495548_);" d="M-21.45-23.29
					c0,0,22.61-11.32,53.21-1.49l0.29-3.67c0,0,0.43-11.3-11.81-16.62c0,0-5.58-3.1-16.44-2.65c0,0-9.24-0.32-16.78,4.31
					c0,0-8.91,4.14-8.7,16.3L-21.45-23.29z"/>
			</g>
			<g style="clip-path:url(#SVGID_00000168831196227802107460000015750677164679653760_);">
				<g>
					<g>
						<path class="st19" d="M13.2-7.29c-1.43,2.75-4.27,4.66-7.59,4.75C2.31-2.45-0.61-4.18-2.2-6.82"/>
						<path class="st19" d="M-2.59-15.15l0.05-0.15c1.41-2.82,4.29-4.8,7.66-4.89c3.43-0.1,6.47,1.78,8,4.6"/>
						<path class="st19" d="M15.15-15.64c-1.69-3.87-5.61-6.52-10.09-6.4c-4.48,0.13-8.24,2.99-9.71,6.95"/>
						<path class="st19" d="M-4.3-6.8c1.76,3.71,5.59,6.23,9.96,6.11c4.37-0.12,8.05-2.85,9.6-6.66"/>
					</g>
				</g>
				<g>
					<g>
						<path class="st20" d="M10.92-11.64c0.15-0.88,0.3-1.62,0.49-2.16c0.08-0.07,0.17-0.14,0.25-0.2
							c-0.08,0.24-0.15,0.48-0.22,0.71c-0.14,0.49-0.24,0.99-0.32,1.5c-0.04,0.26-0.1,0.53-0.12,0.8c-0.3,1.75-0.51,2.74-1.06,2.76
							C9.36-8.21,9.12-9.1,8.78-10.54c-0.06-0.26-0.12-0.53-0.19-0.79c-0.2,0.16-0.45,0.28-0.87,0.3c-0.01,0-0.01,0-0.02,0
							c-0.46,0.01-0.86-0.15-1.08-0.26c-0.01,0.04-0.02,0.09-0.03,0.13c-0.22,0.88-0.42,1.72-1.07,1.74
							c-0.49,0.01-0.7-0.64-0.94-1.75c-0.22,0.28-0.49,0.58-1.24,0.6c-0.66,0.02-1.04-0.25-1.34-0.55c-0.01,0.07-0.02,0.13-0.03,0.2
							C1.65-9.05,1.44-7.99,0.87-7.98c-0.59,0.02-0.83-0.87-1.16-2.31c-0.06-0.26-0.12-0.53-0.19-0.79c0,0-0.01,0.01-0.01,0.01
							c-0.01-0.03-0.01-0.05-0.02-0.08c0,0,0.01-0.01,0.01-0.01c-0.02-0.06-0.03-0.13-0.05-0.19c0-0.01-0.01-0.01-0.01-0.02
							c-0.04-0.19-0.1-0.41-0.19-0.6c-0.13-0.33-0.28-0.59-0.46-0.71c-0.01-0.05-0.03-0.1-0.04-0.16c0.42,0.11,0.67,0.67,0.91,1.52
							c0.03-0.03,0.06-0.06,0.08-0.09c0.23-0.26,0.47-0.53,1.03-0.54c0.51-0.01,0.8,0.26,1.09,0.56c0.33-1.91,0.64-3.13,1.37-3.15
							c0.86-0.02,1.13,1.35,1.43,2.81c0.02,0.08,0.03,0.17,0.05,0.25c0.16-0.17,0.36-0.3,0.74-0.31c0.55-0.02,0.81,0.14,1.02,0.3
							c0.18-0.58,0.59-1.6,1.18-1.62c0.01,0,0.02,0,0.03,0c0.5,0.01,0.79,0.6,1.05,1.54c0.03-0.03,0.06-0.06,0.08-0.09
							c0.23-0.26,0.47-0.53,1.03-0.54C10.35-12.21,10.63-11.94,10.92-11.64z M-0.1-10.3c0.23,0.99,0.52,2.23,0.97,2.22
							c0.39-0.01,0.65-1.34,0.85-2.54C1.49-10.1,1.25-9.71,0.82-9.7c-0.51,0.01-0.76-0.4-0.99-0.88C-0.15-10.49-0.12-10.4-0.1-10.3z
							 M1.81-11.31c-0.29-0.31-0.57-0.59-1.05-0.58c-0.51,0.01-0.72,0.26-0.95,0.51c-0.05,0.05-0.09,0.11-0.14,0.16
							c0.02,0.07,0.04,0.14,0.06,0.21c0.04,0.08,0.07,0.15,0.11,0.23c0.24,0.51,0.49,1.04,0.99,1.03c0.46-0.01,0.72-0.65,0.96-1.29
							c0.01-0.08,0.03-0.17,0.04-0.25C1.82-11.3,1.82-11.3,1.81-11.31z M3.22-14.43c-0.55,0.02-0.87,1.29-1.11,2.59
							c0.26-0.54,0.59-0.96,1.15-0.98c0.6-0.02,0.91,0.35,1.13,0.81C4.16-13.16,3.85-14.45,3.22-14.43z M4.49-11.57
							c-0.24-0.61-0.51-1.21-1.22-1.19c-0.62,0.02-0.95,0.64-1.22,1.3c-0.01,0.08-0.03,0.16-0.04,0.24
							c0.31,0.32,0.66,0.61,1.32,0.59c0.74-0.02,0.97-0.33,1.19-0.63c0.01-0.01,0.02-0.02,0.02-0.03
							C4.53-11.38,4.51-11.47,4.49-11.57z M5.5-9.54c0.44-0.01,0.66-0.74,0.83-1.41c-0.18,0.27-0.42,0.49-0.86,0.5
							C5.19-10.44,5-10.59,4.84-10.81C5.01-10.12,5.22-9.53,5.5-9.54z M6.43-11.42c-0.22-0.16-0.45-0.32-0.98-0.31
							c-0.38,0.01-0.56,0.16-0.72,0.36c0.02,0.09,0.04,0.17,0.05,0.26c0.17,0.35,0.36,0.62,0.7,0.61c0.48-0.01,0.7-0.33,0.9-0.67
							c0.01-0.05,0.04-0.13,0.06-0.23c-0.01-0.01-0.02-0.01-0.02-0.02L6.43-11.42z M7.65-13c0,0-0.01,0-0.01,0
							c-0.32,0.01-0.67,0.65-0.91,1.29c0.22-0.24,0.55-0.5,0.93-0.51c0.01,0,0.02,0,0.02,0c0.33,0,0.57,0.15,0.76,0.37
							C8.24-12.48,7.99-12.99,7.65-13z M8.52-11.6c-0.2-0.32-0.45-0.56-0.83-0.56c-0.01,0-0.01,0-0.02,0
							c-0.44,0.01-0.81,0.41-1.01,0.67c-0.01,0.02-0.01,0.04-0.02,0.06c0,0,0.01,0,0.01,0c0,0.02-0.01,0.04-0.01,0.06
							c0.2,0.11,0.6,0.29,1.06,0.28c0.01,0,0.01,0,0.02,0c0.42-0.02,0.66-0.15,0.85-0.32C8.55-11.48,8.54-11.54,8.52-11.6z
							 M8.97-10.56C9.21-9.56,9.5-8.33,9.94-8.34c0.39-0.01,0.65-1.34,0.85-2.54c-0.22,0.52-0.47,0.91-0.89,0.92
							c-0.51,0.01-0.76-0.4-0.99-0.88C8.93-10.74,8.95-10.65,8.97-10.56z M8.89-11.63c-0.05,0.05-0.09,0.11-0.14,0.16
							c0.02,0.07,0.04,0.14,0.06,0.21c0.04,0.08,0.07,0.15,0.11,0.23C9.15-10.52,9.4-10,9.9-10.01c0.46-0.01,0.72-0.65,0.96-1.29
							c0.01-0.08,0.03-0.17,0.04-0.25c-0.01-0.01-0.01-0.01-0.02-0.02c-0.29-0.31-0.57-0.59-1.05-0.58
							C9.33-12.13,9.12-11.89,8.89-11.63z"/>
					</g>
				</g>
			</g>
			<g style="clip-path:url(#SVGID_00000168831196227802107460000015750677164679653760_);">
				<defs>
					<polygon id="SVGID_00000101065343982390975530000009983329590557547140_" points="27.95,-8.56 36.45,-5.53 33.68,-0.72 
						25.8,-2.82 					"/>
				</defs>
				<clipPath id="SVGID_00000165914275271681595380000000930413434237603506_">
					<use xlink:href="#SVGID_00000101065343982390975530000009983329590557547140_"  style="overflow:visible;"/>
				</clipPath>
				<g style="clip-path:url(#SVGID_00000165914275271681595380000000930413434237603506_);">
					
						<linearGradient id="SVGID_00000143618913758301181310000007166708937110949545_" gradientUnits="userSpaceOnUse" x1="835.9667" y1="-246.0689" x2="844.0744" y2="-246.0689" gradientTransform="matrix(1.1076 7.134372e-03 0.0666 1.0122 -882.5043 236.6395)">
						<stop  offset="0" style="stop-color:#8F4090"/>
						<stop  offset="1" style="stop-color:#74B634"/>
					</linearGradient>
					
						<linearGradient id="SVGID_00000058583003282240637480000007770372797314414240_" gradientUnits="userSpaceOnUse" x1="832.0797" y1="-246.1105" x2="851.4559" y2="-246.1105" gradientTransform="matrix(1.1076 7.134372e-03 0.0666 1.0122 -882.5043 236.6395)">
						<stop  offset="0" style="stop-color:#8F4090"/>
						<stop  offset="1" style="stop-color:#74B634"/>
					</linearGradient>
					
						<path style="fill:url(#SVGID_00000143618913758301181310000007166708937110949545_);stroke:url(#SVGID_00000058583003282240637480000007770372797314414240_);stroke-miterlimit:10;" d="
						M29.88-6.19c0.16-0.21,0.31-0.39,0.46-0.5C30.2-6.56,30.04-6.39,29.88-6.19z"/>
					
						<linearGradient id="SVGID_00000096776972579241232740000017176083405292830388_" gradientUnits="userSpaceOnUse" x1="835.9664" y1="-244.4506" x2="844.0751" y2="-244.4506" gradientTransform="matrix(1.1076 7.134372e-03 0.0666 1.0122 -882.5043 236.6395)">
						<stop  offset="0" style="stop-color:#8F4090"/>
						<stop  offset="1" style="stop-color:#74B634"/>
					</linearGradient>
					
						<linearGradient id="SVGID_00000179638119479816180490000016862716694324466050_" gradientUnits="userSpaceOnUse" x1="835.4664" y1="-244.6633" x2="846.3091" y2="-244.6633" gradientTransform="matrix(1.1076 7.134372e-03 0.0666 1.0122 -882.5043 236.6395)">
						<stop  offset="0" style="stop-color:#8F4090"/>
						<stop  offset="1" style="stop-color:#74B634"/>
					</linearGradient>
					
						<path style="fill:url(#SVGID_00000096776972579241232740000017176083405292830388_);stroke:url(#SVGID_00000179638119479816180490000016862716694324466050_);stroke-miterlimit:10;" d="
						M27.49-2.94c-0.39-0.12-0.32-0.77-0.18-1.82c0.03-0.19,0.13-1.1,0.12-1.24c0-0.25-0.03-0.46-0.12-0.58
						c0-0.04,0.01-0.08,0.01-0.12c0.23,0.16,0.27,0.57,0.22,1.16c-0.02,0.05-0.09,0.76-0.1,0.81c-0.1,0.73-0.23,1.63,0.07,1.72
						c0.24,0.07,0.69-0.65,1.11-1.36c0.02-0.02,0.67-1.08,1.26-1.81C29.68-5.93,27.87-2.82,27.49-2.94z"/>
					
						<linearGradient id="SVGID_00000024696670440245662730000001689831142054412948_" gradientUnits="userSpaceOnUse" x1="835.9577" y1="-243.644" x2="844.0897" y2="-243.644" gradientTransform="matrix(1.1076 7.134372e-03 0.0666 1.0122 -882.5043 236.6395)">
						<stop  offset="0" style="stop-color:#8F4090"/>
						<stop  offset="1" style="stop-color:#74B634"/>
					</linearGradient>
					
						<linearGradient id="SVGID_00000005232382691188871820000007513612488834129037_" gradientUnits="userSpaceOnUse" x1="833.4608" y1="-243.644" x2="845.5377" y2="-243.644" gradientTransform="matrix(1.1076 7.134372e-03 0.0666 1.0122 -882.5043 236.6395)">
						<stop  offset="0" style="stop-color:#8F4090"/>
						<stop  offset="1" style="stop-color:#74B634"/>
					</linearGradient>
					
						<path style="fill:url(#SVGID_00000024696670440245662730000001689831142054412948_);stroke:url(#SVGID_00000005232382691188871820000007513612488834129037_);stroke-miterlimit:10;" d="
						M35.79-4.18c-0.22,0.3-0.41,0.62-0.59,0.94C35.1-3.07,35-2.9,34.91-2.72c-0.64,1.12-1.03,1.75-1.4,1.63
						c-0.39-0.12-0.32-0.77-0.18-1.82c0.03-0.19,0.05-0.38,0.08-0.58c0,0,0.03-0.39,0.03-0.38c0.03-0.48-0.01-0.88-0.23-0.96
						c0,0-0.01,0-0.01,0C33-4.9,32.32-4.17,32.33-4.18c0,0,0,0,0,0c-0.01,0.01-0.26,0.32-0.27,0.35c-0.37,0.55-0.72,1.07-1.15,0.94
						c-0.32-0.1-0.3-0.59-0.17-1.39c0,0,0.1-0.6,0.11-0.64c0.14-0.83,0.25-1.74-0.16-1.87c-0.1-0.03-0.22,0.01-0.35,0.1
						c0.15-0.13,0.28-0.2,0.37-0.18c0.57,0.17,0.4,1.17,0.22,2.22c-0.01,0.06-0.1,0.69-0.1,0.67c-0.07,0.5-0.08,0.95,0.11,1.01
						c0.29,0.09,0.89-0.76,0.88-0.75c0.03-0.04,0.24-0.35,0.24-0.35c0.27-0.35,0.8-0.96,1.19-0.84c0.01,0,0.01,0,0.02,0.01
						c0.32,0.12,0.36,0.57,0.3,1.26c-0.01,0.03-0.01,0.09-0.01,0.09c-0.01,0.05-0.08,0.6-0.08,0.67c-0.1,0.73-0.23,1.63,0.07,1.72
						c0.25,0.08,0.73-0.7,1.15-1.44c0.02-0.03,0.05-0.09,0.05-0.09c0,0,0.21-0.38,0.24-0.43c0,0,0.65-1.09,0.91-1.41
						c0.07-0.03,0.15-0.06,0.22-0.08C36.01-4.47,35.9-4.33,35.79-4.18z"/>
				</g>
			</g>
			<g style="clip-path:url(#SVGID_00000168831196227802107460000015750677164679653760_);">
				<defs>
					<polygon id="SVGID_00000155828553209525372100000013409554810567429793_" points="31.15,-21.27 31.71,-26.93 43.57,-22.84 
						42,-17.53 31.07,-20.63 					"/>
				</defs>
				<clipPath id="SVGID_00000032616415454524959770000014384965616671613848_">
					<use xlink:href="#SVGID_00000155828553209525372100000013409554810567429793_"  style="overflow:visible;"/>
				</clipPath>
				<g style="clip-path:url(#SVGID_00000032616415454524959770000014384965616671613848_);">
					
						<linearGradient id="SVGID_00000180341793811736673630000001668676456912245646_" gradientUnits="userSpaceOnUse" x1="1660.1559" y1="169.0997" x2="1671.1974" y2="169.0997" gradientTransform="matrix(1.1539 0.0607 0.0201 1.0152 -1888.0619 -297.021)">
						<stop  offset="0" style="stop-color:#8F4090"/>
						<stop  offset="1" style="stop-color:#74B634"/>
					</linearGradient>
					
						<linearGradient id="SVGID_00000077289808407794536700000003156626882079913114_" gradientUnits="userSpaceOnUse" x1="1656.9618" y1="169.0661" x2="1677.2574" y2="169.0661" gradientTransform="matrix(1.1539 0.0607 0.0201 1.0152 -1888.0619 -297.021)">
						<stop  offset="0" style="stop-color:#8F4090"/>
						<stop  offset="1" style="stop-color:#74B634"/>
					</linearGradient>
					
						<path style="fill:url(#SVGID_00000180341793811736673630000001668676456912245646_);stroke:url(#SVGID_00000077289808407794536700000003156626882079913114_);stroke-miterlimit:10;" d="
						M35.08-24.18c0.24-0.21,0.47-0.37,0.68-0.47C35.56-24.53,35.32-24.37,35.08-24.18z"/>
					
						<linearGradient id="SVGID_00000114041511604330004150000014702681118458756248_" gradientUnits="userSpaceOnUse" x1="1660.1532" y1="170.753" x2="1671.2031" y2="170.753" gradientTransform="matrix(1.1539 0.0607 0.0201 1.0152 -1888.0619 -297.021)">
						<stop  offset="0" style="stop-color:#8F4090"/>
						<stop  offset="1" style="stop-color:#74B634"/>
					</linearGradient>
					
						<linearGradient id="SVGID_00000172430205336213551030000017049236161932775828_" gradientUnits="userSpaceOnUse" x1="1659.6532" y1="170.6163" x2="1673.2618" y2="170.6163" gradientTransform="matrix(1.1539 0.0607 0.0201 1.0152 -1888.0619 -297.021)">
						<stop  offset="0" style="stop-color:#8F4090"/>
						<stop  offset="1" style="stop-color:#74B634"/>
					</linearGradient>
					
						<path style="fill:url(#SVGID_00000114041511604330004150000014702681118458756248_);stroke:url(#SVGID_00000172430205336213551030000017049236161932775828_);stroke-miterlimit:10;" d="
						M31.46-21.06c-0.55-0.14-0.42-0.79-0.14-1.83c0.05-0.19,0.25-1.09,0.24-1.24c0.01-0.25-0.02-0.46-0.14-0.59
						c0.01-0.04,0.02-0.08,0.02-0.12c0.33,0.18,0.35,0.58,0.24,1.17c-0.02,0.05-0.17,0.75-0.19,0.8c-0.19,0.72-0.42,1.61,0,1.72
						c0.34,0.09,1.03-0.61,1.67-1.3c0.03-0.02,1.02-1.05,1.91-1.74C34.79-23.93,31.99-20.92,31.46-21.06z"/>
					
						<linearGradient id="SVGID_00000178190161444368357410000002303465891898985611_" gradientUnits="userSpaceOnUse" x1="1660.0841" y1="171.4995" x2="1671.3182" y2="171.4995" gradientTransform="matrix(1.1539 0.0607 0.0201 1.0152 -1888.0619 -297.021)">
						<stop  offset="0" style="stop-color:#8F4090"/>
						<stop  offset="1" style="stop-color:#74B634"/>
					</linearGradient>
					
						<linearGradient id="SVGID_00000116204686951508441810000007031695487911083924_" gradientUnits="userSpaceOnUse" x1="1657.5615" y1="171.4995" x2="1673.0828" y2="171.4995" gradientTransform="matrix(1.1539 0.0607 0.0201 1.0152 -1888.0619 -297.021)">
						<stop  offset="0" style="stop-color:#8F4090"/>
						<stop  offset="1" style="stop-color:#74B634"/>
					</linearGradient>
					
						<path style="fill:url(#SVGID_00000178190161444368357410000002303465891898985611_);stroke:url(#SVGID_00000116204686951508441810000007031695487911083924_);stroke-miterlimit:10;" d="
						M43.44-21.84c-0.33,0.29-0.63,0.6-0.91,0.91c-0.15,0.16-0.3,0.33-0.43,0.5c-0.99,1.09-1.58,1.69-2.1,1.56
						c-0.55-0.14-0.42-0.79-0.14-1.83c0.05-0.19,0.1-0.38,0.14-0.58c-0.01,0,0.07-0.39,0.07-0.38c0.07-0.48,0.04-0.88-0.27-0.97
						c0,0-0.01,0-0.01,0c-0.3-0.08-1.33,0.61-1.31,0.6c0,0,0,0,0,0c-0.01,0-0.39,0.31-0.41,0.33c-0.56,0.53-1.09,1.03-1.7,0.87
						c-0.46-0.12-0.39-0.61-0.16-1.4c0,0,0.18-0.59,0.19-0.63c0.24-0.82,0.46-1.73-0.12-1.88c-0.15-0.04-0.32,0-0.5,0.08
						c0.22-0.12,0.42-0.19,0.54-0.16c0.81,0.21,0.5,1.19,0.18,2.24c-0.02,0.06-0.18,0.69-0.19,0.66c-0.13,0.5-0.17,0.94,0.1,1.01
						c0.41,0.11,1.32-0.71,1.31-0.71c0.04-0.04,0.37-0.34,0.37-0.34c0.41-0.34,1.2-0.91,1.75-0.77c0.01,0,0.02,0,0.03,0.01
						c0.46,0.14,0.49,0.59,0.35,1.27c-0.01,0.03-0.02,0.09-0.02,0.09c-0.01,0.05-0.14,0.6-0.16,0.67c-0.19,0.72-0.42,1.61,0,1.72
						c0.35,0.09,1.08-0.66,1.74-1.37c0.03-0.02,0.08-0.08,0.08-0.09c0,0,0.33-0.36,0.38-0.41c0,0,0.99-1.06,1.39-1.36
						c0.11-0.03,0.21-0.05,0.32-0.07C43.76-22.12,43.6-21.98,43.44-21.84z"/>
				</g>
			</g>
			<g style="clip-path:url(#SVGID_00000168831196227802107460000015750677164679653760_);">
				<defs>
					<polygon id="SVGID_00000052826975814429937610000003452449570452882062_" points="-18.06,-9.15 -26.52,-6.04 -23.71,-1.26 
						-15.86,-3.43 					"/>
				</defs>
				<clipPath id="SVGID_00000016775145904591762210000007339719673744649604_">
					<use xlink:href="#SVGID_00000052826975814429937610000003452449570452882062_"  style="overflow:visible;"/>
				</clipPath>
				<g style="clip-path:url(#SVGID_00000016775145904591762210000007339719673744649604_);">
					
						<linearGradient id="SVGID_00000144325043485932034280000002584905400385902522_" gradientUnits="userSpaceOnUse" x1="21478.9297" y1="-1025.5509" x2="21488.873" y2="-1025.5509" gradientTransform="matrix(-0.8972 0.0634 -2.567506e-03 1.0141 19251.4395 -328.0851)">
						<stop  offset="0" style="stop-color:#8F4090"/>
						<stop  offset="1" style="stop-color:#74B634"/>
					</linearGradient>
					
						<linearGradient id="SVGID_00000011030778780707636810000006516970788760902546_" gradientUnits="userSpaceOnUse" x1="21475.4902" y1="-1025.5875" x2="21495.4004" y2="-1025.5875" gradientTransform="matrix(-0.8972 0.0634 -2.567506e-03 1.0141 19251.4395 -328.0851)">
						<stop  offset="0" style="stop-color:#8F4090"/>
						<stop  offset="1" style="stop-color:#74B634"/>
					</linearGradient>
					
						<path style="fill:url(#SVGID_00000144325043485932034280000002584905400385902522_);stroke:url(#SVGID_00000011030778780707636810000006516970788760902546_);stroke-miterlimit:10;" d="
						M-19.88-6.63C-20.05-6.84-20.22-7-20.37-7.1C-20.22-6.99-20.05-6.82-19.88-6.63z"/>
					
						<linearGradient id="SVGID_00000026853086272086308300000002190003198602761124_" gradientUnits="userSpaceOnUse" x1="21478.9277" y1="-1023.9108" x2="21488.877" y2="-1023.9108" gradientTransform="matrix(-0.8972 0.0634 -2.567506e-03 1.0141 19251.4395 -328.0851)">
						<stop  offset="0" style="stop-color:#8F4090"/>
						<stop  offset="1" style="stop-color:#74B634"/>
					</linearGradient>
					
						<linearGradient id="SVGID_00000053547196406743559590000006296109014456440999_" gradientUnits="userSpaceOnUse" x1="21478.4277" y1="-1024.0697" x2="21490.998" y2="-1024.0697" gradientTransform="matrix(-0.8972 0.0634 -2.567506e-03 1.0141 19251.4395 -328.0851)">
						<stop  offset="0" style="stop-color:#8F4090"/>
						<stop  offset="1" style="stop-color:#74B634"/>
					</linearGradient>
					
						<path style="fill:url(#SVGID_00000026853086272086308300000002190003198602761124_);stroke:url(#SVGID_00000053547196406743559590000006296109014456440999_);stroke-miterlimit:10;" d="
						M-17.31-3.52c0.38-0.14,0.28-0.79,0.07-1.83c-0.04-0.19-0.19-1.09-0.19-1.24c-0.01-0.25,0.01-0.46,0.09-0.59
						c-0.01-0.04-0.01-0.08-0.02-0.12c-0.23,0.18-0.24,0.58-0.15,1.17c0.02,0.05,0.13,0.75,0.14,0.8c0.14,0.72,0.32,1.61,0.02,1.72
						c-0.24,0.09-0.73-0.61-1.19-1.3c-0.02-0.02-0.73-1.04-1.36-1.74C-19.67-6.38-17.68-3.38-17.31-3.52z"/>
					
						<linearGradient id="SVGID_00000080186410462073132980000005327412431898368152_" gradientUnits="userSpaceOnUse" x1="21478.8828" y1="-1023.1417" x2="21488.9531" y2="-1023.1417" gradientTransform="matrix(-0.8972 0.0634 -2.567506e-03 1.0141 19251.4395 -328.0851)">
						<stop  offset="0" style="stop-color:#8F4090"/>
						<stop  offset="1" style="stop-color:#74B634"/>
					</linearGradient>
					
						<linearGradient id="SVGID_00000013881024778214477300000015454920381482354826_" gradientUnits="userSpaceOnUse" x1="21476.3809" y1="-1023.1417" x2="21490.5957" y2="-1023.1417" gradientTransform="matrix(-0.8972 0.0634 -2.567506e-03 1.0141 19251.4395 -328.0851)">
						<stop  offset="0" style="stop-color:#8F4090"/>
						<stop  offset="1" style="stop-color:#74B634"/>
					</linearGradient>
					
						<path style="fill:url(#SVGID_00000080186410462073132980000005327412431898368152_);stroke:url(#SVGID_00000013881024778214477300000015454920381482354826_);stroke-miterlimit:10;" d="
						M-25.69-4.29c0.24,0.29,0.45,0.6,0.65,0.91c0.1,0.16,0.22,0.33,0.31,0.5c0.71,1.08,1.13,1.69,1.49,1.55
						c0.38-0.14,0.28-0.79,0.07-1.83c-0.04-0.19-0.07-0.38-0.11-0.57c0,0-0.05-0.39-0.06-0.38c-0.06-0.47-0.04-0.87,0.17-0.97
						c0,0,0.01,0,0.01,0c0.21-0.08,0.94,0.61,0.92,0.6c0,0,0,0,0,0c0.01,0,0.27,0.3,0.29,0.33c0.4,0.53,0.78,1.03,1.2,0.87
						c0.32-0.12,0.27-0.61,0.09-1.4c0,0-0.14-0.59-0.14-0.63c-0.18-0.82-0.35-1.72,0.06-1.87c0.1-0.04,0.22,0,0.35,0.08
						c-0.16-0.12-0.29-0.19-0.38-0.16c-0.56,0.21-0.33,1.19-0.1,2.23c0.01,0.06,0.14,0.69,0.14,0.66c0.1,0.5,0.13,0.94-0.05,1.01
						c-0.28,0.1-0.93-0.71-0.93-0.7c-0.03-0.04-0.26-0.34-0.26-0.34c-0.29-0.34-0.85-0.91-1.24-0.77c-0.01,0-0.01,0-0.02,0.01
						c-0.32,0.14-0.33,0.59-0.23,1.27c0.01,0.03,0.01,0.09,0.01,0.09c0.01,0.05,0.11,0.6,0.12,0.67c0.14,0.72,0.32,1.61,0.02,1.72
						c-0.25,0.09-0.77-0.66-1.23-1.37c-0.02-0.02-0.05-0.08-0.06-0.09c0,0-0.24-0.36-0.27-0.41c0,0-0.71-1.05-0.99-1.36
						c-0.07-0.03-0.15-0.05-0.22-0.07C-25.92-4.57-25.8-4.43-25.69-4.29z"/>
				</g>
			</g>
			<g style="clip-path:url(#SVGID_00000168831196227802107460000015750677164679653760_);">
				<defs>
					<polygon id="SVGID_00000124858678798521015320000001820233757251323036_" points="-21.37,-21.84 -21.99,-27.49 -33.8,-23.29 
						-32.17,-18 -21.29,-21.19 					"/>
				</defs>
				<clipPath id="SVGID_00000165233324107896051120000008024469065827481221_">
					<use xlink:href="#SVGID_00000124858678798521015320000001820233757251323036_"  style="overflow:visible;"/>
				</clipPath>
				<g style="clip-path:url(#SVGID_00000165233324107896051120000008024469065827481221_);">
					
						<linearGradient id="SVGID_00000032643602092480478660000009925850217949611418_" gradientUnits="userSpaceOnUse" x1="21460.6484" y1="-1646.7292" x2="21474.2988" y2="-1646.7292" gradientTransform="matrix(-0.932 0.1192 0.0353 1.0148 20039.2402 -912.0464)">
						<stop  offset="0" style="stop-color:#8F4090"/>
						<stop  offset="1" style="stop-color:#74B634"/>
					</linearGradient>
					
						<linearGradient id="SVGID_00000138537505084006374710000012336471709086117266_" gradientUnits="userSpaceOnUse" x1="21457.9473" y1="-1646.7563" x2="21479.4297" y2="-1646.7563" gradientTransform="matrix(-0.932 0.1192 0.0353 1.0148 20039.2402 -912.0464)">
						<stop  offset="0" style="stop-color:#8F4090"/>
						<stop  offset="1" style="stop-color:#74B634"/>
					</linearGradient>
					
						<path style="fill:url(#SVGID_00000032643602092480478660000009925850217949611418_);stroke:url(#SVGID_00000138537505084006374710000012336471709086117266_);stroke-miterlimit:10;" d="
						M-25.22-25.04c-0.25-0.19-0.49-0.34-0.71-0.43C-25.72-25.37-25.47-25.22-25.22-25.04z"/>
					
						<linearGradient id="SVGID_00000145764394568597046740000017550122772784868528_" gradientUnits="userSpaceOnUse" x1="21460.6445" y1="-1645.0015" x2="21474.3047" y2="-1645.0015" gradientTransform="matrix(-0.932 0.1192 0.0353 1.0148 20039.2402 -912.0464)">
						<stop  offset="0" style="stop-color:#8F4090"/>
						<stop  offset="1" style="stop-color:#74B634"/>
					</linearGradient>
					
						<linearGradient id="SVGID_00000054227833046481697490000004355077068516956860_" gradientUnits="userSpaceOnUse" x1="21460.1445" y1="-1645.0996" x2="21476.2285" y2="-1645.0996" gradientTransform="matrix(-0.932 0.1192 0.0353 1.0148 20039.2402 -912.0464)">
						<stop  offset="0" style="stop-color:#8F4090"/>
						<stop  offset="1" style="stop-color:#74B634"/>
					</linearGradient>
					
						<path style="fill:url(#SVGID_00000145764394568597046740000017550122772784868528_);stroke:url(#SVGID_00000054227833046481697490000004355077068516956860_);stroke-miterlimit:10;" d="
						M-21.42-22.13c0.55-0.17,0.37-0.81,0.04-1.84c-0.06-0.18-0.32-1.07-0.31-1.22c-0.03-0.25-0.01-0.46,0.1-0.59
						c-0.01-0.04-0.02-0.08-0.03-0.11c-0.32,0.19-0.32,0.6-0.17,1.19c0.03,0.05,0.22,0.74,0.23,0.79c0.23,0.71,0.51,1.59,0.1,1.72
						c-0.34,0.11-1.07-0.55-1.75-1.21c-0.03-0.02-1.08-0.99-2.01-1.63C-24.91-24.81-21.95-21.97-21.42-22.13z"/>
					
						<linearGradient id="SVGID_00000155840157887871968610000011860116349333274274_" gradientUnits="userSpaceOnUse" x1="21460.5664" y1="-1644.3795" x2="21474.4336" y2="-1644.3795" gradientTransform="matrix(-0.932 0.1192 0.0353 1.0148 20039.2402 -912.0464)">
						<stop  offset="0" style="stop-color:#8F4090"/>
						<stop  offset="1" style="stop-color:#74B634"/>
					</linearGradient>
					
						<linearGradient id="SVGID_00000091735239689145625140000000996703224012076723_" gradientUnits="userSpaceOnUse" x1="21457.8281" y1="-1644.3795" x2="21476.5098" y2="-1644.3795" gradientTransform="matrix(-0.932 0.1192 0.0353 1.0148 20039.2402 -912.0464)">
						<stop  offset="0" style="stop-color:#8F4090"/>
						<stop  offset="1" style="stop-color:#74B634"/>
					</linearGradient>
					
						<path style="fill:url(#SVGID_00000155840157887871968610000011860116349333274274_);stroke:url(#SVGID_00000091735239689145625140000000996703224012076723_);stroke-miterlimit:10;" d="
						M-33.45-22.24c0.35,0.27,0.66,0.56,0.96,0.86c0.16,0.16,0.32,0.31,0.46,0.48c1.05,1.03,1.68,1.6,2.19,1.43
						c0.55-0.17,0.37-0.81,0.04-1.84c-0.06-0.18-0.12-0.38-0.17-0.57c0.01,0-0.09-0.39-0.09-0.37c-0.1-0.47-0.09-0.87,0.21-0.98
						c0,0,0.01,0,0.01,0c0.3-0.09,1.36,0.53,1.34,0.53c0,0,0,0,0,0c0.01,0,0.4,0.28,0.43,0.31c0.59,0.5,1.15,0.97,1.75,0.78
						c0.45-0.14,0.36-0.63,0.09-1.41c0,0-0.22-0.58-0.22-0.62c-0.29-0.8-0.56-1.7,0.01-1.88c0.14-0.05,0.32-0.02,0.51,0.05
						c-0.23-0.11-0.43-0.17-0.55-0.13c-0.79,0.25-0.44,1.22-0.06,2.24c0.02,0.06,0.22,0.68,0.23,0.65c0.15,0.49,0.23,0.93-0.04,1.02
						c-0.4,0.13-1.36-0.63-1.35-0.63c-0.04-0.03-0.39-0.32-0.39-0.32c-0.43-0.32-1.25-0.84-1.8-0.67c-0.01,0-0.02,0.01-0.03,0.01
						c-0.45,0.16-0.46,0.62-0.28,1.29c0.01,0.03,0.02,0.09,0.02,0.09c0.01,0.05,0.18,0.59,0.2,0.66c0.23,0.71,0.51,1.59,0.1,1.72
						c-0.35,0.11-1.12-0.6-1.82-1.27c-0.03-0.02-0.08-0.08-0.08-0.08c0,0-0.35-0.34-0.4-0.39c0,0-1.05-1-1.46-1.28
						c-0.11-0.02-0.22-0.04-0.32-0.05C-33.8-22.5-33.62-22.37-33.45-22.24z"/>
				</g>
			</g>
			<path style="clip-path:url(#SVGID_00000168831196227802107460000015750677164679653760_);fill:#37556B;" d="M6.22,61.34
				l1.93-4.45L4.27,57l-3.96,0.11l2.31,4.33c0,0,0.7-0.83,1.78-0.86S6.22,61.34,6.22,61.34"/>
			
				<circle style="clip-path:url(#SVGID_00000168831196227802107460000015750677164679653760_);fill:none;stroke:#37556B;stroke-linecap:round;stroke-linejoin:round;stroke-miterlimit:10;" cx="4.46" cy="62.92" r="2.34"/>
			
				<path style="clip-path:url(#SVGID_00000168831196227802107460000015750677164679653760_);fill:none;stroke:#37556B;stroke-linecap:round;stroke-linejoin:round;stroke-miterlimit:10;" d="
				M8.41,66.15c0,0,2.3-3.01-0.15-5.32"/>
			
				<path style="clip-path:url(#SVGID_00000168831196227802107460000015750677164679653760_);fill:none;stroke:#37556B;stroke-linecap:round;stroke-linejoin:round;stroke-miterlimit:10;" d="
				M10.6,67.17c0,0,2.26-4.21-0.21-7.49"/>
			
				<path style="clip-path:url(#SVGID_00000168831196227802107460000015750677164679653760_);fill:none;stroke:#37556B;stroke-linecap:round;stroke-linejoin:round;stroke-miterlimit:10;" d="
				M0.13,60.98c0,0-2.3,3.01,0.15,5.32"/>
			
				<path style="clip-path:url(#SVGID_00000168831196227802107460000015750677164679653760_);fill:none;stroke:#37556B;stroke-linecap:round;stroke-linejoin:round;stroke-miterlimit:10;" d="
				M-2.06,59.97c0,0-2.26,4.21,0.21,7.49"/>
			
				<linearGradient id="SVGID_00000084523420287971893040000008905183607681664187_" gradientUnits="userSpaceOnUse" x1="132.8697" y1="-100.0289" x2="151.6834" y2="-100.0289" gradientTransform="matrix(1 0 0 1 -104.98 105.6114)">
				<stop  offset="0" style="stop-color:#B3B3B2"/>
				<stop  offset="1" style="stop-color:#F1F1F1"/>
			</linearGradient>
			
				<ellipse style="clip-path:url(#SVGID_00000168831196227802107460000015750677164679653760_);fill:url(#SVGID_00000084523420287971893040000008905183607681664187_);" cx="38.45" cy="5.58" rx="11.19" ry="5.99"/>
			
				<linearGradient id="SVGID_00000129202321624124348480000012391131903170499240_" gradientUnits="userSpaceOnUse" x1="85.9709" y1="-100.0289" x2="65.8962" y2="-100.0289" gradientTransform="matrix(1 0 0 1 -104.98 105.6114)">
				<stop  offset="0" style="stop-color:#B3B3B2"/>
				<stop  offset="1" style="stop-color:#F1F1F1"/>
			</linearGradient>
			
				<ellipse style="clip-path:url(#SVGID_00000168831196227802107460000015750677164679653760_);fill:url(#SVGID_00000129202321624124348480000012391131903170499240_);" cx="-29" cy="5.58" rx="11.19" ry="5.99"/>
			<path style="clip-path:url(#SVGID_00000168831196227802107460000015750677164679653760_);fill:#74B634;" d="M41.8,11.42
				c0,0,2.53-4.26,1.42-8.82l-2.16-0.19c0,0,0.45,6.63-1.16,9.11L41.8,11.42z"/>
			<path style="clip-path:url(#SVGID_00000168831196227802107460000015750677164679653760_);fill:#74B634;" d="M34.59,11.29
				l-2.33-0.72c0,0-0.51-4.64,1.53-7.36l1.6,1.17C35.39,4.38,33.66,8.46,34.59,11.29z"/>
			<path style="clip-path:url(#SVGID_00000168831196227802107460000015750677164679653760_);fill:#74B634;" d="M-25.92,11.41
				c0,0,2.53-4.26,1.42-8.82l-2.16-0.19c0,0,0.45,6.63-1.16,9.11L-25.92,11.41z"/>
			<path style="clip-path:url(#SVGID_00000168831196227802107460000015750677164679653760_);fill:#74B634;" d="M-33.14,11.29
				l-2.33-0.72c0,0-0.51-4.64,1.53-7.36l1.6,1.17C-32.34,4.38-34.07,8.45-33.14,11.29z"/>
		</g>
	</g>
</symbol>
<g>
	
		<use xlink:href="#Nuevo_símbolo"  width="173" height="138.97" id="XMLID_00000008114785547939086550000012593370808454972838_" x="-86.5" y="-69.49" transform="matrix(1.7898 0 0 -1.7898 97.481 123.3658)" style="overflow:visible;"/>
</g>
</svg>
