<?xml version="1.0" encoding="utf-8"?>
<!-- Generator: Adobe Illustrator 27.1.0, SVG Export Plug-In . SVG Version: 6.00 Build 0)  -->
<svg version="1.1" id="Capa_1" xmlns="http://www.w3.org/2000/svg" xmlns:xlink="http://www.w3.org/1999/xlink" x="0px" y="0px"
	 viewBox="0 0 1080 1056.4" style="enable-background:new 0 0 1080 1056.4;" xml:space="preserve">
<style type="text/css">
	.st0{fill:#71b531;}
	.st1{fill:#FAFCFC;}
</style>
<g>
	<g>
		<path class="st0" d="M884.58,129.75c117.75,94.87,193.35,239.93,194.3,402.69c1.66,282.88-225.77,517.33-508.58,523.82
			c-260.64,5.99-479.09-179.54-524.46-425.7c0,0,73.34-211.49,190.85-105.32c0,0,116,110.28,219.83,60.87
			c0,0,74.15-35.92-18.37-207.85c-6.66-12.38-10.37-26.29-9.89-40.34c0.4-11.49,1.09-20.12,12.27-34.89
			c0,0,42.63-49.86,139.78,14.77c0,0,70.82,41.32,108.1,0c0,0,49.86-54.37-0.93-147.56c0,0-37.28-63.83-0.47-97.85
			c0,0,53.18-53.64,169.87,39.81L884.58,129.75z"/>
		<g>
			<g>
				<path class="st0" d="M788.24,63.86c2.31,1.27,23.43,12.55,42.71,22.49c-7.79-8.01-14.6-16.58-20.35-25.11
					c-3.58-2.28-6.16-3.88-6.17-3.85c-2.8-1.54-5.58-3.08-8.32-4.6C716.84,8.94,670.14-14.66,632.16,9.95
					c-39.28,25.45-27.24,63.07-4.33,122.35c4.07,10.54,18.2,55.92,18.5,55.08c6.73,28.51,6.06,55.06-15.96,70.28
					c-0.3,0.21-0.6,0.41-0.9,0.6c-19.02,12.32-124.49-9.15-126.92-9.61c-51.3-9.84-81.77-34.19-125.13-6.09
					c-32.4,20.99-6.2,99.57-5.37,99.54c1.6,3.66,53.39,127.87,11.4,155.08c-36.8,23.84-163.27-38.1-170.14-39.61
					c-3.47-1.88-19.93-10.94-22.67-12.46c-79.27-43.84-125.98-67.44-163.95-42.84c-39.28,25.45-27.24,63.07-4.33,122.35
					c3.16,8.19,19.27,53.89,19.59,58.14c0.05,0.69,0.04,1.4,0,2.11c0.68,3.32,1.28,6.62,1.71,9.86c2.83,12.88,3.82,26.61,3.42,40.87
					c14.4-20.24,12.6-45.43,3.2-76.76c0.06-0.01,0.13-0.01,0.19-0.02c-0.27-0.46-5.21-16.14-5.46-17c-0.09-0.37-2.69-6.77-3.73-9.71
					c-0.51-1.43-1.06-2.95-1.6-4.53c0,0.14-0.02,0.28-0.02,0.42c-1.37-3.66-2.8-7.38-4.26-11.18
					c-15.78-40.84-35.42-91.65-5.5-111.04c26.11-16.92,84.38,12.77,135.14,40.64l17.72,9.77c3.59,1.98,154.82,76.3,203.91,44.5
					c55.96-36.26-2.75-164.73-5.64-174.92c-1.19-4.21-19.64-67.23-0.39-79.71c29.09-18.85,98.57,11.15,108.29,12.02
					c2.66,1.04,104.91,28.85,144.01,3.52c0.62-0.4,1.25-0.82,1.86-1.24c32.65-22.58,33.19-53.02,20.95-93.84
					c0.29-0.03-3.05-9.66-4.08-12.68c0.08-3.99-9.33-25.55-10.8-29.35c-1.47-3.8-29.01-95.81-5.5-111.04
					C661.49-3.47,785.05,63.09,788.24,63.86z"/>
			</g>
			<g>
				<path class="st0" d="M728.48,25.49c-2.78-2.2-5.72-4.97-8.51-8.1c-14.72-0.02-28.61,4.24-43.34,14.54
					c-37.92,26.52-37.86,54.75-34.61,98.61c0.57,7.8,0.33,41.91,0.79,41.19c-1.87,21.77-9.16,43.12-30.66,58.75
					c-0.3,0.22-0.58,0.42-0.87,0.62c-18.36,12.84-97.31,12.16-99.14,12.16c-38.56,0.15-56.75-14.57-98.61,14.7
					c-31.27,21.87-30.31,80.66-29.64,80.52c0.35,2.68,10.18,94-30.36,122.34c-35.52,24.84-120.98-4.95-126.1-5.08
					c-2.3-0.96-13.16-5.64-14.98-6.43c-52.29-22.69-83.66-34.27-120.32-8.63c-37.92,26.52-37.86,54.75-34.61,98.61
					c0.45,6.06,1.7,40.12,0.88,43.47c-0.13,0.54-0.32,1.11-0.53,1.69c-0.3,2.55-0.66,5.1-1.14,7.63c-1.01,9.86-3.72,20.7-7.67,32.18
					c16.68-18.45,21.65-38.34,22.1-61.94c0.05-0.02,0.1-0.03,0.16-0.04c-0.1-0.33-0.06-12.1-0.04-12.76c0.02-0.28-0.43-5-0.51-7.19
					c-0.04-1.07-0.1-2.2-0.12-3.38c-0.04,0.11-0.08,0.22-0.12,0.34c-0.17-2.71-0.36-5.47-0.57-8.28
					c-2.23-30.22-5.02-67.82,23.86-88.02c25.2-17.62,64.29-2.98,97.82,11.38l11.7,5.05c2.37,1.02,104.5,36.85,151.88,3.71
					c54.02-37.78,39.73-131.42,40.02-139.12c0.12-3.19,1.4-50.74,19.98-63.74c28.09-19.64,76.06-6.5,83.62-7.32
					c1.86,0.42,76.63,6.68,114.37-19.71c0.6-0.42,1.21-0.86,1.81-1.29c31.88-23.18,40.06-47.63,40.66-78.39
					c0.24-0.07,0.02-7.26-0.03-9.51c1.08-3.21-0.96-18.99-1.17-21.8c-0.21-2.81,1.17-72.15,23.86-88.02
					c13.3-9.3,42.39-4.24,67.26,2.63C739.47,33.32,733.62,29.54,728.48,25.49z"/>
			</g>
			<path class="st0" d="M810.61,61.24c0,0,88.9,73.95,123.66,114.13l-80.33-47.75c0,0-58.34-63.22-106.05-83.33"/>
			<path class="st0" d="M22.36,524.62c0,0,8.61,72.43,37.27,170.63l18.99-59.65l-29.57-48.1l-22.62-62.88"/>
		</g>
	</g>
	<g>
		<g>
			<path class="st1" d="M619.87,712.46c-54.22,54.24-108.16,108.2-162.15,162.21c-10.19-10.31-19.97-20.19-29.8-30.13
				c53.82-53.65,107.84-107.48,162.15-161.62c-37.35-50.53-48.6-105.32-31.24-164.88c12.56-43.1,38.76-76.66,76.65-100.61
				c75.53-47.75,175.89-32.77,233.12,34.34c59.27,69.5,58.95,169.49-0.23,237.43C808.04,758.47,699.78,773.96,619.87,712.46z
				 M731.62,708.05c77.1-0.15,138.41-61.36,138.29-138.07c-0.12-76.3-61.67-137.5-138.26-137.44
				c-76.35,0.06-137.59,61.52-137.59,138.07C594.08,646.5,655.83,708.2,731.62,708.05z"/>
		</g>
	</g>
</g>
</svg>
