<?xml version="1.0" encoding="utf-8"?>
<!-- Generator: Adobe Illustrator 25.4.1, SVG Export Plug-In . SVG Version: 6.00 Build 0)  -->
<svg version="1.1" id="Capa_1" xmlns="http://www.w3.org/2000/svg" xmlns:xlink="http://www.w3.org/1999/xlink" x="0px" y="0px"
	 viewBox="0 0 1080 1080" style="enable-background:new 0 0 1080 1080;" xml:space="preserve">
<style type="text/css">
	.st0{fill:#FFFFFF;stroke:#FFFFFF;stroke-miterlimit:10;}
	.st1{fill:#FFFFFF;}
	.st2{fill:#263B4E;stroke:#263B4E;stroke-miterlimit:10;}
</style>
<symbol  id="Nuevo_símbolo_4" viewBox="-27.83 -27.29 55.67 54.58">
	<g>
		<path class="st0" d="M17.39,20.65c6.03-4.86,9.9-12.28,9.95-20.61C27.42-14.45,15.78-26.45,1.3-26.78
			c-13.34-0.31-24.52,9.19-26.85,21.79c0,0,3.75,10.83,9.77,5.39c0,0,5.94-5.64,11.25-3.12c0,0,3.8,1.84-0.94,10.64
			C-5.8,8.56-5.99,9.27-5.97,9.99c0.02,0.59,0.06,1.03,0.63,1.79c0,0,2.18,2.55,7.16-0.76c0,0,3.63-2.12,5.53,0
			c0,0,2.55,2.78-0.05,7.55c0,0-1.91,3.27-0.02,5.01c0,0,2.72,2.75,8.7-2.04L17.39,20.65z"/>
		<g>
			<g>
				<path class="st1" d="M12.46,24.02c0.12-0.07,1.2-0.64,2.19-1.15c-0.4,0.41-0.75,0.85-1.04,1.29c-0.18,0.12-0.32,0.2-0.32,0.2
					c-0.14,0.08-0.29,0.16-0.43,0.24c-4.06,2.24-6.45,3.45-8.39,2.19c-2.01-1.3-1.39-3.23-0.22-6.26c0.21-0.54,0.93-2.86,0.95-2.82
					c0.34-1.46,0.31-2.82-0.82-3.6c-0.02-0.01-0.03-0.02-0.05-0.03c-0.97-0.63-6.37,0.47-6.5,0.49c-2.63,0.5-4.19,1.75-6.41,0.31
					c-1.66-1.07-0.32-5.1-0.28-5.1c0.08-0.19,2.73-6.55,0.58-7.94c-1.88-1.22-8.36,1.95-8.71,2.03c-0.18,0.1-1.02,0.56-1.16,0.64
					c-4.06,2.24-6.45,3.45-8.39,2.19c-2.01-1.3-1.39-3.23-0.22-6.26c0.16-0.42,0.99-2.76,1-2.98c0-0.04,0-0.07,0-0.11
					c0.03-0.17,0.07-0.34,0.09-0.5c0.14-0.66,0.2-1.36,0.18-2.09c0.74,1.04,0.64,2.33,0.16,3.93c0,0,0.01,0,0.01,0
					c-0.01,0.02-0.27,0.83-0.28,0.87c0,0.02-0.14,0.35-0.19,0.5c-0.03,0.07-0.05,0.15-0.08,0.23c0-0.01,0-0.01,0-0.02
					c-0.07,0.19-0.14,0.38-0.22,0.57c-0.81,2.09-1.81,4.69-0.28,5.68c1.34,0.87,4.32-0.65,6.92-2.08l0.91-0.5
					c0.18-0.1,7.93-3.91,10.44-2.28c2.86,1.86-0.14,8.43-0.29,8.95c-0.06,0.22-1.01,3.44-0.02,4.08c1.49,0.97,5.05-0.57,5.54-0.62
					c0.14-0.05,5.37-1.48,7.37-0.18c0.03,0.02,0.06,0.04,0.1,0.06c1.67,1.16,1.7,2.71,1.07,4.8c0.02,0-0.16,0.49-0.21,0.65
					c0,0.2-0.48,1.31-0.55,1.5c-0.08,0.19-1.49,4.9-0.28,5.68C5.97,27.47,12.29,24.06,12.46,24.02z"/>
			</g>
			<g>
				<path class="st1" d="M9.4,25.98c-0.14,0.11-0.29,0.25-0.44,0.41c-0.75,0-1.46-0.22-2.22-0.74c-1.94-1.36-1.94-2.8-1.77-5.05
					c0.03-0.4,0.02-2.15,0.04-2.11c-0.1-1.11-0.47-2.21-1.57-3.01c-0.02-0.01-0.03-0.02-0.04-0.03c-0.94-0.66-4.98-0.62-5.07-0.62
					c-1.97-0.01-2.9,0.75-5.05-0.75c-1.6-1.12-1.55-4.13-1.52-4.12C-8.22,9.82-7.72,5.15-9.8,3.7c-1.82-1.27-6.19,0.25-6.45,0.26
					c-0.12,0.05-0.67,0.29-0.77,0.33c-2.68,1.16-4.28,1.75-6.16,0.44c-1.94-1.36-1.94-2.8-1.77-5.05c0.02-0.31,0.09-2.05,0.05-2.23
					c-0.01-0.03-0.02-0.06-0.03-0.09c-0.02-0.13-0.03-0.26-0.06-0.39c-0.05-0.5-0.19-1.06-0.39-1.65c0.85,0.94,1.11,1.96,1.13,3.17
					c0,0,0.01,0,0.01,0c0,0.02,0,0.62,0,0.65c0,0.01-0.02,0.26-0.03,0.37c0,0.05-0.01,0.11-0.01,0.17c0-0.01,0-0.01-0.01-0.02
					c-0.01,0.14-0.02,0.28-0.03,0.42c-0.11,1.55-0.26,3.47,1.22,4.51c1.29,0.9,3.29,0.15,5.01-0.58l0.6-0.26
					c0.12-0.05,5.35-1.89,7.77-0.19c2.77,1.93,2.03,6.73,2.05,7.12c0.01,0.16,0.07,2.6,1.02,3.26c1.44,1.01,3.89,0.33,4.28,0.37
					c0.1-0.02,3.92-0.34,5.85,1.01c0.03,0.02,0.06,0.04,0.09,0.07c1.63,1.19,2.05,2.44,2.08,4.01c0.01,0,0,0.37,0,0.49
					c0.06,0.16-0.05,0.97-0.06,1.12c-0.01,0.14,0.06,3.69,1.22,4.51c0.68,0.48,2.17,0.22,3.44-0.13C9.96,25.58,9.66,25.78,9.4,25.98
					z"/>
			</g>
			<path class="st1" d="M13.6,24.15c0,0,4.55-3.79,6.33-5.84l-4.11,2.44c0,0-2.99,3.24-5.43,4.27"/>
			<path class="st1" d="M-26.75,0.43c0,0,0.44-3.71,1.91-8.73l0.97,3.05l-1.51,2.46l-1.16,3.22"/>
		</g>
	</g>
	<g>
		<g>
			<path class="st2" d="M-4.91-19.75c0,1.69,0,3.37,0,5.08c-1.88,0-3.76,0-5.65,0c0,2.39,0,4.76,0,7.15c-1.4,0.33-2.79,0.66-4.2,1
				c0.06,0.13,0.1,0.22,0.16,0.31c1.18,2.11,2.35,4.21,3.52,6.32c0.05,0.1,0.09,0.22,0.08,0.33c-0.03,0.65-0.09,1.31-0.1,1.96
				c0,0.9,0.1,1.8,0.3,2.72c0.45,0,0.9,0,1.39,0c-0.02,0.29-0.01,0.56-0.06,0.81c-0.02,0.1-0.14,0.2-0.23,0.28
				c-1,0.81-1.67,1.85-1.89,3.12c-0.24,1.4,0.02,2.74,0.94,3.87c0.82,1,1.8,1.79,3.11,2.01c0.45,0.08,0.93,0.08,1.39,0.05
				c0.95-0.07,1.79-0.42,2.54-1.01c1.08-0.85,1.79-1.94,2.02-3.31c0.02-0.15,0.06-0.3,0.13-0.45c0.43,1.48,0.85,2.95,1.29,4.46
				c1.86-0.8,3.7-1.6,5.59-2.41c-0.2-0.12-0.35-0.21-0.52-0.3c-0.32-0.17-0.64-0.34-0.96-0.51c-0.13-0.07-0.16-0.15-0.1-0.28
				c0.43-0.93,0.85-1.86,1.29-2.79c0.02-0.04,0.09-0.09,0.14-0.09c0.49,0,0.99,0.01,1.48,0.03c0.28,0.01,0.6,0.27,0.66,0.57
				c0.06,0.3,0.1,0.61,0.11,0.92c0.02,0.61,0,1.21,0,1.84c-0.38,0-0.75,0-1.14,0c0,1.14,0,2.28,0,3.41c1.13,0,2.27,0,3.4,0
				c0-1.13,0-2.26,0-3.4c-0.38,0-0.74,0-1.1,0c0-0.04-0.01-0.07-0.01-0.1c-0.01-0.7-0.05-1.4-0.03-2.09C8.68,9.28,8.54,8.9,8.3,8.53
				C7.9,7.9,7.34,7.52,6.59,7.45C6.31,7.42,6.03,7.4,5.74,7.38c0.02-0.05,0.03-0.09,0.05-0.12c0.3-0.64,0.6-1.28,0.88-1.92
				c0.06-0.13,0.12-0.18,0.26-0.18c0.79,0,1.59-0.01,2.38-0.02c0.1,0,0.14,0.03,0.18,0.12C9.73,5.84,9.98,6.42,10.23,7
				c0.82,1.91,1.64,3.82,2.46,5.73c0.03,0.07,0.08,0.15,0.14,0.2c0.78,0.59,1.56,1.17,2.34,1.75c0.28,0.21,0.55,0.43,0.82,0.64
				c0.01,0,0.02,0,0.04,0c0-1.3,0-2.6,0-3.9c0-0.09-0.01-0.19-0.05-0.28c-0.29-0.71-0.59-1.42-0.89-2.13
				c-0.51-1.22-1.02-2.43-1.53-3.65c-0.08-0.19-0.07-0.2,0.12-0.21c0.3-0.01,0.59,0,0.92,0c0.07-0.54,0.16-1.05,0.19-1.57
				c0.05-0.84,0.06-1.69,0.08-2.54c0.02-1.03-0.01-2.06-0.18-3.08c-0.18-1.06-0.46-2.1-0.85-3.11c-1.03-2.67-2.71-4.84-4.99-6.57
				c-0.12-0.09-0.18-0.19-0.18-0.35c0.01-2.49,0-4.98,0-7.48c0-0.07,0.01-0.14,0.01-0.21C4.15-19.75-0.38-19.75-4.91-19.75z
				 M-3.76-13.52c0-1.71,0-3.39,0-5.08c3.78,0,7.53,0,11.3,0c0,0.04,0.01,0.07,0.01,0.1c0,0.98,0,1.97,0,2.95c0,1.37,0,2.74,0,4.11
				c0,0.07,0.03,0.16,0.08,0.21c0.55,0.45,1.12,0.87,1.64,1.34c0.54,0.5,1.06,1.01,1.52,1.58c1.19,1.48,2.02,3.16,2.51,5
				c0.23,0.88,0.41,1.77,0.43,2.68c0.02,0.86,0.02,1.72,0.01,2.57c0,0.6-0.03,1.2-0.04,1.8c0,0.09,0.01,0.18-0.13,0.19
				c-0.17,0-0.34,0.03-0.52,0.03C11.92,3.98,10.79,3.99,9.65,4C8.14,4.01,6.62,4.01,5.1,4.01c-3.04,0-6.08,0-9.12,0
				c-1.26,0-2.53-0.01-3.79-0.02c-0.63-0.01-1.26-0.03-1.89-0.05c-0.13,0-0.2-0.06-0.21-0.19c-0.07-1.06-0.1-2.12,0.07-3.17
				C-9.8,0.28-9.84,0.01-10-0.27c-0.99-1.75-1.97-3.52-2.95-5.28c-0.11-0.19-0.08-0.26,0.12-0.3c0.65-0.15,1.31-0.29,1.96-0.44
				c0.48-0.11,0.96-0.22,1.46-0.34c0-2.3,0-4.59,0-6.89c0.95,0,1.88,0,2.82,0C-5.66-13.52-4.73-13.52-3.76-13.52z M-4.91,5.15
				c0,0.38,0.02,0.75-0.01,1.11C-4.93,6.52-4.86,6.67-4.63,6.8c0.46,0.27,0.87,0.62,1.2,1.05c0.68,0.9,0.91,1.91,0.74,3.01
				c-0.12,0.75-0.41,1.43-0.92,1.99c-1.05,1.15-2.36,1.55-3.86,1.24c-2.79-0.59-3.69-3.57-2.71-5.58c0.38-0.77,0.97-1.33,1.69-1.77
				c0.14-0.09,0.2-0.18,0.2-0.36c-0.01-0.41,0-0.82,0-1.24c0.39,0,0.75,0,1.14,0c0,0.07,0,0.13,0,0.2c0,0.94-0.01,1.88,0,2.83
				c0.01,0.31-0.02,0.56-0.34,0.7c-0.05,0.02-0.1,0.07-0.14,0.11c-0.34,0.3-0.61,0.65-0.64,1.13c-0.04,0.61,0.25,1.08,0.71,1.44
				c0.36,0.28,0.77,0.42,1.23,0.33c0.4-0.08,0.71-0.32,0.98-0.61c0.53-0.57,0.59-1.3,0.12-1.91c-0.17-0.22-0.4-0.4-0.62-0.58
				c-0.11-0.09-0.18-0.17-0.17-0.33c0.01-0.89,0-1.79,0-2.68c0-0.2,0-0.4,0-0.61C-5.65,5.15-5.29,5.15-4.91,5.15z M10.65,5.14
				c0.49,0,0.96,0.01,1.42,0c0.14,0,0.21,0.05,0.26,0.17c0.56,1.35,1.12,2.7,1.69,4.04c0.24,0.58,0.48,1.15,0.72,1.74
				c-0.43,0.21-0.84,0.42-1.26,0.63C12.53,9.52,11.59,7.34,10.65,5.14z M0.45,11.56c0.02-0.03,0.03-0.05,0.04-0.08
				c0.43-0.94,0.86-1.87,1.28-2.81c0.05-0.1,0.1-0.14,0.21-0.14c0.38,0.01,0.76,0,1.14,0c0.26,0,0.53,0.02,0.81,0.03
				c-0.55,1.22-1.1,2.41-1.64,3.62c0.17,0.1,0.33,0.19,0.49,0.29c-0.74,0.32-1.47,0.62-2.23,0.95c-0.2-0.68-0.39-1.35-0.59-2.01
				c0.02-0.01,0.04-0.03,0.05-0.04C0.16,11.43,0.3,11.49,0.45,11.56z M-0.08,10.03c-0.51-0.26-0.99-0.49-1.47-0.74
				c-0.04-0.02-0.07-0.09-0.08-0.15c-0.1-0.27-0.18-0.55-0.29-0.82c-0.39-0.88-0.92-1.65-1.72-2.21c-0.05-0.04-0.11-0.1-0.12-0.16
				c-0.01-0.27-0.01-0.53-0.01-0.8c0.76,0,1.5,0,2.29,0c0,0.42-0.01,0.82,0,1.23C-1.46,7-1.18,7.51-0.73,7.9
				c0.37,0.33,0.83,0.55,1.34,0.64C0.38,9.03,0.16,9.52-0.08,10.03z M2.39,7.38C2.4,7.33,2.4,7.31,2.41,7.29
				c0.3-0.68,0.6-1.35,0.91-2.02c0.02-0.05,0.12-0.1,0.18-0.1c0.6-0.01,1.19-0.01,1.79-0.01c0.06,0,0.12,0.02,0.19,0.03
				C5.46,5.24,5.46,5.26,5.45,5.29c-0.3,0.67-0.61,1.34-0.92,2C4.51,7.33,4.42,7.37,4.37,7.37C4,7.38,3.64,7.38,3.28,7.38
				C2.99,7.39,2.7,7.38,2.39,7.38z M-0.4,5.17c0.84,0,1.66,0,2.52,0C1.85,5.78,1.6,6.35,1.34,6.91c-0.23,0.51-0.24,0.5-0.8,0.47
				C0.12,7.35-0.3,6.98-0.33,6.6C-0.36,6.12-0.37,5.65-0.4,5.17z M7.55,14.18c0-0.38,0-0.74,0-1.1c0.38,0,0.74,0,1.11,0
				c0,0.37,0,0.73,0,1.1C8.29,14.18,7.93,14.18,7.55,14.18z M-6.6,9.67c0.37,0,0.56,0.19,0.56,0.56c0,0.38-0.18,0.57-0.55,0.57
				c-0.38,0.01-0.58-0.18-0.58-0.56C-7.17,9.86-6.98,9.67-6.6,9.67z M14.87,13.05c-0.22-0.16-0.41-0.29-0.62-0.44
				c0.21-0.11,0.4-0.2,0.62-0.31C14.87,12.56,14.87,12.78,14.87,13.05z"/>
			<path class="st2" d="M-2.63,2.29c-0.05-0.72-0.33-1.34-0.8-1.85C-4.04-0.2-4.79-0.54-5.72-0.48c-1.02,0.06-2.33,1.15-2.52,2.36
				C-8.26,2.02-8.29,2.15-8.31,2.3c0.35,0,0.69,0,1.02-0.01c0.04,0,0.12-0.09,0.12-0.13c0.01-0.6,0.53-1.28,1.13-1.46
				c0.73-0.21,1.48-0.01,1.91,0.53C-3.92,1.5-3.8,1.8-3.76,2.14c0.01,0.05,0.05,0.14,0.08,0.15C-3.33,2.3-2.98,2.29-2.63,2.29z"/>
		</g>
		<path class="st0" d="M-3.43,2.29l-0.25,0c0,0-0.28-1.84-1.79-1.67c0,0-1.58-0.02-1.67,1.68l-1.17,0c0,0,0.02-2.51,2.69-2.79
			c0,0,1.56-0.1,2.44,1.25L-3.43,2.29z"/>
		<path class="st0" d="M-4.88,6.54l1-2.53L-9.85,3.9c0,0-0.33-1.32,0-3.31c0,0,0.39-0.26-1.34-2.98l-1.03,0.47L-11,0.36
			c0,0-0.47,2.74,0.2,4.81l1.4-0.05l-0.06,0.81c0,0-1.7,1.25-1.95,2.72c0,0-1.71,4.91,3.99,6.66c0,0,3.25,0.55,5.17-2.54l-1.3,0.01
			c0,0-1.02,1.64-3.6,1.4c0,0-3.79-0.49-3.36-4.53c0,0-0.11-1.74,2.2-3.09l0.03-1.43h1.14l0,3.46c0,0-1.58,0.73-1.04,2.25
			c0,0,0.87,1.73,2.59,0.66c0,0-0.8-0.71-0.31-2.83l-0.1-0.17l0.01-3.38h1.12L-4.88,6.54z M-6.6,10.8c-0.31,0-0.56-0.25-0.56-0.56
			c0-0.31,0.25-0.56,0.56-0.56c0.31,0,0.56,0.25,0.56,0.56C-6.04,10.54-6.29,10.8-6.6,10.8z"/>
		<polygon class="st0" points="-0.89,12.47 0.17,12.1 0.55,13.42 2.79,12.47 2.3,12.18 3.03,10.56 4.42,10.23 3.83,11.58 
			5.42,12.55 -0.17,14.96 		"/>
		<path class="st0" d="M8.3,15.32l0.06-1.14H7.55v-1.1h0.63c0,0-0.08-0.68-0.64-1.54l0,0.38H6.4v3.41H8.3z"/>
	</g>
</symbol>
<use xlink:href="#Nuevo_símbolo_4"  width="55.67" height="54.58" x="-27.83" y="-27.29" transform="matrix(16.0744 0 0 -16.0744 540 540)" style="overflow:visible;"/>
</svg>
