<svg id="Capa_1" data-name="Capa 1" xmlns="http://www.w3.org/2000/svg" viewBox="0 0 68.62 53.65"><defs><style>.cls-1{fill:#fff;}</style></defs><ellipse class="cls-1" cx="12.89" cy="41.18" rx="12.72" ry="12.47"/><path class="cls-1" d="M118.35,137.26s-6.83-27.42,10.29-39.83c0,0,6-5.07,14-4.89,0,0,3.81,2.27,0,4.89,0,0-18.61,9.44-14.5,22.37C128.11,119.8,147.65,140,118.35,137.26Z" transform="translate(-117 -90.85)"/><ellipse class="cls-1" cx="54.21" cy="39.5" rx="12.72" ry="12.47"/><path class="cls-1" d="M159.67,135.58S152.84,108.16,170,95.75c0,0,6-5.07,14-4.89,0,0,3.81,2.27,0,4.89,0,0-18.61,9.44-14.5,22.37C169.43,118.12,189,138.36,159.67,135.58Z" transform="translate(-117 -90.85)"/></svg>