<svg id="Capa_1" data-name="Capa 1" xmlns="http://www.w3.org/2000/svg" viewBox="0 0 443.37 434.59"><defs><style>.cls-1,.cls-2{fill:#263b4e;}.cls-1,.cls-3{stroke:#263b4e;stroke-miterlimit:10;}.cls-3{fill:#fff;stroke-width:0.5px;}</style></defs><path class="cls-1" d="M397,86.28A213.62,213.62,0,0,1,476.8,251.75C477.48,368,384,464.33,267.82,467,160.72,469.46,71,393.22,52.31,292.07c0,0,30.14-86.9,78.43-43.27,0,0,47.66,45.31,90.33,25,0,0,30.47-14.76-7.55-85.41a32.73,32.73,0,0,1-4.06-16.58c.16-4.72.45-8.26,5-14.33,0,0,17.52-20.49,57.44,6.07,0,0,29.1,17,44.42,0,0,0,20.48-22.35-.39-60.64,0,0-15.31-26.23-.19-40.2,0,0,21.86-22,69.8,16.35Z" transform="translate(-33.94 -32.97)"/><path class="cls-2" d="M357.38,59.21c.95.52,9.62,5.15,17.55,9.24a74.43,74.43,0,0,1-8.36-10.32c-1.47-.94-2.53-1.59-2.54-1.58l-3.42-1.89c-32.57-18-51.76-27.72-67.37-17.61C277.1,47.51,282.05,63,291.46,87.33c1.68,4.33,7.48,23,7.61,22.63,2.76,11.72,2.49,22.63-6.56,28.88l-.37.25c-7.81,5.06-51.15-3.76-52.15-4-21.08-4-33.6-14-51.42-2.5-13.31,8.62-2.55,40.91-2.21,40.9.66,1.5,21.94,52.54,4.69,63.72-15.12,9.8-67.09-15.65-69.92-16.27-1.42-.77-8.19-4.5-9.31-5.12-32.58-18-51.77-27.72-67.37-17.6-16.15,10.45-11.2,25.91-1.78,50.27,1.3,3.37,7.91,22.14,8,23.89a6.31,6.31,0,0,1,0,.87c.28,1.36.53,2.72.7,4.05a69.19,69.19,0,0,1,1.41,16.79c5.91-8.31,5.17-18.67,1.31-31.54h.08c-.11-.18-2.14-6.63-2.24-7,0-.15-1.11-2.79-1.53-4-.21-.59-.44-1.22-.66-1.87,0,.06,0,.12,0,.18-.56-1.51-1.15-3-1.75-4.6-6.48-16.78-14.56-37.66-2.26-45.63,10.73-6.95,34.67,5.25,55.53,16.7l7.28,4c1.48.81,63.62,31.35,83.79,18.28,23-14.9-1.13-67.68-2.32-71.87-.49-1.73-8.07-27.63-.16-32.75,12-7.75,40.51,4.58,44.5,4.93,1.1.43,43.11,11.86,59.18,1.45l.76-.51c13.42-9.28,13.64-21.79,8.61-38.56.12,0-1.25-4-1.67-5.21,0-1.64-3.84-10.5-4.44-12.06s-11.92-39.37-2.26-45.63C305.29,31.54,356.07,58.89,357.38,59.21Z" transform="translate(-33.94 -32.97)"/><path class="cls-2" d="M332.82,43.44a28.22,28.22,0,0,1-3.5-3.33c-6.05,0-11.75,1.74-17.8,6C295.93,57,296,68.58,297.29,86.61c.24,3.2.14,17.22.33,16.92-.77,9-3.77,17.72-12.6,24.14l-.36.26c-7.55,5.28-40,5-40.74,5-15.85.06-23.32-6-40.52,6-12.85,9-12.45,33.15-12.18,33.09.14,1.1,4.18,38.62-12.47,50.27-14.6,10.21-49.72-2-51.82-2.09-.94-.39-5.41-2.32-6.15-2.64-21.49-9.32-34.38-14.08-49.45-3.55-15.58,10.9-15.55,22.5-14.22,40.52.18,2.49.7,16.49.36,17.86a5.11,5.11,0,0,1-.22.7c-.12,1.05-.27,2.09-.47,3.13a59.59,59.59,0,0,1-3.15,13.22c6.86-7.58,8.9-15.75,9.09-25.45l.06,0c0-.13,0-5,0-5.24,0-.11-.17-2-.21-2.95,0-.44,0-.91,0-1.39a1.21,1.21,0,0,1,0,.14c-.07-1.12-.14-2.25-.23-3.41C61.3,238.75,60.16,223.3,72,215c10.35-7.24,26.41-1.23,40.19,4.67l4.81,2.08c1,.42,42.94,15.14,62.41,1.52,22.2-15.52,16.33-54,16.44-57.16.05-1.31.58-20.85,8.21-26.19,11.55-8.08,31.26-2.67,34.36-3,.77.17,31.49,2.74,47-8.1l.74-.53c13.1-9.53,16.46-19.58,16.71-32.21.1,0,0-3,0-3.91.45-1.32-.39-7.81-.48-9s.48-29.65,9.81-36.17c5.46-3.82,17.42-1.74,27.64,1.08A58.74,58.74,0,0,1,332.82,43.44Z" transform="translate(-33.94 -32.97)"/><path class="cls-2" d="M366.57,58.13S403.1,88.51,417.38,105l-33-19.62s-24-26-43.57-34.24" transform="translate(-33.94 -32.97)"/><path class="cls-2" d="M42.67,248.54S46.21,278.3,58,318.65l7.8-24.51L53.63,274.38l-9.29-25.84" transform="translate(-33.94 -32.97)"/><rect class="cls-3" x="179.89" y="151.15" width="106.72" height="11.74" rx="0.52"/><path class="cls-3" d="M326.81,195.86h-41v6.08h33.31a9.49,9.49,0,0,1,9.49,9.49v5.5a42.8,42.8,0,0,1-42.8,42.8h0v6.36h0A50.48,50.48,0,0,0,336.3,215.6V205.35A9.49,9.49,0,0,0,326.81,195.86Z" transform="translate(-33.94 -32.97)"/><path class="cls-3" d="M207.74,195.86h41v6.08H215.43a9.49,9.49,0,0,0-9.49,9.49v5.5a42.8,42.8,0,0,0,42.8,42.8h0v6.36h0a50.49,50.49,0,0,1-50.49-50.49V205.35A9.49,9.49,0,0,1,207.74,195.86Z" transform="translate(-33.94 -32.97)"/><path class="cls-3" d="M277.23,282.08s.76,38.3,8.26,41.94H248.88s7.2-1.78,8.38-41.94Z" transform="translate(-33.94 -32.97)"/><rect class="cls-3" x="205.16" y="291.05" width="56.17" height="13.42" rx="0.59"/><path class="cls-3" d="M195.51,304.47H271a1.49,1.49,0,0,1,1.49,1.49V321.3a0,0,0,0,1,0,0H194a0,0,0,0,1,0,0V306A1.49,1.49,0,0,1,195.51,304.47Z"/><rect class="cls-3" x="194.02" y="321.3" width="78.46" height="52.54"/><rect class="cls-3" x="204.14" y="328.08" width="58.22" height="38.98"/><path class="cls-3" d="M189.56,162.89h87.38a0,0,0,0,1,0,0V246.4a3.87,3.87,0,0,1-3.87,3.87H193.43a3.87,3.87,0,0,1-3.87-3.87V162.89a0,0,0,0,1,0,0Z"/><path class="cls-3" d="M271.68,216.6q0,.15,0,.57a169,169,0,0,0-.73,18.9q0,2.81.06,8.44c0,3.75.07,6.56.07,8.43,0,.83-.35,1.24-1.05,1.24s-1.71,0-3,.06-2.3.07-3,.07-1-.27-1-.8.13-4.35.41-11.71q.19-5.34.19-15.59c0-.49-.11-.74-.32-.74a9.15,9.15,0,0,0-2.4.51,9.23,9.23,0,0,1-2.43.51c-.49,0-.74-.12-.74-.38s0-.64.08-1.15a10,10,0,0,0,.08-1.14q0-.34-.06-1c0-.47-.07-.82-.07-1.05s.24-.51.71-.7a14.44,14.44,0,0,0,3.91-2.61l1.75-1.91a8.63,8.63,0,0,1,1.59-1.56l2.64.57c.66.09,1.61.25,2.87.48A.58.58,0,0,1,271.68,216.6Z" transform="translate(-33.94 -32.97)"/></svg>