<?xml version="1.0" encoding="utf-8"?>
<!-- Generator: Adobe Illustrator 26.2.1, SVG Export Plug-In . SVG Version: 6.00 Build 0)  -->
<svg version="1.1" xmlns="http://www.w3.org/2000/svg" xmlns:xlink="http://www.w3.org/1999/xlink" x="0px" y="0px"
	 viewBox="0 0 1080 1080" style="enable-background:new 0 0 1080 1080;" xml:space="preserve">
<style type="text/css">
	.st0{display:none;}
	.st1{display:inline;}
	.st2{fill:#903F8F;stroke:#903F8F;stroke-miterlimit:10;}
	.st3{fill:#FFFFFF;stroke:#FFFFFF;stroke-miterlimit:10;}
	.st4{fill:#903F8F;}
	.st5{fill:#904191;}
	.st6{fill:#FFFFFF;stroke:#904291;stroke-width:0.75;stroke-miterlimit:10;}
	.st7{fill:#904191;stroke:#904291;stroke-width:0.75;stroke-miterlimit:10;}
	.st8{fill:#FFFFFF;}
	.st9{fill:#904191;stroke:#904191;stroke-width:0.75;stroke-miterlimit:10;}
	.st10{fill:#FAFCFC;}
</style>
<g id="Capa_1" class="st0">
	<g class="st1">
		<g>
			<path class="st2" d="M848.84,182.81c105.55,85.04,173.33,215.08,174.18,360.98c1.49,253.58-202.39,463.75-455.91,469.58
				c-233.65,5.37-429.48-160.95-470.15-381.61c0,0,65.74-189.59,171.08-94.41c0,0,103.99,98.85,197.07,54.56
				c0,0,66.47-32.2-16.47-186.33c-5.97-11.1-9.3-23.56-8.86-36.16c0.36-10.3,0.98-18.04,11-31.28c0,0,38.22-44.69,125.31,13.24
				c0,0,63.49,37.04,96.9,0c0,0,44.69-48.74-0.84-132.28c0,0-33.41-57.22-0.42-87.71c0,0,47.67-48.08,152.28,35.69L848.84,182.81z"
				/>
			<g>
				<g>
					<g>
						<path class="st2" d="M762.49,123.74c2.07,1.14,21,11.25,38.29,20.16c-6.98-7.18-13.09-14.86-18.24-22.51
							c-3.2-2.04-5.52-3.48-5.53-3.45c-2.51-1.38-5-2.76-7.46-4.12c-71.06-39.3-112.93-60.46-146.97-38.4
							c-35.21,22.82-24.42,56.54-3.88,109.68c3.65,9.44,16.31,50.13,16.59,49.38c6.03,25.56,5.43,49.36-14.3,63
							c-0.27,0.19-0.54,0.37-0.81,0.54c-17.05,11.05-111.6-8.2-113.77-8.62c-45.99-8.82-73.3-30.65-112.17-5.46
							c-29.04,18.82-5.56,89.25-4.82,89.23c1.43,3.28,47.86,114.63,10.22,139.02c-32.99,21.37-146.36-34.16-152.52-35.51
							c-3.11-1.69-17.86-9.81-20.33-11.17c-71.06-39.3-112.93-60.46-146.97-38.4c-35.21,22.82-24.42,56.54-3.88,109.68
							c2.84,7.35,17.27,48.31,17.56,52.12c0.05,0.62,0.04,1.25,0,1.89c0.61,2.98,1.15,5.94,1.53,8.84
							c2.54,11.54,3.43,23.86,3.07,36.64c12.91-18.14,11.29-40.73,2.87-68.81c0.06-0.01,0.11-0.01,0.17-0.02
							c-0.24-0.41-4.67-14.47-4.89-15.24c-0.08-0.33-2.41-6.07-3.34-8.71c-0.45-1.28-0.95-2.64-1.43-4.07
							c0,0.13-0.01,0.25-0.02,0.37c-1.23-3.28-2.51-6.62-3.82-10.02c-14.14-36.61-31.76-82.16-4.93-99.54
							c23.4-15.16,75.64,11.45,121.14,36.43l15.89,8.76c3.22,1.77,138.79,68.4,182.79,39.89c50.16-32.5-2.47-147.67-5.05-156.8
							c-1.07-3.78-17.6-60.27-0.35-71.45c26.08-16.9,88.36,10,97.08,10.77c2.38,0.93,94.05,25.86,129.09,3.16
							c0.56-0.36,1.12-0.74,1.67-1.12c29.27-20.24,29.75-47.53,18.78-84.12c0.26-0.03-2.73-8.66-3.65-11.37
							c0.07-3.58-8.37-22.9-9.68-26.31c-1.31-3.4-26.01-85.88-4.93-99.54C648.86,63.39,759.63,123.05,762.49,123.74z"/>
					</g>
					<g>
						<path class="st2" d="M708.91,89.35c-2.49-1.97-5.13-4.46-7.63-7.26c-13.2-0.02-25.64,3.8-38.85,13.04
							c-33.99,23.77-33.94,49.08-31.03,88.4c0.51,6.99,0.3,37.57,0.7,36.93c-1.68,19.52-8.22,38.65-27.49,52.66
							c-0.27,0.19-0.52,0.38-0.78,0.56c-16.46,11.51-87.24,10.9-88.87,10.9c-34.57,0.13-50.87-13.06-88.39,13.18
							c-28.04,19.61-27.17,72.31-26.57,72.18c0.31,2.4,9.12,84.26-27.21,109.67c-31.85,22.27-108.45-4.44-113.04-4.55
							c-2.06-0.86-11.8-5.06-13.43-5.76c-46.87-20.34-75-30.72-107.86-7.74c-34,23.77-33.94,49.08-31.03,88.39
							c0.4,5.44,1.52,35.96,0.79,38.97c-0.12,0.49-0.29,0.99-0.48,1.51c-0.27,2.29-0.59,4.57-1.02,6.84
							c-0.91,8.84-3.33,18.56-6.87,28.84c14.95-16.54,19.41-34.37,19.81-55.52c0.05-0.01,0.09-0.03,0.14-0.04
							c-0.09-0.29-0.05-10.85-0.04-11.44c0.02-0.25-0.39-4.48-0.46-6.44c-0.04-0.96-0.09-1.97-0.11-3.03
							c-0.03,0.1-0.07,0.2-0.11,0.3c-0.15-2.43-0.32-4.9-0.51-7.42c-2-27.09-4.5-60.79,21.39-78.9c22.59-15.8,57.63-2.67,87.69,10.2
							l10.49,4.52c2.12,0.92,93.67,33.03,136.15,3.33c48.42-33.86,35.62-117.81,35.87-124.71c0.11-2.86,1.25-45.49,17.91-57.14
							c25.18-17.61,68.18-5.82,74.96-6.57c1.67,0.38,68.69,5.99,102.52-17.67c0.54-0.38,1.09-0.77,1.62-1.15
							c28.58-20.78,35.92-42.7,36.45-70.27c0.22-0.06,0.02-6.51-0.03-8.53c0.97-2.88-0.86-17.02-1.05-19.54
							c-0.19-2.52,1.05-64.67,21.39-78.9c11.92-8.34,38-3.8,60.29,2.35C718.76,96.37,713.52,92.98,708.91,89.35z"/>
					</g>
					<path class="st2" d="M782.54,121.39c0,0,79.7,66.29,110.85,102.31l-72.01-42.81c0,0-52.3-56.68-95.07-74.7"/>
					<path class="st2" d="M75.92,536.79c0,0,7.72,64.93,33.41,152.96l17.02-53.47l-26.51-43.12l-20.28-56.37"/>
				</g>
			</g>
		</g>
		<g>
			<g>
				<g>
					<g>
						<path class="st3" d="M664.22,601.18l-63.85,101.26l-2.93-48.27c0,0,16.13-7.27,16.08-26.6c0,0-29.04,18.49-59.11,0
							c-0.06,19.32,16.08,26.6,16.08,26.6l-2.93,48.27l-63.85-101.26c-126.97,17.4-119.55,146.38-119.55,146.38
							c0,31,25.13,56.13,56.13,56.13h3.26h149.03c4.93-3.9,8.47-7.56,10.58-10.99c2.48-4.02,3.72-9,3.72-14.95
							c0-7.34-2.33-13.11-6.99-17.33c-4.66-4.21-10.31-6.32-16.96-6.32c-17.55,0-27.42,12.4-29.6,37.19l-40.76-5.8
							c3.07-22.41,11.28-39.37,24.62-50.87c13.34-11.5,29.62-17.25,48.86-17.25c19.63,0,36.09,5.65,49.38,16.96
							c13.29,11.3,19.93,25.64,19.93,42.99c0,9.48-2.15,18.27-6.44,26.38h78.72c31,0,56.13-25.13,56.13-56.13
							C783.76,747.56,791.19,618.58,664.22,601.18z"/>
						<path class="st3" d="M589.91,805.72c-12.1,8.93-19.56,15.74-22.39,20.45c-2.83,4.71-4.24,16.09-4.24,34.14v5.65h38.38
							c0-9.62,1.02-16.21,3.05-19.78c2.03-3.57,7.86-8.53,17.48-14.87c12.37-8.1,21.28-17.31,26.73-27.61h-56.36
							C591.71,804.36,590.84,805.03,589.91,805.72z"/>
						<rect x="563.28" y="873.15" class="st3" width="38.38" height="36.91"/>
					</g>
				</g>
				<path class="st3" d="M583.96,399.24c-51.45,0-93.15,41.71-93.15,93.15s41.71,115.33,93.15,115.33
					c51.45,0,93.15-63.88,93.15-115.33S635.4,399.24,583.96,399.24z"/>
			</g>
		</g>
	</g>
</g>
<g id="Capa_2" class="st0">
	<g class="st1">
		<g>
			<path class="st2" d="M848.84,182.31c105.55,85.04,173.33,215.08,174.18,360.98c1.49,253.58-202.39,463.75-455.91,469.58
				c-233.65,5.37-429.48-160.95-470.15-381.61c0,0,65.74-189.59,171.08-94.41c0,0,103.99,98.85,197.07,54.56
				c0,0,66.47-32.2-16.47-186.33c-5.97-11.1-9.3-23.56-8.86-36.16c0.36-10.3,0.98-18.04,11-31.28c0,0,38.22-44.69,125.31,13.24
				c0,0,63.49,37.04,96.9,0c0,0,44.69-48.74-0.84-132.28c0,0-33.41-57.22-0.42-87.71c0,0,47.67-48.08,152.28,35.69L848.84,182.31z"
				/>
			<g>
				<g>
					<path class="st2" d="M762.48,123.24c2.07,1.14,21,11.25,38.29,20.16c-6.98-7.18-13.09-14.86-18.24-22.51
						c-3.2-2.04-5.52-3.48-5.53-3.45c-2.51-1.38-5-2.76-7.46-4.12c-71.06-39.3-112.93-60.46-146.97-38.4
						c-35.21,22.82-24.42,56.54-3.88,109.68c3.65,9.44,16.31,50.13,16.59,49.38c6.03,25.56,5.43,49.36-14.3,63
						c-0.27,0.19-0.54,0.37-0.81,0.54c-17.05,11.05-111.6-8.2-113.77-8.62c-45.99-8.82-73.3-30.65-112.17-5.46
						c-29.04,18.82-5.56,89.25-4.82,89.23c1.43,3.28,47.86,114.63,10.22,139.02c-32.99,21.37-146.36-34.16-152.52-35.51
						c-3.11-1.69-17.86-9.81-20.33-11.17c-71.06-39.3-112.93-60.46-146.97-38.4c-35.21,22.82-24.42,56.54-3.88,109.68
						c2.84,7.35,17.27,48.31,17.56,52.12c0.05,0.62,0.04,1.25,0,1.89c0.61,2.98,1.15,5.94,1.53,8.84
						c2.54,11.54,3.43,23.86,3.07,36.64c12.91-18.14,11.29-40.73,2.87-68.81c0.06-0.01,0.11-0.01,0.17-0.02
						c-0.24-0.41-4.67-14.47-4.89-15.24c-0.08-0.33-2.41-6.07-3.34-8.71c-0.45-1.28-0.95-2.64-1.43-4.07c0,0.13-0.01,0.25-0.02,0.37
						c-1.23-3.28-2.51-6.62-3.82-10.02c-14.14-36.61-31.76-82.16-4.93-99.54c23.4-15.16,75.64,11.45,121.14,36.43l15.89,8.76
						c3.22,1.77,138.79,68.4,182.79,39.89c50.16-32.5-2.47-147.67-5.05-156.8c-1.07-3.78-17.6-60.27-0.35-71.45
						c26.08-16.9,88.36,10,97.08,10.77c2.38,0.93,94.05,25.86,129.09,3.16c0.56-0.36,1.12-0.74,1.67-1.12
						c29.27-20.24,29.75-47.53,18.78-84.12c0.26-0.03-2.73-8.66-3.65-11.37c0.07-3.58-8.37-22.9-9.68-26.31
						c-1.31-3.4-26.01-85.88-4.93-99.54C648.86,62.89,759.63,122.55,762.48,123.24z"/>
				</g>
				<g>
					<path class="st2" d="M708.91,88.85c-2.49-1.97-5.13-4.46-7.63-7.26c-13.2-0.02-25.64,3.8-38.85,13.04
						c-33.99,23.77-33.94,49.08-31.03,88.4c0.51,6.99,0.3,37.57,0.7,36.93c-1.68,19.52-8.22,38.65-27.49,52.66
						c-0.27,0.19-0.52,0.38-0.78,0.56c-16.46,11.51-87.24,10.9-88.87,10.9c-34.57,0.13-50.87-13.06-88.39,13.18
						c-28.04,19.61-27.17,72.31-26.57,72.18c0.31,2.4,9.12,84.26-27.21,109.67c-31.85,22.27-108.45-4.44-113.04-4.55
						c-2.06-0.86-11.8-5.06-13.43-5.76c-46.87-20.34-75-30.72-107.86-7.74c-34,23.77-33.94,49.08-31.03,88.39
						c0.4,5.44,1.52,35.96,0.79,38.97c-0.12,0.49-0.29,0.99-0.48,1.51c-0.27,2.29-0.59,4.57-1.02,6.84
						c-0.91,8.84-3.33,18.56-6.87,28.84c14.95-16.54,19.41-34.37,19.81-55.52c0.05-0.01,0.09-0.03,0.14-0.04
						c-0.09-0.29-0.05-10.85-0.04-11.44c0.02-0.25-0.39-4.48-0.46-6.44c-0.04-0.96-0.09-1.97-0.11-3.03c-0.03,0.1-0.07,0.2-0.11,0.3
						c-0.15-2.43-0.32-4.9-0.51-7.42c-2-27.09-4.5-60.79,21.39-78.9c22.59-15.8,57.63-2.67,87.69,10.2l10.49,4.52
						c2.12,0.92,93.67,33.03,136.15,3.33c48.42-33.86,35.62-117.81,35.87-124.71c0.11-2.86,1.25-45.49,17.91-57.14
						c25.18-17.61,68.18-5.82,74.96-6.57c1.67,0.38,68.69,5.99,102.52-17.67c0.54-0.38,1.09-0.77,1.62-1.15
						c28.58-20.78,35.92-42.7,36.45-70.27c0.22-0.06,0.02-6.51-0.03-8.53c0.97-2.88-0.86-17.02-1.05-19.54
						c-0.19-2.52,1.05-64.67,21.39-78.9c11.92-8.34,38-3.8,60.29,2.35C718.76,95.87,713.52,92.48,708.91,88.85z"/>
				</g>
				<path class="st2" d="M782.53,120.89c0,0,79.7,66.29,110.85,102.31l-72.01-42.81c0,0-52.3-56.68-95.07-74.7"/>
				<path class="st2" d="M75.92,536.29c0,0,7.72,64.93,33.41,152.96l17.02-53.47l-26.51-43.12l-20.28-56.37"/>
			</g>
		</g>
		<g>
			<path class="st3" d="M824.06,444.41c-10.86,0-21.71,0-32.57,0c-13.89,0-13.92,21.59,0,21.59c7.26,0,14.51,0,21.77,0
				c0,35.97,0,71.94,0,107.91c0,63.33,0,126.66,0,189.99c0,10.86,0,21.73,0,32.59c-14.05,0-28.11,0-42.16,0
				c-42.39,0-84.79,0-127.18,0c-14.55,0-29.1,0-43.66,0c30.46-13.88,63.06-24,95.15-30.96c22.7-4.93,45.69-7.87,68.91-8.61
				c5.83-0.19,10.8-4.8,10.8-10.8c0-36.25,0-72.5,0-108.75c0-57.46,0-114.91,0-172.37c0-13.18,0-26.36,0-39.53
				c0-4.5-3.33-9.43-7.93-10.41c-12.07-2.57-24.98-2.65-37.25-2.22c-33.57,1.19-66.94,8.52-98.66,19.35
				c-24.45,8.35-48.13,18.85-71.02,30.81c-6.62-4.62-14.04-8.32-21.18-11.66c-30.02-14.06-62.5-22.46-95.03-28.28
				c-30.25-5.41-60.88-8.58-91.55-10.37c-5.83-0.34-10.8,5.22-10.8,10.8c0,36.35,0,72.69,0,109.04c0,57.92,0,115.84,0,173.76
				c0,13.28,0,26.56,0,39.84c0,6.24,4.97,10.25,10.8,10.8c4.94,0.47,9.86,1.06,14.78,1.67c6.46,0.8,8.47,1.07,15.2,2.05
				c6.97,1.01,13.93,2.11,20.88,3.29c34.59,5.87,69.28,13.43,102.24,25.63c5.66,2.09,11.42,4.39,17.09,6.94
				c-10.89,0-21.79,0-32.68,0c-44.37,0-88.73,0-133.1,0c-14.58,0-29.16,0-43.74,0c-3.62,0-7.4-0.23-11.17-0.32
				c0-35.86,0-71.73,0-107.59c0-63.33,0-126.66,0-189.99c0-10.86,0-21.73,0-32.59c8.39,0,16.79,0,25.18,0
				c13.89,0,13.92-21.59,0-21.59c-11.99,0-23.98,0-35.97,0c-5.84,0-10.8,4.95-10.8,10.8c0,39.57,0,79.14,0,118.71
				c0,63.33,0,126.66,0,189.99c0,14.46,0,28.93,0,43.39c0,5.84,4.95,10.8,10.8,10.8c17.65,0,35.3,0,52.95,0
				c42.39,0,84.79,0,127.18,0c51.3,0,102.6,0,153.9,0c44.37,0,88.73,0,133.1,0c21.52,0,43.27,0.94,64.78,0c0.31-0.01,0.62,0,0.93,0
				c5.84,0,10.8-4.95,10.8-10.8c0-39.57,0-79.14,0-118.71c0-63.33,0-126.66,0-189.99c0-14.46,0-28.93,0-43.39
				C834.85,449.37,829.91,444.41,824.06,444.41z M752.56,434.81c0.32,0.02,0.65,0.06,0.97,0.09c0,33.11,0,66.22,0,99.32
				c0,57.45,0,114.91,0,172.37c0,9.75,0,19.49,0,29.24c-63.74,3.78-126.85,22.85-183.57,51.88c0-31.03,0-62.06,0-93.09
				c0-59.37,0-118.75,0-178.12c0-11.41,0-22.83,0-34.24C625.14,453.25,689.42,429.99,752.56,434.81z M469.38,755.8
				c-31.83-8.24-64.3-13.89-96.89-18.14c-3.06-0.4-6.12-0.79-9.18-1.15c0-33.14,0-66.28,0-99.42c0-57.92,0-115.84,0-173.76
				c0-9.45,0-18.9,0-28.35c42.2,2.91,84.45,8.59,125.11,20.47c21.39,6.25,39.03,12.38,57.6,24.14c0.8,0.51,1.57,1.05,2.35,1.6
				c0,35.27,0,70.54,0,105.81c0,59.37,0,118.75,0,178.12c0,6.82,0,13.63,0,20.45C524.16,771.3,496.24,762.75,469.38,755.8z"/>
			<path class="st2" d="M459.37,426.01l8.06,23.88c0,0-48-13.07-104.12-14.9V591.9l-21.59-6.32V426.01c0,0-1.54-11.18,8.25-13.36
				C349.97,412.65,419.08,415.78,459.37,426.01z"/>
			<path class="st2" d="M302.01,466l28.12-0.37c0,0,7.67-1.74,7.44-11.05c0,0,0.56-7.56-7.7-9.85l-38.66-0.31
				c0,0-10.8,0.33-10.8,11.93v85.56v2.83l21.59,16.24V466z"/>
		</g>
	</g>
</g>
<g id="Capa_3" class="st0">
	<g class="st1">
		<g>
			<path class="st4" d="M849.02,182.31c105.55,85.04,173.33,215.08,174.18,360.98c1.49,253.58-202.39,463.75-455.91,469.58
				c-233.65,5.37-429.48-160.95-470.15-381.61c0,0,65.74-189.59,171.08-94.41c0,0,103.99,98.85,197.07,54.56
				c0,0,66.47-32.2-16.47-186.33c-5.97-11.1-9.3-23.56-8.86-36.16c0.36-10.3,0.98-18.04,11-31.28c0,0,38.22-44.69,125.31,13.24
				c0,0,63.49,37.04,96.9,0c0,0,44.69-48.74-0.84-132.28c0,0-33.41-57.22-0.42-87.71c0,0,47.67-48.08,152.28,35.69L849.02,182.31z"
				/>
			<g>
				<g>
					<path class="st4" d="M762.66,123.24c2.07,1.14,21,11.25,38.29,20.16c-6.98-7.18-13.09-14.86-18.24-22.51
						c-3.2-2.04-5.52-3.48-5.53-3.45c-2.51-1.38-5-2.76-7.46-4.12c-71.06-39.3-112.93-60.46-146.97-38.4
						c-35.21,22.82-24.42,56.54-3.88,109.68c3.65,9.44,16.31,50.13,16.59,49.38c6.03,25.56,5.43,49.36-14.3,63
						c-0.27,0.19-0.54,0.37-0.81,0.54c-17.05,11.05-111.6-8.2-113.77-8.62c-45.99-8.82-73.3-30.65-112.17-5.46
						c-29.04,18.82-5.56,89.25-4.82,89.23c1.43,3.28,47.86,114.63,10.22,139.02c-32.99,21.37-146.36-34.16-152.52-35.51
						c-3.11-1.69-17.86-9.81-20.33-11.17c-71.06-39.3-112.93-60.46-146.97-38.4c-35.21,22.82-24.42,56.54-3.88,109.68
						c2.84,7.35,17.27,48.31,17.56,52.12c0.05,0.62,0.04,1.25,0,1.89c0.61,2.98,1.15,5.94,1.53,8.84
						c2.54,11.54,3.43,23.86,3.07,36.64c12.91-18.14,11.29-40.73,2.87-68.81c0.06-0.01,0.11-0.01,0.17-0.02
						c-0.24-0.41-4.67-14.47-4.89-15.24c-0.08-0.33-2.41-6.07-3.34-8.71c-0.45-1.28-0.95-2.64-1.43-4.07c0,0.13-0.01,0.25-0.02,0.37
						c-1.23-3.28-2.51-6.62-3.82-10.02c-14.14-36.61-31.76-82.16-4.93-99.54c23.4-15.16,75.64,11.45,121.14,36.43l15.89,8.76
						c3.22,1.77,138.79,68.4,182.79,39.89c50.16-32.5-2.47-147.67-5.05-156.8c-1.07-3.78-17.6-60.27-0.35-71.45
						c26.08-16.9,88.36,10,97.08,10.77c2.38,0.93,94.05,25.86,129.09,3.16c0.56-0.36,1.12-0.74,1.67-1.12
						c29.27-20.24,29.75-47.53,18.78-84.12c0.26-0.03-2.73-8.66-3.65-11.37c0.07-3.58-8.37-22.9-9.68-26.31
						c-1.31-3.4-26.01-85.88-4.93-99.54C649.04,62.89,759.81,122.55,762.66,123.24z"/>
				</g>
				<g>
					<path class="st4" d="M709.09,88.85c-2.49-1.97-5.13-4.46-7.63-7.26c-13.2-0.02-25.64,3.8-38.85,13.04
						c-33.99,23.77-33.94,49.08-31.03,88.4c0.51,6.99,0.3,37.57,0.7,36.93c-1.68,19.52-8.22,38.65-27.49,52.66
						c-0.27,0.19-0.52,0.38-0.78,0.56c-16.46,11.51-87.24,10.9-88.87,10.9c-34.57,0.13-50.87-13.06-88.39,13.18
						c-28.04,19.61-27.17,72.31-26.57,72.18c0.31,2.4,9.12,84.26-27.21,109.67c-31.85,22.27-108.45-4.44-113.04-4.55
						c-2.06-0.86-11.8-5.06-13.43-5.76c-46.87-20.34-75-30.72-107.86-7.74c-34,23.77-33.94,49.08-31.03,88.39
						c0.4,5.44,1.52,35.96,0.79,38.97c-0.12,0.49-0.29,0.99-0.48,1.51c-0.27,2.29-0.59,4.57-1.02,6.84
						c-0.91,8.84-3.33,18.56-6.87,28.84c14.95-16.54,19.41-34.37,19.81-55.52c0.05-0.01,0.09-0.03,0.14-0.04
						c-0.09-0.29-0.05-10.85-0.04-11.44c0.02-0.25-0.39-4.48-0.46-6.44c-0.04-0.96-0.09-1.97-0.11-3.03c-0.03,0.1-0.07,0.2-0.11,0.3
						c-0.15-2.43-0.32-4.9-0.51-7.42c-2-27.09-4.5-60.79,21.39-78.9c22.59-15.8,57.63-2.67,87.69,10.2l10.49,4.52
						c2.12,0.92,93.67,33.03,136.15,3.33c48.42-33.86,35.62-117.81,35.87-124.71c0.11-2.86,1.25-45.49,17.91-57.14
						c25.18-17.61,68.18-5.82,74.96-6.57c1.67,0.38,68.69,5.99,102.52-17.67c0.54-0.38,1.09-0.77,1.62-1.15
						c28.58-20.78,35.92-42.7,36.45-70.27c0.22-0.06,0.02-6.51-0.03-8.53c0.97-2.88-0.86-17.02-1.05-19.54
						c-0.19-2.52,1.05-64.67,21.39-78.9c11.92-8.34,38-3.8,60.29,2.35C718.94,95.87,713.7,92.48,709.09,88.85z"/>
				</g>
				<path class="st4" d="M782.71,120.89c0,0,79.7,66.29,110.85,102.31l-72.01-42.81c0,0-52.3-56.68-95.07-74.7"/>
				<path class="st4" d="M76.1,536.29c0,0,7.72,64.93,33.41,152.96l17.02-53.47l-26.51-43.12l-20.28-56.37"/>
			</g>
		</g>
		<g>
			<g>
				<path class="st3" d="M662.31,677.36v-58.65l45.39,38.17l50.16-73.31c108.56-3.82,104.57,68.15,104.57,68.15v56.73h19.6v-73.24
					c-2.06-68.08-128.94-73.24-128.94-73.24c-33.01-3.09-35.36-50.21-35.36-50.21l-13.24,0l-4.17,13.86
					c1.29,8.85,3.98,16.37,7.46,22.81l-0.03-0.02l-54.86,35.23l-47.07-32.04l-37.52,58.32l32.84,44.9l42.6-39.2v61.74L662.31,677.36
					z M597.8,569.25l39.75,28.84l-35.07,30.35l-21.93-32.54 M666.43,597.06l48.07-38.68c8.79,10.78,19.68,17.26,28.01,20.92
					l-34.83,51.79L666.43,597.06z"/>
				<path class="st3" d="M602.23,661.19c-33.01-3.09-35.36-50.21-35.36-50.21l-19.69,5.5l2.28,8.36c1.29,8.85,3.98,16.37,7.46,22.81
					l-0.03-0.02l-54.86,35.23l-51.75-35.23l-0.03,0.02c3.49-6.44,6.17-13.96,7.46-22.81l2.48-9.11l-19.89-4.74
					c0,0-2.36,47.12-35.36,50.21c0,0-126.87,5.16-128.94,73.24v73.24h19.6v-56.73c0,0-3.92-71.05,102.53-68.2l52.15,71.29l42.6-39.2
					v92.83h18.57v-89.74l45.39,38.17L607,682.78c108.56-3.82,104.57,68.15,104.57,68.15v56.73h19.6v-73.24
					C729.1,666.35,602.23,661.19,602.23,661.19z M451.63,727.64l-33.81-50.18c6.51-3.1,14.18-7.86,21.14-14.81l47.74,34.64
					L451.63,727.64z M515.58,696.26l48.07-38.68c8.79,10.78,19.68,17.26,28.01,20.92l-34.83,51.79L515.58,696.26z"/>
				<path class="st3" d="M502.03,383.61c-63.25,0-114.53,51.28-114.53,114.53s51.28,141.8,114.53,141.8s114.53-78.54,114.53-141.8
					S565.29,383.61,502.03,383.61z M502.03,625.39c-56.07,0-101.53-69.63-101.53-125.7c0-56.07,45.46-101.53,101.53-101.53
					s101.53,45.46,101.53,101.53C603.56,555.76,558.11,625.39,502.03,625.39z"/>
				<path class="st3" d="M644.7,298.88c-56.64,0-103.64,41.12-112.86,95.14c5.15,0.09,9.44,1.49,12.89,3.75
					c8.18-47.87,49.77-84.34,99.97-84.34c56.07,0,101.53,45.46,101.53,101.53c0,56.07-45.46,125.7-101.53,125.7
					c-13.42,0-26.23-4-37.95-10.84c-1.07,4.55-3.33,8.78-6.38,12.24c13.64,8.27,28.61,13.15,44.33,13.15
					c63.25,0,114.53-78.54,114.53-141.8S707.96,298.88,644.7,298.88z"/>
			</g>
			<path class="st2" d="M445.65,398.44l6.45,12.83c0,0-42.54,20.79-50.54,73.72c0,0-10.98,59.87,39.83,111.62l-15.06,2.78
				c0,0-48.78-48.13-37.01-121.59C389.32,477.79,396.52,424.78,445.65,398.44z"/>
			<path class="st2" d="M689.49,307.98l-3.7,14.12c0,0-62.25-32.1-114.9,23.25l-12.05-7.69
				C558.84,337.65,613.85,276.33,689.49,307.98z"/>
		</g>
	</g>
</g>
<g id="Capa_4" class="st0">
	<g class="st1">
		<g>
			<path class="st5" d="M848.83,182.31c105.55,85.04,173.33,215.08,174.18,360.98c1.49,253.58-202.39,463.75-455.91,469.58
				c-233.65,5.37-429.48-160.95-470.15-381.61c0,0,65.74-189.59,171.08-94.41c0,0,103.99,98.85,197.07,54.56
				c0,0,66.47-32.2-16.47-186.33c-5.97-11.1-9.3-23.56-8.86-36.16c0.36-10.3,0.98-18.04,11-31.28c0,0,38.22-44.69,125.31,13.24
				c0,0,63.49,37.04,96.9,0c0,0,44.69-48.74-0.84-132.28c0,0-33.41-57.22-0.42-87.71c0,0,47.67-48.08,152.28,35.69L848.83,182.31z"
				/>
			<g>
				<g>
					<path class="st5" d="M762.47,123.24c2.07,1.14,21,11.25,38.29,20.16c-6.98-7.18-13.09-14.86-18.24-22.51
						c-3.2-2.04-5.52-3.48-5.53-3.45c-2.51-1.38-5-2.76-7.46-4.12c-71.06-39.3-112.93-60.46-146.97-38.4
						c-35.21,22.82-24.42,56.54-3.88,109.68c3.65,9.44,16.31,50.13,16.59,49.38c6.03,25.56,5.43,49.36-14.3,63
						c-0.27,0.19-0.54,0.37-0.81,0.54c-17.05,11.05-111.6-8.2-113.77-8.62c-45.99-8.82-73.3-30.65-112.17-5.46
						c-29.04,18.82-5.56,89.25-4.82,89.23c1.43,3.28,47.86,114.63,10.22,139.02c-32.99,21.37-146.36-34.16-152.52-35.51
						c-3.11-1.69-17.86-9.81-20.33-11.17c-71.06-39.3-112.93-60.46-146.97-38.4c-35.21,22.82-24.42,56.54-3.88,109.68
						c2.84,7.35,17.27,48.31,17.56,52.12c0.05,0.62,0.04,1.25,0,1.89c0.61,2.98,1.15,5.94,1.53,8.84
						c2.54,11.54,3.43,23.86,3.07,36.64c12.91-18.14,11.29-40.73,2.87-68.81c0.06-0.01,0.11-0.01,0.17-0.02
						c-0.24-0.41-4.67-14.47-4.89-15.24c-0.08-0.33-2.41-6.07-3.34-8.71c-0.45-1.28-0.95-2.64-1.43-4.07c0,0.13-0.01,0.25-0.02,0.37
						c-1.23-3.28-2.51-6.62-3.82-10.02c-14.14-36.61-31.76-82.16-4.93-99.54c23.4-15.16,75.64,11.45,121.14,36.43l15.89,8.76
						c3.22,1.77,138.79,68.4,182.79,39.89c50.16-32.5-2.47-147.67-5.05-156.8c-1.07-3.78-17.6-60.27-0.35-71.45
						c26.08-16.9,88.36,10,97.08,10.77c2.38,0.93,94.05,25.86,129.09,3.16c0.56-0.36,1.12-0.74,1.67-1.12
						c29.27-20.24,29.75-47.53,18.78-84.12c0.26-0.03-2.73-8.66-3.65-11.37c0.07-3.58-8.37-22.9-9.68-26.31
						c-1.31-3.4-26.01-85.88-4.93-99.54C648.85,62.89,759.61,122.55,762.47,123.24z"/>
				</g>
				<g>
					<path class="st5" d="M708.9,88.85c-2.49-1.97-5.13-4.46-7.63-7.26c-13.2-0.02-25.64,3.8-38.85,13.04
						c-33.99,23.77-33.94,49.08-31.03,88.4c0.51,6.99,0.3,37.57,0.7,36.93c-1.68,19.52-8.22,38.65-27.49,52.66
						c-0.27,0.19-0.52,0.38-0.78,0.56c-16.46,11.51-87.24,10.9-88.87,10.9c-34.57,0.13-50.87-13.06-88.39,13.18
						c-28.04,19.61-27.17,72.31-26.57,72.18c0.31,2.4,9.12,84.26-27.21,109.67c-31.85,22.27-108.45-4.44-113.04-4.55
						c-2.06-0.86-11.8-5.06-13.43-5.76c-46.87-20.34-75-30.72-107.86-7.74c-34,23.77-33.94,49.08-31.03,88.39
						c0.4,5.44,1.52,35.96,0.79,38.97c-0.12,0.49-0.29,0.99-0.48,1.51c-0.27,2.29-0.59,4.57-1.02,6.84
						c-0.91,8.84-3.33,18.56-6.87,28.84c14.95-16.54,19.41-34.37,19.81-55.52c0.05-0.01,0.09-0.03,0.14-0.04
						c-0.09-0.29-0.05-10.85-0.04-11.44c0.02-0.25-0.39-4.48-0.46-6.44c-0.04-0.96-0.09-1.97-0.11-3.03c-0.03,0.1-0.07,0.2-0.11,0.3
						c-0.15-2.43-0.32-4.9-0.51-7.42c-2-27.09-4.5-60.79,21.39-78.9c22.59-15.8,57.63-2.67,87.69,10.2l10.49,4.52
						c2.12,0.92,93.67,33.03,136.15,3.33c48.42-33.86,35.62-117.81,35.87-124.71c0.11-2.86,1.25-45.49,17.91-57.14
						c25.18-17.61,68.18-5.82,74.96-6.57c1.67,0.38,68.69,5.99,102.52-17.67c0.54-0.38,1.09-0.77,1.62-1.15
						c28.58-20.78,35.92-42.7,36.45-70.27c0.22-0.06,0.02-6.51-0.03-8.53c0.97-2.88-0.86-17.02-1.05-19.54
						c-0.19-2.52,1.05-64.67,21.39-78.9c11.92-8.34,38-3.8,60.29,2.35C718.75,95.87,713.5,92.48,708.9,88.85z"/>
				</g>
				<path class="st5" d="M782.52,120.89c0,0,79.7,66.29,110.85,102.31l-72.01-42.81c0,0-52.3-56.68-95.07-74.7"/>
				<path class="st5" d="M75.91,536.29c0,0,7.72,64.93,33.41,152.96l17.02-53.47l-26.51-43.12l-20.28-56.37"/>
			</g>
		</g>
		<g>
			<g>
				<path class="st6" d="M812.97,657.87c0.09,107.18-71.05,200.91-174.19,229.58c-132.86,36.92-269.28-46.58-297.01-181.79
					c-26.72-130.33,59.06-257.55,190.16-281.3c58.84-10.66,114.21-0.31,165.88,29.93c4.14,2.42,6.04,5.22,6.46,10.02
					c1.42,16.37,1.42,16.17-10.99,27.15c-4.34,3.84-7.26,4.19-12.39,0.91c-112.1-71.69-261.48-13.7-296.16,114.8
					c-30.4,112.64,44,227.23,159.31,245.36c106.49,16.74,205.67-53.65,224.89-159.94c7.26-40.16,2.21-79.01-14.78-116.17
					c-1.69-3.71-1.61-5.98,1.77-8.07c0.17-0.11,0.33-0.26,0.45-0.41c8.43-10.35,18.45-13.36,31.16-7.86
					c3.49,1.51,5.84,2.86,7.28,6.38C806.83,595.76,813.05,626.18,812.97,657.87z"/>
				<path class="st6" d="M827.15,375.34c1.65,19.15,3.48,37.23,4.59,55.35c0.33,5.43,2.45,7.21,7.33,8.31
					c17.67,3.97,35.25,8.36,52.86,12.59c0.48,0.68,0.96,1.36,1.44,2.04c-1.73,0.99-3.67,1.74-5.16,3.01
					c-28.42,24.3-56.84,48.61-85.11,73.09c-3.36,2.91-6.4,3.39-10.51,2.25c-8.26-2.28-16.7-3.91-24.96-6.2
					c-3.59-1-6.02-0.29-8.81,2.11c-28.47,24.56-57.06,48.98-85.61,73.45c-15.02,12.87-29.95,25.85-45.06,38.62
					c-2.97,2.51-3.94,4.79-3.18,8.83c5.03,26.7-12.02,52.91-37.92,58.79c-27.36,6.22-54.02-9.13-61.01-35.9
					c-5.03-19.25-0.67-36.7,14.07-50.48c14.64-13.68,32.06-17.42,51.15-11.15c4.34,1.42,6.91,0.79,10.24-2.08
					c43.17-37.24,86.44-74.36,129.81-111.38c2.99-2.55,4.21-5.05,3.79-8.9c-0.98-9.14-1.86-18.31-2.29-27.48
					c-0.1-2.24,1.04-5.3,2.7-6.74c29.5-25.56,59.16-50.94,88.8-76.34C824.91,376.65,825.62,376.31,827.15,375.34z"/>
				<path class="st6" d="M645.22,532.45c-10.84,9.3-21.09,18.34-31.71,26.93c-1.51,1.22-4.97,0.86-7.22,0.19
					c-27.1-7.95-53.25-6.03-78.58,6.72c-38.32,19.28-60.26,60.78-55.26,104.76c4.73,41.61,36.29,77.24,77.22,87.19
					c66.74,16.23,130.21-33.99,128.94-102.02c-0.03-1.63,0.23-3.41-0.3-4.88c-4.16-11.53,0.9-18.88,10.16-25.3
					c7.18-4.99,13.47-11.27,20.16-16.96c0.29-0.25,0.73-0.33,1.76-0.77c9.05,23.43,11.1,47.56,7.28,72.06
					c-5.65,36.21-22.93,66.1-51.16,89.48c-56.54,46.83-140.83,42.7-193.36-9.34c-52.14-51.66-56.83-136.01-10.7-192.82
					C510.8,508.13,590.51,500.8,645.22,532.45z"/>
			</g>
			<path class="st7" d="M468.28,445.47l12.2,40.05c0,0-73.13,34.83-93.74,114.71l-38.48-14.74
				C348.26,585.49,379.46,481.05,468.28,445.47z"/>
		</g>
	</g>
</g>
<g id="Capa_5" class="st0">
	<g class="st1">
		<g>
			<path class="st5" d="M849.15,182.44c105.66,85.13,173.51,215.31,174.36,361.37c1.49,253.85-202.61,464.24-456.39,470.07
				c-233.9,5.37-429.93-161.12-470.64-382.02c0,0,65.81-189.79,171.27-94.51c0,0,104.1,98.96,197.28,54.62
				c0,0,66.54-32.23-16.48-186.52c-5.98-11.11-9.31-23.59-8.87-36.2c0.36-10.32,0.98-18.06,11.01-31.31
				c0,0,38.26-44.74,125.44,13.25c0,0,63.56,37.08,97.01,0c0,0,44.74-48.79-0.84-132.42c0,0-33.45-57.28-0.42-87.81
				c0,0,47.72-48.13,152.44,35.73L849.15,182.44z"/>
			<g>
				<g>
					<path class="st5" d="M762.71,123.3c2.08,1.14,21.02,11.26,38.33,20.18c-6.99-7.19-13.1-14.88-18.26-22.54
						c-3.21-2.04-5.53-3.48-5.54-3.46c-2.51-1.39-5-2.76-7.47-4.13c-71.14-39.34-113.05-60.52-147.13-38.44
						c-35.25,22.84-24.44,56.6-3.88,109.79c3.65,9.45,16.33,50.18,16.6,49.43c6.04,25.59,5.44,49.41-14.32,63.07
						c-0.27,0.19-0.54,0.37-0.81,0.54c-17.07,11.06-111.71-8.21-113.89-8.63c-46.04-8.83-73.38-30.68-112.29-5.47
						c-29.07,18.84-5.56,89.35-4.82,89.33c1.43,3.29,47.91,114.75,10.23,139.17c-33.02,21.4-146.51-34.19-152.68-35.54
						c-3.11-1.69-17.88-9.82-20.35-11.18c-71.14-39.34-113.05-60.52-147.13-38.44c-35.25,22.84-24.44,56.6-3.88,109.79
						c2.84,7.35,17.29,48.36,17.58,52.17c0.05,0.62,0.04,1.25,0,1.89c0.61,2.98,1.15,5.94,1.53,8.85
						c2.54,11.56,3.43,23.88,3.07,36.68c12.92-18.16,11.3-40.77,2.87-68.88c0.06-0.01,0.11-0.01,0.17-0.02
						c-0.24-0.41-4.67-14.48-4.9-15.26c-0.08-0.33-2.42-6.08-3.35-8.71c-0.45-1.28-0.95-2.65-1.43-4.07c0,0.13-0.01,0.25-0.02,0.37
						c-1.23-3.28-2.51-6.62-3.83-10.03c-14.16-36.65-31.79-82.25-4.94-99.64c23.43-15.18,75.72,11.46,121.27,36.47l15.9,8.77
						c3.22,1.77,138.94,68.47,182.99,39.93c50.21-32.54-2.47-147.82-5.06-156.97c-1.07-3.78-17.62-60.33-0.35-71.53
						c26.11-16.92,88.46,10.01,97.18,10.79c2.38,0.94,94.15,25.89,129.23,3.16c0.56-0.36,1.13-0.74,1.67-1.12
						c29.3-20.26,29.78-47.58,18.8-84.21c0.26-0.03-2.74-8.67-3.66-11.38c0.07-3.58-8.37-22.93-9.69-26.34
						c-1.32-3.41-26.03-85.98-4.94-99.64C648.96,62.89,759.85,122.61,762.71,123.3z"/>
				</g>
				<g>
					<path class="st5" d="M709.08,88.87c-2.5-1.97-5.13-4.46-7.64-7.27c-13.21-0.02-25.67,3.81-38.89,13.05
						c-34.03,23.8-33.98,49.13-31.06,88.49c0.52,7,0.3,37.61,0.7,36.97c-1.68,19.54-8.22,38.7-27.52,52.72
						c-0.27,0.19-0.52,0.38-0.78,0.56c-16.48,11.52-87.33,10.91-88.97,10.92c-34.6,0.13-50.93-13.07-88.49,13.19
						c-28.07,19.63-27.2,72.39-26.6,72.25c0.31,2.41,9.13,84.35-27.24,109.79c-31.88,22.29-108.57-4.44-113.16-4.56
						c-2.06-0.87-11.81-5.06-13.44-5.77c-46.92-20.36-75.08-30.75-107.98-7.75c-34.03,23.8-33.98,49.13-31.06,88.49
						c0.4,5.44,1.53,36,0.79,39.01c-0.12,0.49-0.29,1-0.48,1.52c-0.27,2.29-0.59,4.58-1.03,6.84c-0.91,8.85-3.34,18.58-6.88,28.87
						c14.96-16.56,19.43-34.4,19.84-55.58c0.05-0.01,0.09-0.03,0.14-0.04c-0.09-0.29-0.05-10.86-0.04-11.45
						c0.02-0.25-0.39-4.49-0.46-6.45c-0.04-0.96-0.09-1.97-0.11-3.03c-0.03,0.1-0.08,0.2-0.11,0.3c-0.15-2.43-0.32-4.91-0.51-7.43
						c-2-27.12-4.51-60.86,21.42-78.98c22.62-15.82,57.69-2.67,87.78,10.21l10.5,4.53c2.13,0.92,93.77,33.07,136.3,3.33
						c48.47-33.9,35.66-117.93,35.91-124.85c0.11-2.86,1.26-45.53,17.93-57.2c25.21-17.63,68.26-5.83,75.04-6.57
						c1.67,0.38,68.77,5.99,102.63-17.69c0.54-0.38,1.09-0.77,1.62-1.15c28.61-20.8,35.95-42.75,36.49-70.34
						c0.22-0.06,0.02-6.51-0.03-8.54c0.97-2.88-0.87-17.04-1.05-19.56c-0.19-2.52,1.05-64.74,21.41-78.98
						c11.94-8.35,38.04-3.81,60.36,2.36C718.94,95.9,713.69,92.51,709.08,88.87z"/>
				</g>
				<path class="st5" d="M782.78,120.95c0,0,79.78,66.36,110.97,102.42l-72.09-42.85c0,0-52.35-56.74-95.17-74.78"/>
				<path class="st5" d="M75.42,536.78c0,0,7.73,65,33.44,153.12l17.04-53.53l-26.53-43.16l-20.3-56.43"/>
			</g>
		</g>
		<g>
			<g>
				<path class="st8" d="M561.03,744.48c-39.7-1.64-73.99-16.24-105.7-37.62c-29.71-20.03-55.12-44.58-76.95-72.7
					c-2.34-3.02-4.5-5.48-1.19-9.68c33.88-43.02,73.72-78.86,125.96-99.25c51.71-20.17,100.62-11.46,147.15,15.87
					c36.2,21.26,66.18,49.32,91.83,81.99c2.41,3.07,4.44,5.54,1.13,9.68c-37.19,46.53-80.36,85.44-139.34,103.5
					C590.11,740.52,575.36,741.83,561.03,744.48z M469.02,628.61c-0.01,48.86,41.68,89.66,91.4,89.46
					c50.04-0.21,91.4-41.03,90.99-89.82c-0.41-48.85-41.43-89-90.92-89.01C510.46,539.23,469.03,579.71,469.02,628.61z
					 M668.96,670.66c0.79,0.4,1.57,0.8,2.36,1.2c14.55-13.93,29.11-27.87,44.84-42.93c-16.14-16.08-30.4-30.28-44.65-44.47
					c-0.91,0.6-1.81,1.2-2.72,1.8C679.82,614.4,679.24,642.53,668.96,670.66z M448.62,672.85c1.03-0.69,2.06-1.37,3.09-2.06
					c-10.99-28.11-10.45-56.29-0.29-84.54c-0.84-0.48-1.68-0.96-2.52-1.44c-14.43,14.05-28.86,28.11-45.03,43.85
					C419.99,644.57,434.3,658.71,448.62,672.85z"/>
				<path class="st8" d="M490.22,407.76c0,8.83,0,16.74,0,25.36c-26.67,0-52.72-0.2-78.78,0.06c-23.65,0.24-43,14.94-48.87,37.33
					c-1.65,6.29-1.69,13.08-1.75,19.65c-0.2,20.99-0.26,42,0.08,62.99c0.1,6.08-1.88,8.24-8.04,7.72c-5.48-0.46-11.03-0.1-17.38-0.1
					c-0.22-3.49-0.53-6.23-0.53-8.97c-0.04-22.72-0.09-45.44,0.01-68.17c0.16-40.32,31.49-73.71,72.64-75.63
					C434.79,406.73,462.1,407.76,490.22,407.76z"/>
				<path class="st8" d="M784.5,560.29c-8.14,0-15.93,0-24.85,0c0-3.54,0-6.61,0-9.67c0-22.17,0.06-44.34-0.02-66.51
					c-0.11-29.11-21.73-50.59-51.55-50.92c-22.61-0.26-45.22-0.07-67.83-0.08c-3.18,0-6.35,0-10.19,0c0-8.64,0-16.5,0-25.45
					c5.39,0,10.58,0,15.76,0c20.85,0,41.7-0.13,62.54,0.02c38.62,0.28,72.06,27.29,75.6,64.89
					C786.66,501.31,784.5,530.49,784.5,560.29z"/>
				<path class="st8" d="M334.93,696.49c7.71,0,14.46-0.54,21.01,0.34c1.9,0.25,4.58,4.53,4.62,7c0.4,23.86-0.04,47.74,0.45,71.6
					c0.48,23.5,16.38,42.29,39.68,47.51c5.07,1.14,10.47,1.15,15.71,1.18c24.32,0.11,48.65,0.05,73.7,0.05c0,8.62,0,16.75,0,24.27
					c-30.32,0-60.36,2.09-89.97-0.54c-35.36-3.14-61.86-32.92-65.04-67.86c-0.26-2.86-0.16-5.75-0.16-8.62
					C334.93,746.98,334.93,722.56,334.93,696.49z"/>
				<path class="st8" d="M630.08,824.14c26.57,0,52.37,0.18,78.17-0.05c25.22-0.22,44.89-15.87,50.47-39.96
					c0.9-3.87,0.88-7.99,0.89-12c0.11-24.18,0.1-48.37,0.16-72.55c0-0.55,0.3-1.1,0.67-2.37c7.79,0,15.81,0,23.77,0
					c0.4,0.56,1.01,1.02,1.01,1.47c-0.18,28.46,1.63,57.12-1.14,85.34c-3.56,36.3-32.5,61.6-69.75,65.36
					c-2.91,0.29-5.86,0.23-8.8,0.23c-24.92,0.02-49.85,0.01-75.47,0.01C630.08,841.2,630.08,833.33,630.08,824.14z"/>
				<path class="st8" d="M522.09,621.01c25.17,3.65,35.57-6.48,30.35-29.58c18.99-3.28,34.46,3.72,42.84,19.39
					c7.5,14.02,4.84,32.92-6.22,44.17c-12.38,12.59-31.25,15.82-46.83,8.03C526.54,655.18,519.21,639.89,522.09,621.01z"/>
			</g>
			<path class="st9" d="M449.7,407.6l10.88,25.47h-43.34c0,0-30.73-5.41-46.32,20.03c0,0-13.09,14.59-10.22,53.81l-0.41,53.37
				l-24.81,0.48l-0.58-79.13c0,0-2.49-47.65,46.89-67.94C381.79,413.71,418.17,405.28,449.7,407.6z"/>
			<path class="st9" d="M397.73,600.21h35.37l15.61-16.66l3,1.26l-3.61,11.94l12.48-1.59l29.47-53.87l-1.56-9.77
				C488.48,531.52,433.68,558.05,397.73,600.21z"/>
		</g>
	</g>
</g>
<g id="Capa_6" class="st0">
	<g class="st1">
		<g>
			<path class="st5" d="M848.83,182.31c105.55,85.04,173.33,215.08,174.18,360.98c1.49,253.58-202.39,463.75-455.91,469.58
				c-233.65,5.37-429.48-160.95-470.15-381.61c0,0,65.74-189.59,171.08-94.41c0,0,103.99,98.85,197.07,54.56
				c0,0,66.47-32.2-16.47-186.33c-5.97-11.1-9.3-23.56-8.86-36.16c0.36-10.3,0.98-18.04,11-31.28c0,0,38.22-44.69,125.31,13.24
				c0,0,63.49,37.04,96.9,0c0,0,44.69-48.74-0.84-132.28c0,0-33.41-57.22-0.42-87.71c0,0,47.67-48.08,152.28,35.69L848.83,182.31z"
				/>
			<g>
				<g>
					<path class="st5" d="M762.47,123.24c2.07,1.14,21,11.25,38.29,20.16c-6.98-7.18-13.09-14.86-18.24-22.51
						c-3.2-2.04-5.52-3.48-5.53-3.45c-2.51-1.38-5-2.76-7.46-4.12c-71.06-39.3-112.93-60.46-146.97-38.4
						c-35.21,22.82-24.42,56.54-3.88,109.68c3.65,9.44,16.31,50.13,16.59,49.38c6.03,25.56,5.43,49.36-14.3,63
						c-0.27,0.19-0.54,0.37-0.81,0.54c-17.05,11.05-111.6-8.2-113.77-8.62c-45.99-8.82-73.3-30.65-112.17-5.46
						c-29.04,18.82-5.56,89.25-4.82,89.23c1.43,3.28,47.86,114.63,10.22,139.02c-32.99,21.37-146.36-34.16-152.52-35.51
						c-3.11-1.69-17.86-9.81-20.33-11.17c-71.06-39.3-112.93-60.46-146.97-38.4c-35.21,22.82-24.42,56.54-3.88,109.68
						c2.84,7.35,17.27,48.31,17.56,52.12c0.05,0.62,0.04,1.25,0,1.89c0.61,2.98,1.15,5.94,1.53,8.84
						c2.54,11.54,3.43,23.86,3.07,36.64c12.91-18.14,11.29-40.73,2.87-68.81c0.06-0.01,0.11-0.01,0.17-0.02
						c-0.24-0.41-4.67-14.47-4.89-15.24c-0.08-0.33-2.41-6.07-3.34-8.71c-0.45-1.28-0.95-2.64-1.43-4.07c0,0.13-0.01,0.25-0.02,0.37
						c-1.23-3.28-2.51-6.62-3.82-10.02c-14.14-36.61-31.76-82.16-4.93-99.54c23.4-15.16,75.64,11.45,121.14,36.43l15.89,8.76
						c3.22,1.77,138.79,68.4,182.79,39.89c50.16-32.5-2.47-147.67-5.05-156.8c-1.07-3.78-17.6-60.27-0.35-71.45
						c26.08-16.9,88.36,10,97.08,10.77c2.38,0.93,94.05,25.86,129.09,3.16c0.56-0.36,1.12-0.74,1.67-1.12
						c29.27-20.24,29.75-47.53,18.78-84.12c0.26-0.03-2.73-8.66-3.65-11.37c0.07-3.58-8.37-22.9-9.68-26.31
						c-1.31-3.4-26.01-85.88-4.93-99.54C648.85,62.89,759.61,122.55,762.47,123.24z"/>
				</g>
				<g>
					<path class="st5" d="M708.9,88.85c-2.49-1.97-5.13-4.46-7.63-7.26c-13.2-0.02-25.64,3.8-38.85,13.04
						c-33.99,23.77-33.94,49.08-31.03,88.4c0.51,6.99,0.3,37.57,0.7,36.93c-1.68,19.52-8.22,38.65-27.49,52.66
						c-0.27,0.19-0.52,0.38-0.78,0.56c-16.46,11.51-87.24,10.9-88.87,10.9c-34.57,0.13-50.87-13.06-88.39,13.18
						c-28.04,19.61-27.17,72.31-26.57,72.18c0.31,2.4,9.12,84.26-27.21,109.67c-31.85,22.27-108.45-4.44-113.04-4.55
						c-2.06-0.86-11.8-5.06-13.43-5.76c-46.87-20.34-75-30.72-107.86-7.74c-34,23.77-33.94,49.08-31.03,88.39
						c0.4,5.44,1.52,35.96,0.79,38.97c-0.12,0.49-0.29,0.99-0.48,1.51c-0.27,2.29-0.59,4.57-1.02,6.84
						c-0.91,8.84-3.33,18.56-6.87,28.84c14.95-16.54,19.41-34.37,19.81-55.52c0.05-0.01,0.09-0.03,0.14-0.04
						c-0.09-0.29-0.05-10.85-0.04-11.44c0.02-0.25-0.39-4.48-0.46-6.44c-0.04-0.96-0.09-1.97-0.11-3.03c-0.03,0.1-0.07,0.2-0.11,0.3
						c-0.15-2.43-0.32-4.9-0.51-7.42c-2-27.09-4.5-60.79,21.39-78.9c22.59-15.8,57.63-2.67,87.69,10.2l10.49,4.52
						c2.12,0.92,93.67,33.03,136.15,3.33c48.42-33.86,35.62-117.81,35.87-124.71c0.11-2.86,1.25-45.49,17.91-57.14
						c25.18-17.61,68.18-5.82,74.96-6.57c1.67,0.38,68.69,5.99,102.52-17.67c0.54-0.38,1.09-0.77,1.62-1.15
						c28.58-20.78,35.92-42.7,36.45-70.27c0.22-0.06,0.02-6.51-0.03-8.53c0.97-2.88-0.86-17.02-1.05-19.54
						c-0.19-2.52,1.05-64.67,21.39-78.9c11.92-8.34,38-3.8,60.29,2.35C718.75,95.87,713.5,92.48,708.9,88.85z"/>
				</g>
				<path class="st5" d="M782.52,120.89c0,0,79.7,66.29,110.85,102.31l-72.01-42.81c0,0-52.3-56.68-95.07-74.7"/>
				<path class="st5" d="M75.91,536.29c0,0,7.72,64.93,33.41,152.96l17.02-53.47l-26.51-43.12l-20.28-56.37"/>
			</g>
		</g>
		<g>
			<path class="st8" d="M344.9,807.79h-42.74V618.5h42.74c1.57,0,2.85,1.28,2.85,2.85v183.58
				C347.75,806.51,346.47,807.79,344.9,807.79z"/>
			<polygon class="st8" points="596.95,585.95 626.1,570.63 620.53,603.08 644.11,626.07 611.52,630.8 596.95,660.32 582.38,630.8 
				549.8,626.07 573.38,603.08 567.81,570.63 			"/>
			<polygon class="st8" points="511.47,578.58 534.29,566.58 529.93,591.99 548.4,609.99 522.88,613.7 511.47,636.82 500.06,613.7 
				474.54,609.99 493.01,591.99 488.65,566.58 			"/>
			<polygon class="st9" points="438.27,531.01 461.1,519.02 456.74,544.43 475.2,562.43 449.69,566.13 438.27,589.25 426.86,566.13 
				401.35,562.43 419.81,544.43 415.45,519.02 			"/>
			<polygon class="st8" points="754.02,531.01 776.84,519.02 772.48,544.43 790.94,562.43 765.43,566.13 754.02,589.25 
				742.61,566.13 717.09,562.43 735.56,544.43 731.2,519.02 			"/>
			<polygon class="st8" points="681.38,578.58 704.2,566.58 699.84,591.99 718.3,609.99 692.79,613.7 681.38,636.82 669.96,613.7 
				644.45,609.99 662.91,591.99 658.55,566.58 			"/>
			<path class="st8" d="M359.59,660.29v111.23l183.59,45.32c0,0,17.74,9.13,40.31,9.52c0,0,44.71,0.85,55.72-26.16l203.61-163.08
				c0,0,18.24-12.54,3.63-32.87c0,0-14.49-18.35-32.87-3.63l-112.09,89.78c0,0,1.81,33.06-36.08,36.63H501.74
				c-2.5,0-4.53-2.03-4.53-4.53s2.03-4.53,4.53-4.53h156.33c0,0,22.79,1.18,23.7-23.7c0,0,0.42-21.71-23.7-23.7H562.5
				c0,0-28.48-6.11-30.1-9.53C532.4,661.03,485.69,636.57,359.59,660.29z"/>
			<path class="st8" d="M596.63,385.55c-45.86,0-83.04,37.18-83.04,83.04c0,45.86,37.18,83.04,83.04,83.04
				c45.86,0,83.04-37.18,83.04-83.04C679.67,422.73,642.49,385.55,596.63,385.55z M653.1,441.06
				c-18.91,25.88-37.82,51.76-56.73,77.64c-3.2,4.37-8.44,5.28-12.65,1.63c-14.1-12.23-28.19-24.46-42.29-36.69
				c-7.85-6.81,3.59-18.15,11.39-11.39c11.76,10.2,23.52,20.41,35.28,30.61c17.03-23.31,34.06-46.62,51.1-69.93
				C645.25,424.64,659.22,432.68,653.1,441.06z"/>
		</g>
	</g>
</g>
<g id="Capa_9" class="st0">
	<g class="st1">
		<g>
			<path class="st5" d="M849.11,182.44c105.66,85.13,173.51,215.31,174.36,361.37c1.49,253.85-202.61,464.24-456.39,470.07
				c-233.9,5.37-429.93-161.12-470.64-382.02c0,0,65.81-189.79,171.26-94.51c0,0,104.1,98.96,197.28,54.62
				c0,0,66.54-32.23-16.48-186.52c-5.98-11.11-9.31-23.59-8.87-36.2c0.36-10.32,0.98-18.06,11.01-31.31
				c0,0,38.26-44.74,125.44,13.25c0,0,63.56,37.08,97.01,0c0,0,44.74-48.79-0.84-132.42c0,0-33.45-57.28-0.42-87.81
				c0,0,47.72-48.13,152.44,35.73L849.11,182.44z"/>
			<g>
				<g>
					<path class="st5" d="M762.66,123.3c2.08,1.14,21.02,11.26,38.33,20.18c-6.99-7.19-13.1-14.88-18.26-22.54
						c-3.21-2.04-5.53-3.48-5.54-3.46c-2.51-1.39-5-2.76-7.47-4.13c-71.14-39.34-113.05-60.52-147.13-38.44
						c-35.25,22.84-24.44,56.6-3.88,109.79c3.65,9.45,16.33,50.18,16.6,49.43c6.04,25.59,5.44,49.41-14.32,63.07
						c-0.27,0.19-0.54,0.37-0.81,0.54c-17.07,11.06-111.71-8.21-113.89-8.63c-46.04-8.83-73.38-30.68-112.29-5.47
						c-29.07,18.84-5.56,89.35-4.82,89.33c1.43,3.29,47.91,114.75,10.23,139.17c-33.02,21.4-146.51-34.19-152.68-35.54
						c-3.11-1.69-17.88-9.82-20.35-11.18c-71.14-39.34-113.05-60.52-147.13-38.44c-35.25,22.84-24.44,56.6-3.88,109.79
						c2.84,7.35,17.29,48.36,17.58,52.17c0.05,0.62,0.04,1.25,0,1.89c0.61,2.98,1.15,5.94,1.53,8.85
						c2.54,11.56,3.43,23.88,3.07,36.68c12.92-18.16,11.3-40.77,2.87-68.88c0.06-0.01,0.11-0.01,0.17-0.02
						c-0.24-0.41-4.67-14.48-4.9-15.26c-0.08-0.33-2.42-6.08-3.35-8.71c-0.45-1.28-0.95-2.65-1.43-4.07c0,0.13-0.01,0.25-0.02,0.37
						c-1.23-3.28-2.51-6.62-3.83-10.03c-14.16-36.65-31.79-82.25-4.94-99.64c23.43-15.18,75.72,11.46,121.27,36.47l15.9,8.77
						c3.22,1.77,138.94,68.47,182.99,39.93c50.21-32.54-2.47-147.82-5.06-156.97c-1.07-3.78-17.62-60.33-0.35-71.53
						c26.11-16.92,88.46,10.01,97.18,10.79c2.38,0.94,94.15,25.89,129.23,3.16c0.56-0.36,1.13-0.74,1.67-1.12
						c29.3-20.26,29.78-47.58,18.8-84.21c0.26-0.03-2.74-8.67-3.66-11.38c0.07-3.58-8.37-22.93-9.69-26.34
						c-1.32-3.41-26.03-85.98-4.94-99.64C648.91,62.89,759.8,122.61,762.66,123.3z"/>
				</g>
				<g>
					<path class="st5" d="M709.03,88.87c-2.5-1.97-5.13-4.46-7.64-7.27c-13.21-0.02-25.67,3.81-38.89,13.05
						c-34.03,23.8-33.98,49.13-31.06,88.49c0.52,7,0.3,37.61,0.71,36.97c-1.68,19.54-8.22,38.7-27.52,52.72
						c-0.27,0.19-0.52,0.38-0.78,0.56c-16.48,11.52-87.33,10.91-88.97,10.92c-34.6,0.13-50.93-13.07-88.49,13.19
						c-28.06,19.63-27.2,72.39-26.6,72.25c0.31,2.41,9.13,84.35-27.24,109.79c-31.88,22.29-108.57-4.44-113.16-4.56
						c-2.06-0.87-11.81-5.06-13.44-5.77c-46.92-20.36-75.08-30.75-107.98-7.75c-34.03,23.8-33.98,49.13-31.06,88.49
						c0.4,5.44,1.53,36,0.79,39.01c-0.12,0.49-0.29,1-0.48,1.52c-0.27,2.29-0.59,4.58-1.03,6.84c-0.91,8.85-3.34,18.58-6.88,28.87
						c14.96-16.56,19.43-34.4,19.84-55.58c0.05-0.01,0.09-0.03,0.14-0.04c-0.09-0.29-0.05-10.86-0.04-11.45
						c0.02-0.25-0.39-4.49-0.46-6.45c-0.04-0.96-0.09-1.97-0.11-3.03c-0.03,0.1-0.08,0.2-0.11,0.3c-0.15-2.43-0.32-4.91-0.51-7.43
						c-2-27.12-4.51-60.86,21.42-78.98c22.62-15.82,57.69-2.67,87.78,10.21l10.5,4.53c2.13,0.92,93.77,33.07,136.3,3.33
						c48.47-33.9,35.66-117.93,35.91-124.85c0.11-2.86,1.26-45.53,17.93-57.2c25.21-17.63,68.26-5.83,75.04-6.57
						c1.67,0.38,68.77,5.99,102.63-17.69c0.54-0.38,1.09-0.77,1.62-1.15c28.61-20.8,35.95-42.75,36.49-70.34
						c0.22-0.06,0.02-6.51-0.03-8.54c0.97-2.88-0.87-17.04-1.05-19.56c-0.19-2.52,1.05-64.74,21.41-78.98
						c11.94-8.35,38.04-3.81,60.36,2.36C718.89,95.9,713.64,92.51,709.03,88.87z"/>
				</g>
				<path class="st5" d="M782.73,120.95c0,0,79.78,66.36,110.97,102.42l-72.09-42.85c0,0-52.35-56.74-95.17-74.78"/>
				<path class="st5" d="M75.37,536.78c0,0,7.73,65,33.44,153.12l17.04-53.53l-26.53-43.16l-20.3-56.43"/>
			</g>
		</g>
		<g id="XMLID_00000029005827093297879620000005516607202299160215_">
			<path id="XMLID_00000178170288839741299440000005901850106123595691_" class="st10" d="M862.78,555.68
				c-49.09,178.55-206.94,309.62-392.77,326.12c-4.24,0.39-8.47,0.58-12.64,0.58c-17.7,0-34.69-3.43-49.71-10.08
				c-4.51-1.99-8.32-3.94-11.38-5.82c-8.21-4.68-15.53-10.53-21.74-17.37l-17.05-18.67c-3.39-3.69-6.55-7.96-9.68-13.02
				c-5.13-8.26-8.79-16.92-10.88-25.72c-7.52-31.44,2.77-64.37,26.86-85.95l0,0l28.78-25.77c11.58-10.37,25.82-17.58,41.21-20.82
				c6.29-1.34,12.53-2.01,18.57-2.01c25.15,0,49.24,10.6,66.12,29.06l17.05,18.69c6.8,7.43,12.18,15.81,16.06,24.98
				c68.79-28.45,125.19-79.59,159.89-144.99c-12.73-4.96-24.17-12.8-33.41-22.93l-17.06-18.67c-15.97-17.49-24.11-40.09-22.92-63.64
				c0.12-2.29,0.39-4.56,0.68-6.8c2.67-20.89,12.81-40.15,28.57-54.27l28.77-25.76c16.41-14.71,37.63-22.82,59.75-22.82
				c4.76,0,9.73,0.46,15.16,1.4c15.94,2.74,30.85,9.71,43.09,20.15c3.12,2.66,5.63,5.06,7.87,7.52l17.03,18.65
				c2.35,2.55,4.59,5.34,6.7,8.3c18.71,16.34,33.52,52.44,24.82,97C868.44,533.63,865.92,544.31,862.78,555.68z"/>
		</g>
	</g>
</g>
<g id="Capa_10">
	<g>
		<g>
			<path class="st5" d="M848.78,182.31c105.55,85.04,173.33,215.08,174.18,360.98c1.49,253.58-202.39,463.75-455.91,469.58
				C333.4,1018.24,137.57,851.93,96.9,631.26c0,0,65.74-189.59,171.08-94.41c0,0,103.99,98.85,197.07,54.56
				c0,0,66.47-32.2-16.47-186.33c-5.97-11.1-9.3-23.56-8.86-36.16c0.36-10.3,0.98-18.04,11-31.28c0,0,38.22-44.69,125.31,13.24
				c0,0,63.49,37.04,96.9,0c0,0,44.69-48.74-0.84-132.28c0,0-33.41-57.22-0.42-87.71c0,0,47.67-48.08,152.28,35.69L848.78,182.31z"
				/>
			<g>
				<g>
					<path class="st5" d="M762.42,123.24c2.07,1.14,21,11.25,38.29,20.16c-6.98-7.18-13.09-14.86-18.24-22.51
						c-3.2-2.04-5.52-3.48-5.53-3.45c-2.51-1.38-5-2.76-7.46-4.12c-71.06-39.3-112.93-60.46-146.97-38.4
						c-35.21,22.82-24.42,56.54-3.88,109.68c3.65,9.44,16.31,50.13,16.59,49.38c6.03,25.56,5.43,49.36-14.3,63
						c-0.27,0.19-0.54,0.37-0.81,0.54c-17.05,11.05-111.6-8.2-113.77-8.62c-45.99-8.82-73.3-30.65-112.17-5.46
						c-29.04,18.82-5.56,89.25-4.82,89.23c1.43,3.28,47.86,114.63,10.22,139.02c-32.99,21.37-146.36-34.16-152.52-35.51
						c-3.11-1.69-17.86-9.81-20.33-11.17c-71.06-39.3-112.93-60.46-146.97-38.4c-35.21,22.82-24.42,56.54-3.88,109.68
						c2.84,7.35,17.27,48.31,17.56,52.12c0.05,0.62,0.04,1.25,0,1.89c0.61,2.98,1.15,5.94,1.53,8.84
						c2.54,11.54,3.43,23.86,3.07,36.64c12.91-18.14,11.29-40.73,2.87-68.81c0.06-0.01,0.11-0.01,0.17-0.02
						c-0.24-0.41-4.67-14.47-4.89-15.24c-0.08-0.33-2.41-6.07-3.34-8.71c-0.45-1.28-0.95-2.64-1.43-4.07c0,0.13-0.01,0.25-0.02,0.37
						c-1.23-3.28-2.51-6.62-3.82-10.02c-14.14-36.61-31.76-82.16-4.93-99.54c23.4-15.16,75.64,11.45,121.14,36.43l15.89,8.76
						c3.22,1.77,138.79,68.4,182.79,39.89c50.16-32.5-2.47-147.67-5.05-156.8c-1.07-3.78-17.6-60.27-0.35-71.45
						c26.08-16.9,88.36,10,97.08,10.77c2.38,0.93,94.05,25.86,129.09,3.16c0.56-0.36,1.12-0.74,1.67-1.12
						c29.27-20.24,29.75-47.53,18.78-84.12c0.26-0.03-2.73-8.66-3.65-11.37c0.07-3.58-8.37-22.9-9.68-26.31
						c-1.31-3.4-26.01-85.88-4.93-99.54C648.8,62.89,759.57,122.55,762.42,123.24z"/>
				</g>
				<g>
					<path class="st5" d="M708.85,88.85c-2.49-1.97-5.13-4.46-7.63-7.26c-13.2-0.02-25.64,3.8-38.85,13.04
						c-33.99,23.77-33.94,49.08-31.03,88.4c0.51,6.99,0.3,37.57,0.7,36.93c-1.68,19.52-8.22,38.65-27.49,52.66
						c-0.27,0.19-0.52,0.38-0.78,0.56c-16.46,11.51-87.24,10.9-88.87,10.9c-34.57,0.13-50.87-13.06-88.39,13.18
						c-28.04,19.61-27.17,72.31-26.57,72.18c0.31,2.4,9.12,84.26-27.21,109.67c-31.85,22.27-108.45-4.44-113.04-4.55
						c-2.06-0.86-11.8-5.06-13.43-5.76c-46.87-20.34-75-30.72-107.86-7.74c-34,23.77-33.94,49.08-31.03,88.39
						c0.4,5.44,1.52,35.96,0.79,38.97c-0.12,0.49-0.29,0.99-0.48,1.51c-0.27,2.29-0.59,4.57-1.02,6.84
						c-0.91,8.84-3.33,18.56-6.87,28.84c14.95-16.54,19.41-34.37,19.81-55.52c0.05-0.01,0.09-0.03,0.14-0.04
						c-0.09-0.29-0.05-10.85-0.04-11.44c0.02-0.25-0.39-4.48-0.46-6.44c-0.04-0.96-0.09-1.97-0.11-3.03c-0.03,0.1-0.07,0.2-0.11,0.3
						c-0.15-2.43-0.32-4.9-0.51-7.42c-2-27.09-4.5-60.79,21.39-78.9c22.59-15.8,57.63-2.67,87.69,10.2l10.49,4.52
						c2.12,0.92,93.67,33.03,136.15,3.33c48.42-33.86,35.62-117.81,35.87-124.71c0.11-2.86,1.25-45.49,17.91-57.14
						c25.18-17.61,68.18-5.82,74.96-6.57c1.67,0.38,68.69,5.99,102.52-17.67c0.54-0.38,1.09-0.77,1.62-1.15
						c28.58-20.78,35.92-42.7,36.45-70.27c0.22-0.06,0.02-6.51-0.03-8.53c0.97-2.88-0.86-17.02-1.05-19.54
						c-0.19-2.52,1.05-64.67,21.39-78.9c11.92-8.34,38-3.8,60.29,2.35C718.7,95.87,713.46,92.48,708.85,88.85z"/>
				</g>
				<path class="st5" d="M782.47,120.89c0,0,79.7,66.29,110.85,102.31l-72.01-42.81c0,0-52.3-56.68-95.07-74.7"/>
				<path class="st5" d="M75.86,536.29c0,0,7.72,64.93,33.41,152.96l17.02-53.47l-26.51-43.12l-20.28-56.37"/>
			</g>
		</g>
		<g>
			<g id="XMLID_00000120549905044614690490000015059428294473099399_">
				<g>
					<path class="st8" d="M294.59,498.15L467.8,623.89L294.59,749.62V498.15z M317.7,770.99l170.76-132.11l76.76,55.5
						c4.27,3.09,10.05,3.02,14.26-0.15l73.17-55.27l172.12,132.03H317.7z M848.12,749.62l-173.2-125.72l173.2-125.74V749.62z
						 M571.24,670.1L306.47,473.82h530.26L571.24,670.1z M872.12,778.25V466.53c0-9.23-7.48-16.71-16.71-16.71H287.3
						c-9.23,0-16.71,7.48-16.71,16.71v311.72c0,9.23,7.48,16.71,16.71,16.71h568.1C864.64,794.96,872.12,787.48,872.12,778.25z"/>
				</g>
			</g>
			<path class="st5" d="M463.16,589.98l-29.39,9.21L294.59,498.15v57.27l-24-18.17v-73.06c0,0,1.56-14.37,16.71-14.37h180.5l9,23.99
				H306.47L463.16,589.98z"/>
		</g>
	</g>
</g>
<g id="Capa_11" class="st0">
	<g class="st1">
		<g>
			<path class="st5" d="M848.78,182.31c105.55,85.04,173.33,215.08,174.18,360.98c1.49,253.58-202.39,463.75-455.91,469.58
				C333.4,1018.24,137.57,851.93,96.9,631.26c0,0,65.74-189.59,171.08-94.41c0,0,103.99,98.85,197.07,54.56
				c0,0,66.47-32.2-16.47-186.33c-5.97-11.1-9.3-23.56-8.86-36.16c0.36-10.3,0.98-18.04,11-31.28c0,0,38.22-44.69,125.31,13.24
				c0,0,63.49,37.04,96.9,0c0,0,44.69-48.74-0.84-132.28c0,0-33.41-57.22-0.42-87.71c0,0,47.67-48.08,152.28,35.69L848.78,182.31z"
				/>
			<g>
				<g>
					<path class="st5" d="M762.42,123.24c2.07,1.14,21,11.25,38.29,20.16c-6.98-7.18-13.09-14.86-18.24-22.51
						c-3.2-2.04-5.52-3.48-5.53-3.45c-2.51-1.38-5-2.76-7.46-4.12c-71.06-39.3-112.93-60.46-146.97-38.4
						c-35.21,22.82-24.42,56.54-3.88,109.68c3.65,9.44,16.31,50.13,16.59,49.38c6.03,25.56,5.43,49.36-14.3,63
						c-0.27,0.19-0.54,0.37-0.81,0.54c-17.05,11.05-111.6-8.2-113.77-8.62c-45.99-8.82-73.3-30.65-112.17-5.46
						c-29.04,18.82-5.56,89.25-4.82,89.23c1.43,3.28,47.86,114.63,10.22,139.02c-32.99,21.37-146.36-34.16-152.52-35.51
						c-3.11-1.69-17.86-9.81-20.33-11.17c-71.06-39.3-112.93-60.46-146.97-38.4c-35.21,22.82-24.42,56.54-3.88,109.68
						c2.84,7.35,17.27,48.31,17.56,52.12c0.05,0.62,0.04,1.25,0,1.89c0.61,2.98,1.15,5.94,1.53,8.84
						c2.54,11.54,3.43,23.86,3.07,36.64c12.91-18.14,11.29-40.73,2.87-68.81c0.06-0.01,0.11-0.01,0.17-0.02
						c-0.24-0.41-4.67-14.47-4.89-15.24c-0.08-0.33-2.41-6.07-3.34-8.71c-0.45-1.28-0.95-2.64-1.43-4.07c0,0.13-0.01,0.25-0.02,0.37
						c-1.23-3.28-2.51-6.62-3.82-10.02c-14.14-36.61-31.76-82.16-4.93-99.54c23.4-15.16,75.64,11.45,121.14,36.43l15.89,8.76
						c3.22,1.77,138.79,68.4,182.79,39.89c50.16-32.5-2.47-147.67-5.05-156.8c-1.07-3.78-17.6-60.27-0.35-71.45
						c26.08-16.9,88.36,10,97.08,10.77c2.38,0.93,94.05,25.86,129.09,3.16c0.56-0.36,1.12-0.74,1.67-1.12
						c29.27-20.24,29.75-47.53,18.78-84.12c0.26-0.03-2.73-8.66-3.65-11.37c0.07-3.58-8.37-22.9-9.68-26.31
						c-1.31-3.4-26.01-85.88-4.93-99.54C648.8,62.89,759.56,122.55,762.42,123.24z"/>
				</g>
				<g>
					<path class="st5" d="M708.85,88.85c-2.49-1.97-5.13-4.46-7.63-7.26c-13.2-0.02-25.64,3.8-38.85,13.04
						c-33.99,23.77-33.94,49.08-31.03,88.4c0.51,6.99,0.3,37.57,0.7,36.93c-1.68,19.52-8.22,38.65-27.49,52.66
						c-0.27,0.19-0.52,0.38-0.78,0.56c-16.46,11.51-87.24,10.9-88.87,10.9c-34.57,0.13-50.87-13.06-88.39,13.18
						c-28.04,19.61-27.17,72.31-26.57,72.18c0.31,2.4,9.12,84.26-27.21,109.67c-31.85,22.27-108.45-4.44-113.04-4.55
						c-2.06-0.86-11.8-5.06-13.43-5.76c-46.87-20.34-75-30.72-107.86-7.74c-34,23.77-33.94,49.08-31.03,88.39
						c0.4,5.44,1.52,35.96,0.79,38.97c-0.12,0.49-0.29,0.99-0.48,1.51c-0.27,2.29-0.59,4.57-1.02,6.84
						c-0.91,8.84-3.33,18.56-6.87,28.84c14.95-16.54,19.41-34.37,19.81-55.52c0.05-0.01,0.09-0.03,0.14-0.04
						c-0.09-0.29-0.05-10.85-0.04-11.44c0.02-0.25-0.39-4.48-0.46-6.44c-0.04-0.96-0.09-1.97-0.11-3.03c-0.03,0.1-0.07,0.2-0.11,0.3
						c-0.15-2.43-0.32-4.9-0.51-7.42c-2-27.09-4.5-60.79,21.39-78.9c22.59-15.8,57.63-2.67,87.69,10.2l10.49,4.52
						c2.12,0.92,93.67,33.03,136.15,3.33c48.42-33.86,35.62-117.81,35.87-124.71c0.11-2.86,1.25-45.49,17.91-57.14
						c25.18-17.61,68.18-5.82,74.96-6.57c1.67,0.38,68.69,5.99,102.52-17.67c0.54-0.38,1.09-0.77,1.62-1.15
						c28.58-20.78,35.92-42.7,36.45-70.27c0.22-0.06,0.02-6.51-0.03-8.53c0.97-2.88-0.86-17.02-1.05-19.54
						c-0.19-2.52,1.05-64.67,21.39-78.9c11.92-8.34,38-3.8,60.29,2.35C718.7,95.87,713.45,92.48,708.85,88.85z"/>
				</g>
				<path class="st5" d="M782.47,120.89c0,0,79.7,66.29,110.85,102.31l-72.01-42.81c0,0-52.3-56.68-95.07-74.7"/>
				<path class="st5" d="M75.86,536.29c0,0,7.72,64.93,33.41,152.96l17.02-53.47l-26.51-43.12l-20.28-56.37"/>
			</g>
		</g>
		<g>
			<g>
				<path class="st8" d="M576.1,802.91c-52.18-62.9-105.65-123.21-137.17-198.29c-23.89-56.91-16.33-111.27,24.38-158.08
					c40.26-46.3,92.57-62.25,151.7-46.22c60.99,16.53,97.31,58.5,108.91,120.44c5.08,27.12,1.83,54.25-8.97,80.16
					c-24.98,59.9-63.91,110.67-104.46,160.4C599.4,774.92,588.14,788.37,576.1,802.91z M650.74,545.25
					c0.2-41.59-32.75-75.18-73.97-75.41c-41.46-0.23-75.15,32.8-75.49,74.01c-0.34,41.26,32.98,75.17,74.1,75.41
					C616.85,619.51,650.55,586.41,650.74,545.25z"/>
				<path class="st8" d="M621.5,773.81c5.52-1.78,11.89-6.29,16.4-4.86c19.4,6.12,39.61,11.63,56.98,21.74
					c25.72,14.98,25.09,37.73,0.35,54.38c-23.97,16.14-51.56,22.29-79.71,25.2c-45.5,4.69-90.74,3.55-134.08-13.16
					c-11.35-4.38-22.46-10.87-31.76-18.67c-14.57-12.23-14.61-28.07-0.95-40.96c19.17-18.1,43.65-24.91,68.82-28.89
					c3.98-0.63,8.85,4.45,14.9,7.76c-9.7,5.54-17.21,8.77-23.45,13.64c-10.16,7.94-9.9,16.57-0.4,25.23
					c24.74,22.57,109.34,22.83,135.04,0.4c9.78-8.53,9.82-18.51-0.82-26.38c-6.04-4.46-13.23-7.36-19.9-10.96
					C622.44,776.79,621.97,775.3,621.5,773.81z"/>
			</g>
			<path class="st5" d="M465.71,443.83c0,0,49.43,103.59,2.27,142.63c0,0-9.2,6.07-31.46,12.12
				C436.52,598.59,395.41,515.36,465.71,443.83z"/>
		</g>
	</g>
</g>
<g id="Capa_12">
</g>
<g id="Capa_13">
</g>
<g id="Capa_14">
</g>
<g id="Capa_15">
</g>
<g id="Capa_16">
</g>
<g id="Capa_17">
</g>
<g id="Capa_18">
</g>
<g id="Capa_19">
</g>
<g id="Capa_20">
</g>
<g id="Capa_21">
</g>
<g id="Capa_22">
</g>
<g id="Capa_23">
</g>
<g id="Capa_24">
</g>
</svg>
