<?xml version="1.0" encoding="utf-8"?>
<!-- Generator: Adobe Illustrator 27.1.0, SVG Export Plug-In . SVG Version: 6.00 Build 0)  -->
<svg version="1.1" id="Capa_1" xmlns="http://www.w3.org/2000/svg" xmlns:xlink="http://www.w3.org/1999/xlink" x="0px" y="0px"
	 viewBox="0 0 512 512" style="enable-background:new 0 0 512 512;" xml:space="preserve">
<style type="text/css">
	.st0{fill:none;stroke:#904090;stroke-width:1.5;stroke-miterlimit:10;}
	.st1{fill:#73B635;}
</style>
<symbol  id="Nuevo_símbolo" viewBox="-18.97 -19.98 37.93 39.96">
	<g>
		<g>
			<path class="st0" d="M11.69,6.5C9.41,10.6,5.03,13.37,0,13.37c-5,0-9.36-2.74-11.65-6.81"/>
			<path class="st0" d="M-11.88-6.06l0.07-0.23c2.25-4.21,6.69-7.08,11.8-7.08c5.2,0,9.71,2.97,11.92,7.31"/>
			<path class="st0" d="M15-6.06c-2.4-5.93-8.21-10.12-15-10.12c-6.79,0-12.61,4.19-15,10.12"/>
			<path class="st0" d="M-14.82,6.5c2.5,5.7,8.2,9.68,14.82,9.68c6.62,0,12.32-3.98,14.82-9.68"/>
			<path class="st0" d="M18.26-6.06C15.72-13.71,8.5-19.23,0-19.23c-8.5,0-15.72,5.52-18.26,13.17"/>
			<path class="st0" d="M-18.1,6.5c2.67,7.42,9.76,12.73,18.1,12.73c8.31,0,15.38-5.27,18.07-12.65"/>
		</g>
		<g>
			<g>
				<circle class="st1" cx="0.04" cy="10.63" r="1.04"/>
				<circle class="st1" cx="-0.02" cy="-10.59" r="1.04"/>
			</g>
			<path class="st1" d="M9.29-2.65C9.05-1.91,8.88-1.16,8.73-0.4C8.66,0,8.57,0.41,8.52,0.81C8,3.46,7.64,4.94,6.81,4.94
				c-0.89,0-1.21-1.35-1.66-3.55c-0.08-0.39-0.16-0.8-0.26-1.21C4.58,0.42,4.19,0.6,3.55,0.6c-0.01,0-0.02,0-0.03,0
				c-0.7,0-1.29-0.26-1.63-0.45c-0.02,0.07-0.04,0.13-0.05,0.2c-0.37,1.33-0.72,2.59-1.7,2.59c-0.74,0-1.04-1-1.35-2.69
				c-0.34,0.42-0.76,0.86-1.9,0.86c-1,0-1.56-0.43-2-0.89c-0.02,0.1-0.04,0.2-0.06,0.3c-0.55,2.82-0.91,4.42-1.77,4.42
				c-0.89,0-1.21-1.35-1.66-3.55c-0.08-0.39-0.16-0.8-0.26-1.21c-0.01,0-0.01,0.01-0.02,0.01C-8.9,0.16-8.91,0.12-8.92,0.08
				c0.01,0,0.01-0.01,0.02-0.01c-0.02-0.1-0.05-0.19-0.07-0.29c-0.01-0.01-0.01-0.02-0.02-0.03c-0.06-0.29-0.13-0.63-0.26-0.92
				c-0.18-0.5-0.4-0.9-0.66-1.09C-9.93-2.34-9.95-2.42-9.97-2.5c0.62,0.19,0.99,1.04,1.31,2.34c0.04-0.05,0.09-0.09,0.13-0.14
				c0.36-0.38,0.73-0.78,1.58-0.78c0.77,0,1.2,0.42,1.62,0.89c0.58-2.87,1.1-4.72,2.21-4.72c1.3,0,1.66,2.1,2.04,4.32
				C-1.05-0.45-1.03-0.32-1-0.19c0.25-0.25,0.56-0.44,1.14-0.44c0.83,0,1.22,0.25,1.54,0.5c0.3-0.87,0.96-2.4,1.85-2.4
				c0.01,0,0.03,0,0.04,0C4.33-2.49,4.73-1.6,5.09-0.16C5.14-0.2,5.18-0.25,5.22-0.29c0.36-0.38,0.73-0.78,1.58-0.78
				c0.77,0,1.2,0.42,1.62,0.89c0.47-2.32,0.9-3.96,1.63-4.51C9.73-4.04,9.51-3.33,9.29-2.65z M-8.32,1.38
				c0.31,1.52,0.7,3.4,1.38,3.4c0.59,0,1.03-2,1.39-3.8C-5.91,1.75-6.3,2.33-6.95,2.33c-0.77,0-1.13-0.63-1.46-1.37
				C-8.38,1.1-8.35,1.24-8.32,1.38z M-5.38-0.06c-0.43-0.47-0.83-0.92-1.56-0.92c-0.77,0-1.1,0.36-1.46,0.73
				C-8.48-0.18-8.55-0.1-8.63-0.02c0.03,0.1,0.05,0.21,0.08,0.32C-8.5,0.42-8.45,0.53-8.4,0.65c0.34,0.78,0.7,1.6,1.45,1.6
				c0.69,0,1.12-0.95,1.52-1.91c0.03-0.13,0.05-0.25,0.08-0.38C-5.37-0.04-5.37-0.05-5.38-0.06z M-3.11-4.73
				c-0.84,0-1.37,1.91-1.79,3.88c0.41-0.8,0.93-1.43,1.79-1.43c0.92,0,1.36,0.58,1.68,1.28C-1.75-2.77-2.16-4.73-3.11-4.73z
				 M-1.32-0.34C-1.66-1.27-2.04-2.2-3.11-2.2c-0.93,0-1.47,0.93-1.9,1.92c-0.02,0.12-0.05,0.24-0.07,0.37
				c0.46,0.49,0.98,0.95,1.98,0.95c1.12,0,1.48-0.46,1.83-0.9c0.01-0.02,0.02-0.03,0.04-0.05C-1.27-0.05-1.29-0.19-1.32-0.34z
				 M0.14,2.77c0.66,0,1.03-1.09,1.32-2.1c-0.29,0.4-0.66,0.72-1.32,0.72c-0.44,0-0.73-0.23-0.95-0.57
				C-0.59,1.87-0.3,2.77,0.14,2.77z M1.61-0.04C1.29-0.29,0.94-0.55,0.14-0.55c-0.58,0-0.86,0.22-1.11,0.51
				c0.02,0.13,0.05,0.26,0.07,0.39c0.24,0.54,0.52,0.96,1.04,0.96c0.72,0,1.08-0.47,1.38-0.97c0.02-0.08,0.06-0.2,0.11-0.34
				C1.61-0.02,1.6-0.03,1.59-0.03L1.61-0.04z M3.54-2.37c-0.01,0-0.01,0-0.02,0c-0.49,0-1.05,0.95-1.43,1.92
				c0.35-0.36,0.85-0.73,1.43-0.73c0.01,0,0.02,0,0.04,0c0.5,0.01,0.86,0.25,1.13,0.59C4.41-1.57,4.05-2.34,3.54-2.37z M4.79-0.22
				C4.5-0.71,4.13-1.08,3.55-1.1c-0.01,0-0.02,0-0.03,0c-0.66,0-1.24,0.58-1.55,0.97C1.96-0.1,1.94-0.06,1.93-0.03
				c0,0,0.01,0,0.01,0C1.94,0,1.93,0.03,1.92,0.06c0.3,0.18,0.9,0.47,1.6,0.47c0.01,0,0.02,0,0.03,0c0.63-0.01,1.01-0.2,1.31-0.45
				C4.83-0.03,4.81-0.12,4.79-0.22z M5.43,1.38c0.31,1.52,0.7,3.4,1.38,3.4c0.59,0,1.03-2,1.39-3.8C7.84,1.75,7.45,2.33,6.81,2.33
				c-0.77,0-1.13-0.63-1.46-1.37C5.37,1.1,5.4,1.24,5.43,1.38z M8.37-0.06C7.94-0.54,7.54-0.99,6.81-0.99
				c-0.77,0-1.1,0.36-1.46,0.73C5.28-0.18,5.2-0.1,5.13-0.02C5.15,0.08,5.18,0.19,5.2,0.3c0.05,0.12,0.11,0.24,0.16,0.35
				c0.34,0.78,0.7,1.6,1.45,1.6c0.69,0,1.12-0.95,1.52-1.91C8.35,0.22,8.37,0.09,8.4-0.03C8.39-0.04,8.38-0.05,8.37-0.06z"/>
		</g>
	</g>
</symbol>
<use xlink:href="#Nuevo_símbolo"  width="37.93" height="39.96" x="-18.97" y="-19.98" transform="matrix(11.3067 0 0 -11.3067 256 256)" style="overflow:visible;"/>
</svg>
