<?xml version="1.0" encoding="utf-8"?>
<!-- Generator: Adobe Illustrator 27.1.0, SVG Export Plug-In . SVG Version: 6.00 Build 0)  -->
<svg version="1.1" id="Capa_1" xmlns="http://www.w3.org/2000/svg" xmlns:xlink="http://www.w3.org/1999/xlink" x="0px" y="0px"
	 viewBox="0 0 1080 1080" style="enable-background:new 0 0 1080 1080;" xml:space="preserve">
<style type="text/css">
	.st0{fill:#FFFFFF;}
</style>
<g>
	<path class="st0" d="M619.76,224.5c10.65-12.59,32.1-21.64,62.59-21.64c28.39,0,62.43,4.2,94.53,13.25l26.94-145.2
		c-55.33-19.36-112.43-24.84-171.47-24.84c-59.04,0-105.5,9.05-142.92,30.66c-37.59,20.65-62.59,44.2-76.78,78.4
		c-14.36,30.66-21.46,81.93-21.46,146.49v57.09H276.65v165.84h114.53v521.68c48.07,10.97,98.24,16.12,150.02,16.12
		c19.52,0,39.36,0,58.88-3.54V524.54h151.79V358.7H600.08v-53.55C600.08,264.18,605.56,239,619.76,224.5z"/>
</g>
</svg>
