<svg xmlns="http://www.w3.org/2000/svg" viewBox="0 0 467.38 458.11"><defs><style>.cls-1,.cls-3{fill:#904191;}.cls-2{fill:#fff;}.cls-2,.cls-3{stroke:#904291;stroke-miterlimit:10;stroke-width:0.75px;}</style></defs><g id="Capa_1" data-name="Capa 1"><path class="cls-1" d="M399.43,77.21a225.47,225.47,0,0,1,84.26,174.63C484.4,374.51,385.78,476.18,263.14,479c-113,2.6-207.76-77.85-227.44-184.6,0,0,31.81-91.71,82.77-45.67,0,0,50.3,47.82,95.33,26.39,0,0,32.15-15.57-8-90.13a34.56,34.56,0,0,1-4.28-17.49c.17-5,.47-8.73,5.32-15.13,0,0,18.48-21.62,60.61,6.4,0,0,30.72,17.92,46.88,0,0,0,21.62-23.58-.4-64,0,0-16.17-27.68-.21-42.43,0,0,23.07-23.26,73.67,17.26Z" transform="translate(-16.31 -20.94)"/><path class="cls-1" d="M357.65,48.64c1,.55,10.16,5.44,18.52,9.75a78.39,78.39,0,0,1-8.82-10.89c-1.55-1-2.67-1.68-2.68-1.67l-3.61-2c-34.37-19-54.63-29.24-71.09-18.57-17,11-11.82,27.35-1.88,53.05,1.76,4.57,7.89,24.25,8,23.89,2.92,12.37,2.63,23.88-6.92,30.48l-.39.26c-8.24,5.34-54-4-55-4.17-22.25-4.27-35.47-14.82-54.27-2.64-14.05,9.1-2.69,43.18-2.33,43.17.69,1.58,23.15,55.45,5,67.25-16,10.34-70.81-16.53-73.79-17.18L98.5,214c-34.38-19-54.63-29.25-71.1-18.58-17,11-11.81,27.35-1.87,53.06C26.9,252,33.88,271.82,34,273.66a5.53,5.53,0,0,1,0,.91c.3,1.44.56,2.87.74,4.28a73.17,73.17,0,0,1,1.49,17.72c6.24-8.77,5.46-19.7,1.39-33.28h.08c-.12-.2-2.26-7-2.37-7.38,0-.16-1.17-2.93-1.62-4.21-.21-.62-.46-1.28-.69-2a1.09,1.09,0,0,1,0,.18c-.59-1.59-1.21-3.2-1.84-4.85-6.85-17.71-15.37-39.74-2.39-48.15,11.32-7.34,36.59,5.54,58.6,17.62l7.69,4.24c1.55.86,67.14,33.09,88.42,19.29,24.27-15.72-1.19-71.43-2.44-75.85-.52-1.83-8.52-29.15-.17-34.56,12.62-8.18,42.75,4.83,47,5.21,1.15.45,45.5,12.51,62.45,1.53l.81-.54c14.15-9.79,14.39-23,9.08-40.7.13,0-1.32-4.19-1.77-5.49,0-1.74-4-11.08-4.68-12.73s-12.58-41.55-2.39-48.15C302.68,19.44,356.27,48.3,357.65,48.64Z" transform="translate(-16.31 -20.94)"/><path class="cls-1" d="M331.74,32a30.73,30.73,0,0,1-3.7-3.52c-6.38,0-12.4,1.84-18.79,6.31-16.45,11.5-16.42,23.74-15,42.76.25,3.38.14,18.18.34,17.87-.81,9.44-4,18.69-13.3,25.47a4.33,4.33,0,0,1-.37.27c-8,5.57-42.2,5.28-43,5.28-16.72.06-24.61-6.32-42.76,6.37-13.56,9.49-13.14,35-12.85,34.92.15,1.16,4.41,40.76-13.17,53.05-15.4,10.78-52.46-2.14-54.68-2.2-1-.42-5.71-2.44-6.49-2.79-22.68-9.83-36.29-14.86-52.18-3.74-16.45,11.5-16.42,23.74-15,42.76.19,2.63.74,17.4.38,18.85a7.63,7.63,0,0,1-.23.73c-.13,1.11-.29,2.22-.5,3.31a63.76,63.76,0,0,1-3.32,13.95c7.23-8,9.39-16.62,9.58-26.86h.07c0-.15,0-5.25,0-5.54,0-.12-.18-2.17-.22-3.11,0-.47,0-1,0-1.47a.88.88,0,0,0-.05.15c-.08-1.18-.16-2.38-.25-3.59-1-13.11-2.18-29.41,10.35-38.17,10.93-7.65,27.88-1.29,42.42,4.93l5.07,2.19c1,.44,45.32,16,65.87,1.61,23.42-16.38,17.23-57,17.35-60.33.05-1.38.61-22,8.66-27.64,12.18-8.52,33-2.82,36.27-3.18.8.19,33.23,2.9,49.59-8.54l.79-.56c13.82-10,17.37-20.66,17.63-34,.1,0,0-3.15,0-4.13.47-1.39-.42-8.24-.51-9.45s.51-31.29,10.35-38.17c5.77-4,18.39-1.84,29.17,1.14A61.51,61.51,0,0,1,331.74,32Z" transform="translate(-16.31 -20.94)"/><path class="cls-1" d="M367.35,47.5S405.9,79.57,421,97l-34.84-20.7s-25.3-27.42-46-36.14" transform="translate(-16.31 -20.94)"/><path class="cls-1" d="M25.53,248.45s3.73,31.41,16.16,74l8.23-25.87L37.1,275.71l-9.81-27.26" transform="translate(-16.31 -20.94)"/><path class="cls-2" d="M382.08,307.26a115,115,0,0,1-84.26,111.06c-64.28,17.86-130.27-22.53-143.68-87.94a114.89,114.89,0,0,1,92-136.08c28.47-5.16,55.25-.15,80.24,14.48a5.59,5.59,0,0,1,3.13,4.85c.68,7.91.69,7.82-5.32,13.13-2.1,1.86-3.51,2-6,.44C264,192.52,191.7,220.57,174.92,282.73c-14.7,54.49,21.29,109.93,77.07,118.7a95.09,95.09,0,0,0,108.79-77.37,92.72,92.72,0,0,0-7.15-56.2c-.82-1.79-.78-2.89.86-3.9a2.09,2.09,0,0,0,.22-.2c4.08-5,8.92-6.47,15.07-3.81,1.69.74,2.82,1.39,3.52,3.09A114.72,114.72,0,0,1,382.08,307.26Z" transform="translate(-16.31 -20.94)"/><path class="cls-2" d="M388.94,170.59c.8,9.26,1.68,18,2.22,26.78.16,2.62,1.18,3.48,3.55,4,8.54,1.92,17.05,4,25.57,6.09l.7,1a16.16,16.16,0,0,0-2.5,1.45q-20.62,17.64-41.17,35.36a4.91,4.91,0,0,1-5.09,1.09c-4-1.1-8.07-1.89-12.07-3a4.12,4.12,0,0,0-4.26,1q-20.65,17.83-41.41,35.54c-7.27,6.23-14.49,12.5-21.8,18.68a3.89,3.89,0,0,0-1.53,4.27,24.56,24.56,0,0,1-18.35,28.44c-13.23,3-26.13-4.42-29.51-17.37-2.43-9.31-.33-17.75,6.81-24.42s15.5-8.43,24.74-5.39a4.38,4.38,0,0,0,5-1q31.33-27,62.8-53.88a4.48,4.48,0,0,0,1.83-4.31c-.47-4.42-.9-8.85-1.11-13.29a4.58,4.58,0,0,1,1.31-3.26q21.4-18.55,43-36.93A15.15,15.15,0,0,1,388.94,170.59Z" transform="translate(-16.31 -20.94)"/><path class="cls-2" d="M300.93,246.59c-5.24,4.5-10.2,8.87-15.34,13-.73.59-2.4.41-3.49.09-13.11-3.84-25.76-2.91-38,3.25-18.53,9.33-29.15,29.4-26.73,50.68a49.85,49.85,0,0,0,37.36,42.18c32.28,7.85,63-16.44,62.37-49.35a7.67,7.67,0,0,0-.14-2.36c-2-5.58.43-9.13,4.91-12.24,3.48-2.41,6.52-5.45,9.75-8.21a5,5,0,0,1,.85-.37A66.65,66.65,0,0,1,336,318.15a68.41,68.41,0,0,1-24.75,43.29c-27.36,22.65-68.13,20.65-93.54-4.52-25.23-25-27.5-65.8-5.18-93.28C235.91,234.83,274.46,231.28,300.93,246.59Z" transform="translate(-16.31 -20.94)"/><path class="cls-3" d="M215.33,204.51l5.91,19.38s-35.38,16.85-45.35,55.49l-18.61-7.13S172.37,221.72,215.33,204.51Z" transform="translate(-16.31 -20.94)"/></g></svg>