<?xml version="1.0" encoding="utf-8"?>
<!-- Generator: Adobe Illustrator 27.1.0, SVG Export Plug-In . SVG Version: 6.00 Build 0)  -->
<svg version="1.1" id="Capa_1" xmlns="http://www.w3.org/2000/svg" xmlns:xlink="http://www.w3.org/1999/xlink" x="0px" y="0px"
	 viewBox="0 0 916.66 668.69" style="enable-background:new 0 0 916.66 668.69;" xml:space="preserve">
<style type="text/css">
	.st0{fill:#9BC558;}
</style>
<g>
	<rect x="22.69" y="516.43" class="st0" width="5.87" height="58.52"/>
	<polygon class="st0" points="44.66,516.43 52.54,516.43 85.24,564.89 85.41,564.89 85.41,516.43 91.11,516.43 91.11,574.95 
		85.41,574.95 50.69,523.47 50.53,523.47 50.53,574.95 44.66,574.95 	"/>
	<path class="st0" d="M108.88,558.52c0.34,7.38,5.03,12.07,12.24,12.07c6.2,0,11.74-4.7,11.74-11.57c0-9.06-9.06-11.24-13.08-12.41
		c-5.37-1.51-15.09-3.86-15.09-15.43c0-9.06,7.21-15.76,16.43-15.76c9.56,0,16.27,7.38,16.27,15.93h-5.87
		c0-5.87-4.86-10.56-10.4-10.56c-6.71,0-10.56,5.2-10.56,10.23c0,7.04,6.2,8.72,13.92,10.9c14.42,3.86,14.25,15.09,14.25,16.94
		c0,9.06-7.21,17.1-17.61,17.1c-7.55,0-17.78-4.53-17.94-17.44L108.88,558.52L108.88,558.52z"/>
	<polygon class="st0" points="158.85,521.8 145.44,521.8 145.44,516.43 177.97,516.43 177.97,521.8 164.72,521.8 164.72,574.95 
		158.85,574.95 	"/>
	<rect x="188.7" y="516.43" class="st0" width="5.87" height="58.52"/>
	<polygon class="st0" points="218.72,521.8 205.31,521.8 205.31,516.43 237.84,516.43 237.84,521.8 224.59,521.8 224.59,574.95 
		218.72,574.95 	"/>
	<path class="st0" d="M254.44,516.43v36.39c0,4.19,0.67,8.22,2.01,10.56c3.52,6.54,9.39,7.21,12.07,7.21s8.55-0.67,12.07-7.21
		c1.34-2.52,2.01-6.37,2.01-10.56v-36.39h5.87v36.39c0,4.86-0.84,9.06-2.18,12.24c-4.02,8.72-12.24,10.9-17.61,10.9
		s-13.58-2.18-17.78-10.9c-1.34-3.02-2.18-7.21-2.18-12.24v-36.39H254.44z"/>
	<polygon class="st0" points="312.46,521.8 299.05,521.8 299.05,516.43 331.58,516.43 331.58,521.8 318.33,521.8 318.33,574.95 
		312.46,574.95 	"/>
	<path class="st0" d="M370.65,515.42c16.43,0,31.02,13.08,31.02,30.18s-14.59,30.18-31.02,30.18c-16.6,0-30.86-13.58-30.86-29.85
		C339.79,527.67,355.05,515.42,370.65,515.42 M370.65,570.59c13.58,0,25.15-10.9,25.15-24.82c0-13.58-11.24-24.99-25.15-24.99
		c-13.25,0-24.99,10.73-24.99,25.32C345.66,559.36,357.07,570.59,370.65,570.59"/>
	<polygon class="st0" points="440.75,516.43 470.43,516.43 470.43,521.8 446.61,521.8 446.61,542.93 469.42,542.93 469.42,548.29 
		446.61,548.29 446.61,574.95 440.75,574.95 	"/>
	<polygon class="st0" points="483.34,516.43 515.37,516.43 515.37,521.8 489.21,521.8 489.21,542.76 514.36,542.76 514.36,548.12 
		489.21,548.12 489.21,569.59 515.37,569.59 515.37,574.95 483.34,574.95 	"/>
	<path class="st0" d="M530.13,516.43h17.1c7.21,0,14.25,1.68,19.12,4.86c10.23,6.37,13.25,17.61,13.25,24.48
		c0,5.37-2.18,17.1-13.25,24.32c-4.7,3.02-11.91,4.86-19.12,4.86h-17.1V516.43z M535.99,569.59h8.38c5.37,0,13.42,0,20.12-4.7
		c3.52-3.02,9.22-9.06,9.22-19.28c0-7.71-3.86-14.92-9.89-19.28c-5.2-3.35-10.73-4.53-19.28-4.53h-8.38v47.79H535.99z"/>
	<polygon class="st0" points="592.84,516.43 624.87,516.43 624.87,521.8 598.71,521.8 598.71,542.76 623.87,542.76 623.87,548.12 
		598.71,548.12 598.71,569.59 624.87,569.59 624.87,574.95 592.84,574.95 	"/>
	<path class="st0" d="M639.29,516.43h14.92c7.88,0,11.74,1.01,14.42,2.18c6.54,3.02,10.4,9.56,10.4,16.6
		c0,8.38-6.04,17.1-17.44,17.78l16.43,21.8h-7.38l-19.79-26.33c7.38,0,9.89,0,12.58-0.84c6.37-1.84,9.56-7.21,9.56-12.41
		c0-4.53-2.68-9.39-6.37-11.24c-3.52-1.84-6.54-2.18-11.4-2.18h-10.06v53.16h-5.87V516.43z"/>
	<path class="st0" d="M711.9,516.43h6.54l25.15,58.52h-6.37l-8.38-19.62h-27.17l-8.55,19.62h-6.04L711.9,516.43z M703.69,549.97
		h22.64l-11.24-26.83L703.69,549.97z"/>
	<polygon class="st0" points="755,516.43 760.87,516.43 760.87,569.59 785.02,569.59 785.02,574.95 755,574.95 	"/>
	<path class="st0" d="M821.24,516.43h17.1c7.21,0,14.25,1.68,18.95,4.86c10.23,6.37,13.25,17.61,13.25,24.48
		c0,5.37-2.18,17.1-13.25,24.32c-4.7,3.02-11.91,4.86-18.95,4.86h-17.1V516.43z M826.94,569.59h8.38c5.37,0,13.42,0,20.12-4.7
		c3.52-3.02,9.22-9.06,9.22-19.28c0-7.71-3.86-14.92-9.89-19.28c-5.2-3.35-10.73-4.53-19.28-4.53h-8.38v47.79H826.94z"/>
	<polygon class="st0" points="883.79,516.43 915.82,516.43 915.82,521.8 889.66,521.8 889.66,542.76 914.98,542.76 914.98,548.12 
		889.66,548.12 889.66,569.59 915.82,569.59 915.82,574.95 883.79,574.95 	"/>
	<polygon class="st0" points="28.39,667.52 28.39,616.88 17.32,616.88 17.32,609 48.18,609 48.18,616.88 36.94,616.88 36.94,667.52 
			"/>
	<polygon class="st0" points="55.39,667.52 55.39,609 86.91,609 86.91,616.88 63.94,616.88 63.94,634.15 86.91,634.15 86.91,641.86 
		63.94,641.86 63.94,659.64 86.91,659.64 86.91,667.52 	"/>
	<polygon class="st0" points="98.82,667.52 98.82,609 107.37,609 107.37,659.64 127.66,659.64 127.66,667.52 	"/>
	<polygon class="st0" points="134.2,667.52 134.2,609 165.73,609 165.73,616.88 142.76,616.88 142.76,634.15 165.73,634.15 
		165.73,641.86 142.76,641.86 142.76,659.64 165.73,659.64 165.73,667.52 	"/>
	<path class="st0" d="M221.07,623.92c-1.68-2.01-6.88-8.22-16.43-8.22c-12.24,0-21.8,10.06-21.8,22.3
		c0,12.58,10.06,22.64,21.63,22.64c6.2,0,11.91-3.02,15.93-7.71h10.56c-6.54,11.4-17.44,15.6-26.5,15.6
		c-16.6,0-30.02-13.92-30.02-30.52c0-17.1,13.75-30.02,30.02-30.02c4.36,0,11.57,1.17,17.78,5.7c5.37,3.86,7.55,7.71,9.06,10.4
		h-10.23V623.92z"/>
	<path class="st0" d="M268.02,668.53c-17.44,0-30.35-14.25-30.35-30.35c0-15.93,12.58-30.35,30.35-30.35
		c17.44,0,30.35,13.75,30.35,30.52C298.37,654.44,285.29,668.53,268.02,668.53 M268.02,615.7c-15.09,0-21.8,13.25-21.8,22.47
		c0,9.56,6.88,22.47,21.8,22.47c15.09,0,21.8-13.08,21.8-22.3C289.82,628.11,282.44,615.7,268.02,615.7"/>
	<polygon class="st0" points="362.1,667.52 362.1,618.22 361.93,618.22 342.31,667.52 337.11,667.52 317.32,618.22 317.16,618.22 
		317.16,667.52 308.6,667.52 308.6,609 322.02,609 339.63,653.77 357.23,609 370.65,609 370.65,667.52 	"/>
	<path class="st0" d="M422.8,648.57c0,6.71-2.18,11.4-5.87,14.92c-3.69,3.02-8.22,5.03-13.58,5.03c-5.37,0-10.06-2.01-13.58-5.03
		c-3.69-3.52-5.87-8.38-5.87-14.92V609h8.55v39.41c0,10.9,7.88,12.41,11.07,12.41s11.07-1.51,11.07-12.41V609h8.55v39.58H422.8z"/>
	<polygon class="st0" points="473.45,667.52 444.6,622.41 444.43,622.41 444.43,667.52 435.88,667.52 435.88,609 445.27,609 
		473.61,653.6 473.78,653.6 473.78,609 482.33,609 482.33,667.52 	"/>
	<rect x="495.58" y="609" class="st0" width="8.55" height="58.52"/>
	<path class="st0" d="M560.98,623.92c-1.68-2.01-6.88-8.22-16.43-8.22c-12.24,0-21.8,10.06-21.8,22.3
		c0,12.58,10.06,22.64,21.63,22.64c6.2,0,11.91-3.02,15.93-7.71h10.56c-6.54,11.4-17.44,15.6-26.5,15.6
		c-16.6,0-30.02-13.92-30.02-30.52c0-17.1,13.75-30.02,30.02-30.02c4.36,0,11.57,1.17,17.78,5.7c5.37,3.86,7.55,7.71,9.06,10.4
		h-10.23V623.92z"/>
	<path class="st0" d="M615.31,667.52l-6.54-17.27h-20.96l-6.54,17.27h-9.06L594.35,609h7.71l22.14,58.52H615.31z M605.92,642.53
		l-7.38-22.3h-0.34l-7.55,22.3H605.92z"/>
	<path class="st0" d="M673.17,623.92c-1.68-2.01-6.88-8.22-16.43-8.22c-12.24,0-21.8,10.06-21.8,22.3
		c0,12.58,10.06,22.64,21.63,22.64c6.2,0,11.91-3.02,15.93-7.71h10.56c-6.54,11.4-17.44,15.6-26.5,15.6
		c-16.6,0-30.02-13.92-30.02-30.52c0-17.1,13.75-30.02,30.02-30.02c4.36,0,11.57,1.17,17.78,5.7c5.37,3.86,7.55,7.71,9.06,10.4
		h-10.23V623.92z"/>
	<rect x="692.45" y="609" class="st0" width="8.55" height="58.52"/>
	<path class="st0" d="M741.59,668.53c-17.44,0-30.35-14.25-30.35-30.35c0-15.93,12.58-30.35,30.35-30.35
		c17.44,0,30.35,13.75,30.35,30.52C772.11,654.44,759.03,668.53,741.59,668.53 M741.59,615.7c-15.09,0-21.8,13.25-21.8,22.47
		c0,9.56,6.88,22.47,21.8,22.47c15.09,0,21.8-13.08,21.8-22.3C763.55,628.11,756.17,615.7,741.59,615.7"/>
	<polygon class="st0" points="819.9,667.52 791.05,622.41 790.89,622.41 790.89,667.52 782.33,667.52 782.33,609 791.73,609 
		820.07,653.6 820.23,653.6 820.23,609 828.78,609 828.78,667.52 	"/>
	<polygon class="st0" points="841.19,667.52 841.19,609 872.72,609 872.72,616.88 849.75,616.88 849.75,634.15 872.72,634.15 
		872.72,641.86 849.75,641.86 849.75,659.64 872.72,659.64 872.72,667.52 	"/>
	<path class="st0" d="M888.48,650.25c0,2.01,0.84,10.56,9.56,10.56c5.37,0,9.39-3.69,9.39-9.89c0-6.54-5.37-8.05-9.39-9.56
		c-7.88-3.02-9.73-4.02-12.41-6.54c-2.68-2.68-4.02-6.88-4.02-10.9c0-6.88,5.37-15.93,16.43-15.93c9.73,0,16.77,6.37,16.77,16.27
		h-8.55c0-6.54-4.7-8.38-8.22-8.38c-5.03,0-7.88,4.53-7.88,8.05c0,5.53,5.37,7.04,7.88,8.05c7.38,2.85,17.94,5.03,17.94,19.12
		c0,10.23-7.21,17.61-17.94,17.61c-8.05,0-17.94-5.37-17.94-18.45L888.48,650.25L888.48,650.25z"/>
	<path class="st0" d="M732.03,190.94h-57.02v-11.57c0-19.12,9.73-29.35,27.84-29.35c10.06,0,18.95,1.51,29.51,5.03V101.9
		c-14.09-4.36-28.84-6.2-47.62-6.2c-24.32,0-42.76,6.37-55.17,18.61c-12.74,12.74-19.12,32.36-19.12,58.52v18.11h-39.24v52.49h39.24
		v188.49h65.57V243.43h56.01L732.03,190.94L732.03,190.94z"/>
	<polygon class="st0" points="533.31,432.08 533.31,191.28 428.5,191.28 428.5,243.59 468.92,243.59 468.92,432.08 	"/>
	<path class="st0" d="M537.84,130.07c0,21.13-17.1,38.23-38.23,38.23c-21.13,0-38.23-17.1-38.23-38.23
		c0-21.13,17.1-38.23,38.23-38.23S537.84,108.94,537.84,130.07"/>
	<path class="st0" d="M814.36,413.3c12.41,12.41,31.02,18.78,55.17,18.78c14.92,0,27.17-1.17,38.4-3.86v-52.99
		c-6.88,1.68-13.42,2.52-20.46,2.52c-18.28,0-27.84-10.06-27.84-29.35V243.59h57.02v-52.49h-56.01V95.69h-65.57v95.25h-36.56v52.49
		h36.56v111.35C795.25,380.93,801.62,400.55,814.36,413.3"/>
	<path class="st0" d="M150.64,325.26c-38.23-21.13-62.88-62.55-61.38-107.99l0.84-11.74c3.35-25.99,12.91-46.45,26.33-60.2
		c5.37-38.9,17.1-75.46,34.21-102.46C84.4,21.74,25.54,68.02,14.3,155.56L12.96,173c-2.68,89.55,62.88,168.36,153.77,180.1
		c19.62,2.52,37.9,2.52,55,0.5C193.9,354.44,169.08,344.71,150.64,325.26"/>
	<path class="st0" d="M341.81,70.7c-59.53-76.97-142.2-93.74-184.8-37.23c-2.18,3.02-4.36,6.2-6.54,9.56
		c3.86,1.34,7.71,2.68,11.57,4.36c2.01-3.19,4.02-6.37,6.2-9.22c31.53-41.92,92.73-29.51,137,27.67
		c33.71,43.77,35.38,102.29,8.72,146.9c4.7,12.41,8.05,24.48,9.73,36.05c7.88,55.84-35.22,96.59-101.96,104.64
		c27.84-1.01,58.52-12.41,88.37-35.55l13.08-11.24C388.43,245.27,397.65,143.15,341.81,70.7"/>
	<path class="st0" d="M137.05,130.91c3.02-31.36,11.74-61.38,25.15-83.51c-3.86-1.68-7.71-3.19-11.57-4.36
		c-17.27,27-29.01,63.56-34.21,102.46C122.47,139.12,129.51,134.26,137.05,130.91"/>
	<path class="st0" d="M323.53,248.79c-1.68-11.57-5.03-23.81-9.73-36.05c-6.04,10.06-13.58,19.45-22.3,27.84
		c3.86,9.56,6.54,19.12,7.88,28c6.71,47.46-40.75,78.98-106.15,70.6c-15.43-2.01-29.68-6.88-42.59-13.92
		c18.45,19.45,43.26,29.18,70.93,28.17C288.31,345.38,331.41,304.47,323.53,248.79"/>
	<path class="st0" d="M281.61,249.13c-57.18,44.1-118.39,31.69-136.84-27.67c-8.55-27.5-10.73-59.7-7.71-90.55
		c-7.55,3.35-14.42,8.22-20.63,14.59c-6.2,45.61-3.86,94.41,8.89,135.33c5.7,18.28,14.42,33.04,25.32,44.44
		c12.74,7.04,27.17,11.91,42.59,13.92c65.4,8.38,112.86-23.14,106.15-70.6c-1.34-9.06-4.02-18.45-7.88-28c0,0,0,0-0.17,0.17
		L281.61,249.13z"/>
	<path class="st0" d="M281.61,249.13c-57.18,44.1-118.39,31.69-136.84-27.67c-8.55-27.5-10.73-59.7-7.71-90.55
		c-7.55,3.35-14.42,8.22-20.63,14.59c-6.2,45.61-3.86,94.41,8.89,135.33c5.7,18.28,14.42,33.04,25.32,44.44
		c12.74,7.04,27.17,11.91,42.59,13.92c65.4,8.38,112.86-23.14,106.15-70.6c-1.34-9.06-4.02-18.45-7.88-28c0,0,0,0-0.17,0.17
		L281.61,249.13z"/>
	<path class="st0" d="M196.25,135.1c40.75,21.46,78.65,64.73,95.25,105.48c8.89-8.38,16.27-17.78,22.3-27.84
		C290.49,150.86,232.97,83.95,171.1,51.42c-3.02-1.68-6.04-2.85-9.06-4.02c-13.25,22.14-21.97,51.98-24.99,83.51
		C154.49,123.19,175.12,124.03,196.25,135.1"/>
</g>
</svg>
