<?xml version="1.0" encoding="utf-8"?>
<!-- Generator: Adobe Illustrator 27.1.0, SVG Export Plug-In . SVG Version: 6.00 Build 0)  -->
<svg version="1.1" id="Capa_1" xmlns="http://www.w3.org/2000/svg" xmlns:xlink="http://www.w3.org/1999/xlink" x="0px" y="0px"
	 viewBox="0 0 2158.69 668.69" style="enable-background:new 0 0 2158.69 668.69;" xml:space="preserve">
<style type="text/css">
	.st0{fill:#FFFFFF;}
</style>
<g>
	<path class="st0" d="M395.61,0C448.65,95.83,529.34,187.7,653,263.75c-108.32,70.9-201.34,144.84-270.11,229.85
		c-96.2-55.63-184.5-126.19-255.28-229.85C198.6,161.41,285.09,71.27,395.61,0z"/>
	<polygon class="st0" points="-4.41,393.17 733.85,393.17 638.42,355.9 524.43,355.79 507.39,369.89 630.16,369.89 661.83,380.04 
		69.13,380.04 96.08,369.89 217.1,369.89 203.23,356.01 91.41,355.9 	"/>
	<path class="st0" d="M0,563.79h31.99v103.18H0V563.79L0,563.79z M52.9,592.18h26.71v12.17c3.98-4.99,7.99-8.55,12.08-10.69
		c4.08-2.13,9.02-3.21,14.88-3.21c7.93,0,14.1,2.35,18.59,7.09c4.47,4.71,6.71,12.01,6.71,21.88v47.55h-28.83v-41.14
		c0-4.7-0.86-8.01-2.59-9.96c-1.72-1.95-4.15-2.92-7.28-2.92c-3.44,0-6.24,1.32-8.38,3.93c-2.14,2.64-3.22,7.35-3.22,14.17v35.93
		H52.9V592.18L52.9,592.18z M143.98,646.23l28.39-2.6c1.17,3.37,2.8,5.77,4.92,7.2c2.11,1.45,4.92,2.17,8.45,2.17
		c3.84,0,6.82-0.81,8.94-2.47c1.65-1.2,2.47-2.74,2.47-4.57c0-2.06-1.08-3.67-3.25-4.8c-1.53-0.78-5.65-1.77-12.29-2.95
		c-9.95-1.74-16.85-3.34-20.73-4.83c-3.86-1.46-7.11-3.99-9.77-7.5c-2.64-3.52-3.96-7.54-3.96-12.05c0-4.92,1.42-9.17,4.27-12.72
		c2.86-3.58,6.8-6.25,11.82-8c5.02-1.76,11.74-2.64,20.18-2.64c8.89,0,15.47,0.67,19.7,2.04c4.24,1.38,7.78,3.48,10.62,6.35
		c2.83,2.88,5.18,6.74,7.06,11.65l-27.09,2.59c-0.7-2.38-1.88-4.14-3.51-5.27c-2.24-1.49-4.94-2.24-8.14-2.24
		c-3.22,0-5.58,0.58-7.04,1.74c-1.46,1.15-2.21,2.54-2.21,4.17c0,1.85,0.94,3.22,2.79,4.16c1.84,0.96,5.93,1.8,12.2,2.54
		c9.53,1.08,16.6,2.59,21.26,4.52c4.64,1.91,8.19,4.66,10.64,8.24c2.47,3.58,3.7,7.49,3.7,11.77c0,4.32-1.3,8.52-3.92,12.6
		c-2.59,4.09-6.69,7.32-12.29,9.74c-5.6,2.42-13.23,3.63-22.88,3.63c-13.65,0-23.37-1.94-29.16-5.85
		C149.34,658.94,145.61,653.41,143.98,646.23L143.98,646.23z M271.62,563.79v28.39h15.7v21.04h-15.7v26.46
		c0,3.18,0.32,5.29,0.91,6.31c0.94,1.59,2.59,2.38,4.95,2.38c2.11,0,5.06-0.59,8.89-1.82l2.1,19.81
		c-7.07,1.57-13.68,2.33-19.83,2.33c-7.13,0-12.4-0.91-15.78-2.74c-3.37-1.82-5.86-4.61-7.5-8.33c-1.6-3.72-2.43-9.77-2.43-18.11
		v-26.3h-10.52v-21.04h10.52v-13.71L271.62,563.79L271.62,563.79z M302.01,563.79h28.68v19.46h-28.68V563.79L302.01,563.79z
		 M302.01,592.18h28.68v74.79h-28.68V592.18L302.01,592.18z M383.56,563.79v28.39h15.7v21.04h-15.7v26.46
		c0,3.18,0.32,5.29,0.92,6.31c0.94,1.59,2.59,2.38,4.94,2.38c2.12,0,5.06-0.59,8.89-1.82l2.11,19.81
		c-7.08,1.57-13.68,2.33-19.83,2.33c-7.13,0-12.4-0.91-15.78-2.74c-3.37-1.82-5.86-4.61-7.5-8.33c-1.61-3.72-2.43-9.77-2.43-18.11
		v-26.3h-10.52v-21.04h10.52v-13.71L383.56,563.79L383.56,563.79z M491.61,666.97h-26.77v-12.06c-3.99,4.97-8,8.5-12.03,10.62
		c-4.07,2.11-9.04,3.16-14.94,3.16c-7.87,0-14.03-2.35-18.51-7.07c-4.47-4.71-6.71-11.99-6.71-21.81v-47.62h28.82v41.21
		c0,4.68,0.87,8.03,2.59,10.01c1.74,1.97,4.16,2.96,7.29,2.96c3.37,0,6.17-1.32,8.36-3.95c2.15-2.64,3.23-7.37,3.23-14.19v-36.05
		h28.67V666.97L491.61,666.97z M543.63,563.79v28.39h15.7v21.04h-15.7v26.46c0,3.18,0.32,5.29,0.92,6.31
		c0.94,1.59,2.59,2.38,4.94,2.38c2.12,0,5.07-0.59,8.89-1.82l2.11,19.81c-7.07,1.57-13.68,2.33-19.83,2.33
		c-7.13,0-12.4-0.91-15.78-2.74c-3.36-1.82-5.86-4.61-7.5-8.33c-1.6-3.72-2.42-9.77-2.42-18.11v-26.3h-10.52v-21.04h10.52v-13.71
		L543.63,563.79L543.63,563.79z M569.55,629.8c0-11.44,3.85-20.85,11.53-28.25c7.68-7.39,18.06-11.09,31.12-11.09
		c14.97,0,26.25,4.34,33.89,13.04c6.12,7.01,9.19,15.63,9.19,25.85c0,11.53-3.8,20.95-11.4,28.32
		c-7.62,7.34-18.15,11.02-31.61,11.02c-11.98,0-21.68-3.04-29.08-9.17C574.09,651.96,569.55,642.04,569.55,629.8L569.55,629.8z
		 M598.22,629.75c0,6.69,1.36,11.65,4.04,14.84c2.69,3.2,6.05,4.8,10.13,4.8c4.11,0,7.47-1.58,10.12-4.73
		c2.64-3.14,3.96-8.22,3.96-15.17c0-6.51-1.32-11.34-3.98-14.54c-2.66-3.16-5.96-4.76-9.9-4.76c-4.15,0-7.58,1.62-10.3,4.83
		C599.58,618.26,598.22,623.16,598.22,629.75L598.22,629.75z M719.34,563.79h29.76l38.69,56.97v-56.97h30.12v103.18h-30.12
		l-38.48-56.66v56.66h-29.97V563.79L719.34,563.79z M863.43,616.4l-27.38-2.89c1.03-4.8,2.52-8.57,4.47-11.31
		c1.95-2.77,4.73-5.15,8.41-7.16c2.61-1.47,6.22-2.6,10.81-3.39c4.59-0.8,9.56-1.2,14.92-1.2c8.57,0,15.44,0.48,20.65,1.44
		c5.19,0.96,9.53,2.98,12.99,6.03c2.45,2.11,4.38,5.11,5.77,8.98c1.41,3.87,2.11,7.56,2.11,11.09v33.05c0,3.53,0.22,6.29,0.67,8.29
		c0.43,1.98,1.42,4.53,2.92,7.63h-26.83c-1.08-1.93-1.77-3.37-2.12-4.37c-0.31-1.01-0.64-2.57-0.99-4.71
		c-3.74,3.6-7.46,6.19-11.19,7.72c-5.06,2.07-10.95,3.09-17.65,3.09c-8.91,0-15.68-2.06-20.29-6.22c-4.63-4.13-6.94-9.25-6.94-15.3
		c0-5.68,1.66-10.37,5-14.04c3.33-3.69,9.49-6.42,18.44-8.19c10.74-2.16,17.7-3.68,20.9-4.57c3.19-0.87,6.57-2,10.13-3.41
		c0-3.53-0.73-5.98-2.19-7.39c-1.44-1.41-3.98-2.12-7.63-2.12c-4.68,0-8.19,0.75-10.55,2.26
		C866.03,610.92,864.56,613.13,863.43,616.4L863.43,616.4z M888.22,631.38c-3.94,1.41-8.05,2.66-12.34,3.77
		c-5.81,1.57-9.51,3.1-11.06,4.61c-1.6,1.56-2.4,3.34-2.4,5.34c0,2.28,0.8,4.15,2.35,5.59c1.59,1.45,3.9,2.17,6.94,2.17
		c3.2,0,6.17-0.8,8.94-2.35c2.73-1.56,4.68-3.46,5.84-5.72c1.15-2.26,1.72-5.19,1.72-8.78V631.38L888.22,631.38z M989.09,637.71
		l27.24,3.03c-1.51,5.69-3.96,10.62-7.4,14.79c-3.41,4.16-7.81,7.41-13.14,9.71c-5.31,2.29-12.08,3.45-20.29,3.45
		c-7.95,0-14.56-0.74-19.84-2.2c-5.26-1.5-9.8-3.9-13.61-7.2c-3.8-3.29-6.78-7.18-8.94-11.65c-2.16-4.47-3.24-10.38-3.24-17.75
		c0-7.7,1.32-14.1,3.95-19.21c1.92-3.77,4.55-7.13,7.89-10.12c3.34-2.97,6.75-5.21,10.28-6.64c5.6-2.31,12.76-3.46,21.47-3.46
		c12.22,0,21.52,2.19,27.93,6.53c6.42,4.37,10.92,10.73,13.51,19.12l-26.95,3.6c-0.84-3.19-2.38-5.59-4.61-7.23
		c-2.24-1.6-5.23-2.42-9-2.42c-4.73,0-8.58,1.71-11.53,5.09c-2.93,3.41-4.4,8.56-4.4,15.47c0,6.16,1.47,10.82,4.38,14
		c2.9,3.2,6.61,4.78,11.11,4.78c3.74,0,6.92-0.96,9.46-2.85C985.92,644.61,987.82,641.68,989.09,637.71L989.09,637.71z
		 M1030.45,563.79h28.67v19.46h-28.67V563.79L1030.45,563.79z M1030.45,592.18h28.67v74.79h-28.67V592.18L1030.45,592.18z
		 M1073.96,629.8c0-11.44,3.85-20.85,11.53-28.25c7.68-7.39,18.06-11.09,31.12-11.09c14.97,0,26.25,4.34,33.89,13.04
		c6.12,7.01,9.19,15.63,9.19,25.85c0,11.53-3.8,20.95-11.4,28.32c-7.62,7.34-18.15,11.02-31.61,11.02
		c-11.98,0-21.68-3.04-29.08-9.17C1078.5,651.96,1073.96,642.04,1073.96,629.8L1073.96,629.8z M1102.63,629.75
		c0,6.69,1.36,11.65,4.04,14.84c2.69,3.2,6.05,4.8,10.13,4.8c4.12,0,7.48-1.58,10.12-4.73c2.64-3.14,3.96-8.22,3.96-15.17
		c0-6.51-1.32-11.34-3.98-14.54c-2.66-3.16-5.96-4.76-9.9-4.76c-4.15,0-7.58,1.62-10.3,4.83
		C1103.99,618.26,1102.63,623.16,1102.63,629.75L1102.63,629.75z M1173.54,592.18h26.71v12.17c3.98-4.99,7.99-8.55,12.08-10.69
		c4.07-2.13,9.02-3.21,14.88-3.21c7.93,0,14.1,2.35,18.59,7.09c4.47,4.71,6.7,12.01,6.7,21.88v47.55h-28.83v-41.14
		c0-4.7-0.86-8.01-2.59-9.96c-1.72-1.95-4.15-2.92-7.28-2.92c-3.44,0-6.24,1.32-8.38,3.93c-2.14,2.64-3.22,7.35-3.22,14.17v35.93
		h-28.67V592.18L1173.54,592.18z M1295.88,616.4l-27.38-2.89c1.04-4.8,2.52-8.57,4.47-11.31c1.95-2.77,4.73-5.15,8.41-7.16
		c2.62-1.47,6.22-2.6,10.8-3.39c4.59-0.8,9.56-1.2,14.92-1.2c8.57,0,15.44,0.48,20.65,1.44c5.18,0.96,9.53,2.98,12.99,6.03
		c2.45,2.11,4.38,5.11,5.77,8.98c1.41,3.87,2.12,7.56,2.12,11.09v33.05c0,3.53,0.21,6.29,0.67,8.29c0.43,1.98,1.41,4.53,2.91,7.63
		h-26.83c-1.08-1.93-1.77-3.37-2.12-4.37c-0.31-1.01-0.64-2.57-0.98-4.71c-3.75,3.6-7.47,6.19-11.19,7.72
		c-5.07,2.07-10.95,3.09-17.65,3.09c-8.91,0-15.68-2.06-20.3-6.22c-4.64-4.13-6.94-9.25-6.94-15.3c0-5.68,1.66-10.37,5-14.04
		c3.33-3.69,9.49-6.42,18.44-8.19c10.73-2.16,17.7-3.68,20.9-4.57c3.19-0.87,6.58-2,10.13-3.41c0-3.53-0.72-5.98-2.19-7.39
		c-1.44-1.41-3.98-2.12-7.63-2.12c-4.68,0-8.19,0.75-10.55,2.26C1298.47,610.92,1297,613.13,1295.88,616.4L1295.88,616.4z
		 M1320.66,631.38c-3.93,1.41-8.05,2.66-12.34,3.77c-5.81,1.57-9.51,3.1-11.06,4.61c-1.6,1.56-2.4,3.34-2.4,5.34
		c0,2.28,0.8,4.15,2.35,5.59c1.59,1.45,3.9,2.17,6.94,2.17c3.2,0,6.17-0.8,8.94-2.35c2.73-1.56,4.68-3.46,5.84-5.72
		c1.15-2.26,1.72-5.19,1.72-8.78V631.38L1320.66,631.38z M1366.78,563.79h28.67v103.18h-28.67V563.79L1366.78,563.79z
		 M1463.68,563.79h85.3v22.05h-53.31v16.43h49.42v21.03h-49.42v20.31h54.9v23.35h-86.89V563.79L1463.68,563.79z M1566.87,563.79
		h28.67v103.18h-28.67V563.79L1566.87,563.79z M1696.84,636.71h-57.49c0.52,4.58,1.74,8.01,3.74,10.27
		c2.76,3.24,6.38,4.85,10.85,4.85c2.83,0,5.53-0.69,8.05-2.08c1.56-0.89,3.23-2.46,5.02-4.68l28.25,2.59
		c-4.33,7.49-9.53,12.9-15.64,16.13c-6.1,3.27-14.86,4.9-26.27,4.9c-9.91,0-17.69-1.39-23.38-4.2c-5.67-2.78-10.38-7.23-14.12-13.3
		c-3.72-6.1-5.6-13.26-5.6-21.47c0-11.7,3.74-21.19,11.25-28.41c7.47-7.22,17.82-10.85,31-10.85c10.71,0,19.14,1.63,25.33,4.87
		c6.2,3.25,10.93,7.92,14.17,14.1c3.25,6.15,4.85,14.17,4.85,24.04V636.71L1696.84,636.71z M1667.74,623.02
		c-0.56-5.57-2.07-9.56-4.49-11.96c-2.43-2.4-5.6-3.6-9.56-3.6c-4.57,0-8.22,1.83-10.95,5.46c-1.73,2.26-2.84,5.61-3.31,10.1
		H1667.74L1667.74,623.02z M1765.72,637.71l27.24,3.03c-1.51,5.69-3.96,10.62-7.39,14.79c-3.41,4.16-7.81,7.41-13.13,9.71
		c-5.32,2.29-12.08,3.45-20.29,3.45c-7.95,0-14.56-0.74-19.84-2.2c-5.25-1.5-9.8-3.9-13.61-7.2c-3.8-3.29-6.77-7.18-8.94-11.65
		c-2.16-4.47-3.25-10.38-3.25-17.75c0-7.7,1.32-14.1,3.95-19.21c1.92-3.77,4.56-7.13,7.9-10.12c3.34-2.97,6.75-5.21,10.28-6.64
		c5.6-2.31,12.76-3.46,21.47-3.46c12.22,0,21.52,2.19,27.92,6.53c6.42,4.37,10.91,10.73,13.51,19.12l-26.95,3.6
		c-0.84-3.19-2.38-5.59-4.61-7.23c-2.23-1.6-5.23-2.42-9-2.42c-4.73,0-8.59,1.71-11.53,5.09c-2.92,3.41-4.4,8.56-4.4,15.47
		c0,6.16,1.47,10.82,4.37,14c2.9,3.2,6.61,4.78,11.12,4.78c3.74,0,6.92-0.96,9.46-2.85
		C1762.55,644.61,1764.45,641.68,1765.72,637.71L1765.72,637.71z M1840.65,563.79v28.39h15.7v21.04h-15.7v26.46
		c0,3.18,0.32,5.29,0.92,6.31c0.94,1.59,2.59,2.38,4.95,2.38c2.12,0,5.06-0.59,8.89-1.82l2.11,19.81
		c-7.07,1.57-13.68,2.33-19.83,2.33c-7.13,0-12.4-0.91-15.78-2.74c-3.37-1.82-5.86-4.61-7.5-8.33c-1.61-3.72-2.43-9.77-2.43-18.11
		v-26.3h-10.52v-21.04h10.52v-13.71L1840.65,563.79L1840.65,563.79z M1866.56,629.8c0-11.44,3.85-20.85,11.53-28.25
		c7.68-7.39,18.06-11.09,31.12-11.09c14.97,0,26.25,4.34,33.89,13.04c6.13,7.01,9.19,15.63,9.19,25.85
		c0,11.53-3.79,20.95-11.4,28.32c-7.62,7.34-18.15,11.02-31.61,11.02c-11.98,0-21.68-3.04-29.08-9.17
		C1871.11,651.96,1866.56,642.04,1866.56,629.8L1866.56,629.8z M1895.24,629.75c0,6.69,1.36,11.65,4.04,14.84
		c2.69,3.2,6.05,4.8,10.13,4.8c4.11,0,7.48-1.58,10.12-4.73c2.64-3.14,3.96-8.22,3.96-15.17c0-6.51-1.32-11.34-3.98-14.54
		c-2.66-3.16-5.95-4.76-9.9-4.76c-4.15,0-7.58,1.62-10.29,4.83C1896.6,618.26,1895.24,623.16,1895.24,629.75L1895.24,629.75z
		 M1966.44,592.18h26.84v12.2c2.59-5.3,5.26-8.95,8-10.95c2.76-1.98,6.15-2.97,10.18-2.97c4.25,0,8.89,1.32,13.91,3.96l-8.88,20.34
		c-3.39-1.42-6.09-2.12-8.05-2.12c-3.74,0-6.68,1.57-8.75,4.66c-2.95,4.38-4.43,12.57-4.43,24.55v25.12h-28.82V592.18
		L1966.44,592.18z M2058.8,616.4l-27.38-2.89c1.03-4.8,2.52-8.57,4.47-11.31c1.95-2.77,4.73-5.15,8.4-7.16
		c2.62-1.47,6.22-2.6,10.81-3.39c4.59-0.8,9.56-1.2,14.92-1.2c8.57,0,15.44,0.48,20.65,1.44c5.19,0.96,9.53,2.98,12.99,6.03
		c2.45,2.11,4.37,5.11,5.77,8.98c1.42,3.87,2.12,7.56,2.12,11.09v33.05c0,3.53,0.21,6.29,0.67,8.29c0.43,1.98,1.41,4.53,2.91,7.63
		h-26.83c-1.08-1.93-1.77-3.37-2.11-4.37c-0.31-1.01-0.64-2.57-0.99-4.71c-3.74,3.6-7.47,6.19-11.19,7.72
		c-5.06,2.07-10.95,3.09-17.65,3.09c-8.9,0-15.68-2.06-20.29-6.22c-4.64-4.13-6.94-9.25-6.94-15.3c0-5.68,1.66-10.37,5-14.04
		c3.33-3.69,9.49-6.42,18.44-8.19c10.74-2.16,17.7-3.68,20.9-4.57c3.19-0.87,6.57-2,10.13-3.41c0-3.53-0.72-5.98-2.19-7.39
		c-1.44-1.41-3.98-2.12-7.63-2.12c-4.68,0-8.19,0.75-10.54,2.26C2061.39,610.92,2059.93,613.13,2058.8,616.4L2058.8,616.4z
		 M2083.58,631.38c-3.93,1.41-8.05,2.66-12.34,3.77c-5.81,1.57-9.51,3.1-11.06,4.61c-1.61,1.56-2.4,3.34-2.4,5.34
		c0,2.28,0.8,4.15,2.36,5.59c1.59,1.45,3.9,2.17,6.94,2.17c3.2,0,6.17-0.8,8.94-2.35c2.73-1.56,4.68-3.46,5.83-5.72
		c1.16-2.26,1.72-5.19,1.72-8.78V631.38L2083.58,631.38z M2129.7,563.79h28.67v103.18h-28.67V563.79z"/>
	<rect x="802.86" y="104.18" class="st0" width="142.92" height="380.44"/>
	<polygon class="st0" points="1015.71,104.59 1015.71,485.23 1161.95,485.23 1161.95,263.72 1453.34,484.15 1602.8,485.23 
		1601.72,105.66 1453.34,105.66 1453.34,327.16 1161.95,103.51 	"/>
	<polygon class="st0" points="1658.3,106.45 1658.3,486.88 2158.69,486.88 2158.69,415.19 1795.92,415.19 1795.92,328.96 
		2158.69,328.96 2158.69,262.12 1798.42,262.12 1798.42,175.43 2158.69,175.43 2158.69,106.45 	"/>
</g>
</svg>
