<?xml version="1.0" encoding="utf-8"?>
<!-- Generator: Adobe Illustrator 25.4.1, SVG Export Plug-In . SVG Version: 6.00 Build 0)  -->
<svg version="1.1" id="Capa_1" xmlns="http://www.w3.org/2000/svg" xmlns:xlink="http://www.w3.org/1999/xlink" x="0px" y="0px"
	 viewBox="0 0 1080 1080" style="enable-background:new 0 0 1080 1080;" xml:space="preserve">
<style type="text/css">
	.st0{fill:#FFFFFF;}
</style>
<symbol  id="Nuevo_símbolo_1" viewBox="-8.77 -8.77 17.54 17.53">
	<g>
		<path class="st0" d="M0.01,8.76c1.27,0,2.55,0,3.82,0c1.18,0,2.24-0.35,3.16-1.1c0.83-0.68,1.39-1.54,1.63-2.59
			C8.7,4.7,8.75,4.3,8.76,3.9c0.01-2.6,0.02-5.2,0-7.8C8.74-5.79,7.87-7.21,6.24-8.16c-0.7-0.41-1.48-0.59-2.29-0.59
			c-2.63,0-5.26-0.02-7.88,0.01c-1.88,0.02-3.3,0.9-4.24,2.53c-0.4,0.7-0.59,1.47-0.59,2.28c0,2.63-0.02,5.26,0.01,7.88
			c0.02,1.88,0.9,3.3,2.53,4.23c0.71,0.41,1.5,0.59,2.32,0.59C-2.6,8.76-1.3,8.76,0.01,8.76z M7.21,0c0,1.28,0,2.56,0,3.83
			c0,0.5-0.07,0.99-0.29,1.44C6.3,6.53,5.28,7.19,3.88,7.2c-2.59,0.02-5.17,0.01-7.76,0c-0.84,0-1.59-0.26-2.22-0.83
			C-6.86,5.7-7.21,4.84-7.21,3.83c0-2.52,0-5.04,0-7.55c0-0.24,0.01-0.49,0.05-0.73c0.22-1.22,0.91-2.05,2.05-2.53
			C-4.69-7.15-4.25-7.2-3.81-7.2c2.46,0,4.91,0,7.37,0c0.2,0,0.4,0,0.6,0.02c1.07,0.08,1.9,0.59,2.5,1.47
			c0.38,0.56,0.54,1.2,0.54,1.87C7.21-2.56,7.21-1.28,7.21,0z"/>
		<path class="st0" d="M-4.51,0.08c0.06,2.51,2.12,4.5,4.59,4.44c2.51-0.06,4.5-2.12,4.44-4.59c-0.06-2.51-2.12-4.5-4.59-4.44
			C-2.58-4.45-4.58-2.39-4.51,0.08z M-2.96,0c0-1.63,1.33-2.96,2.96-2.96C1.63-2.95,2.95-1.63,2.96,0C2.97,1.62,1.64,2.96,0,2.96
			C-1.62,2.97-2.96,1.63-2.96,0z"/>
		<path class="st0" d="M4.7,3.56c-0.63,0-1.15,0.52-1.14,1.14c0.01,0.63,0.53,1.14,1.15,1.13C5.34,5.83,5.85,5.31,5.85,4.7
			C5.85,4.07,5.33,3.56,4.7,3.56z"/>
	</g>
</symbol>
<use xlink:href="#Nuevo_símbolo_1"  width="17.54" height="17.53" x="-8.77" y="-8.77" transform="matrix(35.0632 0 0 -35.0632 539.937 590.9712)" style="overflow:visible;"/>
</svg>
