<?xml version="1.0" encoding="utf-8"?>
<!-- Generator: Adobe Illustrator 26.2.1, SVG Export Plug-In . SVG Version: 6.00 Build 0)  -->
<svg version="1.1" id="Capa_1" xmlns="http://www.w3.org/2000/svg" xmlns:xlink="http://www.w3.org/1999/xlink" x="0px" y="0px"
	 viewBox="0 0 1080 1080" style="enable-background:new 0 0 1080 1080;" xml:space="preserve">
<style type="text/css">
	.st0{fill:#263B4E;stroke:#263B4E;stroke-miterlimit:10;}
	.st1{fill:#263B4E;}
	.st2{fill-rule:evenodd;clip-rule:evenodd;fill:#FFFFFF;}
	.st3{fill-rule:evenodd;clip-rule:evenodd;fill:#263B4E;stroke:#263B4E;stroke-miterlimit:10;}
</style>
<g>
	<g>
		<path class="st0" d="M862.1,167.54c110.07,88.68,180.74,224.28,181.63,376.42c1.55,264.43-211.05,483.58-475.41,489.66
			c-243.64,5.6-447.84-167.83-490.25-397.93c0,0,68.55-197.69,178.4-98.45c0,0,108.44,103.08,205.5,56.9
			c0,0,69.31-33.58-17.17-194.29c-6.23-11.57-9.7-24.57-9.24-37.71c0.37-10.75,1.02-18.81,11.47-32.61c0,0,39.85-46.6,130.66,13.8
			c0,0,66.2,38.63,101.05,0c0,0,46.6-50.82-0.87-137.93c0,0-34.84-59.67-0.44-91.47c0,0,49.71-50.14,158.79,37.21L862.1,167.54z"/>
		<g>
			<g>
				<path class="st1" d="M772.05,105.94c2.16,1.19,21.9,11.73,39.93,21.03c-7.28-7.48-13.65-15.5-19.02-23.48
					c-3.34-2.13-5.76-3.62-5.77-3.6c-2.62-1.44-5.21-2.88-7.78-4.3c-74.1-40.98-117.76-63.05-153.26-40.04
					c-36.72,23.79-25.46,58.96-4.04,114.37c3.8,9.85,17.01,52.27,17.3,51.49c6.29,26.65,5.67,51.47-14.91,65.7
					c-0.28,0.2-0.56,0.38-0.84,0.57c-17.78,11.52-116.37-8.55-118.64-8.99c-47.96-9.2-76.44-31.96-116.97-5.7
					c-30.28,19.62-5.8,93.07-5.02,93.05c1.49,3.42,49.9,119.53,10.66,144.96c-34.4,22.29-152.62-35.62-159.05-37.02
					c-3.24-1.76-18.63-10.23-21.2-11.65c-74.1-40.98-117.76-63.05-153.26-40.04c-36.72,23.79-25.46,58.96-4.04,114.37
					c2.96,7.66,18.01,50.37,18.31,54.35c0.05,0.64,0.04,1.3,0,1.97c0.63,3.11,1.2,6.19,1.6,9.22c2.65,12.04,3.57,24.88,3.2,38.2
					c13.46-18.92,11.77-42.47,2.99-71.75c0.06-0.01,0.12-0.01,0.18-0.02c-0.25-0.43-4.87-15.09-5.1-15.9
					c-0.08-0.35-2.52-6.33-3.49-9.08c-0.47-1.34-0.99-2.76-1.49-4.24c0,0.13-0.02,0.26-0.02,0.39c-1.28-3.42-2.61-6.9-3.99-10.45
					c-14.75-38.17-33.11-85.67-5.14-103.8c24.4-15.81,78.88,11.94,126.32,37.99l16.57,9.13c3.35,1.85,144.72,71.33,190.61,41.6
					c52.31-33.89-2.57-153.98-5.27-163.51c-1.12-3.94-18.35-62.85-0.36-74.51c27.2-17.62,92.14,10.43,101.23,11.23
					c2.48,0.98,98.07,26.97,134.61,3.29c0.58-0.38,1.17-0.77,1.74-1.16c30.52-21.1,31.03-49.56,19.58-87.72
					c0.28-0.03-2.85-9.03-3.81-11.85c0.07-3.73-8.72-23.88-10.1-27.44c-1.37-3.55-27.12-89.56-5.14-103.8
					C653.57,43.01,769.07,105.22,772.05,105.94z"/>
			</g>
			<g>
				<path class="st1" d="M716.19,70.07c-2.6-2.05-5.34-4.65-7.96-7.57c-13.76-0.02-26.74,3.97-40.51,13.6
					c-35.45,24.79-35.39,51.18-32.35,92.18c0.54,7.29,0.31,39.17,0.73,38.51c-1.75,20.35-8.57,40.31-28.66,54.92
					c-0.28,0.2-0.54,0.39-0.82,0.58c-17.16,12-90.97,11.36-92.67,11.37c-36.04,0.14-53.05-13.62-92.17,13.74
					c-29.23,20.44-28.33,75.4-27.71,75.26c0.32,2.51,9.51,87.87-28.38,114.36c-33.21,23.22-113.09-4.63-117.88-4.75
					c-2.15-0.9-12.31-5.27-14-6.01c-48.88-21.21-78.21-32.04-112.48-8.07c-35.45,24.79-35.39,51.18-32.35,92.17
					c0.42,5.67,1.59,37.5,0.82,40.63c-0.12,0.51-0.3,1.04-0.5,1.58c-0.28,2.39-0.62,4.77-1.07,7.13
					c-0.95,9.22-3.47,19.35-7.17,30.08c15.59-17.25,20.24-35.84,20.66-57.9c0.05-0.01,0.1-0.03,0.15-0.04
					c-0.09-0.31-0.06-11.31-0.04-11.92c0.02-0.26-0.4-4.68-0.48-6.72c-0.04-1-0.09-2.05-0.11-3.16c-0.03,0.11-0.08,0.21-0.11,0.32
					c-0.16-2.54-0.34-5.11-0.53-7.74c-2.09-28.25-4.69-63.39,22.31-82.27c23.56-16.47,60.09-2.78,91.44,10.64l10.93,4.72
					c2.21,0.95,97.68,34.45,141.98,3.47c50.49-35.31,37.14-122.85,37.41-130.05c0.11-2.98,1.31-47.43,18.68-59.58
					c26.26-18.36,71.1-6.07,78.17-6.85c1.74,0.39,71.63,6.24,106.91-18.43c0.56-0.39,1.13-0.8,1.69-1.2
					c29.8-21.67,37.45-44.53,38.01-73.27c0.23-0.07,0.02-6.78-0.03-8.89c1.01-3-0.9-17.75-1.1-20.38
					c-0.19-2.63,1.09-67.44,22.31-82.27c12.43-8.7,39.63-3.97,62.87,2.45C726.46,77.4,720.99,73.87,716.19,70.07z"/>
			</g>
			<path class="st1" d="M792.96,103.49c0,0,83.11,69.12,115.59,106.69l-75.09-44.64c0,0-54.54-59.1-99.13-77.9"/>
			<path class="st1" d="M56.13,536.65c0,0,8.05,67.71,34.84,159.5l17.75-55.76l-27.64-44.96l-21.14-58.78"/>
		</g>
	</g>
	<g>
		<path class="st2" d="M750.97,399.45c-122.2,0-244.81,0-367.01,0c-43.68,0-66.26,23.24-66.26,66.71c0,60.67,0,121.34,0,182.43
			c0,60.67,0,122.84,0,183.95c0,42.16,23.24,65.19,64.11,65.19c123.5,0,246.11,0,369.17,0c42.61,0,66.04-23.02,66.04-65.63
			c0-122.84,0-244.59,0-367.45C817.01,422.69,793.57,399.45,750.97,399.45z M710.52,456.04c49.48,0,49.48,0,49.48,49.48
			c0,48.18,0,48.18-48.62,48.18c-49.04,0-49.04,0-49.04-49.04C662.34,456.04,662.34,456.04,710.52,456.04z M567.68,551.78
			c52.06,0,96.8,44.96,95.94,96.8c-0.42,53.36-44.74,97.24-97.66,96.38c-52.5-0.86-96.82-45.38-95.52-97.24
			C471.72,595.23,515.61,551.78,567.68,551.78z M760,811.64c-0.42,23.24-6.45,29.7-29.67,29.7c-54.43,0-108.87,0-163.3,0
			c-53.99,0-108.41,0-162.84,0c-22.8,0-29.26-6.45-29.26-29.7c0-60.23,0.22-121.32-0.86-181.99c0-17.23,4.74-20.88,20.64-20.44
			c22.8,1.94,23.24,0.86,20.66,23.24c-8.83,76.79,44.52,151.87,120.46,166.72c78.31,14.85,156.63-32.05,178.13-107.13
			c6.45-23.46,8.39-48.62,3.46-71.64c-1.72-8.83,0.42-10.33,8.17-10.33c34.41-2.8,34.41-3.22,34.41,32.49
			C760,698.06,760,755.07,760,811.64z"/>
	</g>
	<path class="st3" d="M444.79,399.84l-60.84-0.39c0,0-65.35-2.17-65.81,56.59l-0.46,124.27c0,0,75.97,46.09,148.31,11.15
		c0,0,33.88-16.79,16.47-99.76C482.47,491.69,455.7,411.38,444.79,399.84z"/>
</g>
</svg>
