<?xml version="1.0" encoding="utf-8"?>
<!-- Generator: Adobe Illustrator 25.4.1, SVG Export Plug-In . SVG Version: 6.00 Build 0)  -->
<svg version="1.1" id="Capa_1" xmlns="http://www.w3.org/2000/svg" xmlns:xlink="http://www.w3.org/1999/xlink" x="0px" y="0px"
	 viewBox="0 0 1080 1080" style="enable-background:new 0 0 1080 1080;" xml:space="preserve">
<style type="text/css">
	.st0{fill:#FFFFFF;}
</style>
<symbol  id="Nuevo_símbolo_2" viewBox="-8.8 -8.77 17.6 17.53">
	<g>
		<path class="st0" d="M-2.56,2.91c1.16,0,2.28,0,3.46,0c0-0.46,0-0.91,0-1.51C1.2,1.73,1.37,1.97,1.59,2.16
			c1.39,1.22,3,1.32,4.67,0.79c1.51-0.48,2.17-1.69,2.36-3.15c0.13-1.02,0.15-2.05,0.17-3.08C8.81-5.1,8.79-6.91,8.79-8.76
			c-1.22,0-2.39,0-3.66,0c0,0.22,0,0.44,0,0.66C5.12-6.17,5.11-4.25,5.1-2.32c0,0.25-0.02,0.5-0.07,0.74
			c-0.2,1.05-0.76,1.55-1.72,1.6c-1.03,0.05-1.8-0.47-2.05-1.46C1.14-1.92,1.08-2.42,1.08-2.91C1.06-4.65,1.07-6.38,1.07-8.12
			c0-0.2,0-0.41,0-0.65c-1.24,0-2.41,0-3.63,0C-2.56-4.88-2.56-1.02-2.56,2.91z"/>
		<path class="st0" d="M-8.49,2.91c1.21,0,2.37,0,3.57,0c0-3.88,0-7.76,0-11.68c-1.18,0-2.36,0-3.57,0
			C-8.49-4.89-8.49-1.02-8.49,2.91z"/>
		<path class="st0" d="M-6.71,8.77c1.16,0.01,2.13-0.93,2.15-2.09c0.02-1.17-0.96-2.16-2.14-2.16c-1.17,0-2.09,0.93-2.1,2.12
			C-8.81,7.82-7.89,8.76-6.71,8.77z"/>
	</g>
</symbol>
<use xlink:href="#Nuevo_símbolo_2"  width="17.6" height="17.53" x="-8.8" y="-8.77" transform="matrix(35.0632 0 0 -35.0632 546.8559 539.9712)" style="overflow:visible;"/>
</svg>
