<?xml version="1.0" encoding="utf-8"?>
<!-- Generator: Adobe Illustrator 25.4.1, SVG Export Plug-In . SVG Version: 6.00 Build 0)  -->
<svg version="1.1" id="Capa_1" xmlns="http://www.w3.org/2000/svg" xmlns:xlink="http://www.w3.org/1999/xlink" x="0px" y="0px"
	 viewBox="0 0 1080 1080" style="enable-background:new 0 0 1080 1080;" xml:space="preserve">
<style type="text/css">
	.st0{fill:#FFFFFF;stroke:#FFFFFF;stroke-miterlimit:10;}
	.st1{fill:#FFFFFF;}
	.st2{fill:#263B4E;stroke:#263B4E;stroke-miterlimit:10;}
</style>
<symbol  id="Nuevo_símbolo" viewBox="-27.83 -27.29 55.67 54.58">
	<g>
		<path class="st0" d="M17.39,20.65c6.03-4.86,9.9-12.28,9.95-20.61C27.42-14.45,15.78-26.45,1.3-26.78
			c-13.34-0.31-24.52,9.19-26.85,21.79c0,0,3.75,10.83,9.77,5.39c0,0,5.94-5.64,11.25-3.12c0,0,3.8,1.84-0.94,10.64
			C-5.8,8.56-5.99,9.27-5.97,9.99c0.02,0.59,0.06,1.03,0.63,1.79c0,0,2.18,2.55,7.16-0.76c0,0,3.63-2.12,5.53,0
			c0,0,2.55,2.78-0.05,7.55c0,0-1.91,3.27-0.02,5.01c0,0,2.72,2.75,8.7-2.04L17.39,20.65z"/>
		<g>
			<g>
				<path class="st1" d="M12.46,24.02c0.12-0.07,1.2-0.64,2.19-1.15c-0.4,0.41-0.75,0.85-1.04,1.29c-0.18,0.12-0.32,0.2-0.32,0.2
					c-0.14,0.08-0.29,0.16-0.43,0.24c-4.06,2.24-6.45,3.45-8.39,2.19c-2.01-1.3-1.39-3.23-0.22-6.26c0.21-0.54,0.93-2.86,0.95-2.82
					c0.34-1.46,0.31-2.82-0.82-3.6c-0.02-0.01-0.03-0.02-0.05-0.03c-0.97-0.63-6.37,0.47-6.5,0.49c-2.63,0.5-4.19,1.75-6.41,0.31
					c-1.66-1.07-0.32-5.1-0.28-5.1c0.08-0.19,2.73-6.55,0.58-7.94c-1.88-1.22-8.36,1.95-8.71,2.03c-0.18,0.1-1.02,0.56-1.16,0.64
					c-4.06,2.24-6.45,3.45-8.39,2.19c-2.01-1.3-1.39-3.23-0.22-6.26c0.16-0.42,0.99-2.76,1-2.98c0-0.04,0-0.07,0-0.11
					c0.03-0.17,0.07-0.34,0.09-0.5c0.14-0.66,0.2-1.36,0.18-2.09c0.74,1.04,0.64,2.33,0.16,3.93c0,0,0.01,0,0.01,0
					c-0.01,0.02-0.27,0.83-0.28,0.87c0,0.02-0.14,0.35-0.19,0.5c-0.03,0.07-0.05,0.15-0.08,0.23c0-0.01,0-0.01,0-0.02
					c-0.07,0.19-0.14,0.38-0.22,0.57c-0.81,2.09-1.81,4.69-0.28,5.68c1.34,0.87,4.32-0.65,6.92-2.08l0.91-0.5
					c0.18-0.1,7.93-3.91,10.44-2.28c2.86,1.86-0.14,8.43-0.29,8.95c-0.06,0.22-1.01,3.44-0.02,4.08c1.49,0.97,5.05-0.57,5.54-0.62
					c0.14-0.05,5.37-1.48,7.37-0.18c0.03,0.02,0.06,0.04,0.1,0.06c1.67,1.16,1.7,2.71,1.07,4.8c0.02,0-0.16,0.49-0.21,0.65
					c0,0.2-0.48,1.31-0.55,1.5c-0.08,0.19-1.49,4.9-0.28,5.68C5.97,27.47,12.29,24.06,12.46,24.02z"/>
			</g>
			<g>
				<path class="st1" d="M9.4,25.98c-0.14,0.11-0.29,0.25-0.44,0.41c-0.75,0-1.46-0.22-2.22-0.74c-1.94-1.36-1.94-2.8-1.77-5.05
					c0.03-0.4,0.02-2.15,0.04-2.11c-0.1-1.11-0.47-2.21-1.57-3.01c-0.02-0.01-0.03-0.02-0.04-0.03c-0.94-0.66-4.98-0.62-5.07-0.62
					c-1.97-0.01-2.9,0.75-5.05-0.75c-1.6-1.12-1.55-4.13-1.52-4.12C-8.22,9.82-7.72,5.15-9.8,3.7c-1.82-1.27-6.19,0.25-6.45,0.26
					c-0.12,0.05-0.67,0.29-0.77,0.33c-2.68,1.16-4.28,1.75-6.16,0.44c-1.94-1.36-1.94-2.8-1.77-5.05c0.02-0.31,0.09-2.05,0.05-2.23
					c-0.01-0.03-0.02-0.06-0.03-0.09c-0.02-0.13-0.03-0.26-0.06-0.39c-0.05-0.5-0.19-1.06-0.39-1.65c0.85,0.94,1.11,1.96,1.13,3.17
					c0,0,0.01,0,0.01,0c0,0.02,0,0.62,0,0.65c0,0.01-0.02,0.26-0.03,0.37c0,0.05-0.01,0.11-0.01,0.17c0-0.01,0-0.01-0.01-0.02
					c-0.01,0.14-0.02,0.28-0.03,0.42c-0.11,1.55-0.26,3.47,1.22,4.51c1.29,0.9,3.29,0.15,5.01-0.58l0.6-0.26
					c0.12-0.05,5.35-1.89,7.77-0.19c2.77,1.93,2.03,6.73,2.05,7.12c0.01,0.16,0.07,2.6,1.02,3.26c1.44,1.01,3.89,0.33,4.28,0.37
					c0.1-0.02,3.92-0.34,5.85,1.01c0.03,0.02,0.06,0.04,0.09,0.07c1.63,1.19,2.05,2.44,2.08,4.01c0.01,0,0,0.37,0,0.49
					c0.06,0.16-0.05,0.97-0.06,1.12c-0.01,0.14,0.06,3.69,1.22,4.51c0.68,0.48,2.17,0.22,3.44-0.13C9.96,25.58,9.66,25.78,9.4,25.98
					z"/>
			</g>
			<path class="st1" d="M13.6,24.15c0,0,4.55-3.79,6.33-5.84l-4.11,2.44c0,0-2.99,3.24-5.43,4.27"/>
			<path class="st1" d="M-26.75,0.43c0,0,0.44-3.71,1.91-8.73l0.97,3.05l-1.51,2.46l-1.16,3.22"/>
		</g>
	</g>
	<g>
		<g>
			<path class="st2" d="M-6.21-15.7c0,0.29,0,0.57,0,0.86c1.51,0,3,0,4.51,0c0-0.28,0-0.56,0-0.86C-3.19-15.7-4.69-15.7-6.21-15.7z"
				/>
			<path class="st2" d="M-1.68-16.65c0-0.29,0-0.56,0-0.85c-1.51,0-3.01,0-4.52,0c0,0.28,0,0.56,0,0.85
				C-4.7-16.65-3.2-16.65-1.68-16.65z"/>
			<path class="st2" d="M11.43-19.74c0,0.3,0,0.57,0,0.85c1.02,0,2.04,0,3.06,0c0-0.28,0-0.56,0-0.85
				C13.48-19.74,12.46-19.74,11.43-19.74z"/>
			<path class="st2" d="M13.59-14.84c0-0.29,0-0.56,0-0.85c-0.58,0-1.15,0-1.73,0c0,0.28,0,0.56,0,0.85
				C12.44-14.84,13-14.84,13.59-14.84z"/>
			<path class="st2" d="M11.86-17.5c0,0.29,0,0.57,0,0.86c0.58,0,1.14,0,1.73,0c0-0.28,0-0.56,0-0.86
				C13.01-17.5,12.45-17.5,11.86-17.5z"/>
			<path class="st2" d="M11.85-4.56c0,1.67,0,3.35,0,5.02c0,0.13,0,0.27-0.02,0.4c-0.12,1.02-1.05,1.72-2.06,1.55
				c-0.19-0.03-0.37-0.1-0.6-0.17c0,0.37,0.04,0.72-0.01,1.07C9.03,4.35,8.01,5.03,6.99,4.78C6.81,4.73,6.65,4.66,6.48,4.6
				c-0.4,1.02-0.99,1.48-1.84,1.44c-0.4-0.02-0.76-0.15-1.07-0.4C3.11,5.27,2.89,4.79,2.88,4.18C2.8,4.21,2.75,4.23,2.7,4.25
				C2.01,4.58,1.2,4.44,0.66,3.88c-0.33-0.34-0.5-0.77-0.51-1.25c-0.01-0.39,0-0.79,0-1.18c0-3.34,0-6.68-0.01-10.02
				c0-0.2-0.08-0.42-0.19-0.58c-0.12-0.18-0.32-0.31-0.49-0.48c-0.05,0.04-0.08,0.07-0.11,0.1c-0.8,0.76-1.59,1.53-2.4,2.28
				c-0.56,0.53-1.23,0.72-2,0.58C-5.6-6.78-6.01-7.1-6.41-7.47c-0.54-0.5-0.56-1-0.04-1.52c2.36-2.37,4.73-4.73,7.1-7.09
				c0.19-0.19,0.28-0.41,0.28-0.68c0-0.96,0-1.93,0-2.89c0-0.06,0.01-0.12,0.01-0.18c3.17,0,6.33,0,9.49,0
				c0,0.08,0.01,0.15,0.01,0.22c0,0.79,0.02,1.59-0.01,2.38c-0.02,0.51,0.09,0.98,0.26,1.46c0.69,1.93,1.09,3.93,1.13,5.98
				C11.87-8.06,11.85-6.31,11.85-4.56z M-0.24-13.99c0.02-0.03,0.03-0.07,0.05-0.1C-0.2-14.06-0.22-14.02-0.24-13.99
				C-0.24-13.99-0.24-13.99-0.24-13.99z M10.97,0.37c0-1.72,0-3.45,0-5.17c0-1.43,0-2.86,0-4.29c0-2.41-0.45-4.73-1.3-6.98
				c-0.07-0.18-0.1-0.38-0.1-0.57c-0.01-0.69,0-1.38,0-2.07c0-0.08,0-0.15,0-0.24c-2.58,0-5.14,0-7.73,0c0,0.08-0.01,0.16-0.01,0.24
				c0,0.65,0,1.31,0,1.96c0,0.49-0.16,0.91-0.51,1.25c-0.51,0.5-1.03,1.01-1.54,1.51c0,0,0,0,0,0c-1.05,1.06-2.11,2.12-3.16,3.18
				c-0.81,0.82-1.63,1.63-2.45,2.44C-5.87-8.33-5.9-8.29-5.95-8.24c0.23,0.18,0.42,0.39,0.66,0.53c0.54,0.33,1.17,0.24,1.65-0.21
				c0.81-0.76,1.61-1.53,2.42-2.29c0.47-0.44,0.97-0.44,1.42,0.02c0.28,0.28,0.59,0.53,0.71,0.92c0.06,0.19,0.11,0.38,0.12,0.57
				c0.01,3.5,0,7,0,10.5c0,0.44,0.06,0.87,0.09,1.31c0.05,0.04,0.1,0.07,0.14,0.12c0.36,0.39,0.67,0.36,1.11,0.21
				c0.24-0.08,0.51-0.53,0.51-0.8c0-2.32,0-4.64,0-6.96c0-0.07,0-0.14,0-0.23c0.3,0,0.58,0,0.88,0c0,0.07,0,0.13,0,0.2
				c0,2.36,0,4.72,0,7.09c0,0.48,0,0.95,0,1.43c0,0.57,0.39,0.97,0.94,0.97c0.52,0,0.92-0.4,0.92-0.97c0.01-0.54,0-1.08,0-1.62
				c0-2.31,0-4.61,0-6.92c0-0.06,0-0.11,0-0.18c0.3,0,0.58,0,0.88,0c0,0.1,0,0.19,0,0.27c0,2.42,0,4.84,0,7.26
				c0,0.49,0.27,0.84,0.72,0.93C7.73,4.03,8.22,3.7,8.3,3.19c0.03-0.18,0.02-0.36,0.02-0.55C8.31,0.29,8.31-2.07,8.3-4.43
				c0-0.03,0.01-0.07,0.01-0.11c0.29,0,0.57,0,0.88,0c0,0.44,0,0.88,0,1.31c0.01,1.3,0.01,2.6,0.02,3.9
				c0.01,0.69,0.74,1.1,1.32,0.74c0.25-0.16,0.39-0.4,0.43-0.69C10.97,0.61,10.97,0.49,10.97,0.37z"/>
			<path class="st2" d="M14.32,9.02c-6.48,0-12.97,0-19.45,0c-0.2,0-0.41,0.01-0.61-0.03c-1.86-0.29-3.09-1.74-3.09-3.63
				c0-1.26,0-2.52,0-3.77c0-5.9,0-11.8,0-17.7c0-1.98,1.59-3.56,3.57-3.56c1.74,0,3.47,0,5.21,0c0.08,0,0.15,0,0.23,0
				c0,0.3,0,0.58,0,0.88c-0.1,0-0.18,0-0.26,0c-1.65,0-3.31,0-4.96,0c-0.21,0-0.42,0-0.63,0.03c-1.23,0.16-2.22,1.24-2.28,2.48
				c-0.07,1.31,0.8,2.47,2.05,2.76c0.22,0.05,0.46,0.07,0.69,0.08c0.56,0.01,1.12,0,1.69,0c0,0.3,0,0.58,0,0.88c-0.61,0-1.2,0-1.8,0
				c-0.62,0-1.2-0.16-1.72-0.48c-0.31-0.19-0.59-0.43-0.9-0.66c0,0.04-0.01,0.08-0.01,0.13c0,6.35,0,12.7,0,19.05
				c0,1.47,1.2,2.65,2.66,2.65c6.24,0,12.48,0,18.71,0c0.07,0,0.15,0,0.22,0c0-6.93,0-13.82,0-20.74c-0.3,0-0.6,0-0.9,0
				c0-0.3,0-0.58,0-0.86c0.6,0,1.19,0,1.78,0c0,7.5,0,14.98,0,22.48C14.45,9.02,14.38,9.02,14.32,9.02z M14.24,4.36
				c0.02-0.02,0.04-0.05,0.04-0.07C14.28,4.3,14.27,4.33,14.24,4.36c-0.02,0.02-0.03,0.03-0.05,0.04
				C14.21,4.39,14.23,4.37,14.24,4.36z M14,3.29L14,3.29c0-0.06,0-0.12,0-0.18C13.99,3.17,14,3.23,14,3.29z M13.99,3.29L13.99,3.29
				C13.99,3.29,13.99,3.29,13.99,3.29C13.99,3.29,13.99,3.29,13.99,3.29z M13.99,3.55c0,0.05,0,0.1,0.01,0.16
				c0,0.01,0.01,0.03,0.02,0.04c0.01,0.01,0.02,0.03,0.03,0.04c-0.01-0.01-0.02-0.03-0.03-0.04C14.01,3.74,14,3.72,14,3.71
				C13.99,3.66,13.99,3.6,13.99,3.55z M14.09,2.75L14.09,2.75c0,0.01-0.01,0.01-0.01,0.02C14.08,2.77,14.09,2.76,14.09,2.75z
				 M14.26-12.83c-0.01,0.02-0.03,0.03-0.04,0.05C14.23-12.8,14.25-12.81,14.26-12.83z M14.12,3.86c0.02-0.02,0.05-0.05,0.07-0.07
				C14.17,3.82,14.14,3.84,14.12,3.86z M14.09,4.42c-0.04-0.01-0.07-0.04-0.11-0.08C14.02,4.38,14.05,4.41,14.09,4.42z M14.11-13.12
				L14.11-13.12c0.03,0.04,0.06,0.08,0.09,0.11C14.17-13.05,14.14-13.08,14.11-13.12z M14.28-12.88c0,0.01,0,0.02-0.01,0.02
				C14.28-12.86,14.28-12.87,14.28-12.88L14.28-12.88z M14.26,4.17c-0.01-0.02-0.02-0.04-0.04-0.06
				C14.23,4.13,14.24,4.15,14.26,4.17c0.01,0.02,0.02,0.04,0.03,0.06C14.28,4.21,14.27,4.19,14.26,4.17z"/>
			<path class="st2" d="M-6.18,7.2c0-4.17,0-8.33,0-12.5c0.3,0,0.57,0,0.85,0c0,4.17,0,8.33,0,12.5C-5.62,7.2-5.9,7.2-6.18,7.2z"/>
		</g>
		<rect x="-6.18" y="-3.08" class="st0" width="0.85" height="10.28"/>
		<rect x="-8.83" y="-3.35" class="st0" width="0.87" height="9.01"/>
		<path class="st0" d="M-8.83,5.66h0.87c0,0,0.11,2.12,2.31,2.47l-0.31,0.84C-5.95,8.96-8.61,8.67-8.83,5.66z"/>
	</g>
</symbol>
<use xlink:href="#Nuevo_símbolo"  width="55.67" height="54.58" x="-27.83" y="-27.29" transform="matrix(16.0744 0 0 -16.0744 540 540)" style="overflow:visible;"/>
</svg>
