<svg xmlns="http://www.w3.org/2000/svg" viewBox="0 0 485.23 475.61"><defs><style>.cls-1,.cls-3{fill:#904191;}.cls-2{fill:#fff;}.cls-3{stroke:#904191;stroke-miterlimit:10;stroke-width:0.75px;}</style></defs><g id="Capa_1" data-name="Capa 1"><path class="cls-1" d="M405.7,71.87a234.06,234.06,0,0,1,87.48,181.3c.75,127.35-101.65,232.91-229,235.83C146.86,491.7,48.52,408.17,28.09,297.35c0,0,33-95.22,85.92-47.42,0,0,52.23,49.65,99,27.4,0,0,33.39-16.17-8.26-93.58a36,36,0,0,1-4.46-18.16c.18-5.17.49-9.06,5.53-15.7,0,0,19.19-22.45,62.93,6.64,0,0,31.89,18.61,48.67,0,0,0,22.44-24.47-.42-66.43,0,0-16.78-28.74-.21-44,0,0,23.94-24.15,76.48,17.92Z" transform="translate(-7.95 -13.46)"/><path class="cls-1" d="M362.33,42.2c1,.58,10.55,5.66,19.23,10.13A81.08,81.08,0,0,1,372.4,41c-1.61-1-2.77-1.74-2.78-1.73l-3.74-2.07c-35.69-19.74-56.72-30.37-73.82-19.29C274.38,29.39,279.8,46.33,290.11,73c1.84,4.74,8.2,25.17,8.33,24.8,3,12.83,2.73,24.78-7.18,31.64l-.4.27c-8.57,5.55-56.05-4.12-57.14-4.33-23.1-4.43-36.82-15.39-56.34-2.74-14.59,9.45-2.79,44.82-2.42,44.81.72,1.65,24,57.57,5.13,69.82-16.57,10.74-73.5-17.15-76.6-17.83l-10.21-5.61c-35.69-19.74-56.71-30.36-73.81-19.29C1.78,206,7.2,223,17.52,249.65c1.43,3.69,8.67,24.26,8.82,26.17a6,6,0,0,1,0,.95c.31,1.5.58,3,.77,4.44a75.68,75.68,0,0,1,1.54,18.4c6.48-9.11,5.67-20.45,1.44-34.56h.09c-.12-.21-2.34-7.27-2.46-7.66,0-.17-1.21-3-1.68-4.37-.22-.65-.47-1.33-.71-2a1.09,1.09,0,0,0,0,.18q-.93-2.46-1.92-5c-7.11-18.38-15.95-41.26-2.48-50,11.75-7.62,38,5.75,60.84,18.3l8,4.39c1.61.9,69.7,34.36,91.8,20,25.19-16.32-1.24-74.16-2.54-78.75-.53-1.9-8.84-30.27-.17-35.89,13.1-8.48,44.38,5,48.75,5.42,1.2.47,47.24,13,64.84,1.58l.84-.56c14.7-10.16,14.94-23.87,9.43-42.25.13,0-1.37-4.35-1.84-5.71,0-1.79-4.2-11.5-4.86-13.21s-13.06-43.13-2.48-50C305.27,11.89,360.9,41.86,362.33,42.2Z" transform="translate(-7.95 -13.46)"/><path class="cls-1" d="M335.43,24.93a31.45,31.45,0,0,1-3.84-3.65c-6.62,0-12.88,1.91-19.51,6.55C295,39.77,295,52.48,296.5,72.22c.26,3.51.15,18.87.35,18.55-.84,9.8-4.12,19.41-13.8,26.45l-.39.28C274.39,123.28,238.84,123,238,123c-17.36.07-25.55-6.56-44.39,6.62-14.08,9.84-13.65,36.31-13.35,36.25.16,1.2,4.58,42.32-13.67,55.08-16,11.18-54.46-2.23-56.77-2.29-1-.43-5.92-2.54-6.74-2.89-23.54-10.22-37.67-15.43-54.17-3.89-17.08,11.94-17,24.65-15.58,44.39.2,2.73.76,18.07.39,19.58a7.27,7.27,0,0,1-.24.76c-.14,1.15-.3,2.29-.51,3.43a66.94,66.94,0,0,1-3.45,14.49c7.5-8.31,9.74-17.26,10-27.89l.07,0c-.05-.15,0-5.45,0-5.74,0-.13-.19-2.25-.23-3.24,0-.48-.05-1-.06-1.52a.88.88,0,0,1,0,.15c-.08-1.22-.16-2.46-.26-3.73-1-13.6-2.26-30.53,10.75-39.62C61,205,78.63,211.56,93.73,218L99,220.29c1.07.46,47.05,16.59,68.38,1.67,24.32-17,17.89-59.16,18-62.63.05-1.44.63-22.85,9-28.7,12.64-8.84,34.24-2.92,37.64-3.29.84.18,34.5,3,51.49-8.88l.82-.58c14.35-10.44,18-21.44,18.3-35.29.11,0,0-3.27,0-4.28.48-1.45-.44-8.55-.53-9.82s.53-32.48,10.74-39.62c6-4.19,19.09-1.91,30.28,1.18A64.19,64.19,0,0,1,335.43,24.93Z" transform="translate(-7.95 -13.46)"/><path class="cls-1" d="M372.4,41s40,33.3,55.68,51.39l-36.17-21.5s-26.27-28.46-47.75-37.52" transform="translate(-7.95 -13.46)"/><path class="cls-1" d="M17.52,249.65s3.88,32.61,16.78,76.82l8.55-26.86L29.54,278,19.35,249.65" transform="translate(-7.95 -13.46)"/><path class="cls-2" d="M123.2,277.48h20a2.85,2.85,0,0,1,2.85,2.85v89.36a2.85,2.85,0,0,1-2.85,2.85h-20a0,0,0,0,1,0,0V277.48A0,0,0,0,1,123.2,277.48Z"/><polygon class="cls-2" points="271.25 261.13 285.89 253.44 283.09 269.74 294.93 281.28 278.57 283.66 271.25 298.49 263.93 283.66 247.57 281.28 259.41 269.74 256.61 253.44 271.25 261.13"/><polygon class="cls-2" points="228.32 257.43 239.78 251.41 237.59 264.17 246.86 273.21 234.05 275.07 228.32 286.68 222.59 275.07 209.77 273.21 219.04 264.17 216.86 251.41 228.32 257.43"/><polygon class="cls-3" points="191.56 233.54 203.02 227.52 200.83 240.28 210.1 249.32 197.29 251.18 191.56 262.79 185.83 251.18 173.01 249.32 182.28 240.28 180.09 227.52 191.56 233.54"/><polygon class="cls-2" points="350.13 233.54 361.59 227.52 359.4 240.28 368.68 249.32 355.86 251.18 350.13 262.79 344.4 251.18 331.59 249.32 340.86 240.28 338.67 227.52 350.13 233.54"/><polygon class="cls-2" points="313.65 257.43 325.11 251.41 322.92 264.17 332.19 273.21 319.38 275.07 313.65 286.68 307.92 275.07 295.1 273.21 304.38 264.17 302.19 251.41 313.65 257.43"/><path class="cls-2" d="M160,311.92v55.86l92.21,22.77a50.81,50.81,0,0,0,20.24,4.77s22.46.43,28-13.13l102.26-81.91s9.16-6.3,1.82-16.5c0,0-7.28-9.22-16.5-1.83L331.7,327s.91,16.6-18.12,18.4h-82.2a2.28,2.28,0,0,1,0-4.55H309.9s11.44.59,11.9-11.9c0,0,.21-10.91-11.9-11.91h-48s-14.3-3.06-15.12-4.78C246.78,312.3,223.33,300,160,311.92Z" transform="translate(-7.95 -13.46)"/><path class="cls-2" d="M279,173.94a41.71,41.71,0,1,0,41.71,41.71A41.7,41.7,0,0,0,279,173.94Zm28.36,27.88-28.49,39a4.13,4.13,0,0,1-6.36.82L251.32,223.2c-3.94-3.42,1.8-9.11,5.72-5.72l17.71,15.38q12.84-17.56,25.67-35.12C303.46,193.57,310.48,197.61,307.4,201.82Z" transform="translate(-7.95 -13.46)"/></g></svg>