<?xml version="1.0" encoding="utf-8"?>
<!-- Generator: Adobe Illustrator 27.1.0, SVG Export Plug-In . SVG Version: 6.00 Build 0)  -->
<svg version="1.1" xmlns="http://www.w3.org/2000/svg" xmlns:xlink="http://www.w3.org/1999/xlink" x="0px" y="0px"
	 viewBox="0 0 1080 1080" style="enable-background:new 0 0 1080 1080;" xml:space="preserve">
<style type="text/css">
	.st0{fill:#25588C;}
	.st1{fill:#FFFFFF;stroke:#25588C;stroke-width:4;stroke-linecap:round;stroke-linejoin:round;stroke-miterlimit:10;}
	.st2{display:none;}
	.st3{display:inline;}
	.st4{fill:#FFFFFF;}
	.st5{fill:#25588C;stroke:#25588C;stroke-width:3;stroke-linecap:round;stroke-linejoin:round;stroke-miterlimit:10;}
	.st6{fill:#FAFCFC;}
	.st7{fill-rule:evenodd;clip-rule:evenodd;fill:#FFFFFF;}
	
		.st8{fill-rule:evenodd;clip-rule:evenodd;fill:#25588C;stroke:#25588C;stroke-width:3;stroke-linecap:round;stroke-linejoin:round;stroke-miterlimit:10;}
	
		.st9{display:inline;fill:#25588C;stroke:#25588C;stroke-width:3;stroke-linecap:round;stroke-linejoin:round;stroke-miterlimit:10;}
</style>
<g id="Capa_1">
	<g>
		<g>
			<path class="st0" d="M885.29,140.89c117.99,95.06,193.75,240.43,194.7,403.52c1.66,283.46-226.24,518.39-509.63,524.9
				c-261.18,6-480.08-179.91-525.55-426.58c0,0,73.49-211.93,191.24-105.54c0,0,116.24,110.5,220.29,60.99
				c0,0,74.3-35.99-18.41-208.28c-6.68-12.41-10.39-26.34-9.91-40.42c0.4-11.52,1.09-20.17,12.3-34.96c0,0,42.72-49.96,140.07,14.8
				c0,0,70.97,41.41,108.32,0c0,0,49.96-54.48-0.93-147.86c0,0-37.35-63.97-0.47-98.05c0,0,53.29-53.75,170.22,39.89L885.29,140.89z
				"/>
			<g>
				<g>
					<path class="st0" d="M788.76,74.86c2.32,1.28,23.47,12.58,42.8,22.54c-7.81-8.02-14.63-16.61-20.39-25.17
						c-3.58-2.28-6.17-3.89-6.19-3.86c-2.8-1.55-5.59-3.09-8.34-4.61C717.21,19.83,670.4-3.82,632.35,20.84
						c-39.36,25.51-27.3,63.2-4.34,122.6c4.08,10.56,18.24,56.03,18.54,55.2c6.74,28.57,6.07,55.17-15.99,70.42
						c-0.3,0.21-0.6,0.41-0.9,0.61c-19.06,12.35-124.75-9.17-127.18-9.63c-51.41-9.86-81.94-34.26-125.39-6.11
						c-32.46,21.03-6.21,99.77-5.39,99.75c1.6,3.67,53.5,128.14,11.42,155.4c-36.87,23.89-163.61-38.18-170.49-39.69
						c-3.47-1.89-19.97-10.97-22.72-12.49c-79.44-43.93-126.24-67.58-164.29-42.93c-39.36,25.51-27.3,63.2-4.33,122.6
						c3.17,8.21,19.31,54,19.63,58.26c0.05,0.69,0.04,1.4,0,2.11c0.68,3.33,1.28,6.64,1.71,9.88c2.84,12.91,3.83,26.67,3.43,40.95
						c14.43-20.28,12.62-45.53,3.21-76.91c0.06-0.01,0.13-0.01,0.19-0.02c-0.27-0.46-5.22-16.17-5.47-17.04
						c-0.09-0.37-2.7-6.79-3.74-9.73c-0.51-1.43-1.06-2.96-1.6-4.54c0,0.14-0.02,0.28-0.02,0.42c-1.38-3.66-2.8-7.4-4.27-11.2
						c-15.81-40.92-35.5-91.84-5.51-111.27c26.16-16.95,84.55,12.8,135.42,40.72l17.76,9.79c3.6,1.98,155.14,76.46,204.33,44.59
						c56.07-36.33-2.76-165.07-5.65-175.28c-1.2-4.22-19.68-67.37-0.39-79.87c29.15-18.89,98.78,11.18,108.52,12.04
						c2.66,1.05,105.13,28.91,144.3,3.53c0.62-0.4,1.26-0.83,1.86-1.25c32.72-22.62,33.26-53.13,20.99-94.03
						c0.29-0.03-3.06-9.68-4.09-12.71c0.08-4-9.35-25.6-10.82-29.41c-1.47-3.8-29.07-96-5.51-111.27
						C661.74,7.4,785.56,74.09,788.76,74.86z"/>
				</g>
				<g>
					<path class="st0" d="M728.87,36.41c-2.79-2.2-5.73-4.98-8.53-8.12c-14.75-0.02-28.67,4.25-43.43,14.57
						c-38,26.57-37.94,54.86-34.68,98.81c0.58,7.81,0.33,41.99,0.79,41.28c-1.88,21.82-9.18,43.21-30.73,58.87
						c-0.3,0.22-0.58,0.42-0.88,0.63c-18.4,12.87-97.51,12.18-99.34,12.19c-38.64,0.15-56.87-14.6-98.81,14.73
						c-31.34,21.92-30.37,80.83-29.7,80.68c0.35,2.69,10.2,94.19-30.42,122.6c-35.6,24.89-121.23-4.96-126.36-5.09
						c-2.3-0.97-13.19-5.65-15.01-6.44c-52.4-22.74-83.84-34.34-120.57-8.65c-38,26.58-37.94,54.86-34.68,98.81
						c0.45,6.08,1.7,40.2,0.88,43.56c-0.13,0.54-0.32,1.11-0.54,1.69c-0.31,2.56-0.66,5.11-1.15,7.64
						c-1.01,9.89-3.72,20.75-7.68,32.24c16.71-18.49,21.69-38.42,22.15-62.07c0.05-0.02,0.1-0.03,0.16-0.04
						c-0.1-0.33-0.06-12.13-0.04-12.78c0.02-0.28-0.43-5.01-0.51-7.2c-0.04-1.07-0.1-2.2-0.12-3.39c-0.04,0.11-0.08,0.22-0.12,0.34
						c-0.17-2.72-0.36-5.48-0.57-8.3c-2.24-30.28-5.03-67.96,23.91-88.2c25.25-17.66,64.42-2.98,98.02,11.41l11.72,5.06
						c2.37,1.02,104.71,36.93,152.2,3.72c54.13-37.85,39.82-131.69,40.1-139.41c0.12-3.19,1.4-50.85,20.02-63.87
						c28.15-19.68,76.22-6.51,83.79-7.34c1.87,0.42,76.79,6.69,114.6-19.75c0.6-0.42,1.22-0.86,1.81-1.29
						c31.95-23.23,40.15-47.73,40.74-78.55c0.24-0.07,0.02-7.27-0.03-9.53c1.08-3.21-0.97-19.03-1.17-21.85
						c-0.21-2.81,1.17-72.29,23.91-88.2c13.33-9.32,42.48-4.25,67.4,2.63C739.88,44.27,734.02,40.48,728.87,36.41z"/>
				</g>
				<path class="st0" d="M811.17,72.24c0,0,89.09,74.1,123.91,114.37l-80.5-47.85c0,0-58.46-63.35-106.27-83.5"/>
				<path class="st0" d="M21.29,536.58c0,0,8.63,72.58,37.34,170.98l19.03-59.77l-29.63-48.2l-22.66-63.01"/>
			</g>
		</g>
		<g>
			<path class="st1" d="M698.41,408.1h-259.2c-0.29,0-0.52-0.23-0.52-0.52l0-27.59c0-0.29,0.23-0.52,0.52-0.52h259.2
				c0.29,0,0.52,0.23,0.52,0.52v27.59C698.93,407.87,698.7,408.1,698.41,408.1z"/>
			<path class="st1" d="M714.22,408.1h-99.99v14.84h81.24c12.78,0,23.14,10.36,23.14,23.14v13.4c0,57.65-46.74,104.39-104.39,104.39
				h0v15.52h0c68.01,0,123.13-55.13,123.13-123.13v-25.01C737.36,418.46,727,408.1,714.22,408.1z"/>
			<path class="st1" d="M423.84,408.1h99.99v14.84h-81.24c-12.78,0-23.14,10.36-23.14,23.14v13.4
				c0,57.65,46.74,104.39,104.39,104.39h0v15.52h0c-68.01,0-123.13-55.13-123.13-123.13v-25.01
				C400.7,418.46,411.06,408.1,423.84,408.1z"/>
			<path class="st1" d="M593.31,618.37c0,0,1.85,93.4,20.15,102.27h-89.29c0,0,17.57-4.33,20.43-102.27H593.31z"/>
			<path class="st1" d="M636.71,753.36h-135.8c-0.33,0-0.59-0.27-0.59-0.59l0-31.53c0-0.33,0.27-0.59,0.59-0.59h135.8
				c0.33,0,0.59,0.27,0.59,0.59v31.53C637.3,753.1,637.04,753.36,636.71,753.36z"/>
			<path class="st1" d="M664.48,794.4H473.14v-39.55c0-0.82,0.67-1.49,1.49-1.49h188.36c0.82,0,1.49,0.67,1.49,1.49V794.4z"/>
			<rect x="473.14" y="794.4" class="st1" width="191.34" height="128.11"/>
			<rect x="497.82" y="810.93" class="st1" width="141.98" height="95.06"/>
			<path class="st1" d="M600.15,621.19h-69.22c-37.92,0-68.67-30.74-68.67-68.67V408.1h213.08v137.88
				C675.35,587.52,641.68,621.19,600.15,621.19z"/>
			<g>
				<path class="st1" d="M579.77,458.68c0,0.26-0.03,0.73-0.08,1.4c-1.19,9.37-1.78,24.73-1.78,46.1c0,4.55,0.05,11.41,0.15,20.57
					c0.1,9.16,0.15,16.01,0.15,20.57c0,2.02-0.85,3.03-2.56,3.03c-1.71,0-4.16,0.05-7.37,0.15c-3.21,0.1-5.62,0.15-7.22,0.15
					s-2.4-0.65-2.4-1.94c0-1.09,0.34-10.6,1.01-28.56c0.31-8.69,0.47-21.37,0.47-38.03c0-1.19-0.26-1.79-0.78-1.79
					c-1.24,0-3.2,0.41-5.86,1.24c-2.66,0.83-4.64,1.24-5.94,1.24c-1.19,0-1.79-0.31-1.79-0.93c0-0.62,0.07-1.55,0.19-2.79
					c0.13-1.24,0.19-2.17,0.19-2.79c0-0.57-0.05-1.42-0.16-2.56c-0.1-1.14-0.15-1.99-0.15-2.56c0-0.67,0.57-1.24,1.71-1.71
					c3-1.24,6.18-3.36,9.54-6.36c0.16-0.15,1.58-1.71,4.27-4.66c2.33-2.53,3.62-3.8,3.88-3.8c-0.05,0,2.1,0.47,6.44,1.4
					c1.6,0.21,3.93,0.6,6.98,1.16C579.41,457.41,579.77,457.9,579.77,458.68z"/>
			</g>
		</g>
	</g>
</g>
<g id="Capa_2" class="st2">
	<g class="st3">
		<g>
			<path class="st0" d="M885.29,140.89c117.99,95.06,193.75,240.43,194.7,403.52c1.66,283.46-226.24,518.39-509.63,524.9
				c-261.18,6-480.08-179.91-525.55-426.58c0,0,73.49-211.93,191.24-105.54c0,0,116.24,110.5,220.29,60.99
				c0,0,74.3-35.99-18.41-208.28c-6.68-12.41-10.39-26.34-9.91-40.42c0.4-11.52,1.09-20.17,12.3-34.96c0,0,42.72-49.96,140.07,14.8
				c0,0,70.97,41.41,108.32,0c0,0,49.96-54.48-0.93-147.86c0,0-37.35-63.97-0.47-98.05c0,0,53.29-53.75,170.22,39.89L885.29,140.89z
				"/>
			<g>
				<g>
					<path class="st0" d="M788.76,74.86c2.32,1.28,23.47,12.58,42.8,22.54c-7.81-8.02-14.63-16.61-20.39-25.17
						c-3.58-2.28-6.17-3.89-6.19-3.86c-2.8-1.55-5.59-3.09-8.34-4.61C717.21,19.83,670.4-3.82,632.35,20.84
						c-39.36,25.51-27.3,63.2-4.34,122.6c4.08,10.56,18.24,56.03,18.54,55.2c6.74,28.57,6.07,55.17-15.99,70.42
						c-0.3,0.21-0.6,0.41-0.9,0.61c-19.06,12.35-124.75-9.17-127.18-9.63c-51.41-9.86-81.94-34.26-125.39-6.11
						c-32.46,21.03-6.21,99.77-5.39,99.75c1.6,3.67,53.5,128.14,11.42,155.4c-36.87,23.89-163.61-38.18-170.49-39.69
						c-3.47-1.89-19.97-10.97-22.72-12.49c-79.44-43.93-126.24-67.58-164.29-42.93c-39.36,25.51-27.3,63.2-4.33,122.6
						c3.17,8.21,19.31,54,19.63,58.26c0.05,0.69,0.04,1.4,0,2.11c0.68,3.33,1.28,6.64,1.71,9.88c2.84,12.91,3.83,26.67,3.43,40.95
						c14.43-20.28,12.62-45.53,3.21-76.91c0.06-0.01,0.13-0.01,0.19-0.02c-0.27-0.46-5.22-16.17-5.47-17.04
						c-0.09-0.37-2.7-6.79-3.74-9.73c-0.51-1.43-1.06-2.96-1.6-4.54c0,0.14-0.02,0.28-0.02,0.42c-1.38-3.66-2.8-7.4-4.27-11.2
						c-15.81-40.92-35.5-91.84-5.51-111.27c26.16-16.95,84.55,12.8,135.42,40.72l17.76,9.79c3.6,1.98,155.14,76.46,204.33,44.59
						c56.07-36.33-2.76-165.07-5.65-175.28c-1.2-4.22-19.68-67.37-0.39-79.87c29.15-18.89,98.78,11.18,108.52,12.04
						c2.66,1.05,105.13,28.91,144.3,3.53c0.62-0.4,1.26-0.83,1.86-1.25c32.72-22.62,33.26-53.13,20.99-94.03
						c0.29-0.03-3.06-9.68-4.09-12.71c0.08-4-9.35-25.6-10.82-29.41c-1.47-3.8-29.07-96-5.51-111.27
						C661.74,7.4,785.56,74.09,788.76,74.86z"/>
				</g>
				<g>
					<path class="st0" d="M728.87,36.41c-2.79-2.2-5.73-4.98-8.53-8.12c-14.75-0.02-28.67,4.25-43.43,14.57
						c-38,26.57-37.94,54.86-34.68,98.81c0.58,7.81,0.33,41.99,0.79,41.28c-1.88,21.82-9.18,43.21-30.73,58.87
						c-0.3,0.22-0.58,0.42-0.88,0.63c-18.4,12.87-97.51,12.18-99.34,12.19c-38.64,0.15-56.87-14.6-98.81,14.73
						c-31.34,21.92-30.37,80.83-29.7,80.68c0.35,2.69,10.2,94.19-30.42,122.6c-35.6,24.89-121.23-4.96-126.36-5.09
						c-2.3-0.97-13.19-5.65-15.01-6.44c-52.4-22.74-83.84-34.34-120.57-8.65c-38,26.58-37.94,54.86-34.68,98.81
						c0.45,6.08,1.7,40.2,0.88,43.56c-0.13,0.54-0.32,1.11-0.54,1.69c-0.31,2.56-0.66,5.11-1.15,7.64
						c-1.01,9.89-3.72,20.75-7.68,32.24c16.71-18.49,21.69-38.42,22.15-62.07c0.05-0.02,0.1-0.03,0.16-0.04
						c-0.1-0.33-0.06-12.13-0.04-12.78c0.02-0.28-0.43-5.01-0.51-7.2c-0.04-1.07-0.1-2.2-0.12-3.39c-0.04,0.11-0.08,0.22-0.12,0.34
						c-0.17-2.72-0.36-5.48-0.57-8.3c-2.24-30.28-5.03-67.96,23.91-88.2c25.25-17.66,64.42-2.98,98.02,11.41l11.72,5.06
						c2.37,1.02,104.71,36.93,152.2,3.72c54.13-37.85,39.82-131.69,40.1-139.41c0.12-3.19,1.4-50.85,20.02-63.87
						c28.15-19.68,76.22-6.51,83.79-7.34c1.87,0.42,76.79,6.69,114.6-19.75c0.6-0.42,1.22-0.86,1.81-1.29
						c31.95-23.23,40.15-47.73,40.74-78.55c0.24-0.07,0.02-7.27-0.03-9.53c1.08-3.21-0.97-19.03-1.17-21.85
						c-0.21-2.81,1.17-72.29,23.91-88.2c13.33-9.32,42.48-4.25,67.4,2.63C739.88,44.27,734.02,40.48,728.87,36.41z"/>
				</g>
				<path class="st0" d="M811.17,72.24c0,0,89.09,74.1,123.91,114.37l-80.5-47.85c0,0-58.46-63.35-106.27-83.5"/>
				<path class="st0" d="M21.29,536.58c0,0,8.63,72.58,37.34,170.98l19.03-59.77l-29.63-48.2l-22.66-63.01"/>
			</g>
		</g>
		<g>
			<path class="st4" d="M556.89,594.3c1.32-2.07,2.53-4.3,3.71-6.45c1.65-3.03,3.9-7.15,5.43-8.65
				c15.68-15.71,31.13-31.81,46.08-47.37c35.75-37.2,69.49-72.34,108.28-104.81c24.44-20.52,59.18-25.9,88.65-13.76
				c15.43,7.74,30.95,16.76,40.58,30.13c11.43,17.23,17.81,36.96,18.98,58.67c-1.21,22.73-8.14,40.54-20.55,52.95
				c-0.17,0.18-0.33,0.35-0.49,0.54c-42.9,46.99-91.67,96.52-149.06,151.38c-2.23,1.57-4.28,3.11-6.28,4.63
				c-3.61,2.77-6.74,5.18-10.05,6.7c-3.42,1.14-7.29,2.48-12.24,4.9c-37.62,14.73-83.63-0.71-107.26-36.01
				c-5-7.5-15.11-9.49-22.58-4.49c-7.5,5.01-9.49,15.13-4.49,22.59c32.11,47.99,95.3,68.62,146.99,47.92
				c0.41-0.17,0.83-0.35,1.23-0.54c3.57-1.79,6.13-2.64,9.38-3.73c0.42-0.15,0.86-0.29,1.28-0.48c7.23-3.09,12.69-7.28,17.54-10.99
				c2.02-1.55,3.92-3.01,5.78-4.24c0.8-0.52,1.53-1.12,2.22-1.77c58.25-55.68,107.76-105.94,151.34-153.65
				c18.29-18.43,28.32-43.65,29.8-74.93c0.04-0.52,0.04-1.02,0-1.54c-1.34-28.07-9.6-53.72-24.6-76.18
				c-0.08-0.14-0.19-0.29-0.29-0.44c-13.86-19.41-33.74-31.07-53.15-40.77c-0.33-0.17-0.68-0.31-1-0.46
				c-40.68-17.08-88.87-9.74-122.65,18.64c-40.13,33.57-76.08,71.01-110.84,107.21c-14.83,15.43-30.17,31.41-45.63,46.88
				c-4.82,4.82-8.09,10.78-10.97,16.06c-1,1.81-1.92,3.5-2.71,4.75c-1.69,2.69-2.48,5.69-2.48,8.63c0,5.43,2.69,10.72,7.61,13.81
				C542.06,604.23,552.12,601.93,556.89,594.3z"/>
			<path class="st4" d="M496.13,963.5c0.46-0.05,1.05-0.11,1.46-0.14c1.61,0.42,3.27,0.55,4.92,0.48
				c25.1-1.48,45.58-8.11,62.63-20.27c0.25-0.19,0.49-0.4,0.74-0.59c40.76-32.91,76.51-71.3,111.11-108.42
				c17.14-18.39,34.85-37.39,52.86-55.41c6.36-6.36,6.38-16.67,0.02-23.02c-6.36-6.36-16.66-6.36-23.02,0
				c-18.44,18.41-36.35,37.64-53.68,56.24c-33.71,36.16-68.56,73.56-107.36,104.96c-11.48,8.09-25.19,12.51-42.93,13.85
				c-3.9-0.67-7.28-0.34-9.9-0.09c-0.87,0.09-1.64,0.15-2.32,0.19c-35.78-3.48-63.81-20.49-77.31-46.82
				c-1.54-5.94-4.23-11.1-6.44-15.33c-0.28-0.51-0.55-1-0.79-1.49c-7.01-22.02-4.81-45.69,6.25-66.79c0.17-0.31,0.33-0.65,0.48-0.98
				c8.31-18.91,22.93-33.9,38.37-49.78c5.36-5.51,10.91-11.2,16.27-17.14c35.85-38.14,77.27-74.7,113.82-106.95
				c11.98-10.24,30.45-16.74,50.77-17.87c12.59,0.04,24.95,2.52,38.85,7.76c12.74,6.89,29.59,18.81,39.37,37.23
				c4.23,7.95,14.1,10.94,22.02,6.72c7.94-4.21,10.96-14.08,6.74-22c-11.01-20.68-29.59-38.37-53.76-51.16
				c-0.57-0.31-1.14-0.58-1.78-0.82c-17.99-6.92-34.97-10.29-51.88-10.29c-0.29,0-0.56,0.01-0.85,0.01
				c-27.95,1.49-53.08,10.63-70.76,25.78c-0.05,0.04-0.11,0.1-0.18,0.14c-37.14,32.79-79.26,69.95-116.22,109.28
				c-0.07,0.08-0.15,0.16-0.22,0.25c-4.96,5.53-10.33,11.03-15.49,16.35c-16.68,17.13-33.93,34.82-44.66,58.85
				c-9.11,17.62-13.74,36.58-13.74,55.56c0,12.54,2.02,25.07,6.07,37.25c0.25,0.73,0.54,1.43,0.9,2.12c0.47,0.98,1,2,1.56,3.07
				c1.54,2.94,3.47,6.6,3.95,8.96c0.26,1.35,0.7,2.67,1.29,3.9c18.09,37.42,57.47,62.33,105.29,66.69c0.48,0.04,0.99,0.06,1.46,0.06
				C492.45,963.86,494.5,963.65,496.13,963.5z"/>
		</g>
	</g>
</g>
<g id="Capa_3" class="st2">
	<g class="st3">
		<g>
			<path class="st0" d="M885.29,130.02c117.99,95.06,193.75,240.43,194.7,403.52c1.66,283.46-226.24,518.39-509.63,524.9
				c-261.18,6-480.08-179.91-525.55-426.58c0,0,73.49-211.93,191.24-105.54c0,0,116.24,110.5,220.29,60.99
				c0,0,74.3-35.99-18.41-208.28c-6.68-12.41-10.39-26.34-9.91-40.42c0.4-11.52,1.09-20.17,12.3-34.96c0,0,42.72-49.96,140.07,14.8
				c0,0,70.97,41.41,108.32,0c0,0,49.96-54.48-0.93-147.86c0,0-37.35-63.97-0.47-98.05c0,0,53.29-53.75,170.22,39.89L885.29,130.02z
				"/>
			<g>
				<g>
					<path class="st0" d="M788.76,63.99c2.32,1.28,23.47,12.58,42.8,22.54c-7.81-8.02-14.63-16.61-20.39-25.17
						c-3.58-2.28-6.17-3.89-6.19-3.86c-2.8-1.55-5.59-3.09-8.34-4.61C717.21,8.96,670.4-14.69,632.35,9.97
						c-39.36,25.51-27.3,63.2-4.34,122.6c4.08,10.56,18.24,56.03,18.54,55.2c6.74,28.57,6.07,55.17-15.99,70.42
						c-0.3,0.21-0.6,0.41-0.9,0.61c-19.06,12.35-124.75-9.17-127.18-9.63c-51.41-9.86-81.94-34.26-125.39-6.11
						c-32.46,21.03-6.21,99.77-5.39,99.75c1.6,3.67,53.5,128.14,11.42,155.4c-36.87,23.89-163.61-38.18-170.49-39.69
						c-3.47-1.89-19.97-10.97-22.72-12.49c-79.44-43.93-126.24-67.58-164.29-42.93c-39.36,25.51-27.3,63.2-4.33,122.6
						c3.17,8.21,19.31,54,19.63,58.26c0.05,0.69,0.04,1.4,0,2.11c0.68,3.33,1.28,6.64,1.71,9.88c2.84,12.91,3.83,26.67,3.43,40.95
						c14.43-20.28,12.62-45.53,3.21-76.91c0.06-0.01,0.13-0.01,0.19-0.02c-0.27-0.46-5.22-16.17-5.47-17.04
						c-0.09-0.37-2.7-6.79-3.74-9.73c-0.51-1.43-1.06-2.96-1.6-4.54c0,0.14-0.02,0.28-0.02,0.42c-1.38-3.66-2.8-7.4-4.27-11.2
						c-15.81-40.92-35.5-91.84-5.51-111.27c26.16-16.95,84.55,12.8,135.42,40.72l17.76,9.79c3.6,1.98,155.14,76.46,204.33,44.59
						c56.07-36.33-2.76-165.07-5.65-175.28c-1.2-4.22-19.68-67.37-0.39-79.87c29.15-18.89,98.78,11.18,108.52,12.04
						c2.66,1.05,105.13,28.91,144.3,3.53c0.62-0.4,1.26-0.83,1.86-1.25c32.72-22.62,33.26-53.13,20.99-94.03
						c0.29-0.03-3.06-9.68-4.09-12.71c0.08-4-9.35-25.6-10.82-29.41c-1.47-3.8-29.07-96-5.51-111.27
						C661.74-3.47,785.56,63.22,788.76,63.99z"/>
				</g>
				<g>
					<path class="st0" d="M728.87,25.54c-2.79-2.2-5.73-4.98-8.53-8.12c-14.75-0.02-28.67,4.25-43.43,14.57
						c-38,26.57-37.94,54.86-34.68,98.81c0.58,7.81,0.33,41.99,0.79,41.28c-1.88,21.82-9.18,43.21-30.73,58.87
						c-0.3,0.22-0.58,0.42-0.88,0.63c-18.4,12.87-97.51,12.18-99.34,12.19c-38.64,0.15-56.87-14.6-98.81,14.73
						c-31.34,21.92-30.37,80.83-29.7,80.68c0.35,2.69,10.2,94.19-30.42,122.6c-35.6,24.89-121.23-4.96-126.36-5.09
						c-2.3-0.97-13.19-5.65-15.01-6.44c-52.4-22.74-83.84-34.34-120.57-8.65c-38,26.58-37.94,54.86-34.68,98.81
						c0.45,6.08,1.7,40.2,0.88,43.56c-0.13,0.54-0.32,1.11-0.54,1.69c-0.31,2.56-0.66,5.11-1.15,7.64
						c-1.01,9.89-3.72,20.75-7.68,32.24c16.71-18.49,21.69-38.42,22.15-62.07c0.05-0.02,0.1-0.03,0.16-0.04
						c-0.1-0.33-0.06-12.13-0.04-12.78c0.02-0.28-0.43-5.01-0.51-7.2c-0.04-1.07-0.1-2.2-0.12-3.39c-0.04,0.11-0.08,0.22-0.12,0.34
						c-0.17-2.72-0.36-5.48-0.57-8.3c-2.24-30.28-5.03-67.96,23.91-88.2c25.25-17.66,64.42-2.98,98.02,11.41l11.72,5.06
						c2.37,1.02,104.71,36.93,152.2,3.72c54.13-37.85,39.82-131.69,40.1-139.41c0.12-3.19,1.4-50.85,20.02-63.87
						c28.15-19.68,76.22-6.51,83.79-7.34c1.87,0.42,76.79,6.69,114.6-19.75c0.6-0.42,1.22-0.86,1.81-1.29
						c31.95-23.23,40.15-47.73,40.74-78.55c0.24-0.07,0.02-7.27-0.03-9.53c1.08-3.21-0.97-19.03-1.17-21.85
						c-0.21-2.81,1.17-72.29,23.91-88.2c13.33-9.32,42.48-4.25,67.4,2.63C739.88,33.39,734.02,29.6,728.87,25.54z"/>
				</g>
				<path class="st0" d="M811.17,61.36c0,0,89.09,74.1,123.91,114.37l-80.5-47.85c0,0-58.46-63.35-106.27-83.5"/>
				<path class="st0" d="M21.29,525.7c0,0,8.63,72.58,37.34,170.98l19.03-59.77l-29.63-48.2L25.37,525.7"/>
			</g>
		</g>
		<path class="st4" d="M780.5,607h-14.69c-11.91-25.87-47.73-96.85-91.44-119.84c-14.79-7.77-68.32-33.04-136.59-31.5
			c-53.59,1.17-124.4,16.46-156.08,43.47c-24.9,21.26-57.2,79.49-67.72,107.86H299.5c-1.2,1.94-110.52,22.68-142.65,55.39
			c-34.09,34.66-38.73,127.59-6.27,127.59c9.05,0,45.04,0,102.93,0c-0.18,2.08-0.31,4.2-0.31,6.33c0,39.29,31.83,71.11,71.09,71.11
			c39.28,0,71.1-31.82,71.1-71.11c0-2.13-0.12-4.26-0.29-6.33c52.32,0,111.8,0,177.32,0c10.34,0,20.76,0,31.41,0
			c28.82,0,57.63,0,85.57,0c-0.2,2.08-0.33,4.2-0.33,6.33c0,39.29,31.84,71.11,71.1,71.11c39.28,0,71.11-31.82,71.11-71.11
			c0-2.13-0.14-4.26-0.31-6.33c52.16,0,89.26,0,98.46,0c32.46,0,27.82-92.93-6.27-127.59C891.02,629.68,781.7,608.93,780.5,607z
			 M508.15,607H379.5c11.62-22.63,30.02-52.88,41.07-62.31c12.06-10.28,47.78-21.96,87.58-26.87V607z M603.82,607h-31.41h-4.39
			v-90.25c39.6,4.36,69.07,18.44,78.47,23.42c15.65,8.22,36.37,38.01,52.24,66.83H603.82z"/>
		<path class="st5" d="M474.18,462.62c0,0,12.26,34.76,10.34,58.97l-35.56,8.74c-13.07,3.21-24.82,10.42-33.56,20.66
			c-10.27,12.03-23.52,29.58-31.84,48.33c0,0-33.33-6-59.18-15.89c0,0,30.44-59.84,57.33-84.29
			C381.7,499.13,418.64,468.34,474.18,462.62z"/>
	</g>
</g>
<g id="Capa_4" class="st2">
	<g class="st3">
		<g>
			<path class="st0" d="M885.41,129.94c117.92,95,193.63,240.28,194.58,403.27c1.66,283.29-226.1,518.08-509.32,524.58
				c-261.02,6-479.79-179.8-525.22-426.32c0,0,73.44-211.8,191.13-105.47c0,0,116.17,110.43,220.15,60.95
				c0,0,74.26-35.97-18.39-208.15c-6.67-12.4-10.39-26.32-9.9-40.4c0.4-11.51,1.09-20.15,12.29-34.94c0,0,42.7-49.93,139.98,14.79
				c0,0,70.93,41.38,108.25,0c0,0,49.93-54.45-0.93-147.77c0,0-37.33-63.93-0.47-97.99c0,0,53.26-53.71,170.11,39.87L885.41,129.94z
				"/>
			<g>
				<g>
					<path class="st0" d="M788.93,63.95c2.32,1.28,23.46,12.57,42.77,22.52c-7.8-8.02-14.62-16.6-20.38-25.15
						c-3.58-2.28-6.17-3.88-6.18-3.86c-2.8-1.55-5.58-3.08-8.33-4.6C717.43,8.95,670.66-14.68,632.63,9.96
						c-39.34,25.49-27.28,63.17-4.33,122.53c4.07,10.55,18.22,56,18.53,55.16c6.74,28.56,6.07,55.14-15.98,70.38
						c-0.3,0.21-0.6,0.41-0.9,0.61c-19.05,12.34-124.67-9.16-127.1-9.63c-51.38-9.86-81.89-34.24-125.31-6.1
						c-32.44,21.02-6.21,99.71-5.38,99.69c1.6,3.67,53.46,128.06,11.42,155.3c-36.85,23.88-163.51-38.16-170.39-39.66
						c-3.47-1.89-19.96-10.96-22.71-12.48c-79.39-43.91-126.16-67.54-164.19-42.9C-13.07,428.34-1,466.02,21.94,525.38
						c3.17,8.21,19.29,53.97,19.62,58.22c0.05,0.69,0.04,1.4,0,2.11c0.68,3.33,1.28,6.63,1.71,9.88c2.84,12.9,3.83,26.65,3.43,40.93
						c14.42-20.27,12.61-45.5,3.21-76.87c0.06-0.01,0.13-0.01,0.19-0.02c-0.27-0.46-5.21-16.16-5.47-17.03
						c-0.09-0.37-2.7-6.78-3.73-9.72c-0.51-1.43-1.06-2.95-1.6-4.54c0,0.14-0.02,0.28-0.02,0.42c-1.38-3.66-2.8-7.39-4.27-11.19
						c-15.8-40.9-35.48-91.78-5.51-111.2c26.14-16.94,84.5,12.79,135.33,40.7l17.75,9.78c3.59,1.98,155.05,76.42,204.21,44.56
						c56.04-36.31-2.76-164.96-5.65-175.17c-1.2-4.22-19.66-67.33-0.39-79.82c29.14-18.88,98.72,11.17,108.45,12.04
						c2.66,1.04,105.07,28.89,144.21,3.53c0.62-0.4,1.26-0.82,1.86-1.25c32.7-22.61,33.24-53.1,20.98-93.97
						c0.29-0.03-3.05-9.68-4.08-12.7c0.08-4-9.35-25.59-10.82-29.39c-1.47-3.8-29.05-95.95-5.51-111.2
						C662-3.47,785.74,63.18,788.93,63.95z"/>
				</g>
				<g>
					<path class="st0" d="M729.09,25.52c-2.78-2.2-5.73-4.98-8.53-8.11c-14.75-0.02-28.65,4.25-43.4,14.57
						c-37.98,26.56-37.92,54.83-34.66,98.75c0.58,7.81,0.33,41.97,0.79,41.25c-1.88,21.8-9.18,43.18-30.71,58.83
						c-0.3,0.22-0.58,0.42-0.87,0.63c-18.39,12.86-97.45,12.17-99.28,12.18c-38.61,0.15-56.83-14.59-98.75,14.72
						c-31.32,21.9-30.35,80.78-29.69,80.63c0.35,2.69,10.19,94.14-30.4,122.52c-35.58,24.88-121.16-4.96-126.28-5.09
						c-2.3-0.97-13.18-5.65-15-6.44c-52.37-22.72-83.79-34.32-120.5-8.65c-37.98,26.56-37.92,54.83-34.66,98.75
						c0.45,6.07,1.7,40.18,0.88,43.53c-0.13,0.54-0.32,1.11-0.54,1.69c-0.3,2.56-0.66,5.11-1.14,7.64
						c-1.01,9.88-3.72,20.73-7.68,32.22c16.7-18.48,21.68-38.39,22.14-62.03c0.05-0.02,0.1-0.03,0.16-0.04
						c-0.1-0.33-0.06-12.12-0.04-12.78c0.02-0.28-0.43-5.01-0.51-7.2c-0.04-1.07-0.1-2.2-0.12-3.39c-0.04,0.11-0.08,0.22-0.12,0.34
						c-0.17-2.72-0.36-5.48-0.57-8.29c-2.24-30.26-5.03-67.91,23.9-88.14c25.24-17.65,64.38-2.98,97.96,11.4l11.71,5.05
						c2.37,1.02,104.65,36.9,152.1,3.72c54.1-37.83,39.79-131.61,40.08-139.32c0.12-3.19,1.4-50.82,20.01-63.83
						c28.13-19.67,76.17-6.51,83.74-7.34c1.86,0.42,76.74,6.69,114.53-19.74c0.6-0.42,1.21-0.86,1.81-1.29
						c31.93-23.21,40.12-47.7,40.72-78.5c0.24-0.07,0.02-7.27-0.03-9.53c1.08-3.21-0.97-19.02-1.17-21.83
						c-0.21-2.81,1.17-72.25,23.9-88.14c13.32-9.32,42.45-4.25,67.35,2.63C740.09,33.37,734.23,29.59,729.09,25.52z"/>
				</g>
				<path class="st0" d="M811.33,61.32c0,0,89.03,74.05,123.84,114.3l-80.45-47.82c0,0-58.43-63.32-106.2-83.45"/>
				<path class="st0" d="M21.94,525.38c0,0,8.62,72.54,37.32,170.88l19.01-59.74l-29.61-48.17l-22.65-62.97"/>
			</g>
		</g>
		<g>
			<g>
				<path class="st4" d="M356.55,888.23c1.94-7.13,3.8-13.96,5.67-20.79c10.78-39.39,21.57-78.79,32.39-118.17
					c0.36-1.31,0.27-2.33-0.41-3.52c-16.15-28.46-26.82-58.86-32-91.16c-3.65-22.83-4.48-45.79-2.14-68.8
					c6.95-68.43,35.6-126.29,85.67-173.32c37.08-34.83,80.86-57.21,130.73-67.52c23.51-4.86,47.26-6.43,71.21-5
					c112.73,6.74,210.13,83.43,243.31,191.56c9.51,30.98,13.23,62.67,11.47,95.01c-5.94,109.6-78.11,205.61-181.78,241.85
					c-22.7,7.94-46.04,12.84-70.04,14.5c-52.34,3.62-101.69-6.85-148.05-31.39c-1.31-0.7-2.45-0.84-3.89-0.46
					c-46.75,12.3-93.51,24.57-140.26,36.83C357.94,887.97,357.42,888.05,356.55,888.23z M421.93,823.63
					c0.68-0.16,0.93-0.22,1.18-0.29c27.06-7.1,54.13-14.17,81.17-21.33c2.2-0.58,4.01-0.58,5.88,0.8c1.47,1.09,3.14,1.92,4.72,2.85
					c48.1,28.17,99.69,37.86,154.66,28.59c41.16-6.94,77.82-24.11,108.97-51.8c56.27-50.02,82.22-112.96,77.71-188.21
					c-1.35-22.46-6.51-44.14-14.69-65.1c-30.19-77.37-104.11-137.28-195.43-143.2c-24.21-1.57-48.09,0.47-71.55,6.61
					c-94.92,24.81-162.72,106.57-169.32,204.25c-1.97,29.11,1.73,57.57,10.79,85.32c6.52,20,15.89,38.6,27.45,56.13
					c0.95,1.45,1.11,2.71,0.65,4.38c-6.84,24.74-13.62,49.51-20.4,74.27C423.13,819.03,422.58,821.17,421.93,823.63z"/>
				<path class="st4" d="M542.15,486.11c2.83,0,5.65-0.01,8.48,0c3.25,0.01,6.01,1.31,7.79,3.94c1.86,2.75,3.57,5.68,4.86,8.74
					c6.55,15.55,12.58,31.34,19.56,46.7c3.24,7.13,3.51,13.41-1,19.59c-4.48,6.14-9.12,12.22-14.19,17.88
					c-5.97,6.66-6.5,8.92-1.83,16.61c16.97,27.93,38.77,51.04,67.54,67.01c8.37,4.64,17.19,8.49,25.92,12.45
					c5.29,2.39,8.89,1.42,12.6-3.1c7.33-8.95,14.57-17.97,21.75-27.04c3.19-4.03,6.27-5.43,11.19-3.74
					c5.08,1.75,10.05,3.86,14.9,6.17c13.88,6.61,27.58,13.6,41.54,20.04c5.9,2.72,8.18,6.72,7.71,13.01
					c-0.65,8.72-2.3,17.18-5.47,25.32c-1.7,4.37-4.63,7.95-8.01,11.12c-10.26,9.62-22.06,16.81-35.84,19.74
					c-14.13,3-28.4,2.53-42.34-1.7c-18.75-5.7-37.16-12.35-54.54-21.51c-22.65-11.94-42.44-27.71-60.54-45.7
					c-15.3-15.2-28.83-31.84-41.33-49.41c-8.84-12.43-16.68-25.34-22.07-39.66c-6.81-18.05-8.38-36.38-2.95-55.08
					c4.1-14.13,12.37-25.59,22.97-35.47c4.58-4.27,10.23-6.32,16.58-6.19c2.24,0.05,4.47,0.01,6.71,0.01
					C542.15,485.92,542.15,486.01,542.15,486.11z"/>
			</g>
			<path class="st5" d="M469.66,453.1l-18.65-45.46c0,0-84.83,67.51-91.69,187.04l45.4,4.92C404.72,599.6,418.73,509.4,469.66,453.1
				z"/>
		</g>
	</g>
</g>
<g id="Capa_5" class="st2">
	<g class="st3">
		<g>
			<path class="st0" d="M885.41,129.94c117.92,95,193.63,240.28,194.58,403.27c1.66,283.29-226.1,518.08-509.32,524.58
				c-261.02,6-479.79-179.8-525.22-426.32c0,0,73.44-211.8,191.13-105.47c0,0,116.17,110.43,220.15,60.95
				c0,0,74.26-35.97-18.39-208.15c-6.67-12.4-10.39-26.32-9.9-40.4c0.4-11.51,1.09-20.15,12.29-34.94c0,0,42.7-49.93,139.98,14.79
				c0,0,70.93,41.38,108.25,0c0,0,49.93-54.45-0.93-147.77c0,0-37.33-63.93-0.47-97.99c0,0,53.26-53.71,170.11,39.87L885.41,129.94z
				"/>
			<g>
				<g>
					<path class="st0" d="M788.93,63.95c2.32,1.28,23.46,12.57,42.77,22.52c-7.8-8.02-14.62-16.6-20.38-25.15
						c-3.58-2.28-6.17-3.88-6.18-3.86c-2.8-1.55-5.58-3.08-8.33-4.6C717.43,8.95,670.66-14.68,632.63,9.96
						c-39.34,25.49-27.28,63.17-4.33,122.53c4.07,10.55,18.22,56,18.53,55.16c6.74,28.56,6.07,55.14-15.98,70.38
						c-0.3,0.21-0.6,0.41-0.9,0.61c-19.05,12.34-124.67-9.16-127.1-9.63c-51.38-9.86-81.89-34.24-125.31-6.1
						c-32.44,21.02-6.21,99.71-5.38,99.69c1.6,3.67,53.46,128.06,11.42,155.3c-36.85,23.88-163.51-38.16-170.39-39.66
						c-3.47-1.89-19.96-10.96-22.71-12.48c-79.39-43.91-126.16-67.54-164.19-42.9C-13.07,428.34-1,466.02,21.94,525.38
						c3.17,8.21,19.29,53.97,19.62,58.22c0.05,0.69,0.04,1.4,0,2.11c0.68,3.33,1.28,6.63,1.71,9.88c2.84,12.9,3.83,26.65,3.43,40.93
						c14.42-20.27,12.61-45.5,3.21-76.87c0.06-0.01,0.13-0.01,0.19-0.02c-0.27-0.46-5.21-16.16-5.47-17.03
						c-0.09-0.37-2.7-6.78-3.73-9.72c-0.51-1.43-1.06-2.95-1.6-4.54c0,0.14-0.02,0.28-0.02,0.42c-1.38-3.66-2.8-7.39-4.27-11.19
						c-15.8-40.9-35.48-91.78-5.51-111.2c26.14-16.94,84.5,12.79,135.33,40.7l17.75,9.78c3.59,1.98,155.05,76.42,204.21,44.56
						c56.04-36.31-2.76-164.96-5.65-175.17c-1.2-4.22-19.66-67.33-0.39-79.82c29.14-18.88,98.72,11.17,108.45,12.04
						c2.66,1.04,105.07,28.89,144.21,3.53c0.62-0.4,1.26-0.82,1.86-1.25c32.7-22.61,33.24-53.1,20.98-93.97
						c0.29-0.03-3.05-9.68-4.08-12.7c0.08-4-9.35-25.59-10.82-29.39c-1.47-3.8-29.05-95.95-5.51-111.2
						C662-3.47,785.74,63.18,788.93,63.95z"/>
				</g>
				<g>
					<path class="st0" d="M729.09,25.52c-2.78-2.2-5.73-4.98-8.53-8.11c-14.75-0.02-28.65,4.25-43.4,14.57
						c-37.98,26.56-37.92,54.83-34.66,98.75c0.58,7.81,0.33,41.97,0.79,41.25c-1.88,21.8-9.18,43.18-30.71,58.83
						c-0.3,0.22-0.58,0.42-0.87,0.63c-18.39,12.86-97.45,12.17-99.28,12.18c-38.61,0.15-56.83-14.59-98.75,14.72
						c-31.32,21.9-30.35,80.78-29.69,80.63c0.35,2.69,10.19,94.14-30.4,122.52c-35.58,24.88-121.16-4.96-126.28-5.09
						c-2.3-0.97-13.18-5.65-15-6.44c-52.37-22.72-83.79-34.32-120.5-8.65c-37.98,26.56-37.92,54.83-34.66,98.75
						c0.45,6.07,1.7,40.18,0.88,43.53c-0.13,0.54-0.32,1.11-0.54,1.69c-0.3,2.56-0.66,5.11-1.14,7.64
						c-1.01,9.88-3.72,20.73-7.68,32.22c16.7-18.48,21.68-38.39,22.14-62.03c0.05-0.02,0.1-0.03,0.16-0.04
						c-0.1-0.33-0.06-12.12-0.04-12.78c0.02-0.28-0.43-5.01-0.51-7.2c-0.04-1.07-0.1-2.2-0.12-3.39c-0.04,0.11-0.08,0.22-0.12,0.34
						c-0.17-2.72-0.36-5.48-0.57-8.29c-2.24-30.26-5.03-67.91,23.9-88.14c25.24-17.65,64.38-2.98,97.96,11.4l11.71,5.05
						c2.37,1.02,104.65,36.9,152.1,3.72c54.1-37.83,39.79-131.61,40.08-139.32c0.12-3.19,1.4-50.82,20.01-63.83
						c28.13-19.67,76.17-6.51,83.74-7.34c1.86,0.42,76.74,6.69,114.53-19.74c0.6-0.42,1.21-0.86,1.81-1.29
						c31.93-23.21,40.12-47.7,40.72-78.5c0.24-0.07,0.02-7.27-0.03-9.53c1.08-3.21-0.97-19.02-1.17-21.83
						c-0.21-2.81,1.17-72.25,23.9-88.14c13.32-9.32,42.45-4.25,67.35,2.63C740.09,33.37,734.23,29.59,729.09,25.52z"/>
				</g>
				<path class="st0" d="M811.33,61.32c0,0,89.03,74.05,123.84,114.3l-80.45-47.82c0,0-58.43-63.32-106.2-83.45"/>
				<path class="st0" d="M21.94,525.38c0,0,8.62,72.54,37.32,170.88l19.01-59.74l-29.61-48.17l-22.65-62.97"/>
			</g>
		</g>
		<g>
			<g>
				<path class="st4" d="M365.67,821.4c63.81,6.19,120.98-10.04,171.83-48.47c-0.01-0.19-0.02-0.38-0.02-0.57
					c-1.53-0.18-3.05-0.45-4.58-0.54c-24.91-1.48-47.07-10.16-66.48-25.73c-17.45-13.99-29.75-31.71-37.2-52.79
					c-0.22-0.63-0.37-1.29-0.64-2.25c17.65,3.16,34.91,2.62,52.03-2.45c-1.21-0.33-2.41-0.69-3.63-0.98
					c-42.09-9.9-77.12-43.57-87.1-88.92c-1.66-7.55-2.54-15.19-2.61-22.93c-0.01-0.69,0.01-1.39,0.05-2.08
					c0.01-0.21,0.15-0.4,0.34-0.87c16.27,8.72,33.56,13.6,52.07,14.21c0.12-1-0.72-1.14-1.21-1.49
					c-8.18-5.75-15.58-12.36-22.06-19.97c-13.68-16.08-22.42-34.52-26.27-55.28c-2.05-11.07-2.45-22.21-1.28-33.39
					c1.66-15.91,6.45-30.86,14.26-44.83c0.22-0.39,0.49-0.75,0.91-1.38c30.07,36.59,66.02,65.63,108.16,86.91
					c41.96,21.18,86.45,32.87,133.71,35.43c-0.17-1.15-0.26-2.04-0.44-2.91c-1.81-8.71-2.69-17.52-2.45-26.41
					c1.23-44.99,26.94-84.43,67.62-103.67c10.06-4.76,20.64-7.86,31.66-9.62c8.58-1.37,17.19-1.7,25.8-1.15
					c14.48,0.92,28.37,4.45,41.56,10.58c12.78,5.94,24.16,13.9,34.01,23.99c1.59,1.63,2.96,2.04,5.22,1.56
					c19.98-4.22,39.07-10.94,57.3-20.1c4.19-2.11,8.27-4.45,12.4-6.69c0.33-0.18,0.67-0.35,1.46-0.75
					c-4.49,13.67-11.06,25.72-19.74,36.63c-8.67,10.89-18.99,19.94-30.99,27.29c2.82,0.82,18.56-2.04,33.43-5.97
					c11-2.91,21.67-6.77,32.42-10.92c-0.42,0.67-0.82,1.35-1.26,2c-12.84,18.58-28.04,34.99-45.56,49.24
					c-3.05,2.48-6.18,4.86-9.34,7.2c-1.09,0.81-1.56,1.64-1.48,3.07c0.7,11.56,0.41,23.12-0.48,34.66
					c-5.62,73.01-31.49,138.07-77.76,194.74c-42.13,51.61-95.48,86.59-159.69,104.83c-12.13,3.45-24.43,6.17-36.87,8.16
					c-7.81,1.25-15.69,2.15-23.57,2.89c-7.51,0.7-15.06,0.86-22.58,1.47c-9.8,0.8-19.59,0.1-29.36-0.23
					c-7.98-0.27-15.94-1.28-23.9-2.13c-14.31-1.52-28.39-4.33-42.32-7.9c-33.34-8.56-64.6-21.98-93.78-40.25
					c-0.39-0.24-0.77-0.5-1.15-0.76C366.02,821.84,365.98,821.77,365.67,821.4z"/>
			</g>
			<path class="st5" d="M480.89,499.62c0,0-53.3-35.36-76.83-68.92c0,0-53.82,83.57,34.45,154.85c0,0-14.47,4.63-51.2-11.85
				l2.07,22.51C389.38,596.2,497.19,626.58,480.89,499.62z"/>
		</g>
	</g>
</g>
<g id="Capa_6" class="st2">
	<g class="st3">
		<g>
			<path class="st0" d="M885.29,130.02c117.99,95.06,193.75,240.43,194.7,403.52c1.66,283.46-226.24,518.39-509.63,524.9
				c-261.18,6-480.08-179.91-525.55-426.58c0,0,73.49-211.93,191.24-105.54c0,0,116.24,110.5,220.29,60.99
				c0,0,74.3-35.99-18.41-208.28c-6.68-12.41-10.39-26.34-9.91-40.42c0.4-11.52,1.09-20.17,12.3-34.96c0,0,42.72-49.96,140.07,14.8
				c0,0,70.97,41.41,108.32,0c0,0,49.96-54.48-0.93-147.86c0,0-37.35-63.97-0.47-98.05c0,0,53.29-53.75,170.22,39.89L885.29,130.02z
				"/>
			<g>
				<g>
					<path class="st0" d="M788.76,63.99c2.32,1.28,23.47,12.58,42.8,22.54c-7.81-8.02-14.63-16.61-20.39-25.17
						c-3.58-2.28-6.17-3.89-6.19-3.86c-2.8-1.55-5.59-3.09-8.34-4.61C717.21,8.96,670.4-14.69,632.35,9.97
						c-39.36,25.51-27.3,63.2-4.34,122.6c4.08,10.56,18.24,56.03,18.54,55.2c6.74,28.57,6.07,55.17-15.99,70.42
						c-0.3,0.21-0.6,0.41-0.9,0.61c-19.06,12.35-124.75-9.17-127.18-9.63c-51.41-9.86-81.94-34.26-125.39-6.11
						c-32.46,21.03-6.21,99.77-5.39,99.75c1.6,3.67,53.5,128.14,11.42,155.4c-36.87,23.89-163.61-38.18-170.49-39.69
						c-3.47-1.89-19.97-10.97-22.72-12.49c-79.44-43.93-126.24-67.58-164.29-42.93c-39.36,25.51-27.3,63.2-4.33,122.6
						c3.17,8.21,19.31,54,19.63,58.26c0.05,0.69,0.04,1.4,0,2.11c0.68,3.33,1.28,6.64,1.71,9.88c2.84,12.91,3.83,26.67,3.43,40.95
						c14.43-20.28,12.62-45.53,3.21-76.91c0.06-0.01,0.13-0.01,0.19-0.02c-0.27-0.46-5.22-16.17-5.47-17.04
						c-0.09-0.37-2.7-6.79-3.74-9.73c-0.51-1.43-1.06-2.96-1.6-4.54c0,0.14-0.02,0.28-0.02,0.42c-1.38-3.66-2.8-7.4-4.27-11.2
						c-15.81-40.92-35.5-91.84-5.51-111.27c26.16-16.95,84.55,12.8,135.42,40.72l17.76,9.79c3.6,1.98,155.14,76.46,204.33,44.59
						c56.07-36.33-2.76-165.07-5.65-175.28c-1.2-4.22-19.68-67.37-0.39-79.87c29.15-18.89,98.78,11.18,108.52,12.04
						c2.66,1.05,105.13,28.91,144.3,3.53c0.62-0.4,1.26-0.83,1.86-1.25c32.72-22.62,33.26-53.13,20.99-94.03
						c0.29-0.03-3.06-9.68-4.09-12.71c0.08-4-9.35-25.6-10.82-29.41c-1.47-3.8-29.07-96-5.51-111.27
						C661.74-3.47,785.56,63.22,788.76,63.99z"/>
				</g>
				<g>
					<path class="st0" d="M728.87,25.54c-2.79-2.2-5.73-4.98-8.53-8.12c-14.75-0.02-28.67,4.25-43.43,14.57
						c-38,26.57-37.94,54.86-34.68,98.81c0.58,7.81,0.33,41.99,0.79,41.28c-1.88,21.82-9.18,43.21-30.73,58.87
						c-0.3,0.22-0.58,0.42-0.88,0.63c-18.4,12.87-97.51,12.18-99.34,12.19c-38.64,0.15-56.87-14.6-98.81,14.73
						c-31.34,21.92-30.37,80.83-29.7,80.68c0.35,2.69,10.2,94.19-30.42,122.6c-35.6,24.89-121.23-4.96-126.36-5.09
						c-2.3-0.97-13.19-5.65-15.01-6.44c-52.4-22.74-83.84-34.34-120.57-8.65c-38,26.58-37.94,54.86-34.68,98.81
						c0.45,6.08,1.7,40.2,0.88,43.56c-0.13,0.54-0.32,1.11-0.54,1.69c-0.31,2.56-0.66,5.11-1.15,7.64
						c-1.01,9.89-3.72,20.75-7.68,32.24c16.71-18.49,21.69-38.42,22.15-62.07c0.05-0.02,0.1-0.03,0.16-0.04
						c-0.1-0.33-0.06-12.13-0.04-12.78c0.02-0.28-0.43-5.01-0.51-7.2c-0.04-1.07-0.1-2.2-0.12-3.39c-0.04,0.11-0.08,0.22-0.12,0.34
						c-0.17-2.72-0.36-5.48-0.57-8.3c-2.24-30.28-5.03-67.96,23.91-88.2c25.25-17.66,64.42-2.98,98.02,11.41l11.72,5.06
						c2.37,1.02,104.71,36.93,152.2,3.72c54.13-37.85,39.82-131.69,40.1-139.41c0.12-3.19,1.4-50.85,20.02-63.87
						c28.15-19.68,76.22-6.51,83.79-7.34c1.87,0.42,76.79,6.69,114.6-19.75c0.6-0.42,1.22-0.86,1.81-1.29
						c31.95-23.23,40.15-47.73,40.74-78.55c0.24-0.07,0.02-7.27-0.03-9.53c1.08-3.21-0.97-19.03-1.17-21.85
						c-0.21-2.81,1.17-72.29,23.91-88.2c13.33-9.32,42.48-4.25,67.4,2.63C739.88,33.39,734.02,29.6,728.87,25.54z"/>
				</g>
				<path class="st0" d="M811.17,61.36c0,0,89.09,74.1,123.91,114.37l-80.5-47.85c0,0-58.46-63.35-106.27-83.5"/>
				<path class="st0" d="M21.29,525.7c0,0,8.63,72.58,37.34,170.98l19.03-59.77l-29.63-48.2L25.37,525.7"/>
			</g>
		</g>
		<g>
			<g>
				<path class="st4" d="M536.76,561.11c31.32,0,61.65,0,93.66,0c0,12.52,0,24.66,0,40.89c7.97-8.92,12.67-15.42,18.55-20.58
					c37.7-33.1,81.23-35.6,126.55-21.32c40.98,12.91,58.67,45.71,63.82,85.4c3.57,27.54,4.16,55.56,4.55,83.38
					c0.68,48.98,0.19,97.99,0.19,148.09c-33.03,0-64.8,0-99.13,0c0-5.92,0.03-11.86,0-17.79c-0.29-52.16-0.53-104.33-0.96-156.49
					c-0.06-6.68-0.57-13.47-1.85-20.01c-5.52-28.32-20.47-42.01-46.57-43.24c-28-1.32-48.64,12.62-55.52,39.52
					c-3.29,12.85-4.74,26.47-4.9,39.77c-0.57,47-0.22,94.01-0.22,141.01c0,5.53,0,11.07,0,17.48c-33.47,0-65.25,0-98.17,0
					C536.76,772.15,536.76,667.58,536.76,561.11z"/>
				<path class="st4" d="M376.12,561.09c32.63,0,64.07,0,96.77,0c0,105.12,0,210.14,0,316.13c-31.98,0-63.79,0-96.77,0
					C376.12,772.24,376.12,667.61,376.12,561.09z"/>
				<path class="st4" d="M424.22,402.65c31.32-0.27,57.62,25.28,58.14,56.48c0.53,31.73-26.01,58.49-57.86,58.36
					c-31.72-0.13-56.63-25.28-56.79-57.32C367.56,428.17,392.37,402.92,424.22,402.65z"/>
			</g>
			<path class="st5" d="M376.12,598.41c0,0,60.41,13.91,96.77-27.13v-10.19h-96.77V598.41z"/>
			<path class="st5" d="M453.98,412.74l23.68,64.86c0,0-1.04,39.88-55.71,39.88c0,0-53.81,1.82-53.81-64.67
				c0,0,2.45-47.96,54.76-50.13C422.9,402.67,446.69,404.78,453.98,412.74z"/>
		</g>
	</g>
</g>
<g id="Capa_7" class="st2">
	<g class="st3">
		<g>
			<path class="st0" d="M885.29,130.02c117.99,95.06,193.75,240.43,194.7,403.52c1.66,283.46-226.24,518.39-509.63,524.9
				c-261.18,6-480.08-179.91-525.55-426.58c0,0,73.49-211.93,191.24-105.54c0,0,116.24,110.5,220.29,60.99
				c0,0,74.3-35.99-18.41-208.28c-6.68-12.41-10.39-26.34-9.91-40.42c0.4-11.52,1.09-20.17,12.3-34.96c0,0,42.72-49.96,140.07,14.8
				c0,0,70.97,41.41,108.32,0c0,0,49.96-54.48-0.93-147.86c0,0-37.35-63.97-0.47-98.05c0,0,53.29-53.75,170.22,39.89L885.29,130.02z
				"/>
			<g>
				<g>
					<path class="st0" d="M788.76,63.99c2.32,1.28,23.47,12.58,42.8,22.54c-7.81-8.02-14.63-16.61-20.39-25.17
						c-3.58-2.28-6.17-3.89-6.19-3.86c-2.8-1.55-5.59-3.09-8.34-4.61C717.21,8.96,670.4-14.69,632.35,9.97
						c-39.36,25.51-27.3,63.2-4.34,122.6c4.08,10.56,18.24,56.03,18.54,55.2c6.74,28.57,6.07,55.17-15.99,70.42
						c-0.3,0.21-0.6,0.41-0.9,0.61c-19.06,12.35-124.75-9.17-127.18-9.63c-51.41-9.86-81.94-34.26-125.39-6.11
						c-32.46,21.03-6.21,99.77-5.39,99.75c1.6,3.67,53.5,128.14,11.42,155.4c-36.87,23.89-163.61-38.18-170.49-39.69
						c-3.47-1.89-19.97-10.97-22.72-12.49c-79.44-43.93-126.24-67.58-164.29-42.93c-39.36,25.51-27.3,63.2-4.33,122.6
						c3.17,8.21,19.31,54,19.63,58.26c0.05,0.69,0.04,1.4,0,2.11c0.68,3.33,1.28,6.64,1.71,9.88c2.84,12.91,3.83,26.67,3.43,40.95
						c14.43-20.28,12.62-45.53,3.21-76.91c0.06-0.01,0.13-0.01,0.19-0.02c-0.27-0.46-5.22-16.17-5.47-17.04
						c-0.09-0.37-2.7-6.79-3.74-9.73c-0.51-1.43-1.06-2.96-1.6-4.54c0,0.14-0.02,0.28-0.02,0.42c-1.38-3.66-2.8-7.4-4.27-11.2
						c-15.81-40.92-35.5-91.84-5.51-111.27c26.16-16.95,84.55,12.8,135.42,40.72l17.76,9.79c3.6,1.98,155.14,76.46,204.33,44.59
						c56.07-36.33-2.76-165.07-5.65-175.28c-1.2-4.22-19.68-67.37-0.39-79.87c29.15-18.89,98.78,11.18,108.52,12.04
						c2.66,1.05,105.13,28.91,144.3,3.53c0.62-0.4,1.26-0.83,1.86-1.25c32.72-22.62,33.26-53.13,20.99-94.03
						c0.29-0.03-3.06-9.68-4.09-12.71c0.08-4-9.35-25.6-10.82-29.41c-1.47-3.8-29.07-96-5.51-111.27
						C661.74-3.47,785.56,63.22,788.76,63.99z"/>
				</g>
				<g>
					<path class="st0" d="M728.87,25.54c-2.79-2.2-5.73-4.98-8.53-8.12c-14.75-0.02-28.67,4.25-43.43,14.57
						c-38,26.57-37.94,54.86-34.68,98.81c0.58,7.81,0.33,41.99,0.79,41.28c-1.88,21.82-9.18,43.21-30.73,58.87
						c-0.3,0.22-0.58,0.42-0.88,0.63c-18.4,12.87-97.51,12.18-99.34,12.19c-38.64,0.15-56.87-14.6-98.81,14.73
						c-31.34,21.92-30.37,80.83-29.7,80.68c0.35,2.69,10.2,94.19-30.42,122.6c-35.6,24.89-121.23-4.96-126.36-5.09
						c-2.3-0.97-13.19-5.65-15.01-6.44c-52.4-22.74-83.84-34.34-120.57-8.65c-38,26.58-37.94,54.86-34.68,98.81
						c0.45,6.08,1.7,40.2,0.88,43.56c-0.13,0.54-0.32,1.11-0.54,1.69c-0.31,2.56-0.66,5.11-1.15,7.64
						c-1.01,9.89-3.72,20.75-7.68,32.24c16.71-18.49,21.69-38.42,22.15-62.07c0.05-0.02,0.1-0.03,0.16-0.04
						c-0.1-0.33-0.06-12.13-0.04-12.78c0.02-0.28-0.43-5.01-0.51-7.2c-0.04-1.07-0.1-2.2-0.12-3.39c-0.04,0.11-0.08,0.22-0.12,0.34
						c-0.17-2.72-0.36-5.48-0.57-8.3c-2.24-30.28-5.03-67.96,23.91-88.2c25.25-17.66,64.42-2.98,98.02,11.41l11.72,5.06
						c2.37,1.02,104.71,36.93,152.2,3.72c54.13-37.85,39.82-131.69,40.1-139.41c0.12-3.19,1.4-50.85,20.02-63.87
						c28.15-19.68,76.22-6.51,83.79-7.34c1.87,0.42,76.79,6.69,114.6-19.75c0.6-0.42,1.22-0.86,1.81-1.29
						c31.95-23.23,40.15-47.73,40.74-78.55c0.24-0.07,0.02-7.27-0.03-9.53c1.08-3.21-0.97-19.03-1.17-21.85
						c-0.21-2.81,1.17-72.29,23.91-88.2c13.33-9.32,42.48-4.25,67.4,2.63C739.88,33.39,734.02,29.6,728.87,25.54z"/>
				</g>
				<path class="st0" d="M811.17,61.36c0,0,89.09,74.1,123.91,114.37l-80.5-47.85c0,0-58.46-63.35-106.27-83.5"/>
				<path class="st0" d="M21.29,525.7c0,0,8.63,72.58,37.34,170.98l19.03-59.77l-29.63-48.2L25.37,525.7"/>
			</g>
		</g>
		<g id="XMLID_00000117637214169363753200000013818349645569419139_">
			<path id="XMLID_00000122684101631242121710000011193849135251376271_" class="st6" d="M900.56,546.8
				c-54.82,199.38-231.08,345.74-438.59,364.17c-4.74,0.43-9.45,0.65-14.12,0.65c-19.77,0-38.73-3.83-55.51-11.26
				c-5.04-2.22-9.3-4.4-12.71-6.5c-9.17-5.23-17.34-11.76-24.28-19.39l-19.04-20.84c-3.78-4.13-7.31-8.89-10.81-14.54
				c-5.73-9.22-9.81-18.89-12.15-28.72c-8.39-35.1,3.1-71.88,30-95.98l0,0l32.14-28.78c12.93-11.58,28.83-19.63,46.01-23.25
				c7.02-1.49,13.99-2.24,20.73-2.24c28.09,0,54.99,11.83,73.83,32.45l19.04,20.87c7.59,8.3,13.61,17.65,17.94,27.89
				c76.82-31.77,139.79-88.88,178.54-161.9c-14.21-5.54-26.99-14.29-37.31-25.61l-19.05-20.84c-17.83-19.53-26.92-44.77-25.59-71.06
				c0.14-2.56,0.44-5.09,0.76-7.59c2.98-23.32,14.3-44.83,31.9-60.61l32.13-28.77c18.32-16.43,42.02-25.48,66.72-25.48
				c5.32,0,10.86,0.51,16.93,1.56c17.8,3.06,34.45,10.84,48.12,22.5c3.49,2.97,6.28,5.65,8.79,8.39l19.02,20.82
				c2.62,2.85,5.12,5.97,7.48,9.27c20.9,18.25,37.43,58.56,27.71,108.31C906.87,522.18,904.06,534.11,900.56,546.8z"/>
		</g>
	</g>
</g>
<g id="Capa_8" class="st2">
	<g class="st3">
		<g>
			<path class="st0" d="M885.29,130.02c117.99,95.06,193.75,240.43,194.7,403.52c1.66,283.46-226.24,518.39-509.63,524.9
				c-261.18,6-480.08-179.91-525.55-426.58c0,0,73.49-211.93,191.24-105.54c0,0,116.24,110.5,220.29,60.99
				c0,0,74.3-35.99-18.41-208.28c-6.68-12.41-10.39-26.34-9.91-40.42c0.4-11.52,1.09-20.17,12.3-34.96c0,0,42.72-49.96,140.07,14.8
				c0,0,70.97,41.41,108.32,0c0,0,49.96-54.48-0.93-147.86c0,0-37.35-63.97-0.47-98.05c0,0,53.29-53.75,170.22,39.89L885.29,130.02z
				"/>
			<g>
				<g>
					<path class="st0" d="M788.76,63.99c2.32,1.28,23.47,12.58,42.8,22.54c-7.81-8.02-14.63-16.61-20.39-25.17
						c-3.58-2.28-6.17-3.89-6.19-3.86c-2.8-1.55-5.59-3.09-8.34-4.61C717.21,8.96,670.4-14.69,632.35,9.97
						c-39.36,25.51-27.3,63.2-4.34,122.6c4.08,10.56,18.24,56.03,18.54,55.2c6.74,28.57,6.07,55.17-15.99,70.42
						c-0.3,0.21-0.6,0.41-0.9,0.61c-19.06,12.35-124.75-9.17-127.18-9.63c-51.41-9.86-81.94-34.26-125.39-6.11
						c-32.46,21.03-6.21,99.77-5.39,99.75c1.6,3.67,53.5,128.14,11.42,155.4c-36.87,23.89-163.61-38.18-170.49-39.69
						c-3.47-1.89-19.97-10.97-22.72-12.49c-79.44-43.93-126.24-67.58-164.29-42.93c-39.36,25.51-27.3,63.2-4.33,122.6
						c3.17,8.21,19.31,54,19.63,58.26c0.05,0.69,0.04,1.4,0,2.11c0.68,3.33,1.28,6.64,1.71,9.88c2.84,12.91,3.83,26.67,3.43,40.95
						c14.43-20.28,12.62-45.53,3.21-76.91c0.06-0.01,0.13-0.01,0.19-0.02c-0.27-0.46-5.22-16.17-5.47-17.04
						c-0.09-0.37-2.7-6.79-3.74-9.73c-0.51-1.43-1.06-2.96-1.6-4.54c0,0.14-0.02,0.28-0.02,0.42c-1.38-3.66-2.8-7.4-4.27-11.2
						c-15.81-40.92-35.5-91.84-5.51-111.27c26.16-16.95,84.55,12.8,135.42,40.72l17.76,9.79c3.6,1.98,155.14,76.46,204.33,44.59
						c56.07-36.33-2.76-165.07-5.65-175.28c-1.2-4.22-19.68-67.37-0.39-79.87c29.15-18.89,98.78,11.18,108.52,12.04
						c2.66,1.05,105.13,28.91,144.3,3.53c0.62-0.4,1.26-0.83,1.86-1.25c32.72-22.62,33.26-53.13,20.99-94.03
						c0.29-0.03-3.06-9.68-4.09-12.71c0.08-4-9.35-25.6-10.82-29.41c-1.47-3.8-29.07-96-5.51-111.27
						C661.74-3.47,785.56,63.22,788.76,63.99z"/>
				</g>
				<g>
					<path class="st0" d="M728.87,25.54c-2.79-2.2-5.73-4.98-8.53-8.12c-14.75-0.02-28.67,4.25-43.43,14.57
						c-38,26.57-37.94,54.86-34.68,98.81c0.58,7.81,0.33,41.99,0.79,41.28c-1.88,21.82-9.18,43.21-30.73,58.87
						c-0.3,0.22-0.58,0.42-0.88,0.63c-18.4,12.87-97.51,12.18-99.34,12.19c-38.64,0.15-56.87-14.6-98.81,14.73
						c-31.34,21.92-30.37,80.83-29.7,80.68c0.35,2.69,10.2,94.19-30.42,122.6c-35.6,24.89-121.23-4.96-126.36-5.09
						c-2.3-0.97-13.19-5.65-15.01-6.44c-52.4-22.74-83.84-34.34-120.57-8.65c-38,26.58-37.94,54.86-34.68,98.81
						c0.45,6.08,1.7,40.2,0.88,43.56c-0.13,0.54-0.32,1.11-0.54,1.69c-0.31,2.56-0.66,5.11-1.15,7.64
						c-1.01,9.89-3.72,20.75-7.68,32.24c16.71-18.49,21.69-38.42,22.15-62.07c0.05-0.02,0.1-0.03,0.16-0.04
						c-0.1-0.33-0.06-12.13-0.04-12.78c0.02-0.28-0.43-5.01-0.51-7.2c-0.04-1.07-0.1-2.2-0.12-3.39c-0.04,0.11-0.08,0.22-0.12,0.34
						c-0.17-2.72-0.36-5.48-0.57-8.3c-2.24-30.28-5.03-67.96,23.91-88.2c25.25-17.66,64.42-2.98,98.02,11.41l11.72,5.06
						c2.37,1.02,104.71,36.93,152.2,3.72c54.13-37.85,39.82-131.69,40.1-139.41c0.12-3.19,1.4-50.85,20.02-63.87
						c28.15-19.68,76.22-6.51,83.79-7.34c1.87,0.42,76.79,6.69,114.6-19.75c0.6-0.42,1.22-0.86,1.81-1.29
						c31.95-23.23,40.15-47.73,40.74-78.55c0.24-0.07,0.02-7.27-0.03-9.53c1.08-3.21-0.97-19.03-1.17-21.85
						c-0.21-2.81,1.17-72.29,23.91-88.2c13.33-9.32,42.48-4.25,67.4,2.63C739.88,33.39,734.02,29.6,728.87,25.54z"/>
				</g>
				<path class="st0" d="M811.17,61.36c0,0,89.09,74.1,123.91,114.37l-80.5-47.85c0,0-58.46-63.35-106.27-83.5"/>
				<path class="st0" d="M21.29,525.7c0,0,8.63,72.58,37.34,170.98l19.03-59.77l-29.63-48.2L25.37,525.7"/>
			</g>
		</g>
		<g>
			<path class="st4" d="M682.69,496.08c6.42-7.59,19.35-13.04,37.72-13.04c17.11,0,37.62,2.53,56.97,7.98l16.24-87.51
				c-33.35-11.67-67.76-14.97-103.34-14.97c-35.58,0-63.58,5.46-86.14,18.48c-22.65,12.44-37.72,26.64-46.28,47.25
				c-8.65,18.48-12.93,49.38-12.93,88.28v34.41H475.9v99.95h69.03v314.41c28.97,6.61,59.21,9.72,90.42,9.72
				c11.76,0,23.72,0,35.48-2.13V676.9h91.48v-99.95h-91.48v-32.27C670.83,519.99,674.13,504.82,682.69,496.08z"/>
		</g>
	</g>
</g>
<g id="Capa_9" class="st2">
	<g class="st3">
		<g>
			<path class="st0" d="M885.29,130.02c117.99,95.06,193.75,240.43,194.7,403.52c1.66,283.46-226.24,518.39-509.63,524.9
				c-261.18,6-480.08-179.91-525.55-426.58c0,0,73.49-211.93,191.24-105.54c0,0,116.24,110.5,220.29,60.99
				c0,0,74.3-35.99-18.41-208.28c-6.68-12.41-10.39-26.34-9.91-40.42c0.4-11.52,1.09-20.17,12.3-34.96c0,0,42.72-49.96,140.07,14.8
				c0,0,70.97,41.41,108.32,0c0,0,49.96-54.48-0.93-147.86c0,0-37.35-63.97-0.47-98.05c0,0,53.29-53.75,170.22,39.89L885.29,130.02z
				"/>
			<g>
				<g>
					<path class="st0" d="M788.76,63.99c2.32,1.28,23.47,12.58,42.8,22.54c-7.81-8.02-14.63-16.61-20.39-25.17
						c-3.58-2.28-6.17-3.89-6.19-3.86c-2.8-1.55-5.59-3.09-8.34-4.61C717.21,8.96,670.4-14.69,632.35,9.97
						c-39.36,25.51-27.3,63.2-4.34,122.6c4.08,10.56,18.24,56.03,18.54,55.2c6.74,28.57,6.07,55.17-15.99,70.42
						c-0.3,0.21-0.6,0.41-0.9,0.61c-19.06,12.35-124.75-9.17-127.18-9.63c-51.41-9.86-81.94-34.26-125.39-6.11
						c-32.46,21.03-6.21,99.77-5.39,99.75c1.6,3.67,53.5,128.14,11.42,155.4c-36.87,23.89-163.61-38.18-170.49-39.69
						c-3.47-1.89-19.97-10.97-22.72-12.49c-79.44-43.93-126.24-67.58-164.29-42.93c-39.36,25.51-27.3,63.2-4.33,122.6
						c3.17,8.21,19.31,54,19.63,58.26c0.05,0.69,0.04,1.4,0,2.11c0.68,3.33,1.28,6.64,1.71,9.88c2.84,12.91,3.83,26.67,3.43,40.95
						c14.43-20.28,12.62-45.53,3.21-76.91c0.06-0.01,0.13-0.01,0.19-0.02c-0.27-0.46-5.22-16.17-5.47-17.04
						c-0.09-0.37-2.7-6.79-3.74-9.73c-0.51-1.43-1.06-2.96-1.6-4.54c0,0.14-0.02,0.28-0.02,0.42c-1.38-3.66-2.8-7.4-4.27-11.2
						c-15.81-40.92-35.5-91.84-5.51-111.27c26.16-16.95,84.55,12.8,135.42,40.72l17.76,9.79c3.6,1.98,155.14,76.46,204.33,44.59
						c56.07-36.33-2.76-165.07-5.65-175.28c-1.2-4.22-19.68-67.37-0.39-79.87c29.15-18.89,98.78,11.18,108.52,12.04
						c2.66,1.05,105.13,28.91,144.3,3.53c0.62-0.4,1.26-0.83,1.86-1.25c32.72-22.62,33.26-53.13,20.99-94.03
						c0.29-0.03-3.06-9.68-4.09-12.71c0.08-4-9.35-25.6-10.82-29.41c-1.47-3.8-29.07-96-5.51-111.27
						C661.74-3.47,785.56,63.22,788.76,63.99z"/>
				</g>
				<g>
					<path class="st0" d="M728.87,25.54c-2.79-2.2-5.73-4.98-8.53-8.12c-14.75-0.02-28.67,4.25-43.43,14.57
						c-38,26.57-37.94,54.86-34.68,98.81c0.58,7.81,0.33,41.99,0.79,41.28c-1.88,21.82-9.18,43.21-30.73,58.87
						c-0.3,0.22-0.58,0.42-0.88,0.63c-18.4,12.87-97.51,12.18-99.34,12.19c-38.64,0.15-56.87-14.6-98.81,14.73
						c-31.34,21.92-30.37,80.83-29.7,80.68c0.35,2.69,10.2,94.19-30.42,122.6c-35.6,24.89-121.23-4.96-126.36-5.09
						c-2.3-0.97-13.19-5.65-15.01-6.44c-52.4-22.74-83.84-34.34-120.57-8.65c-38,26.58-37.94,54.86-34.68,98.81
						c0.45,6.08,1.7,40.2,0.88,43.56c-0.13,0.54-0.32,1.11-0.54,1.69c-0.31,2.56-0.66,5.11-1.15,7.64
						c-1.01,9.89-3.72,20.75-7.68,32.24c16.71-18.49,21.69-38.42,22.15-62.07c0.05-0.02,0.1-0.03,0.16-0.04
						c-0.1-0.33-0.06-12.13-0.04-12.78c0.02-0.28-0.43-5.01-0.51-7.2c-0.04-1.07-0.1-2.2-0.12-3.39c-0.04,0.11-0.08,0.22-0.12,0.34
						c-0.17-2.72-0.36-5.48-0.57-8.3c-2.24-30.28-5.03-67.96,23.91-88.2c25.25-17.66,64.42-2.98,98.02,11.41l11.72,5.06
						c2.37,1.02,104.71,36.93,152.2,3.72c54.13-37.85,39.82-131.69,40.1-139.41c0.12-3.19,1.4-50.85,20.02-63.87
						c28.15-19.68,76.22-6.51,83.79-7.34c1.87,0.42,76.79,6.69,114.6-19.75c0.6-0.42,1.22-0.86,1.81-1.29
						c31.95-23.23,40.15-47.73,40.74-78.55c0.24-0.07,0.02-7.27-0.03-9.53c1.08-3.21-0.97-19.03-1.17-21.85
						c-0.21-2.81,1.17-72.29,23.91-88.2c13.33-9.32,42.48-4.25,67.4,2.63C739.88,33.39,734.02,29.6,728.87,25.54z"/>
				</g>
				<path class="st0" d="M811.17,61.36c0,0,89.09,74.1,123.91,114.37l-80.5-47.85c0,0-58.46-63.35-106.27-83.5"/>
				<path class="st0" d="M21.29,525.7c0,0,8.63,72.58,37.34,170.98l19.03-59.77l-29.63-48.2L25.37,525.7"/>
			</g>
		</g>
		<g>
			<path class="st7" d="M766.15,378.62c-130.99,0-262.44,0-393.43,0c-46.83,0-71.03,24.91-71.03,71.51c0,65.04,0,130.07,0,195.56
				c0,65.04,0,131.68,0,197.19c0,45.2,24.91,69.88,68.72,69.88c132.39,0,263.83,0,395.74,0c45.67,0,70.8-24.68,70.8-70.35
				c0-131.68,0-262.2,0-393.9C836.95,403.54,811.83,378.62,766.15,378.62z M722.8,439.29c53.04,0,53.04,0,53.04,53.04
				c0,51.65,0,51.65-52.12,51.65c-52.57,0-52.57,0-52.57-52.57C671.15,439.29,671.15,439.29,722.8,439.29z M569.68,541.92
				c55.8,0,103.77,48.2,102.84,103.77c-0.45,57.2-47.96,104.24-104.69,103.32c-56.28-0.92-103.79-48.65-102.4-104.24
				C466.81,588.49,513.85,541.92,569.68,541.92z M775.84,820.49c-0.45,24.91-6.92,31.83-31.81,31.83c-58.35,0-116.71,0-175.06,0
				c-57.88,0-116.21,0-174.56,0c-24.44,0-31.36-6.92-31.36-31.83c0-64.56,0.24-130.05-0.92-195.09c0-18.47,5.08-22.39,22.13-21.91
				c24.44,2.08,24.91,0.92,22.15,24.91c-9.47,82.32,47.73,162.8,129.13,178.72c83.95,15.92,167.9-34.36,190.95-114.84
				c6.92-25.15,9-52.12,3.71-76.8c-1.84-9.47,0.45-11.08,8.76-11.08c36.89-3,36.89-3.45,36.89,34.83
				C775.84,698.73,775.84,759.85,775.84,820.49z"/>
		</g>
		<path class="st8" d="M437.94,379.04l-65.22-0.42c0,0-70.06-2.33-70.55,60.67l-0.49,133.21c0,0,81.44,49.41,158.98,11.95
			c0,0,36.31-18,17.66-106.95C478.33,477.51,449.63,391.41,437.94,379.04z"/>
	</g>
</g>
<g id="Capa_11" class="st2">
	<g class="st3">
		<polygon class="st0" points="0,0 0,1080 810.07,540 		"/>
		<polygon class="st0" points="269.93,0 269.93,98.26 932.6,540 269.93,981.74 269.93,1080 1080,540 		"/>
	</g>
</g>
<g id="Capa_12" class="st2">
	<g class="st3">
		<polygon class="st0" points="1080,1080 1080,0 269.93,540 		"/>
		<polygon class="st0" points="810.07,1080 810.07,981.74 147.4,540 810.07,98.26 810.07,0 0,540 		"/>
	</g>
</g>
<g id="Capa_13">
</g>
<g id="Capa_14">
</g>
<g id="Capa_15">
</g>
<g id="Capa_16">
</g>
<g id="Capa_17">
</g>
<g id="Capa_18">
</g>
<g id="Capa_19">
</g>
<g id="Capa_20">
</g>
<g id="Capa_21">
</g>
<g id="Capa_22">
</g>
<g id="Capa_23">
</g>
<g id="Capa_24">
</g>
<g id="Capa_25">
</g>
<g id="Capa_26">
</g>
<g id="Capa_27">
</g>
<g id="Capa_28">
</g>
<g id="Capa_10" class="st2">
	<rect x="1589.51" y="-34.32" class="st9" width="496.34" height="574.32"/>
</g>
</svg>
