<svg xmlns="http://www.w3.org/2000/svg" viewBox="0 0 468.64 459.35"><defs><style>.cls-1,.cls-3{fill:#904191;}.cls-2{fill:#fff;}.cls-3{stroke:#904191;stroke-miterlimit:10;stroke-width:0.75px;}</style></defs><g id="Capa_1" data-name="Capa 1"><path class="cls-1" d="M400.4,77.19a226.07,226.07,0,0,1,84.49,175.1c.72,123-98.18,225-221.15,227.77C150.41,482.66,55.42,402,35.69,295c0,0,31.89-92,83-45.8,0,0,50.44,48,95.59,26.47,0,0,32.24-15.62-8-90.38a34.73,34.73,0,0,1-4.3-17.54c.18-5,.48-8.75,5.34-15.17,0,0,18.54-21.68,60.78,6.42,0,0,30.79,18,47,0,0,0,21.68-23.64-.4-64.16,0,0-16.21-27.76-.2-42.55,0,0,23.12-23.32,73.86,17.31Z" transform="translate(-16.25 -20.77)"/><path class="cls-1" d="M358.51,48.54c1,.55,10.19,5.46,18.57,9.78a79.52,79.52,0,0,1-8.84-10.92c-1.56-1-2.68-1.69-2.69-1.68l-3.62-2C327.46,24.66,307.16,14.4,290.64,25.1c-17.08,11.06-11.84,27.42-1.88,53.2,1.77,4.58,7.91,24.31,8.05,24,2.92,12.4,2.63,23.94-6.94,30.56l-.39.26c-8.27,5.36-54.13-4-55.19-4.18-22.31-4.28-35.56-14.87-54.41-2.65-14.09,9.13-2.7,43.29-2.34,43.28.7,1.6,23.22,55.61,5,67.44-16,10.36-71-16.57-74-17.23-1.51-.81-8.67-4.75-9.86-5.41C64.19,195.25,43.88,185,27.37,195.69c-17.08,11.07-11.85,27.42-1.88,53.2,1.37,3.56,8.37,23.43,8.52,25.28a7.06,7.06,0,0,1,0,.92c.29,1.44.55,2.88.74,4.28a73.67,73.67,0,0,1,1.49,17.78c6.26-8.8,5.48-19.76,1.39-33.38h.08c-.11-.2-2.26-7-2.37-7.39,0-.16-1.17-3-1.62-4.22-.22-.63-.46-1.29-.7-2v.18c-.6-1.59-1.22-3.2-1.86-4.86-6.86-17.75-15.4-39.85-2.39-48.28,11.35-7.35,36.69,5.56,58.76,17.67l7.71,4.25c1.56.86,67.32,33.18,88.66,19.35,24.33-15.77-1.2-71.63-2.45-76.06-.52-1.83-8.54-29.23-.17-34.66,12.65-8.19,42.86,4.85,47.09,5.23,1.16.45,45.62,12.55,62.62,1.53l.81-.54c14.19-9.82,14.43-23.06,9.11-40.8.12,0-1.33-4.2-1.78-5.52,0-1.73-4.05-11.11-4.69-12.76S281.82,33.24,292,26.62C303.4,19.26,357.12,48.2,358.51,48.54Z" transform="translate(-16.25 -20.77)"/><path class="cls-1" d="M332.53,31.85a30,30,0,0,1-3.71-3.52c-6.4,0-12.44,1.85-18.84,6.33-16.49,11.53-16.46,23.8-15.05,42.87.25,3.39.14,18.23.34,17.91-.81,9.47-4,18.75-13.33,25.55l-.38.27c-8,5.59-42.32,5.29-43.11,5.29-16.77.07-24.68-6.33-42.88,6.39-13.6,9.51-13.18,35.08-12.89,35,.15,1.17,4.43,40.88-13.2,53.2C154,232,116.88,219,114.65,218.94l-6.51-2.79c-22.74-9.87-36.38-14.9-52.32-3.76-16.49,11.54-16.46,23.81-15,42.88.2,2.64.74,17.45.38,18.9a4.79,4.79,0,0,1-.23.74c-.13,1.11-.29,2.21-.5,3.31a63,63,0,0,1-3.33,14c7.25-8,9.41-16.67,9.61-26.93l.07,0c0-.14,0-5.26,0-5.54s-.18-2.18-.22-3.13c0-.46,0-.95-.05-1.47l-.06.15q-.11-1.77-.24-3.6c-1-13.14-2.19-29.49,10.37-38.28,11-7.66,28-1.29,42.54,5l5.09,2.2c1,.44,45.43,16,66,1.61,23.49-16.42,17.27-57.14,17.4-60.49,0-1.39.61-22.07,8.69-27.72,12.21-8.54,33.07-2.82,36.36-3.18.81.18,33.32,2.9,49.73-8.57l.78-.56c13.86-10.08,17.42-20.71,17.68-34.09.11,0,0-3.15,0-4.13.47-1.4-.42-8.26-.51-9.48s.51-31.37,10.37-38.27c5.79-4,18.44-1.85,29.25,1.14A61.87,61.87,0,0,1,332.53,31.85Z" transform="translate(-16.25 -20.77)"/><path class="cls-1" d="M368.24,47.4S406.89,79.55,422,97L387.08,76.26S361.71,48.77,341,40" transform="translate(-16.25 -20.77)"/><path class="cls-1" d="M25.49,248.89s3.74,31.49,16.2,74.19L50,297.15,37.09,276.23l-9.83-27.34" transform="translate(-16.25 -20.77)"/><path class="cls-2" d="M260.79,349.53c-19.24-.8-35.85-7.87-51.22-18.23a161.26,161.26,0,0,1-37.28-35.23c-1.14-1.46-2.18-2.65-.58-4.69,16.42-20.84,35.72-38.21,61-48.08,25.05-9.78,48.75-5.56,71.3,7.69,17.54,10.3,32.07,23.89,44.49,39.73,1.17,1.48,2.16,2.68.55,4.69-18,22.54-38.94,41.4-67.51,50.15C274.88,347.61,267.73,348.24,260.79,349.53ZM216.2,293.38c0,23.68,20.2,43.45,44.29,43.35,24.25-.1,44.29-19.88,44.09-43.52s-20.07-43.13-44.05-43.13C236.28,250.07,216.21,269.69,216.2,293.38Zm96.89,20.38,1.14.58L336,293.54,314.33,272l-1.32.88C318.35,286.5,318.07,300.13,313.09,313.76Zm-106.77,1.06,1.5-1c-5.32-13.62-5.06-27.27-.14-41l-1.22-.7-21.82,21.25Z" transform="translate(-16.25 -20.77)"/><path class="cls-2" d="M226.48,186.37v12.29c-12.92,0-25.55-.1-38.17,0-11.46.12-20.84,7.24-23.68,18.09a39.26,39.26,0,0,0-.85,9.52c-.1,10.17-.12,20.35,0,30.52,0,2.95-.92,4-3.9,3.74-2.66-.22-5.35-.05-8.42-.05-.11-1.69-.26-3-.26-4.34,0-11,0-22,0-33a36.73,36.73,0,0,1,35.2-36.65C199.62,185.87,212.85,186.37,226.48,186.37Z" transform="translate(-16.25 -20.77)"/><path class="cls-2" d="M369.07,260.28H357v-4.69c0-10.74,0-21.48,0-32.22,0-14.11-10.53-24.51-25-24.68-11-.12-21.91,0-32.87,0h-4.93V186.32h7.63c10.11,0,20.21-.06,30.31,0,18.71.14,34.92,13.22,36.63,31.44C370.12,231.7,369.07,245.84,369.07,260.28Z" transform="translate(-16.25 -20.77)"/><path class="cls-2" d="M151.23,326.28c3.74,0,7-.26,10.18.16.92.12,2.22,2.19,2.24,3.39.2,11.56,0,23.13.22,34.69.24,11.39,7.94,20.49,19.23,23a35.71,35.71,0,0,0,7.61.57c11.79.06,23.57,0,35.71,0V399.9c-14.69,0-29.24,1-43.59-.27-17.13-1.52-30-15.95-31.52-32.88-.12-1.38-.07-2.78-.07-4.17C151.23,350.74,151.23,338.9,151.23,326.28Z" transform="translate(-16.25 -20.77)"/><path class="cls-2" d="M294.25,388.13c12.87,0,25.37.08,37.87,0,12.22-.11,21.75-7.69,24.46-19.36a26.76,26.76,0,0,0,.43-5.81c.06-11.72.05-23.44.08-35.16a5.89,5.89,0,0,1,.33-1.15h11.52c.19.27.49.5.49.71-.09,13.8.79,27.68-.55,41.36-1.73,17.58-15.75,29.85-33.8,31.66a40.44,40.44,0,0,1-4.27.12H294.25Z" transform="translate(-16.25 -20.77)"/><path class="cls-2" d="M241.92,289.7c12.2,1.77,17.23-3.14,14.71-14.33,9.2-1.59,16.69,1.8,20.76,9.39a18.83,18.83,0,0,1-3,21.4,19.54,19.54,0,0,1-22.69,3.89C244.08,306.26,240.53,298.85,241.92,289.7Z" transform="translate(-16.25 -20.77)"/><path class="cls-3" d="M206.84,186.3l5.28,12.34h-21s-14.89-2.62-22.45,9.7c0,0-6.34,7.08-4.95,26.08l-.2,25.86-12,.23-.28-38.34s-1.21-23.08,22.72-32.92C173.94,189.25,191.57,185.17,206.84,186.3Z" transform="translate(-16.25 -20.77)"/><path class="cls-3" d="M181.66,279.62H198.8l7.57-8.07,1.45.61L206.07,278l6.05-.78,14.27-26.1-.75-4.73S199.08,259.19,181.66,279.62Z" transform="translate(-16.25 -20.77)"/></g></svg>