<?xml version="1.0" encoding="utf-8"?>
<!-- Generator: Adobe Illustrator 25.4.1, SVG Export Plug-In . SVG Version: 6.00 Build 0)  -->
<svg version="1.1" xmlns="http://www.w3.org/2000/svg" xmlns:xlink="http://www.w3.org/1999/xlink" x="0px" y="0px"
	 viewBox="0 0 1080 1080" style="enable-background:new 0 0 1080 1080;" xml:space="preserve">
<style type="text/css">
	.st0{fill:#FFFFFF;}
	.st1{fill:#263B4E;stroke:#263B4E;stroke-miterlimit:10;}
	.st2{fill:#FFFFFF;stroke:#FFFFFF;stroke-miterlimit:10;}
	.st3{fill:#263B4E;}
	.st4{fill:#FCFCFC;}
	.st5{display:none;}
</style>
<symbol  id="Nuevo_símbolo" viewBox="-48.54 -47.58 97.08 95.16">
	<g>
		<path class="st0" d="M31.04,35.89c10.61-8.55,17.42-21.61,17.5-36.27c0.15-25.48-20.34-46.6-45.81-47.19
			c-23.48-0.54-43.16,16.17-47.24,38.35c0,0,6.61,19.05,17.19,9.49c0,0,10.45-9.93,19.8-5.48c0,0,6.68,3.24-1.65,18.72
			c-0.6,1.12-0.93,2.37-0.89,3.63c0.04,1.04,0.1,1.81,1.11,3.14c0,0,3.84,4.49,12.59-1.33c0,0,6.38-3.72,9.74,0
			c0,0,4.49,4.9-0.08,13.29c0,0-3.36,5.75-0.04,8.81c0,0,4.79,4.83,15.3-3.59L31.04,35.89z"/>
		<g>
			<g>
				<path class="st0" d="M22.36,41.83c0.21-0.11,2.11-1.13,3.85-2.03c-0.7,0.72-1.31,1.49-1.83,2.26c-0.32,0.2-0.56,0.35-0.56,0.35
					c-0.25,0.14-0.5,0.28-0.75,0.41c-7.14,3.95-11.35,6.08-14.77,3.86C4.76,44.39,5.85,41,7.91,35.66c0.37-0.95,1.64-5.04,1.67-4.96
					c0.61-2.57,0.55-4.96-1.44-6.33c-0.03-0.02-0.05-0.04-0.08-0.05c-1.71-1.11-11.21,0.82-11.43,0.87
					c-4.62,0.89-7.37,3.08-11.27,0.55c-2.92-1.89-0.56-8.97-0.48-8.97c0.14-0.33,4.81-11.52,1.03-13.97
					c-3.31-2.15-14.71,3.43-15.33,3.57c-0.31,0.17-1.8,0.99-2.04,1.12c-7.14,3.95-11.35,6.08-14.77,3.86
					c-3.54-2.29-2.45-5.68-0.39-11.02c0.28-0.74,1.74-4.85,1.76-5.24c0-0.06,0-0.13,0-0.19c0.06-0.3,0.12-0.6,0.15-0.89
					c0.26-1.16,0.34-2.4,0.31-3.68c1.3,1.82,1.13,4.09,0.29,6.91c0.01,0,0.01,0,0.02,0c-0.02,0.04-0.47,1.45-0.49,1.53
					c-0.01,0.03-0.24,0.61-0.34,0.87c-0.05,0.13-0.1,0.27-0.14,0.41c0-0.01,0-0.02,0-0.04c-0.12,0.33-0.25,0.66-0.38,1.01
					c-1.42,3.68-3.19,8.26-0.5,10c2.35,1.52,7.6-1.15,12.17-3.66l1.6-0.88c0.32-0.18,13.95-6.87,18.37-4.01
					c5.04,3.27-0.25,14.84-0.51,15.76c-0.11,0.38-1.77,6.06-0.03,7.18c2.62,1.7,8.88-1,9.75-1.08c0.24-0.09,9.45-2.6,12.97-0.32
					c0.06,0.04,0.11,0.07,0.17,0.11c2.94,2.03,2.99,4.78,1.89,8.45c0.03,0-0.27,0.87-0.37,1.14c0.01,0.36-0.84,2.3-0.97,2.64
					c-0.13,0.34-2.61,8.63-0.5,10C10.94,47.89,22.07,41.9,22.36,41.83z"/>
			</g>
			<g>
				<path class="st0" d="M16.98,45.28c-0.25,0.2-0.52,0.45-0.77,0.73c-1.33,0-2.58-0.38-3.9-1.31c-3.42-2.39-3.41-4.93-3.12-8.88
					c0.05-0.7,0.03-3.78,0.07-3.71c-0.17-1.96-0.83-3.88-2.76-5.29c-0.03-0.02-0.05-0.04-0.08-0.06c-1.65-1.16-8.77-1.1-8.93-1.1
					c-3.47-0.01-5.11,1.31-8.88-1.32c-2.82-1.97-2.73-7.27-2.67-7.25c0.03-0.24,0.92-8.47-2.73-11.02C-20,3.83-27.7,6.51-28.16,6.53
					c-0.21,0.09-1.19,0.51-1.35,0.58c-4.71,2.04-7.54,3.09-10.84,0.78c-3.42-2.39-3.41-4.93-3.12-8.88
					c0.04-0.55,0.15-3.61,0.08-3.92c-0.01-0.05-0.03-0.1-0.05-0.15c-0.03-0.23-0.06-0.46-0.1-0.69c-0.09-0.89-0.33-1.87-0.69-2.9
					c1.5,1.66,1.95,3.45,1.99,5.58c0,0,0.01,0,0.01,0c-0.01,0.03-0.01,1.09,0,1.15c0,0.03-0.04,0.45-0.05,0.65
					c0,0.1-0.01,0.2-0.01,0.3c0-0.01-0.01-0.02-0.01-0.03c-0.02,0.24-0.03,0.49-0.05,0.75c-0.2,2.72-0.45,6.11,2.15,7.93
					c2.27,1.59,5.79,0.27,8.81-1.03l1.05-0.45c0.21-0.09,9.41-3.32,13.68-0.33c4.87,3.4,3.58,11.84,3.6,12.53
					c0.01,0.29,0.13,4.57,1.8,5.74c2.53,1.77,6.85,0.59,7.53,0.66c0.17-0.04,6.9-0.6,10.3,1.78c0.05,0.04,0.11,0.08,0.16,0.12
					c2.87,2.09,3.61,4.29,3.66,7.06c0.02,0.01,0,0.65,0,0.86c0.1,0.29-0.09,1.71-0.11,1.96c-0.02,0.25,0.11,6.5,2.15,7.93
					c1.2,0.84,3.82,0.38,6.06-0.24C17.97,44.58,17.44,44.92,16.98,45.28z"/>
			</g>
			<path class="st0" d="M24.38,42.06c0,0,8.01-6.66,11.14-10.28l-7.24,4.3c0,0-5.26,5.7-9.55,7.51"/>
			<path class="st0" d="M-46.63,0.32c0,0,0.78-6.52,3.36-15.37l1.71,5.37l-2.66,4.33l-2.04,5.66"/>
		</g>
	</g>
	<g>
		<g>
			<path class="st1" d="M26.64-31.26c-15.9,0-31.8,0-47.71,0c-1.43,0.58-2.42,1.59-3.01,3.01c0,13.06,0,26.11,0,39.17
				c1.25,2.68,3.63,3.06,6.2,2.81c0.27,1.97-0.57,4.07,1.58,5.22c1.34,0,2.68,0,4.02,0c2.22-1.15,1.22-3.38,1.6-5.13
				c8.96,0,17.82,0,26.7,0c0.3,1.85-0.6,3.97,1.57,5.13c1.34,0,2.68,0,4.02,0c2.23-1.15,1.22-3.36,1.61-5.17
				c0.33-0.02,0.61-0.09,0.89-0.06c2.42,0.29,4.16-0.67,5.28-2.81c0-13.06,0-26.11,0-39.17C28.88-29.63,27.82-30.5,26.64-31.26z
				 M-22.2,2.39c-0.02-0.49-0.06-0.9-0.06-1.3c0-9.16,0-18.32,0-27.48c0-2.37,0.69-3.04,3.09-3.04c14.56,0,29.11,0,43.67,0
				c2.37,0,3.05,0.69,3.05,3.07c0,9.12,0,18.24,0.01,27.36c0,0.45,0,0.9,0,1.4C10.9,2.39-5.6,2.39-22.2,2.39z M-22.22,4.44
				c16.67,0,33.16,0,49.76,0c0,1.88,0.06,3.67-0.02,5.46c-0.05,1.07-0.76,1.79-1.82,1.94c-0.8,0.11-1.64,0.02-2.44,0.02
				c-0.52-2.06,0.95-5.11-2.79-5.18c-1.17-0.02-2.54-0.01-3.47,0.56c-1.66,1.02-0.54,3.03-1.02,4.56c-8.9,0-17.77,0-26.63,0
				c-0.51-1.93,0.94-4.77-2.44-5.1c-1.24-0.12-2.73-0.1-3.75,0.48c-1.73,0.99-0.6,3.08-1.12,4.7c-0.76,0-1.52,0.07-2.25-0.02
				c-1.13-0.13-1.91-0.8-1.98-1.94C-22.29,8.14-22.22,6.35-22.22,4.44z M21.28,12.73c0,1.13-0.03,2.26,0.01,3.38
				c0.02,0.76-0.28,1.08-1.03,1.02c-0.37-0.03-0.76-0.04-1.13,0.01c-0.96,0.12-1.22-0.34-1.2-1.24c0.05-2.05,0.05-4.09-0.01-6.14
				c-0.03-0.98,0.28-1.41,1.28-1.28c0.33,0.04,0.67,0.03,1,0c0.83-0.07,1.11,0.32,1.08,1.12C21.25,10.64,21.28,11.69,21.28,12.73z
				 M-12.63,12.83c0,1.04-0.03,2.09,0.01,3.13c0.04,0.83-0.21,1.28-1.12,1.17c-0.33-0.04-0.67-0.03-1,0.01
				c-0.93,0.11-1.26-0.28-1.23-1.21c0.05-2.04,0.05-4.09,0-6.13c-0.03-0.95,0.25-1.43,1.27-1.32c0.33,0.04,0.67,0.02,1,0
				c0.79-0.05,1.13,0.28,1.1,1.1C-12.66,10.66-12.63,11.75-12.63,12.83z"/>
			<path class="st1" d="M-19.07-3.6c0,0.62,0,1.25,0,1.87c0.01,1.65,0.16,1.81,1.76,1.82c1.42,0.01,2.83-0.02,4.25,0.01
				c0.99,0.02,1.47-0.39,1.45-1.4c-0.02-1.54,0-3.08,0.01-4.62c0.01-0.96-0.37-1.48-1.41-1.46c-1.54,0.03-3.08,0.03-4.62,0
				c-1.09-0.02-1.51,0.48-1.45,1.53C-19.03-5.1-19.07-4.35-19.07-3.6z M-13.56-1.78c-1.06,0-1.98,0.05-2.88-0.03
				c-0.28-0.03-0.72-0.42-0.74-0.68c-0.09-0.94-0.04-1.89-0.04-2.88c1.31,0,2.48,0,3.66,0C-13.56-4.16-13.56-3.05-13.56-1.78z"/>
			<path class="st1" d="M16.93-3.63c0,0.71,0.03,1.43-0.01,2.13c-0.07,1.11,0.37,1.63,1.52,1.6c1.55-0.04,3.1-0.01,4.64-0.01
				c0.87,0,1.31-0.38,1.3-1.29c-0.02-1.63-0.02-3.26,0-4.9c0.01-0.91-0.45-1.28-1.31-1.28c-1.59,0.01-3.18,0.02-4.77,0
				c-0.94-0.01-1.39,0.41-1.37,1.36C16.95-5.22,16.94-4.42,16.93-3.63z M22.4-5.4c0,1.24,0,2.4,0,3.54c-1.26,0-2.36,0-3.51,0
				c0-1.22,0-2.36,0-3.54C20.12-5.4,21.26-5.4,22.4-5.4z"/>
			<path class="st1" d="M-11.6-13.51c0-4.22,0.36-3.64-3.7-3.68c-0.84-0.01-1.67,0-2.51,0c-0.8,0-1.26,0.34-1.26,1.2
				c0.01,1.67,0.01,3.35,0,5.02c-0.01,0.85,0.42,1.23,1.23,1.23c1.63,0.01,3.26,0,4.89,0.01c0.95,0.01,1.37-0.46,1.35-1.4
				C-11.62-11.92-11.6-12.72-11.6-13.51z M-17.17-15.24c1.3,0,2.44,0,3.58,0c0,1.25,0,2.39,0,3.52c-1.24,0-2.38,0-3.58,0
				C-17.17-12.93-17.17-14.04-17.17-15.24z"/>
			<path class="st1" d="M20.54-17.19c-0.79,0-1.59,0-2.38,0c-0.74,0-1.21,0.31-1.21,1.11c0,1.72-0.01,3.43,0,5.15
				c0,0.76,0.39,1.17,1.15,1.18c1.71,0.01,3.43,0.02,5.14,0c0.75-0.01,1.15-0.4,1.14-1.18c-0.01-1.67-0.01-3.35,0-5.02
				c0.01-0.83-0.38-1.24-1.21-1.24C22.29-17.18,21.41-17.19,20.54-17.19z M18.93-11.68c0-1.17,0-2.34,0-3.65
				c1.03,0,2.02-0.04,3.01,0.03c0.21,0.01,0.56,0.38,0.58,0.59c0.06,0.98,0.03,1.97,0.03,3.03C21.27-11.68,20.15-11.68,18.93-11.68z
				"/>
			<path class="st1" d="M24.38-23.29c0-0.88,0.12-1.78-0.05-2.62c-0.08-0.42-0.66-1.02-1.05-1.04c-1.75-0.11-3.51-0.11-5.26,0
				c-0.38,0.03-1,0.68-1.03,1.07c-0.12,1.71-0.06,3.43-0.05,5.14c0,0.76,0.4,1.16,1.17,1.16c1.67,0,3.34,0,5.02,0
				c0.89,0,1.29-0.42,1.26-1.32C24.36-21.7,24.38-22.5,24.38-23.29C24.38-23.29,24.38-23.29,24.38-23.29z M22.46-25.11
				c0,1.24,0,2.39,0,3.59c-1.23,0-2.37,0-3.57,0c0-1.23,0-2.37,0-3.59C20.08-25.11,21.19-25.11,22.46-25.11z"/>
			<path class="st1" d="M-15.36-27.01c-0.79,0-1.59,0.02-2.38-0.01c-0.97-0.03-1.35,0.43-1.33,1.38c0.03,1.55,0.05,3.1,0,4.64
				c-0.03,1.05,0.45,1.43,1.43,1.42c1.55-0.02,3.1-0.01,4.64,0.01c0.93,0.01,1.4-0.39,1.4-1.35c-0.01-1.63,0.01-3.26,0-4.89
				c-0.01-0.8-0.39-1.24-1.25-1.21C-13.69-26.99-14.53-27.01-15.36-27.01z M-13.57-21.52c-1.28,0-2.39,0-3.53,0
				c0-1.25,0-2.42,0-3.58c1.24,0,2.36,0,3.53,0C-13.57-23.88-13.57-22.74-13.57-21.52z"/>
			<path class="st1" d="M12.36-3.75c0-0.79-0.02-1.59,0-2.38c0.02-0.85-0.39-1.23-1.21-1.23c-1.67,0-3.34-0.01-5.02,0
				c-0.75,0-1.18,0.36-1.18,1.14c0,1.71,0.01,3.43,0,5.14c0,0.79,0.39,1.16,1.15,1.17c1.71,0.01,3.43,0.01,5.14,0
				c0.78-0.01,1.12-0.44,1.11-1.2C12.35-1.99,12.36-2.87,12.36-3.75z M10.47-1.86c-1.26,0-2.4,0-3.58,0c0-1.22,0-2.36,0-3.54
				c1.23,0,2.37,0,3.58,0C10.47-4.21,10.47-3.11,10.47-1.86z"/>
			<path class="st1" d="M-7.05-3.68c0,0.84,0.02,1.67,0,2.51c-0.02,0.83,0.35,1.26,1.19,1.26c1.67,0,3.34,0,5.02,0
				C0,0.1,0.36-0.33,0.36-1.15c-0.01-1.67-0.01-3.34,0-5.02c0.01-0.86-0.45-1.2-1.25-1.2c-1.63,0-3.26,0-4.89,0
				c-0.88,0-1.3,0.41-1.27,1.31C-7.02-5.27-7.05-4.47-7.05-3.68z M-5.15-5.4c1.25,0,2.4,0,3.58,0c0,1.22,0,2.36,0,3.54
				c-1.23,0-2.37,0-3.58,0C-5.15-3.05-5.15-4.16-5.15-5.4z"/>
			<path class="st1" d="M-3.33-17.19c-0.84,0-1.67,0.01-2.51,0c-0.84-0.01-1.22,0.39-1.21,1.22c0.01,1.67,0.01,3.34,0,5.01
				c-0.01,0.77,0.35,1.19,1.11,1.2c1.71,0.02,3.43,0.01,5.14,0.01c0.85,0,1.17-0.49,1.16-1.29c-0.01-1.63-0.01-3.26,0-4.89
				c0.01-0.89-0.43-1.3-1.31-1.27C-1.74-17.18-2.53-17.19-3.33-17.19z M-5.16-15.26c1.25,0,2.4,0,3.59,0c0,1.23,0,2.37,0,3.56
				c-1.23,0-2.38,0-3.59,0C-5.16-12.89-5.16-14.01-5.16-15.26z"/>
			<path class="st1" d="M12.36-13.51c-0.04-4.17,0.53-3.65-3.66-3.68c-0.79-0.01-1.59,0.02-2.38-0.01c-0.95-0.04-1.4,0.38-1.39,1.33
				c0.01,1.63,0.02,3.26,0,4.89c-0.01,0.85,0.41,1.23,1.22,1.24c1.67,0.01,3.34,0,5.01,0c0.83,0,1.21-0.43,1.19-1.26
				C12.34-11.84,12.36-12.68,12.36-13.51z M6.86-15.16c1.26,0,2.45,0,3.59,0c0,1.25,0,2.33,0,3.47c-1.23,0-2.37,0-3.59,0
				C6.86-12.91,6.86-14.06,6.86-15.16z"/>
			<path class="st1" d="M-3.33-27.01c-0.88,0-1.78-0.12-2.62,0.05c-0.41,0.08-1.01,0.66-1.04,1.05c-0.11,1.7-0.04,3.42-0.06,5.13
				c-0.01,0.88,0.46,1.19,1.25,1.19c1.67,0,3.34,0,5.01-0.01c0.76,0,1.15-0.37,1.15-1.16c-0.01-1.67-0.01-3.34,0.01-5.01
				c0.01-0.9-0.43-1.28-1.32-1.25C-1.74-26.99-2.54-27.01-3.33-27.01C-3.33-27.01-3.33-27.01-3.33-27.01z M-1.59-25.11
				c0,1.24,0,2.41,0,3.57c-1.25,0-2.39,0-3.55,0c0-1.24,0-2.37,0-3.57C-3.91-25.11-2.77-25.11-1.59-25.11z"/>
			<path class="st1" d="M7.46-24.5c1.34,1.43,2.45,2.61,3.56,3.79c0.47,0.5,1.02,0.87,1.6,0.26c0.58-0.61,0.15-1.13-0.33-1.6
				c-1.3-1.29-2.61-2.58-3.89-3.89c-0.61-0.63-1.18-0.7-1.82-0.05c-0.61,0.63-1.31,1.18-1.82,1.88c-0.22,0.3-0.07,0.87-0.09,1.32
				c0.45-0.01,1.01,0.15,1.32-0.06C6.5-23.18,6.84-23.76,7.46-24.5z"/>
		</g>
		<rect x="-24.08" y="2.39" class="st2" width="18.59" height="2.06"/>
		<rect x="-24.08" y="-1.86" class="st2" width="1.83" height="11.46"/>
		<polygon class="st2" points="-22.25,-1.86 -22.25,-3.42 -24.08,-1.86 		"/>
		<rect x="-20.55" y="11.9" class="st2" width="4.45" height="1.65"/>
		<path class="st2" d="M-20.55,11.9c0,0-1.57-0.03-1.7-2.31h-1.83c0,0-0.38,3.96,3.53,3.96V11.9z"/>
		<path class="st2" d="M-19.05-4.84l1.83-0.53v2.8c0,0,0.22,0.89,1.16,0.81l1.65,0.01c0,0,0.85,0.15,0.85-0.81v-2.8l1.96-0.78
			l0.01,5.16c0,0-0.06,1.04-0.98,1.07h-5.36c0,0-1.05,0.16-1.09-0.91L-19.05-4.84z"/>
		<rect x="-12.47" y="11.9" class="st2" width="2.87" height="1.92"/>
		<polygon class="st2" points="-9.6,13.82 -8.51,11.8 -9.6,11.9 		"/>
		<rect x="-12.61" y="8.46" class="st2" width="1.79" height="8.12"/>
		<rect x="-17.77" y="8.67" class="st2" width="1.94" height="8.12"/>
		<path class="st2" d="M-15.88,16.79c0,0,0.09,0.42,1.44,0.32c0,0,1.49,0.14,1.58-0.39l2.04-0.07c0,0-0.08,1.96-1.85,2.3h-3.68
			c0,0-1.36-0.32-1.41-2.24L-15.88,16.79z"/>
		<path class="st2" d="M-15.84,8.98c0,0,0.27-0.48,1.67-0.48c0,0,1.55-0.2,1.55,0.57l1.79,0.05c0,0,0.15-0.97-0.34-1.53
			c0,0-0.8-1.41-4.57-0.82c0,0-2.03,0.24-2.03,1.89L-15.84,8.98z"/>
	</g>
</symbol>
<symbol  id="Nuevo_símbolo_1" viewBox="-47.69 -46.75 95.38 93.5">
	<g>
		<path class="st2" d="M30.08,35.33c10.37-8.35,17.02-21.12,17.11-35.45c0.15-24.9-19.88-45.54-44.77-46.11
			c-22.95-0.53-42.18,15.81-46.17,37.48c0,0,6.46,18.62,16.8,9.27c0,0,10.21-9.71,19.35-5.36c0,0,6.53,3.16-1.62,18.3
			c-0.59,1.09-0.91,2.31-0.87,3.55c0.03,1.01,0.1,1.77,1.08,3.07c0,0,3.75,4.39,12.31-1.3c0,0,6.23-3.64,9.52,0
			c0,0,4.39,4.79-0.08,12.99c0,0-3.28,5.62-0.04,8.61c0,0,4.68,4.72,14.95-3.5L30.08,35.33z"/>
		<g>
			<g>
				<path class="st0" d="M21.6,41.13c0.2-0.11,2.06-1.11,3.76-1.98c-0.69,0.7-1.29,1.46-1.79,2.21c-0.31,0.2-0.54,0.34-0.54,0.34
					c-0.25,0.14-0.49,0.27-0.73,0.4c-6.98,3.86-11.09,5.94-14.43,3.77c-3.46-2.24-2.4-5.55-0.38-10.77c0.36-0.93,1.6-4.92,1.63-4.85
					c0.59-2.51,0.53-4.85-1.4-6.19c-0.03-0.02-0.05-0.04-0.08-0.05c-1.67-1.08-10.96,0.81-11.17,0.85
					c-4.52,0.87-7.2,3.01-11.02,0.54c-2.85-1.85-0.55-8.77-0.47-8.76c0.14-0.32,4.7-11.26,1-13.65c-3.24-2.1-14.37,3.35-14.98,3.49
					c-0.31,0.17-1.75,0.96-2,1.1c-6.98,3.86-11.09,5.94-14.43,3.77c-3.46-2.24-2.4-5.55-0.38-10.77c0.28-0.72,1.7-4.74,1.72-5.12
					c0-0.06,0-0.12,0-0.19c0.06-0.29,0.11-0.58,0.15-0.87c0.25-1.13,0.34-2.34,0.3-3.6c1.27,1.78,1.11,4,0.28,6.76
					c0.01,0,0.01,0,0.02,0c-0.02,0.04-0.46,1.42-0.48,1.5c-0.01,0.03-0.24,0.6-0.33,0.85c-0.04,0.13-0.09,0.26-0.14,0.4
					c0-0.01,0-0.02,0-0.04c-0.12,0.32-0.25,0.65-0.38,0.98c-1.39,3.6-3.12,8.07-0.48,9.78c2.3,1.49,7.43-1.12,11.9-3.58l1.56-0.86
					c0.32-0.17,13.63-6.72,17.95-3.92c4.93,3.19-0.24,14.5-0.5,15.4c-0.11,0.37-1.73,5.92-0.03,7.02c2.56,1.66,8.68-0.98,9.53-1.06
					c0.23-0.09,9.24-2.54,12.68-0.31c0.05,0.04,0.11,0.07,0.16,0.11c2.87,1.99,2.92,4.67,1.84,8.26c0.03,0-0.27,0.85-0.36,1.12
					c0.01,0.35-0.82,2.25-0.95,2.58c-0.13,0.33-2.55,8.43-0.48,9.78C10.45,47.06,21.32,41.2,21.6,41.13z"/>
			</g>
			<g>
				<path class="st0" d="M16.34,44.51c-0.24,0.19-0.5,0.44-0.75,0.71c-1.3,0-2.52-0.37-3.82-1.28c-3.34-2.33-3.33-4.82-3.05-8.68
					c0.05-0.69,0.03-3.69,0.07-3.63c-0.16-1.92-0.81-3.8-2.7-5.17c-0.03-0.02-0.05-0.04-0.08-0.05c-1.62-1.13-8.57-1.07-8.73-1.07
					c-3.39-0.01-5,1.28-8.68-1.29c-2.75-1.93-2.67-7.1-2.61-7.09c0.03-0.24,0.9-8.28-2.67-10.77c-3.13-2.19-10.65,0.44-11.1,0.45
					c-0.2,0.08-1.16,0.5-1.32,0.57c-4.6,2-7.37,3.02-10.59,0.76c-3.34-2.33-3.33-4.82-3.05-8.68c0.04-0.53,0.15-3.53,0.08-3.83
					c-0.01-0.05-0.03-0.1-0.05-0.15c-0.03-0.22-0.06-0.45-0.1-0.67c-0.09-0.87-0.33-1.82-0.67-2.83c1.47,1.62,1.91,3.37,1.95,5.45
					c0,0,0.01,0,0.01,0c-0.01,0.03-0.01,1.07,0,1.12c0,0.02-0.04,0.44-0.05,0.63c0,0.09-0.01,0.19-0.01,0.3
					c0-0.01-0.01-0.02-0.01-0.03C-41.6-0.49-41.61-0.24-41.63,0c-0.2,2.66-0.44,5.97,2.1,7.75c2.22,1.55,5.66,0.26,8.61-1l1.03-0.44
					c0.21-0.09,9.2-3.24,13.37-0.33c4.76,3.33,3.5,11.57,3.52,12.25c0.01,0.28,0.12,4.47,1.76,5.61c2.47,1.73,6.7,0.57,7.36,0.64
					c0.16-0.04,6.75-0.59,10.07,1.74c0.05,0.04,0.11,0.08,0.16,0.11c2.81,2.04,3.53,4.19,3.58,6.9c0.02,0.01,0,0.64,0,0.84
					c0.1,0.28-0.08,1.67-0.1,1.92c-0.02,0.25,0.1,6.35,2.1,7.75c1.17,0.82,3.73,0.37,5.92-0.23C17.31,43.82,16.8,44.15,16.34,44.51z
					"/>
			</g>
			<path class="st0" d="M23.57,41.36c0,0,7.83-6.51,10.89-10.05l-7.07,4.2c0,0-5.14,5.57-9.34,7.34"/>
			<path class="st0" d="M-45.82,0.57c0,0,0.76-6.38,3.28-15.02l1.67,5.25l-2.6,4.23l-1.99,5.54"/>
		</g>
	</g>
	<g>
		<g>
			<path class="st3" d="M11.75-13.29v5.76l4.46-3.75l4.93,7.2C31.79-3.7,31.4-10.77,31.4-10.77v-5.57h1.92v7.19
				c-0.2,6.69-12.66,7.19-12.66,7.19c-3.24,0.3-3.47,4.93-3.47,4.93l-1.3,0l-0.41-1.36c0.13-0.87,0.39-1.61,0.73-2.24l0,0
				l-5.39-3.46L6.2-0.94L2.52-6.67l3.22-4.41l4.18,3.85v-6.06L11.75-13.29z M5.41-2.67l3.9-2.83L5.87-8.48l-2.15,3.2 M12.15-5.4
				l4.72,3.8c0.86-1.06,1.93-1.69,2.75-2.05l-3.42-5.09L12.15-5.4z"/>
			<path class="st3" d="M5.85-11.7c-3.24,0.3-3.47,4.93-3.47,4.93L0.44-7.31l0.22-0.82C0.79-9,1.06-9.74,1.4-10.37l0,0l-5.39-3.46
				l-5.08,3.46l0,0C-8.73-9.74-8.47-9-8.34-8.13l0.24,0.89l-1.95,0.47c0,0-0.23-4.63-3.47-4.93c0,0-12.46-0.51-12.66-7.19v-7.19
				h1.92v5.57c0,0-0.39,6.98,10.07,6.7l5.12-7l4.18,3.85v-9.12h1.82v8.81l4.46-3.75l4.93,7.2c10.66,0.38,10.27-6.69,10.27-6.69
				v-5.57h1.92v7.19C18.31-12.21,5.85-11.7,5.85-11.7z M-8.94-18.23l-3.32,4.93c0.64,0.3,1.39,0.77,2.08,1.45l4.69-3.4L-8.94-18.23z
				 M-2.66-15.14l4.72,3.8c0.86-1.06,1.93-1.69,2.75-2.05l-3.42-5.09L-2.66-15.14z"/>
			<path class="st3" d="M-3.99,15.56c-6.21,0-11.25-5.04-11.25-11.25S-10.2-9.61-3.99-9.61S7.26-1.9,7.26,4.31
				S2.22,15.56-3.99,15.56z M-3.99-8.18c-5.51,0-9.97,6.84-9.97,12.34c0,5.51,4.46,9.97,9.97,9.97s9.97-4.46,9.97-9.97
				C5.98-1.35,1.52-8.18-3.99-8.18z"/>
			<path class="st3" d="M10.02,23.88c-5.56,0-10.18-4.04-11.08-9.34c0.51-0.01,0.93-0.15,1.27-0.37c0.8,4.7,4.89,8.28,9.82,8.28
				c5.51,0,9.97-4.46,9.97-9.97c0-5.51-4.46-12.34-9.97-12.34c-1.32,0-2.58,0.39-3.73,1.06C6.19,0.75,5.96,0.34,5.67,0
				c1.34-0.81,2.81-1.29,4.35-1.29c6.21,0,11.25,7.71,11.25,13.93S16.23,23.88,10.02,23.88z"/>
		</g>
		<path class="st2" d="M-9.53,14.1l0.63-1.26c0,0-4.18-2.04-4.96-7.24c0,0-1.08-5.88,3.91-10.96l-1.48-0.27
			c0,0-4.79,4.73-3.63,11.94C-15.06,6.31-14.35,11.52-9.53,14.1z"/>
		<path class="st2" d="M14.42,22.99l-0.36-1.39c0,0-6.11,3.15-11.28-2.28l-1.18,0.76C1.59,20.07,6.99,26.09,14.42,22.99z"/>
	</g>
</symbol>
<symbol  id="Nuevo_símbolo_2" viewBox="-47.38 -46.44 94.76 92.88">
	<g>
		<path class="st4" d="M30.3,35.03c10.35-8.34,17-21.09,17.08-35.4c0.15-24.87-19.85-45.48-44.71-46.05
			C-20.25-46.95-39.46-30.64-43.45-9c0,0,6.45,18.59,16.78,9.26c0,0,10.2-9.7,19.33-5.35c0,0,6.52,3.16-1.61,18.27
			c-0.59,1.09-0.91,2.31-0.87,3.55c0.03,1.01,0.1,1.77,1.08,3.07c0,0,3.75,4.38,12.29-1.3c0,0,6.23-3.63,9.5,0
			c0,0,4.38,4.78-0.08,12.97c0,0-3.28,5.61-0.04,8.6c0,0,4.68,4.72,14.93-3.5L30.3,35.03z"/>
		<g>
			<g>
				<path class="st4" d="M21.83,40.83c0.2-0.11,2.06-1.1,3.76-1.98c-0.68,0.7-1.28,1.46-1.79,2.21c-0.31,0.2-0.54,0.34-0.54,0.34
					c-0.25,0.14-0.49,0.27-0.73,0.4c-6.97,3.85-11.08,5.93-14.41,3.77c-3.45-2.24-2.39-5.55-0.38-10.76
					c0.36-0.93,1.6-4.92,1.63-4.84c0.59-2.51,0.53-4.84-1.4-6.18c-0.03-0.02-0.05-0.04-0.08-0.05c-1.67-1.08-10.95,0.8-11.16,0.85
					c-4.51,0.87-7.19,3.01-11,0.54c-2.85-1.85-0.55-8.75-0.47-8.75c0.14-0.32,4.69-11.24,1-13.63C-17,0.63-28.12,6.08-28.72,6.21
					c-0.3,0.17-1.75,0.96-1.99,1.1c-6.97,3.85-11.08,5.93-14.41,3.77c-3.45-2.24-2.39-5.55-0.38-10.76
					c0.28-0.72,1.69-4.74,1.72-5.11c0-0.06,0-0.12,0-0.19c0.06-0.29,0.11-0.58,0.15-0.87c0.25-1.13,0.34-2.34,0.3-3.59
					c1.27,1.78,1.11,3.99,0.28,6.75c0.01,0,0.01,0,0.02,0c-0.02,0.04-0.46,1.42-0.48,1.5c-0.01,0.03-0.24,0.6-0.33,0.85
					c-0.04,0.13-0.09,0.26-0.14,0.4c0-0.01,0-0.02,0-0.04c-0.12,0.32-0.25,0.65-0.37,0.98c-1.39,3.59-3.11,8.06-0.48,9.76
					c2.3,1.49,7.42-1.12,11.88-3.57l1.56-0.86c0.32-0.17,13.61-6.71,17.93-3.91c4.92,3.19-0.24,14.48-0.5,15.38
					c-0.1,0.37-1.73,5.91-0.03,7.01c2.56,1.66,8.67-0.98,9.52-1.06c0.23-0.09,9.22-2.54,12.66-0.31c0.05,0.04,0.11,0.07,0.16,0.11
					c2.87,1.98,2.92,4.66,1.84,8.25c0.03,0-0.27,0.85-0.36,1.11c0.01,0.35-0.82,2.25-0.95,2.58c-0.13,0.33-2.55,8.42-0.48,9.76
					C10.68,46.74,21.55,40.89,21.83,40.83z"/>
			</g>
			<g>
				<path class="st4" d="M16.57,44.2c-0.24,0.19-0.5,0.44-0.75,0.71c-1.29,0-2.52-0.37-3.81-1.28c-3.33-2.33-3.33-4.81-3.04-8.67
					c0.05-0.69,0.03-3.68,0.07-3.62c-0.16-1.91-0.81-3.79-2.7-5.17c-0.03-0.02-0.05-0.04-0.08-0.05c-1.61-1.13-8.56-1.07-8.72-1.07
					c-3.39-0.01-4.99,1.28-8.67-1.29c-2.75-1.92-2.66-7.09-2.61-7.08c0.03-0.24,0.89-8.26-2.67-10.76
					c-3.12-2.18-10.64,0.44-11.09,0.45c-0.2,0.08-1.16,0.5-1.32,0.57c-4.6,1.99-7.36,3.01-10.58,0.76
					c-3.33-2.33-3.33-4.81-3.04-8.67c0.04-0.53,0.15-3.53,0.08-3.82c-0.01-0.05-0.03-0.1-0.05-0.15c-0.03-0.22-0.06-0.45-0.1-0.67
					c-0.09-0.87-0.33-1.82-0.67-2.83c1.47,1.62,1.9,3.37,1.94,5.45c0,0,0.01,0,0.01,0c-0.01,0.03-0.01,1.06,0,1.12
					c0,0.02-0.04,0.44-0.05,0.63c0,0.09-0.01,0.19-0.01,0.3c0-0.01-0.01-0.02-0.01-0.03c-0.01,0.24-0.03,0.48-0.05,0.73
					c-0.2,2.66-0.44,5.96,2.1,7.74c2.22,1.55,5.65,0.26,8.6-1l1.03-0.44c0.21-0.09,9.19-3.24,13.35-0.33
					c4.75,3.32,3.49,11.55,3.52,12.23c0.01,0.28,0.12,4.46,1.76,5.6c2.47,1.73,6.69,0.57,7.35,0.64c0.16-0.04,6.74-0.59,10.06,1.73
					c0.05,0.04,0.11,0.08,0.16,0.11c2.8,2.04,3.52,4.19,3.57,6.89c0.02,0.01,0,0.64,0,0.84c0.09,0.28-0.08,1.67-0.1,1.92
					c-0.02,0.25,0.1,6.34,2.1,7.74c1.17,0.82,3.73,0.37,5.91-0.23C17.54,43.51,17.02,43.84,16.57,44.2z"/>
			</g>
			<path class="st4" d="M23.79,41.06c0,0,7.82-6.5,10.87-10.03l-7.06,4.2c0,0-5.13,5.56-9.32,7.33"/>
			<path class="st4" d="M-45.51,0.32c0,0,0.76-6.37,3.28-15l1.67,5.24l-2.6,4.23l-1.99,5.53"/>
		</g>
	</g>
	<path class="st1" d="M-6.55,7.34C-7.8,6.44-8.92,5.35-9.9,4.07c-0.48-0.63-0.96-0.92-1.66-0.43c-2.33-2.5-3.69-9.69-2.87-15.04
		c0.63-0.12,0.92,0.05,0.89,0.78c-0.05,1.32,0.43,1.77,1.73,1.79c1.21,0.02,2.41,0.02,3.62,0c1.09-0.01,1.6-0.52,1.61-1.62
		c0.01-4.7,0.01-9.4,0-14.1c0-1.15-0.5-1.61-1.67-1.62c-1.18-0.01-2.36-0.01-3.54,0c-1.26,0-1.76,0.46-1.74,1.7
		c0.01,0.6-0.15,0.82-0.76,0.95c-2.04,0.45-3.39,2.16-3.45,4.28c-0.03,1.15-0.02,2.31,0,3.47c0.02,1.03,0.37,1.95,0.99,2.78
		c0.21,0.28,0.35,0.68,0.36,1.03c0.06,2.67,0,5.34,0.14,8c0.16,2.92,1.17,5.61,2.67,8.11c0.11,0.17,0.2,0.36,0.29,0.53
		c-0.73,0.99-0.74,1.09,0.03,2.06c1.55,1.94,3.28,3.52,5.19,4.75 M-8.08,11.49c3.19,2.06,6.87,3.14,11.03,3.24
		c3.51,0.08,6.98-0.09,10.29-1.45c3.47-1.43,6.39-3.57,8.7-6.54c0.79-1.01,0.78-1.05,0.01-2.07c1.44-2.27,2.5-4.72,2.83-7.4
		c0.23-1.88,0.2-3.79,0.27-5.68c0.03-0.74,0.03-1.49,0-2.23c-0.04-1.08,0.07-2.05,0.75-3.02c0.98-1.39,0.88-6.31,0.02-7.78
		c-0.69-1.17-1.72-1.87-3.04-2.16c-0.21-0.05-0.5-0.29-0.52-0.47c-0.27-2.03-0.28-2.05-2.28-2.12c-0.1,0-0.2-0.02-0.4-0.05
		c-0.01-0.29-0.04-0.59-0.04-0.88c-0.03-2.53-1.39-3.88-3.94-3.88c-2.29,0-4.57,0-6.86,0c-0.3,0-0.61,0-0.95,0
		c-0.04-0.28-0.02-0.53-0.12-0.71c-0.13-0.26-0.35-0.67-0.53-0.67c-1.14-0.01-2.31-0.08-3.4,0.19c-0.87,0.21-1.14,1.54-0.82,2.79
		c0.2,0.79,0.84,1.27,1.78,1.3c0.46,0.02,0.92,0.01,1.39,0.01c1.36-0.01,1.41-0.05,1.74-1.38c1.23,0,2.49,0,3.74,0
		c1.23,0,2.47,0,3.7,0c2.14,0,3,1.04,2.65,3.31c-0.28,0-0.58,0-0.88,0c-1.33,0.01-1.76,0.44-1.76,1.75c0,4.11,0,8.22,0,12.32
		c0,0.59-0.01,1.18,0.01,1.77c0.03,0.94,0.47,1.45,1.41,1.48c1.36,0.04,2.72,0.04,4.08,0c1.03-0.03,1.43-0.56,1.44-1.76
		c0.01-0.83,0.01-0.83,0.92-0.77c0.14,5.19,0.43,10.39-2.86,15.05c-0.74-0.51-1.2-0.22-1.7,0.41c-3.24,4.09-7.5,6.21-12.7,6.37
		c-2.33,0.07-4.67,0.09-6.96-0.53c-2.03-0.55-3.86-1.4-5.47-2.57 M-8.08-17.59c0,2.03-0.01,4.05,0,6.08c0,0.5-0.06,0.99-0.68,0.98
		c-0.56-0.01-0.66-0.48-0.66-0.95c0-4.1,0.01-8.21,0.01-12.31c0-0.47,0.09-0.92,0.69-0.9c0.59,0.02,0.64,0.47,0.64,0.94
		C-8.08-21.7-8.08-19.64-8.08-17.59z M18.12-17.72C18.11-17.72,18.11-17.72,18.12-17.72c0,2.08-0.01,4.15,0,6.23
		c0,0.48-0.06,0.94-0.63,0.96c-0.62,0.02-0.69-0.48-0.69-0.98c0-4.08,0-8.15,0-12.23c0-0.46,0.04-0.94,0.63-0.95
		c0.65-0.02,0.68,0.48,0.68,0.97C18.11-21.72,18.12-19.72,18.12-17.72z"/>
	<path class="st2" d="M-8.28,11.28c0,0,1.33-2.37,1.73-4.01c0,0-2.09-1.36-3.62-3.55c0,0-0.59-0.84-1.46-0.2c0,0-2.11-1.4-3.04-9.67
		l-1.72,0.52c0,0-0.19,4.86,3.03,10.19c0,0-1.11,0.73,0.03,2.06C-13.34,6.62-10.56,9.99-8.28,11.28z"/>
</symbol>
<g id="Capa_1" class="st5">
	
		<use xlink:href="#Nuevo_símbolo_2"  width="94.76" height="92.88" x="-47.38" y="-46.44" transform="matrix(8.4688 0 0 -8.4688 540 540)" style="display:inline;overflow:visible;"/>
</g>
<g id="Capa_2" class="st5">
	
		<use xlink:href="#Nuevo_símbolo"  width="97.08" height="95.16" x="-48.54" y="-47.58" transform="matrix(8.4688 0 0 -8.4688 540 540)" style="display:inline;overflow:visible;"/>
</g>
<g id="Capa_3">
	
		<use xlink:href="#Nuevo_símbolo_1"  width="95.38" height="93.5" x="-47.69" y="-46.75" transform="matrix(8.4688 0 0 -8.4688 540 540)" style="overflow:visible;"/>
</g>
<g id="Capa_4">
</g>
</svg>
