<?xml version="1.0" encoding="utf-8"?>
<!-- Generator: Adobe Illustrator 27.1.0, SVG Export Plug-In . SVG Version: 6.00 Build 0)  -->
<svg version="1.1" id="Capa_1" xmlns="http://www.w3.org/2000/svg" xmlns:xlink="http://www.w3.org/1999/xlink" x="0px" y="0px"
	 viewBox="0 0 610.47 1080" style="enable-background:new 0 0 610.47 1080;" xml:space="preserve">
<style type="text/css">
	.st0{opacity:0.4;fill:#303030;stroke:#303030;stroke-miterlimit:10;}
	.st1{fill:url(#SVGID_1_);}
	.st2{fill:url(#SVGID_00000124865756194822756410000008111424470238315195_);}
	.st3{fill:url(#SVGID_00000173133526647361520180000005575555826281801384_);}
	.st4{fill:url(#SVGID_00000059308251334802867440000005081788915318599575_);}
	.st5{fill:#A8E274;}
	.st6{fill:#6DC729;}
	.st7{fill:url(#SVGID_00000066511540364464412580000014496867382931577987_);}
	.st8{fill:url(#SVGID_00000109740257827565820170000012202800456308566186_);}
	.st9{fill:#38556B;}
	.st10{fill:none;stroke:#38556B;stroke-width:3;stroke-linecap:round;stroke-linejoin:round;stroke-miterlimit:10;}
	.st11{fill:url(#SVGID_00000161620811237206034600000017876251666699770008_);}
	.st12{fill:url(#SVGID_00000144304625721520229570000015648090581726480260_);}
	
		.st13{clip-path:url(#SVGID_00000046335846436266541990000013037066648427492000_);fill:url(#SVGID_00000183960493170745402160000009618379903134227391_);}
	
		.st14{clip-path:url(#SVGID_00000046335846436266541990000013037066648427492000_);fill:none;stroke:#38556B;stroke-width:3;stroke-linecap:round;stroke-linejoin:round;stroke-miterlimit:10;}
	.st15{clip-path:url(#SVGID_00000046335846436266541990000013037066648427492000_);fill:#FFFFFF;}
	.st16{clip-path:url(#SVGID_00000153693111464355532400000011337942916431617960_);}
	.st17{fill:none;stroke:#913F94;stroke-width:3;stroke-linecap:round;stroke-linejoin:round;stroke-miterlimit:10;}
	.st18{fill:#6DC729;stroke:#6DC729;stroke-miterlimit:10;}
</style>
<symbol  id="Nuevo_símbolo_2" viewBox="-226.5 -399.55 453 799.1">
	<ellipse class="st0" cx="-5" cy="-333.55" rx="221" ry="65.5"/>
	<g>
		
			<linearGradient id="SVGID_1_" gradientUnits="userSpaceOnUse" x1="-2046.803" y1="-12079.041" x2="-1909.9983" y2="-11933.3838" gradientTransform="matrix(0.6877 -0.726 0.726 0.6877 10102.2148 6582.6953)">
			<stop  offset="0" style="stop-color:#B3B3B3"/>
			<stop  offset="1" style="stop-color:#F2F2F2"/>
		</linearGradient>
		<path class="st1" d="M-13-165.89c0,0-39.05-25.46-61.26-55.4c0,0-14.39-15.03,27.35-53.92c0,0,40.77-48.84,54.61-28.7l58.29,58.4
			C65.99-245.51,53.44-171.12-13-165.89z"/>
	</g>
	
		<linearGradient id="SVGID_00000037660434352708557890000017075328250399314615_" gradientUnits="userSpaceOnUse" x1="-83.8543" y1="-257.1485" x2="14.2868" y2="-257.1485">
		<stop  offset="0" style="stop-color:#273C4E"/>
		<stop  offset="1" style="stop-color:#913F94"/>
	</linearGradient>
	<path style="fill:url(#SVGID_00000037660434352708557890000017075328250399314615_);" d="M-80.45-223.62
		c0,0-15.61-15.65,19.99-47.25c0,0,42.53-42.16,60.12-39.85c2.22,0.29,9.76,7.82,9.76,7.82c2.88,2.98,4.87,5.54,4.87,5.54
		c-25.7-8.88-73.71,93.88-73.71,93.88l-10.24-9.26L-80.45-223.62z"/>
	<g>
		
			<linearGradient id="SVGID_00000169532623623810780730000017728852998407889032_" gradientUnits="userSpaceOnUse" x1="29.9364" y1="88.5445" x2="153.5699" y2="314.1225">
			<stop  offset="0" style="stop-color:#B3B3B3"/>
			<stop  offset="1" style="stop-color:#F2F2F2"/>
		</linearGradient>
		<path style="fill:url(#SVGID_00000169532623623810780730000017728852998407889032_);" d="M98.62,61.41h-11.3
			c-65.88,0-119.28,53.4-119.28,119.28v45.72c0,65.88,53.4,119.28,119.28,119.28h11.3c65.88,0,119.28-53.4,119.28-119.28v-45.72
			C217.9,114.82,164.49,61.41,98.62,61.41z"/>
	</g>
	
		<linearGradient id="SVGID_00000113355295313052906060000013170484776298037406_" gradientUnits="userSpaceOnUse" x1="32.9592" y1="-144.9482" x2="193.5524" y2="26.0363">
		<stop  offset="0" style="stop-color:#B3B3B3"/>
		<stop  offset="1" style="stop-color:#F2F2F2"/>
	</linearGradient>
	<path style="fill:url(#SVGID_00000113355295313052906060000013170484776298037406_);" d="M165.39,83.49c0,0,135.93-263.62,0-315.3
		H37.79c-169.69,55.66-17.24,315.3-17.24,315.3"/>
	<ellipse class="st5" cx="91.93" cy="204.05" rx="61.42" ry="72.06"/>
	<ellipse class="st6" cx="91.41" cy="203.73" rx="46.44" ry="54.49"/>
	<ellipse class="st5" cx="91.41" cy="203.57" rx="31.33" ry="36.76"/>
	<g>
		
			<linearGradient id="SVGID_00000071560223465402142730000010509727728032439709_" gradientUnits="userSpaceOnUse" x1="41.4912" y1="-343.258" x2="166.9156" y2="-209.718">
			<stop  offset="0" style="stop-color:#B3B3B3"/>
			<stop  offset="1" style="stop-color:#F2F2F2"/>
		</linearGradient>
		<path style="fill:url(#SVGID_00000071560223465402142730000010509727728032439709_);" d="M24.91-222.87c0,0-9.65-57.4,0-103.74
			c0,0,1.98-26.16,77.02-23.33c0,0,83.92-6.86,76.46,23.33l-5.57,103.74C172.82-222.87,88.87-168.2,24.91-222.87z"/>
	</g>
	
		<linearGradient id="SVGID_00000157999024340040923240000017285363099573322149_" gradientUnits="userSpaceOnUse" x1="20.6151" y1="-328.072" x2="179.0598" y2="-328.072">
		<stop  offset="0" style="stop-color:#273C4E"/>
		<stop  offset="1" style="stop-color:#913F94"/>
	</linearGradient>
	<path style="fill:url(#SVGID_00000157999024340040923240000017285363099573322149_);" d="M21.72-334.2c0,0,1.5-27.79,63.97-23.99
		c0,0,78.94,0.63,92.25,18.38c1.68,2.24,0.98,15.64,0.98,15.64c-0.37,5.21-1.11,9.25-1.11,9.25
		c-14.07-30.8-157.19,17.34-157.19,17.34v-17.34L21.72-334.2z"/>
	<path class="st9" d="M118.53,344.19l-11.3,26.47H83.25l-9.74-24.31l-0.91-1.23C72.59,345.11,94.13,349.64,118.53,344.19z"/>
	<ellipse class="st10" cx="95.05" cy="373.52" rx="12.49" ry="11.93"/>
	<g>
		
			<linearGradient id="SVGID_00000129907879120957162630000015908943661632827817_" gradientUnits="userSpaceOnUse" x1="4.8665" y1="-237.985" x2="148.6488" y2="-85.104">
			<stop  offset="0" style="stop-color:#B3B3B3"/>
			<stop  offset="1" style="stop-color:#F2F2F2"/>
		</linearGradient>
		<path style="fill:url(#SVGID_00000129907879120957162630000015908943661632827817_);" d="M-42.37-109.14c0,0,122-35.37,268.17,0
			c0,0,10.81-93.19-52.68-119.36l-0.3,5.63c0,0-83.76,55.66-147.91,0l-0.58-3.82C24.33-226.69-46.54-206.13-42.37-109.14z"/>
	</g>
	<g>
		
			<linearGradient id="SVGID_00000024696479754172851330000009498906405528548993_" gradientUnits="userSpaceOnUse" x1="24.2854" y1="-42.9413" x2="171.57" y2="-42.9413">
			<stop  offset="0" style="stop-color:#B3B3B3"/>
			<stop  offset="1" style="stop-color:#F2F2F2"/>
		</linearGradient>
		<path style="fill:url(#SVGID_00000024696479754172851330000009498906405528548993_);" d="M57.81,83.49L25.55-112.87
			c0,0-17.42-57.56,77.11-55.95c0,0,85.74-10.47,65.95,59.68L135.04,83.49H57.81z"/>
	</g>
	<path class="st6" d="M26.16-108.24l5.86,41.92c0,0,63.65-18.35,130.49,0l6.1-41.92C168.61-108.24,93.65-121.77,26.16-108.24z"/>
	<path class="st6" d="M47.78,22.46c0,0,61.06-9.49,97.89,0l4.63-30.95c0,0-48.16-13.8-106.88,0L47.78,22.46z"/>
	<path class="st10" d="M117.36,392.09c0,0,13.2-16.34,0-29.54"/>
	<path class="st10" d="M129.34,398.05c0,0,13.2-23,0-41.58"/>
	<path class="st10" d="M72.2,362.1c0,0-13.2,16.34,0,29.54"/>
	<path class="st10" d="M60.22,356.14c0,0-13.2,23,0,41.58"/>
	<g>
		<defs>
			<path id="SVGID_00000137100327757025312320000004488292714970872964_" d="M-24.26,268.65c0,0-30.68-75.99,9.29-149.34
				c0,0,58.54,31.85,39.25,94.75C24.29,214.05,6.49,275.35-24.26,268.65z"/>
		</defs>
		<clipPath id="SVGID_00000120538249558648959390000000213504711960253060_">
			<use xlink:href="#SVGID_00000137100327757025312320000004488292714970872964_"  style="overflow:visible;"/>
		</clipPath>
		
			<linearGradient id="SVGID_00000104684765151936948150000003758836265468906645_" gradientUnits="userSpaceOnUse" x1="-63.6613" y1="195.4159" x2="2.9985" y2="195.4159">
			<stop  offset="0" style="stop-color:#273C4E"/>
			<stop  offset="1" style="stop-color:#913F94"/>
		</linearGradient>
		
			<path style="clip-path:url(#SVGID_00000120538249558648959390000000213504711960253060_);fill:url(#SVGID_00000104684765151936948150000003758836265468906645_);" d="
			M2.34,200.05c3.63-25.58-8.06-48.39-26.11-50.95c-18.04-2.56-35.61,16.11-39.23,41.69c-3.63,25.58,8.06,48.39,26.11,50.95
			C-18.85,244.29-1.29,225.63,2.34,200.05z"/>
		
			<ellipse transform="matrix(0.9901 -0.1403 0.1403 0.9901 -27.7124 -2.2852)" style="clip-path:url(#SVGID_00000120538249558648959390000000213504711960253060_);fill:none;stroke:#38556B;stroke-width:3;stroke-linecap:round;stroke-linejoin:round;stroke-miterlimit:10;" cx="-30.06" cy="195.38" rx="42.58" ry="60.36"/>
		
			<ellipse transform="matrix(0.866 -0.5 0.5 0.866 -113.0841 19.9783)" style="clip-path:url(#SVGID_00000120538249558648959390000000213504711960253060_);fill:#FFFFFF;" cx="-19.26" cy="221.01" rx="7.85" ry="16.69"/>
	</g>
	<g>
		<defs>
			<path id="SVGID_00000124149540226527392570000001760023040975227776_" d="M8.73,61.41c0,0-47.67-94.44-50.2-156.95l63.86,29.22
				l15.91,94.7L8.73,61.41z"/>
		</defs>
		<clipPath id="SVGID_00000066512056667175903230000003180252501719595180_">
			<use xlink:href="#SVGID_00000124149540226527392570000001760023040975227776_"  style="overflow:visible;"/>
		</clipPath>
		<g style="clip-path:url(#SVGID_00000066512056667175903230000003180252501719595180_);">
			<g>
				<path class="st17" d="M16.75,3.45C13.42,16.82,3.14,28.03-11.1,31.88c-14.16,3.83-28.61-0.6-38.22-10.35"/>
				<path class="st17" d="M-59.63-14.07l0.03-0.71c3.15-13.66,13.53-25.18,28.01-29.1c14.74-3.99,29.79,0.98,39.38,11.58"/>
				<path class="st17" d="M16.51-34.67C5.18-49.63-14.5-57.03-33.74-51.83c-19.24,5.2-32.5,21.51-34.75,40.15"/>
				<path class="st17" d="M-58.34,23.76c11.46,14.22,30.63,21.13,49.39,16.06C9.81,34.75,22.89,19.11,25.61,1.06"/>
			</g>
			<g>
				<path class="st18" d="M2.39-12.97c-0.26-3.98-0.38-7.31-0.13-9.83c0.29-0.4,0.58-0.78,0.89-1.15c-0.1,1.11-0.17,2.23-0.22,3.32
					c-0.11,2.28-0.01,4.54,0.16,6.82c0.09,1.18,0.14,2.4,0.33,3.58C3.96-2.35,4.08,2.15,1.73,2.79C-0.8,3.47-2.74-0.1-5.7-5.99
					c-0.53-1.05-1.08-2.15-1.66-3.22c-0.68,0.89-1.66,1.69-3.45,2.19c-0.03,0.01-0.06,0.02-0.1,0.03c-1.98,0.54-3.86,0.26-4.95-0.02
					c0,0.2,0,0.4,0,0.6c-0.02,4.05-0.05,7.87-2.84,8.63c-2.08,0.56-3.71-2.05-5.88-6.58c-0.64,1.45-1.49,3.03-4.71,3.9
					c-2.83,0.77-4.74-0.02-6.36-0.99c0.02,0.3,0.04,0.59,0.06,0.88c0.59,8.43,0.81,13.22-1.63,13.89c-2.53,0.68-4.47-2.89-7.43-8.77
					c-0.53-1.05-1.08-2.15-1.66-3.22c-0.01,0.02-0.03,0.03-0.04,0.05c-0.06-0.11-0.11-0.22-0.17-0.32c0.01-0.02,0.03-0.03,0.04-0.05
					c-0.14-0.26-0.28-0.51-0.42-0.76c-0.03-0.03-0.06-0.05-0.08-0.08c-0.39-0.77-0.86-1.68-1.45-2.4c-0.9-1.29-1.82-2.25-2.7-2.58
					c-0.12-0.21-0.24-0.42-0.35-0.63c1.91,0.05,3.59,2.19,5.51,5.63c0.09-0.16,0.18-0.33,0.27-0.49c0.73-1.36,1.48-2.76,3.89-3.41
					c2.2-0.59,3.71,0.27,5.27,1.27c-0.56-8.58-0.5-14.2,2.66-15.05c3.67-0.99,6.31,4.67,9.09,10.67c0.16,0.34,0.32,0.69,0.49,1.04
					c0.51-0.91,1.25-1.69,2.89-2.13c2.34-0.63,3.64-0.21,4.73,0.24c0.19-2.71,0.89-7.55,3.4-8.23c0.04-0.01,0.08-0.02,0.12-0.03
					c2.19-0.46,4.02,1.75,6.15,5.58c0.09-0.16,0.18-0.33,0.27-0.49c0.73-1.36,1.48-2.76,3.89-3.41
					C-0.69-14.84,0.83-13.97,2.39-12.97z M-43.86,4.28c2.04,4.05,4.58,9.1,6.5,8.58c1.68-0.45,1.39-6.46,1.03-11.84
					c-0.42,2.48-1.07,4.42-2.9,4.91C-41.4,6.51-42.92,5-44.42,3.17C-44.24,3.53-44.05,3.9-43.86,4.28z M-36.64-2.06
					c-1.58-1.01-3.07-1.97-5.14-1.41c-2.17,0.59-2.85,1.85-3.56,3.19c-0.15,0.28-0.3,0.55-0.46,0.83c0.15,0.28,0.3,0.56,0.46,0.85
					c0.24,0.29,0.48,0.59,0.71,0.88c1.57,1.96,3.2,3.99,5.33,3.41c1.96-0.53,2.43-3.55,2.83-6.56c-0.03-0.38-0.05-0.76-0.08-1.13
					C-36.57-2.02-36.61-2.04-36.64-2.06z M-33.78-17.02c-2.37,0.64-2.42,6.46-2.09,12.36c0.55-2.59,1.54-4.78,3.96-5.43
					c2.6-0.7,4.29,0.59,5.73,2.35C-28.4-12.5-31.08-17.75-33.78-17.02z M-25.34-5.96c-1.69-2.37-3.47-4.72-6.5-3.9
					c-2.64,0.71-3.44,3.76-3.92,6.89c0.02,0.37,0.05,0.73,0.07,1.09c1.68,1.05,3.51,1.94,6.33,1.18c3.17-0.86,3.85-2.43,4.5-3.95
					c0.02-0.05,0.05-0.1,0.07-0.16C-24.98-5.17-25.16-5.56-25.34-5.96z M-18.83,1.75c1.87-0.51,2.09-3.88,2.12-6.96
					c-0.51,1.36-1.32,2.55-3.18,3.05c-1.24,0.34-2.23-0.09-3.12-0.89C-21.58-0.25-20.07,2.08-18.83,1.75z M-16.81-7.35
					c-1.12-0.47-2.29-0.93-4.57-0.32c-1.64,0.44-2.27,1.28-2.76,2.29c0.17,0.35,0.33,0.71,0.5,1.06c1.08,1.36,2.22,2.31,3.68,1.92
					c2.05-0.56,2.69-2.16,3.17-3.82c0.01-0.25,0.02-0.61,0.04-1.05c-0.06-0.02-0.1-0.04-0.12-0.04L-16.81-7.35z M-13.14-15.43
					c-0.02,0-0.04,0.01-0.06,0.01c-1.38,0.37-2.23,3.5-2.58,6.54c0.71-1.27,1.85-2.71,3.5-3.16c0.03-0.01,0.07-0.02,0.1-0.03
					c1.44-0.35,2.61,0.04,3.65,0.79C-10.06-13.82-11.66-15.74-13.14-15.43z M-7.95-10.29c-1.19-1.17-2.52-1.94-4.18-1.54
					c-0.03,0.01-0.05,0.01-0.08,0.02c-1.87,0.51-3.07,2.59-3.66,3.93c-0.01,0.1-0.02,0.2-0.02,0.3c0.01,0,0.02-0.01,0.04-0.01
					c0,0.09,0,0.18,0,0.26c1,0.27,2.92,0.63,4.89,0.09c0.03-0.01,0.06-0.02,0.09-0.02C-9.1-7.75-8.18-8.6-7.53-9.53
					C-7.67-9.79-7.81-10.04-7.95-10.29z M-4.9-6.26c2.04,4.05,4.58,9.1,6.5,8.58C3.28,1.86,2.99-4.14,2.63-9.52
					c-0.42,2.48-1.07,4.42-2.9,4.91c-2.17,0.59-3.68-0.92-5.19-2.75C-5.28-7.01-5.09-6.64-4.9-6.26z M-6.38-10.82
					c-0.15,0.28-0.3,0.55-0.46,0.83c0.15,0.28,0.3,0.56,0.46,0.85c0.24,0.29,0.48,0.59,0.71,0.88c1.57,1.96,3.2,3.99,5.33,3.41
					C1.62-5.38,2.09-8.4,2.49-11.4c-0.03-0.38-0.05-0.76-0.08-1.13c-0.03-0.02-0.07-0.04-0.1-0.06c-1.58-1.02-3.07-1.97-5.14-1.41
					C-4.98-13.42-5.66-12.16-6.38-10.82z"/>
			</g>
		</g>
	</g>
</symbol>
<use xlink:href="#Nuevo_símbolo_2"  width="453" height="799.1" id="XMLID_00000156589648214267278100000004741195358048234132_" x="-226.5" y="-399.55" transform="matrix(-1.3411 0 0 -1.3519 307.274 539.668)" style="overflow:visible;"/>
</svg>
