<?xml version="1.0" encoding="utf-8"?>
<!-- Generator: Adobe Illustrator 27.1.0, SVG Export Plug-In . SVG Version: 6.00 Build 0)  -->
<svg version="1.1" id="Capa_1" xmlns="http://www.w3.org/2000/svg" xmlns:xlink="http://www.w3.org/1999/xlink" x="0px" y="0px"
	 viewBox="0 0 3565.58 668.69" style="enable-background:new 0 0 3565.58 668.69;" xml:space="preserve">
<style type="text/css">
	.st0{fill:#FFFFFF;}
</style>
<g>
	<g>
		<path class="st0" d="M678.57,153.21c0-72.86,0-86.28-0.96-101.62c-0.96-16.3-4.79-23.97-20.61-27.32
			c-3.83-0.96-11.98-1.44-18.69-1.44c-5.27,0-8.15-0.96-8.15-4.31c0-3.36,3.36-4.31,10.54-4.31c25.4,0,55.6,1.44,69.02,1.44
			c19.65,0,47.45-1.44,69.51-1.44c59.92,0,81.49,20.13,89.16,27.32c10.55,10.07,23.97,31.63,23.97,57.04
			c0,68.07-49.85,116-117.92,116c-2.4,0-7.67,0-10.07-0.48c-2.4-0.48-5.75-0.96-5.75-4.31c0-3.83,3.35-5.27,13.42-5.27
			c26.84,0,64.23-30.2,64.23-79.09c0-15.82-1.44-47.93-28.28-71.9c-17.26-15.82-36.91-18.69-47.93-18.69
			c-7.19,0-14.38,0.48-18.69,1.92c-2.4,0.96-3.83,3.84-3.83,9.11v191.74c0,44.1,0,81.97,2.4,102.58
			c1.44,13.42,4.31,23.96,18.69,25.88c6.71,0.96,17.26,1.92,24.45,1.92c5.27,0,7.67,1.44,7.67,3.84c0,3.35-3.83,4.79-9.11,4.79
			c-31.64,0-61.84-1.44-74.3-1.44c-11.02,0-41.22,1.44-60.4,1.44c-6.23,0-9.59-1.44-9.59-4.79c0-2.4,1.92-3.84,7.67-3.84
			c7.19,0,12.94-0.96,17.26-1.92c9.59-1.92,11.98-12.46,13.9-26.36c2.4-20.13,2.4-58,2.4-102.1V153.21z"/>
		<path class="st0" d="M970.94,153.21c0-72.86,0-86.28-0.96-101.62c-0.96-16.3-4.79-23.97-20.61-27.32
			c-3.83-0.96-11.98-1.44-18.69-1.44c-5.27,0-8.15-0.96-8.15-4.31c0-3.36,3.36-4.31,10.54-4.31c25.4,0,55.6,1.44,65.67,1.44
			c16.3,0,52.73-1.44,67.59-1.44c30.2,0,62.31,2.87,88.2,20.61c13.42,9.11,32.6,33.55,32.6,65.67c0,35.47-14.86,68.07-63.27,107.37
			c42.66,53.69,75.73,96.35,104.02,126.07c26.84,27.8,46.5,31.16,53.69,32.6c5.27,0.96,9.59,1.44,13.42,1.44
			c3.84,0,5.75,1.44,5.75,3.84c0,3.84-3.35,4.79-9.11,4.79h-45.54c-26.84,0-38.83-2.39-51.29-9.11
			c-20.61-11.02-38.83-33.55-65.67-70.46c-19.17-26.36-41.22-58.96-47.45-66.15c-2.4-2.87-5.27-3.36-8.63-3.36l-41.7-0.96
			c-2.4,0-3.84,0.96-3.84,3.84v6.71c0,44.58,0,82.45,2.4,102.58c1.44,13.9,4.31,24.44,18.69,26.36c7.19,0.96,17.73,1.92,23.49,1.92
			c3.84,0,5.75,1.44,5.75,3.84c0,3.35-3.36,4.79-9.58,4.79c-27.8,0-63.27-1.44-70.47-1.44c-9.11,0-39.31,1.44-58.48,1.44
			c-6.23,0-9.59-1.44-9.59-4.79c0-2.4,1.92-3.84,7.67-3.84c7.19,0,12.94-0.96,17.26-1.92c9.59-1.92,11.98-12.46,13.9-26.36
			c2.4-20.13,2.4-58,2.4-102.1V153.21z M1027.5,191.08c0,5.27,0.96,7.19,4.31,8.63c10.07,3.36,24.45,4.79,36.43,4.79
			c19.17,0,25.4-1.92,34.03-8.15c14.38-10.55,28.28-32.6,28.28-71.9c0-68.07-45.06-87.72-73.34-87.72
			c-11.98,0-20.61,0.48-25.41,1.92c-3.36,0.96-4.31,2.88-4.31,6.71V191.08z"/>
		<path class="st0" d="M1270.03,195.39c0-81.97,54.16-187.9,197.97-187.9c119.36,0,193.65,69.51,193.65,179.27
			s-76.69,196.53-198.45,196.53C1325.63,383.29,1270.03,280.24,1270.03,195.39z M1594.54,204.5c0-107.37-61.83-174-140.44-174
			c-55.12,0-117.92,30.68-117.92,150.03c0,99.7,55.13,178.79,147.16,178.79C1516.88,359.33,1594.54,343.03,1594.54,204.5z"/>
		<path class="st0" d="M1806.37,237.57c0,46.02,0,81.97,2.4,102.1c1.44,13.9,4.31,24.44,18.69,26.36
			c6.71,0.96,17.25,1.92,23.96,1.92c6.24,0,8.15,1.44,8.15,3.84c0,3.35-3.36,4.79-10.55,4.79c-30.2,0-60.4-1.44-72.86-1.44
			c-12.46,0-42.66,1.44-60.87,1.44c-6.71,0-10.07-0.96-10.07-4.79c0-2.4,1.91-3.84,7.19-3.84c7.19,0,12.94-0.96,17.26-1.92
			c9.59-1.92,11.98-12.46,13.9-26.36c2.4-20.13,2.4-56.08,2.4-102.1v-84.36c0-72.86,0-86.28-0.96-101.62
			c-0.96-16.3-4.79-23.97-20.61-27.32c-3.83-0.96-11.98-1.44-18.69-1.44c-4.79,0-8.15-0.96-8.15-3.83c0-3.84,3.83-4.79,11.02-4.79
			c12.46,0,26.36,0.48,38.83,0.48c12.46,0.48,23.49,0.96,30.2,0.96c18.21,0,115.52,0,126.54-0.48c9.1-0.48,14.86-0.48,19.65-1.91
			c2.87-0.96,5.27-2.88,7.67-2.88c1.91,0,3.36,1.92,3.36,4.31c0,3.36-2.4,9.11-3.84,21.57c-0.48,4.79-1.44,33.07-2.4,38.82
			c-0.47,3.84-1.44,6.71-4.79,6.71c-3.36,0-4.31-2.4-4.79-7.67c0-3.83,0-11.5-2.87-18.21c-3.36-6.71-13.43-13.9-31.64-14.38
			l-73.82-1.44c-2.87,0-4.31,1.44-4.31,6.71v119.84c0,2.87,0.48,4.31,3.36,4.31l61.35-0.48c8.15,0,14.86,0,21.57-0.48
			c9.11-0.48,15.82-2.4,20.61-8.63c2.4-2.88,3.35-4.8,6.24-4.8c1.91,0,2.87,1.44,2.87,4.31c0,2.88-2.4,14.86-3.84,29.72
			c-0.96,9.58-1.92,31.63-1.92,34.99c0,4.31,0,9.11-4.79,9.11c-2.87,0-3.84-3.36-3.84-6.71c0-3.36-0.96-9.11-2.87-14.86
			c-2.4-6.71-9.58-15.34-24.45-17.26c-11.98-1.44-62.79-1.44-70.94-1.44c-2.4,0-3.36,0.96-3.36,4.31V237.57z"/>
		<path class="st0" d="M2022.53,153.21c0-72.86,0-86.28-0.96-101.62c-0.96-16.3-4.79-23.97-20.61-27.32
			c-3.84-0.96-11.98-1.44-18.7-1.44c-5.27,0-8.15-0.96-8.15-4.31c0-3.36,3.36-4.31,10.55-4.31c12.95,0,26.84,0.48,38.82,0.48
			c12.47,0.48,23.49,0.96,30.2,0.96c15.34,0,110.73,0,119.83-0.48c9.11-0.96,16.78-1.91,20.61-2.87c2.4-0.48,5.27-1.92,7.67-1.92
			c2.39,0,2.87,1.92,2.87,4.31c0,3.36-2.4,9.11-3.84,31.16c-0.47,4.8-1.44,25.89-2.39,31.64c-0.48,2.4-1.44,5.27-4.8,5.27
			c-3.36,0-4.31-2.4-4.31-6.71c0-3.36-0.48-11.51-2.87-17.26c-3.36-8.63-8.15-14.38-32.12-17.25c-8.15-0.96-58.48-1.92-68.07-1.92
			c-2.39,0-3.35,1.44-3.35,4.79v121.27c0,3.36,0.48,5.27,3.35,5.27c10.55,0,65.67,0,76.69-0.96c11.51-0.96,18.7-2.4,23.01-7.19
			c3.36-3.83,5.27-6.23,7.67-6.23c1.92,0,3.35,0.96,3.35,3.84s-1.91,10.55-3.83,34.99c-0.48,9.59-1.92,28.76-1.92,32.11
			c0,3.84,0,9.11-4.32,9.11c-3.36,0-4.31-1.92-4.31-4.31c-0.48-4.8-0.48-11.02-1.92-17.26c-2.4-9.59-9.11-16.78-26.84-18.69
			c-9.11-0.96-56.56-1.44-68.07-1.44c-2.4,0-2.88,1.92-2.88,4.79v37.87c0,16.3-0.48,60.4,0,74.3c0.96,33.08,8.63,40.27,57.52,40.27
			c12.46,0,32.6,0,45.05-5.75c12.46-5.75,18.22-15.82,21.57-35.47c0.96-5.27,1.91-7.19,5.27-7.19c3.83,0,3.83,3.83,3.83,8.63
			c0,11.02-3.83,43.62-6.23,53.21c-3.35,12.46-7.67,12.46-25.89,12.46c-35.95,0-62.31-0.96-82.92-1.44
			c-20.61-0.96-35.47-1.44-49.85-1.44c-5.27,0-15.82,0-27.32,0.48c-11.03,0-23.49,0.96-33.08,0.96c-6.23,0-9.58-1.44-9.58-4.79
			c0-2.4,1.92-3.84,7.67-3.84c7.19,0,12.94-0.96,17.25-1.92c9.59-1.92,11.98-12.46,13.9-26.36c2.4-20.13,2.4-58,2.4-102.1V153.21z"
			/>
		<path class="st0" d="M2323.84,330.14c-47.93-42.06-60.65-96.84-60.65-144.28c0-33.26,10.27-90.97,57.22-134.01
			C2355.63,19.56,2402.1,0,2474.98,0c30.32,0,48.42,1.95,70.92,4.89c18.59,2.44,34.24,6.85,48.91,8.31
			c5.38,0.49,7.34,2.93,7.34,5.87c0,3.91-1.47,9.78-2.45,26.9c-0.97,16.14-0.49,43.04-1.47,52.83c-0.49,7.34-1.47,11.25-5.87,11.25
			c-3.91,0-4.89-3.91-4.89-10.76c-0.49-15.16-6.85-32.28-19.08-45c-16.14-17.12-54.29-30.33-99.28-30.33
			c-42.55,0-70.43,10.76-91.95,30.33c-35.7,32.77-45,79.23-45,126.68c0,116.41,88.53,174.12,154.07,174.12
			c43.53,0,69.94-4.89,89.51-27.39c8.31-9.3,14.67-23.48,16.63-32.28c1.47-7.83,2.45-9.78,6.36-9.78c3.42,0,4.4,3.42,4.4,7.34
			c0,5.87-5.87,48.42-10.76,65.05c-2.44,8.32-4.4,10.76-12.72,14.18c-19.56,7.82-56.74,11.25-88.04,11.25
			C2424.59,383.46,2368.35,368.79,2323.84,330.14z"/>
		<path class="st0" d="M2665.66,195.39c0-81.97,54.16-187.9,197.96-187.9c119.36,0,193.66,69.51,193.66,179.27
			s-76.69,196.53-198.45,196.53C2721.26,383.29,2665.66,280.24,2665.66,195.39z M2990.16,204.5c0-107.37-61.84-174-140.44-174
			c-55.13,0-117.92,30.68-117.92,150.03c0,99.7,55.12,178.79,147.15,178.79C2912.51,359.33,2990.16,343.03,2990.16,204.5z"/>
	</g>
	<g>
		<path class="st0" d="M644.82,624.66c0-13.32,0-15.78-0.19-18.58c-0.19-2.98-0.95-4.38-4.07-5c-0.76-0.17-2.37-0.26-3.69-0.26
			c-1.04,0-1.61-0.17-1.61-0.79c0-0.61,0.66-0.79,2.08-0.79c5.02,0,10.97,0.26,13.62,0.26c3.88,0,9.37-0.26,13.72-0.26
			c11.83,0,16.08,3.68,17.6,5c2.08,1.84,4.73,5.78,4.73,10.43c0,12.45-9.84,21.21-23.27,21.21c-0.47,0-1.52,0-1.99-0.08
			c-0.48-0.09-1.14-0.17-1.14-0.79c0-0.7,0.66-0.97,2.65-0.97c5.3,0,12.68-5.52,12.68-14.46c0-2.89-0.28-8.77-5.58-13.15
			c-3.4-2.89-7.28-3.42-9.46-3.42c-1.42,0-2.84,0.08-3.69,0.35c-0.47,0.17-0.75,0.7-0.75,1.67v35.06c0,8.06,0,14.99,0.47,18.76
			c0.28,2.45,0.85,4.38,3.69,4.73c1.33,0.17,3.41,0.35,4.83,0.35c1.04,0,1.52,0.26,1.52,0.7c0,0.61-0.76,0.88-1.8,0.88
			c-6.24,0-12.21-0.26-14.67-0.26c-2.18,0-8.13,0.26-11.92,0.26c-1.23,0-1.89-0.26-1.89-0.88c0-0.44,0.38-0.7,1.51-0.7
			c1.42,0,2.56-0.17,3.41-0.35c1.89-0.35,2.37-2.28,2.74-4.82c0.47-3.68,0.47-10.61,0.47-18.67V624.66z"/>
		<path class="st0" d="M703.05,624.66c0-13.32,0-15.78-0.19-18.58c-0.19-2.98-0.95-4.38-4.07-5c-0.76-0.17-2.37-0.26-3.69-0.26
			c-1.04,0-1.61-0.17-1.61-0.79c0-0.61,0.66-0.79,2.08-0.79c5.01,0,10.97,0.26,12.96,0.26c3.22,0,10.41-0.26,13.34-0.26
			c5.96,0,12.3,0.52,17.41,3.77c2.65,1.67,6.43,6.13,6.43,12.01c0,6.49-2.93,12.45-12.49,19.63c8.42,9.82,14.95,17.62,20.53,23.05
			c5.3,5.09,9.18,5.7,10.6,5.97c1.04,0.17,1.89,0.26,2.65,0.26c0.76,0,1.13,0.26,1.13,0.7c0,0.7-0.66,0.88-1.8,0.88h-8.99
			c-5.3,0-7.66-0.44-10.12-1.67c-4.07-2.02-7.66-6.14-12.96-12.89c-3.79-4.82-8.14-10.78-9.37-12.1c-0.47-0.52-1.04-0.61-1.7-0.61
			l-8.23-0.17c-0.47,0-0.76,0.17-0.76,0.7v1.23c0,8.15,0,15.07,0.47,18.75c0.28,2.54,0.85,4.47,3.69,4.82
			c1.42,0.17,3.5,0.35,4.64,0.35c0.76,0,1.13,0.26,1.13,0.7c0,0.61-0.66,0.88-1.89,0.88c-5.49,0-12.49-0.26-13.91-0.26
			c-1.8,0-7.76,0.26-11.54,0.26c-1.23,0-1.89-0.26-1.89-0.88c0-0.44,0.38-0.7,1.51-0.7c1.42,0,2.56-0.17,3.41-0.35
			c1.89-0.35,2.37-2.28,2.74-4.82c0.47-3.68,0.47-10.61,0.47-18.67V624.66z M714.21,631.59c0,0.96,0.19,1.32,0.85,1.58
			c1.99,0.61,4.83,0.88,7.19,0.88c3.79,0,5.02-0.35,6.72-1.49c2.84-1.92,5.58-5.96,5.58-13.14c0-12.45-8.89-16.04-14.48-16.04
			c-2.36,0-4.07,0.08-5.01,0.35c-0.66,0.17-0.85,0.53-0.85,1.23V631.59z"/>
		<path class="st0" d="M763.19,632.38c0-14.99,10.69-34.36,39.07-34.36c23.56,0,38.22,12.7,38.22,32.78
			c0,20.07-15.14,35.94-39.17,35.94C774.16,666.74,763.19,647.9,763.19,632.38z M827.24,634.04c0-19.63-12.2-31.82-27.72-31.82
			c-10.88,0-23.28,5.61-23.28,27.44c0,18.24,10.88,32.7,29.05,32.7C811.91,662.36,827.24,659.38,827.24,634.04z"/>
		<path class="st0" d="M862.5,657.19c-9.27-7.54-11.73-17.36-11.73-25.86c0-5.96,1.99-16.3,11.07-24.02
			c6.81-5.78,15.8-9.29,29.9-9.29c5.87,0,9.37,0.35,13.72,0.87c3.6,0.44,6.62,1.23,9.46,1.49c1.04,0.09,1.42,0.53,1.42,1.05
			c0,0.7-0.29,1.76-0.47,4.82c-0.19,2.89-0.09,7.71-0.28,9.46c-0.1,1.32-0.29,2.02-1.14,2.02c-0.76,0-0.94-0.7-0.94-1.93
			c-0.1-2.72-1.33-5.78-3.69-8.06c-3.12-3.07-10.5-5.44-19.21-5.44c-8.23,0-13.62,1.93-17.79,5.44c-6.91,5.87-8.7,14.2-8.7,22.7
			c0,20.86,17.12,31.21,29.8,31.21c8.42,0,13.53-0.87,17.31-4.91c1.61-1.67,2.84-4.21,3.22-5.78c0.29-1.4,0.47-1.76,1.23-1.76
			c0.66,0,0.85,0.61,0.85,1.32c0,1.05-1.14,8.68-2.08,11.66c-0.47,1.49-0.85,1.92-2.46,2.54c-3.79,1.4-10.97,2.01-17.03,2.01
			C881.99,666.74,871.11,664.11,862.5,657.19z"/>
		<path class="st0" d="M934.34,624.66c0-13.32,0-15.78-0.19-18.58c-0.19-2.98-0.95-4.38-4.07-5c-0.76-0.17-2.37-0.26-3.69-0.26
			c-1.04,0-1.61-0.17-1.61-0.79c0-0.61,0.66-0.79,2.08-0.79c5.01,0,10.97,0.26,13.81,0.26c2.27,0,8.23-0.26,11.64-0.26
			c1.42,0,2.08,0.17,2.08,0.79c0,0.61-0.57,0.79-1.51,0.79c-1.04,0-1.61,0.09-2.74,0.26c-2.56,0.44-3.31,1.93-3.5,5
			c-0.19,2.8-0.19,5.26-0.19,18.58v12.27c0,12.71,2.74,18.06,7.38,21.56c4.26,3.25,8.61,3.6,11.83,3.6c4.16,0,9.27-1.23,13.06-4.73
			c5.2-4.82,5.49-12.71,5.49-21.74v-10.96c0-13.32,0-15.78-0.19-18.58c-0.19-2.98-0.95-4.38-4.07-5c-0.76-0.17-2.37-0.26-3.41-0.26
			c-1.04,0-1.61-0.17-1.61-0.79c0-0.61,0.66-0.79,1.99-0.79c4.83,0,10.78,0.26,10.88,0.26c1.13,0,7.09-0.26,10.78-0.26
			c1.33,0,1.99,0.17,1.99,0.79c0,0.61-0.57,0.79-1.7,0.79c-1.04,0-1.61,0.09-2.74,0.26c-2.56,0.44-3.31,1.93-3.5,5
			c-0.19,2.8-0.19,5.26-0.19,18.58v9.38c0,9.73-1.04,20.08-8.99,26.38c-6.72,5.35-13.53,6.31-19.68,6.31
			c-5.01,0-14.1-0.26-21.01-6.05c-4.82-4.03-8.42-10.52-8.42-23.23V624.66z"/>
		<path class="st0" d="M1019.61,624.66c0-13.32,0-15.78-0.19-18.58c-0.19-2.98-0.95-4.38-4.07-5c-0.76-0.17-2.37-0.26-3.69-0.26
			c-1.04,0-1.61-0.17-1.61-0.79c0-0.61,0.66-0.79,2.08-0.79c5.01,0,10.97,0.26,12.96,0.26c3.22,0,10.41-0.26,13.34-0.26
			c5.96,0,12.3,0.52,17.41,3.77c2.65,1.67,6.43,6.13,6.43,12.01c0,6.49-2.93,12.45-12.49,19.63c8.42,9.82,14.95,17.62,20.53,23.05
			c5.3,5.09,9.18,5.7,10.6,5.97c1.04,0.17,1.89,0.26,2.65,0.26c0.76,0,1.13,0.26,1.13,0.7c0,0.7-0.66,0.88-1.8,0.88h-8.99
			c-5.3,0-7.66-0.44-10.12-1.67c-4.07-2.02-7.66-6.14-12.96-12.89c-3.78-4.82-8.14-10.78-9.37-12.1c-0.47-0.52-1.04-0.61-1.7-0.61
			l-8.23-0.17c-0.47,0-0.76,0.17-0.76,0.7v1.23c0,8.15,0,15.07,0.48,18.75c0.28,2.54,0.85,4.47,3.69,4.82
			c1.42,0.17,3.5,0.35,4.64,0.35c0.76,0,1.13,0.26,1.13,0.7c0,0.61-0.66,0.88-1.89,0.88c-5.49,0-12.49-0.26-13.91-0.26
			c-1.8,0-7.76,0.26-11.54,0.26c-1.23,0-1.89-0.26-1.89-0.88c0-0.44,0.38-0.7,1.51-0.7c1.42,0,2.56-0.17,3.41-0.35
			c1.89-0.35,2.37-2.28,2.74-4.82c0.47-3.68,0.47-10.61,0.47-18.67V624.66z M1030.78,631.59c0,0.96,0.19,1.32,0.85,1.58
			c1.99,0.61,4.83,0.88,7.19,0.88c3.78,0,5.01-0.35,6.72-1.49c2.84-1.92,5.58-5.96,5.58-13.14c0-12.45-8.89-16.04-14.48-16.04
			c-2.36,0-4.07,0.08-5.02,0.35c-0.66,0.17-0.85,0.53-0.85,1.23V631.59z"/>
		<path class="st0" d="M1107.65,642.64c-0.48,0-0.66,0.17-0.85,0.7l-5.11,12.54c-0.95,2.19-1.42,4.29-1.42,5.35
			c0,1.58,0.85,2.72,3.79,2.72h1.42c1.13,0,1.42,0.17,1.42,0.7c0,0.7-0.57,0.88-1.61,0.88c-3.03,0-7.09-0.26-10.03-0.26
			c-1.04,0-6.24,0.26-11.16,0.26c-1.23,0-1.8-0.17-1.8-0.88c0-0.53,0.38-0.7,1.14-0.7c0.85,0,2.17-0.08,2.93-0.17
			c4.35-0.52,6.15-3.51,8.04-7.89l23.75-55.05c1.13-2.54,1.7-3.51,2.65-3.51c0.85,0,1.42,0.79,2.36,2.8
			c2.27,4.82,17.41,40.59,23.46,53.91c3.6,7.89,6.34,9.12,8.33,9.55c1.42,0.26,2.84,0.35,3.97,0.35c0.75,0,1.23,0.09,1.23,0.7
			c0,0.7-0.85,0.88-4.35,0.88c-3.41,0-10.31,0-17.88-0.17c-1.7-0.09-2.84-0.09-2.84-0.7c0-0.53,0.38-0.7,1.32-0.79
			c0.66-0.17,1.33-0.97,0.85-2.02l-7.57-18.58c-0.19-0.44-0.48-0.61-0.95-0.61H1107.65z M1126.95,638.25c0.47,0,0.57-0.26,0.47-0.53
			l-8.52-21.65c-0.09-0.35-0.19-0.79-0.47-0.79s-0.47,0.44-0.57,0.79l-8.7,21.56c-0.09,0.35,0,0.61,0.38,0.61H1126.95z"/>
		<path class="st0" d="M1174.26,624.66c0-13.32,0-15.78-0.19-18.58c-0.19-2.98-0.95-4.38-4.07-5c-0.76-0.17-2.37-0.26-3.69-0.26
			c-1.04,0-1.61-0.17-1.61-0.79c0-0.61,0.66-0.79,2.08-0.79c5.01,0,10.97,0.26,13.62,0.26c2.93,0,8.89-0.26,14.57-0.26
			c11.82,0,27.62,0,37.94,9.99c4.73,4.56,9.18,11.83,9.18,22.26c0,11.05-5.01,19.46-10.31,24.46c-4.35,4.12-14.19,10.34-31.69,10.34
			c-3.41,0-7.28-0.26-10.88-0.53c-3.6-0.26-6.91-0.52-9.27-0.52c-1.04,0-3.12,0-5.39,0.09c-2.17,0-4.64,0.17-6.53,0.17
			c-1.23,0-1.89-0.26-1.89-0.88c0-0.44,0.38-0.7,1.51-0.7c1.42,0,2.56-0.17,3.41-0.35c1.89-0.35,2.37-2.28,2.74-4.82
			c0.47-3.68,0.47-10.61,0.47-18.67V624.66z M1186.08,634.31c0,9.29,0.1,16.04,0.19,17.71c0.1,2.19,0.29,5.69,1.04,6.66
			c1.23,1.67,4.92,3.51,12.39,3.51c9.65,0,16.09-1.76,21.76-6.31c6.05-4.82,7.95-12.8,7.95-21.83c0-11.13-5.02-18.32-9.08-21.91
			c-8.7-7.71-19.49-8.77-26.87-8.77c-1.89,0-5.39,0.26-6.15,0.61c-0.85,0.35-1.14,0.79-1.14,1.75c-0.1,2.98-0.1,10.61-0.1,17.53
			V634.31z"/>
		<path class="st0" d="M1256.02,624.66c0-13.32,0-15.78-0.19-18.58c-0.19-2.98-0.95-4.38-4.07-5c-0.76-0.17-2.37-0.26-3.69-0.26
			c-1.04,0-1.61-0.17-1.61-0.79c0-0.61,0.66-0.79,2.08-0.79c5.02,0,10.97,0.26,13.81,0.26c2.27,0,8.23-0.26,11.64-0.26
			c1.42,0,2.08,0.17,2.08,0.79c0,0.61-0.57,0.79-1.51,0.79c-1.04,0-1.61,0.09-2.74,0.26c-2.56,0.44-3.31,1.93-3.5,5
			c-0.19,2.8-0.19,5.26-0.19,18.58v12.27c0,12.71,2.74,18.06,7.38,21.56c4.26,3.25,8.61,3.6,11.83,3.6c4.16,0,9.27-1.23,13.06-4.73
			c5.2-4.82,5.49-12.71,5.49-21.74v-10.96c0-13.32,0-15.78-0.19-18.58c-0.19-2.98-0.95-4.38-4.07-5c-0.76-0.17-2.37-0.26-3.41-0.26
			c-1.04,0-1.61-0.17-1.61-0.79c0-0.61,0.66-0.79,1.99-0.79c4.83,0,10.78,0.26,10.88,0.26c1.13,0,7.1-0.26,10.78-0.26
			c1.33,0,1.99,0.17,1.99,0.79c0,0.61-0.57,0.79-1.7,0.79c-1.04,0-1.61,0.09-2.74,0.26c-2.56,0.44-3.31,1.93-3.5,5
			c-0.19,2.8-0.19,5.26-0.19,18.58v9.38c0,9.73-1.04,20.08-8.99,26.38c-6.72,5.35-13.53,6.31-19.68,6.31
			c-5.02,0-14.1-0.26-21.01-6.05c-4.82-4.03-8.42-10.52-8.42-23.23V624.66z"/>
		<path class="st0" d="M1341.29,624.66c0-13.32,0-15.78-0.19-18.58c-0.19-2.98-0.95-4.38-4.07-5c-0.76-0.17-2.37-0.26-3.69-0.26
			c-1.04,0-1.61-0.17-1.61-0.79c0-0.61,0.66-0.79,2.08-0.79c5.02,0,10.97,0.26,12.96,0.26c3.22,0,10.41-0.26,13.34-0.26
			c5.96,0,12.3,0.52,17.41,3.77c2.65,1.67,6.43,6.13,6.43,12.01c0,6.49-2.93,12.45-12.49,19.63c8.42,9.82,14.95,17.62,20.53,23.05
			c5.3,5.09,9.18,5.7,10.6,5.97c1.04,0.17,1.89,0.26,2.65,0.26c0.76,0,1.13,0.26,1.13,0.7c0,0.7-0.66,0.88-1.8,0.88h-8.99
			c-5.3,0-7.66-0.44-10.12-1.67c-4.07-2.02-7.66-6.14-12.96-12.89c-3.79-4.82-8.14-10.78-9.37-12.1c-0.47-0.52-1.04-0.61-1.7-0.61
			l-8.23-0.17c-0.47,0-0.76,0.17-0.76,0.7v1.23c0,8.15,0,15.07,0.47,18.75c0.28,2.54,0.85,4.47,3.69,4.82
			c1.42,0.17,3.5,0.35,4.64,0.35c0.76,0,1.13,0.26,1.13,0.7c0,0.61-0.66,0.88-1.89,0.88c-5.49,0-12.49-0.26-13.91-0.26
			c-1.8,0-7.76,0.26-11.54,0.26c-1.23,0-1.89-0.26-1.89-0.88c0-0.44,0.38-0.7,1.51-0.7c1.42,0,2.56-0.17,3.41-0.35
			c1.89-0.35,2.37-2.28,2.74-4.82c0.47-3.68,0.47-10.61,0.47-18.67V624.66z M1352.45,631.59c0,0.96,0.19,1.32,0.85,1.58
			c1.99,0.61,4.83,0.88,7.19,0.88c3.79,0,5.02-0.35,6.72-1.49c2.84-1.92,5.58-5.96,5.58-13.14c0-12.45-8.89-16.04-14.48-16.04
			c-2.36,0-4.07,0.08-5.02,0.35c-0.66,0.17-0.85,0.53-0.85,1.23V631.59z"/>
		<path class="st0" d="M1418.74,624.66c0-13.32,0-15.78-0.19-18.58c-0.19-2.98-1.14-4.47-3.22-4.91c-1.04-0.26-2.27-0.35-3.41-0.35
			c-0.95,0-1.51-0.17-1.51-0.88c0-0.52,0.75-0.7,2.27-0.7c3.6,0,9.55,0.26,12.3,0.26c2.37,0,7.95-0.26,11.54-0.26
			c1.23,0,1.99,0.17,1.99,0.7c0,0.7-0.57,0.88-1.52,0.88c-0.94,0-1.7,0.09-2.84,0.26c-2.55,0.44-3.31,1.93-3.5,5
			c-0.19,2.8-0.19,5.26-0.19,18.58v15.43c0,8.5,0,15.43,0.38,19.2c0.28,2.36,0.95,3.94,3.78,4.29c1.32,0.17,3.41,0.35,4.83,0.35
			c1.04,0,1.51,0.26,1.51,0.7c0,0.61-0.76,0.88-1.8,0.88c-6.24,0-12.2-0.26-14.76-0.26c-2.18,0-8.14,0.26-11.92,0.26
			c-1.23,0-1.89-0.26-1.89-0.88c0-0.44,0.38-0.7,1.51-0.7c1.42,0,2.56-0.17,3.41-0.35c1.89-0.35,2.46-1.84,2.74-4.38
			c0.47-3.68,0.47-10.61,0.47-19.11V624.66z M1440.31,585.31c0.57,1.05,0,1.31-0.47,1.31c-0.47,0-1.32-0.17-3.22,0
			c-5.2,0.61-12.68,3.42-16.18,5.18c-0.75,0.35-1.42,0.7-1.61,0.7c-0.19,0-0.57-0.17-0.57-0.52c0-0.36,0.38-0.7,0.85-1.14
			c3.78-3.33,13.72-10.17,15.23-11.05c0.95-0.61,1.61-0.79,1.89-0.79c0.66,0,0.85,0.26,1.32,1.05
			C1438.32,581.27,1439.17,582.94,1440.31,585.31z"/>
		<path class="st0" d="M1470.78,642.64c-0.48,0-0.66,0.17-0.85,0.7l-5.11,12.54c-0.95,2.19-1.42,4.29-1.42,5.35
			c0,1.58,0.85,2.72,3.79,2.72h1.42c1.13,0,1.42,0.17,1.42,0.7c0,0.7-0.57,0.88-1.61,0.88c-3.03,0-7.1-0.26-10.03-0.26
			c-1.04,0-6.24,0.26-11.16,0.26c-1.23,0-1.8-0.17-1.8-0.88c0-0.53,0.38-0.7,1.14-0.7c0.85,0,2.17-0.08,2.93-0.17
			c4.35-0.52,6.15-3.51,8.04-7.89l23.75-55.05c1.13-2.54,1.7-3.51,2.65-3.51c0.85,0,1.42,0.79,2.37,2.8
			c2.27,4.82,17.41,40.59,23.46,53.91c3.6,7.89,6.34,9.12,8.33,9.55c1.42,0.26,2.84,0.35,3.97,0.35c0.75,0,1.23,0.09,1.23,0.7
			c0,0.7-0.85,0.88-4.35,0.88c-3.41,0-10.31,0-17.88-0.17c-1.7-0.09-2.84-0.09-2.84-0.7c0-0.53,0.38-0.7,1.32-0.79
			c0.66-0.17,1.33-0.97,0.85-2.02l-7.57-18.58c-0.19-0.44-0.47-0.61-0.95-0.61H1470.78z M1490.08,638.25c0.48,0,0.57-0.26,0.48-0.53
			l-8.52-21.65c-0.09-0.35-0.19-0.79-0.47-0.79s-0.47,0.44-0.57,0.79l-8.7,21.56c-0.09,0.35,0,0.61,0.38,0.61H1490.08z"/>
		<path class="st0" d="M1573.53,640.09c0,8.42,0,14.99,0.47,18.67c0.29,2.54,0.85,4.47,3.69,4.82c1.32,0.17,3.4,0.35,4.73,0.35
			c1.23,0,1.61,0.26,1.61,0.7c0,0.61-0.66,0.88-2.08,0.88c-5.96,0-11.92-0.26-14.38-0.26c-2.46,0-8.42,0.26-12.01,0.26
			c-1.33,0-1.99-0.17-1.99-0.88c0-0.44,0.38-0.7,1.42-0.7c1.42,0,2.56-0.17,3.41-0.35c1.89-0.35,2.37-2.28,2.74-4.82
			c0.47-3.68,0.47-10.25,0.47-18.67v-15.43c0-13.32,0-15.78-0.19-18.58c-0.19-2.98-0.95-4.38-4.07-5c-0.76-0.17-2.37-0.26-3.69-0.26
			c-0.94,0-1.61-0.17-1.61-0.7c0-0.7,0.75-0.87,2.17-0.87c2.46,0,5.2,0.08,7.66,0.08c2.46,0.09,4.64,0.17,5.96,0.17
			c3.6,0,22.8,0,24.98-0.08c1.79-0.09,2.93-0.09,3.88-0.35c0.57-0.18,1.04-0.53,1.51-0.53c0.38,0,0.66,0.35,0.66,0.79
			c0,0.61-0.47,1.67-0.76,3.94c-0.1,0.88-0.29,6.05-0.48,7.1c-0.09,0.7-0.28,1.23-0.94,1.23c-0.66,0-0.85-0.44-0.95-1.4
			c0-0.7,0-2.1-0.57-3.33c-0.66-1.23-2.65-2.54-6.24-2.63l-14.57-0.26c-0.57,0-0.85,0.26-0.85,1.23v21.92
			c0,0.52,0.09,0.79,0.66,0.79l12.11-0.09c1.61,0,2.93,0,4.26-0.08c1.8-0.09,3.12-0.44,4.07-1.58c0.48-0.52,0.66-0.88,1.23-0.88
			c0.38,0,0.57,0.26,0.57,0.79c0,0.52-0.47,2.72-0.75,5.43c-0.19,1.76-0.38,5.79-0.38,6.4c0,0.79,0,1.67-0.95,1.67
			c-0.57,0-0.76-0.61-0.76-1.23c0-0.62-0.19-1.67-0.57-2.72c-0.48-1.23-1.89-2.81-4.83-3.16c-2.37-0.26-12.4-0.26-14-0.26
			c-0.47,0-0.66,0.17-0.66,0.79V640.09z"/>
		<path class="st0" d="M1619.43,624.66c0-13.32,0-15.78-0.19-18.58c-0.19-2.98-0.95-4.38-4.07-5c-0.76-0.17-2.37-0.26-3.69-0.26
			c-1.04,0-1.61-0.17-1.61-0.79c0-0.61,0.66-0.79,2.08-0.79c2.55,0,5.3,0.08,7.66,0.08c2.46,0.09,4.64,0.17,5.96,0.17
			c3.03,0,21.86,0,23.65-0.08c1.79-0.17,3.31-0.35,4.07-0.53c0.47-0.08,1.04-0.35,1.51-0.35c0.47,0,0.57,0.35,0.57,0.79
			c0,0.61-0.47,1.67-0.76,5.7c-0.09,0.88-0.28,4.73-0.47,5.78c-0.1,0.44-0.28,0.96-0.95,0.96c-0.66,0-0.85-0.44-0.85-1.23
			c0-0.61-0.09-2.1-0.57-3.16c-0.66-1.58-1.61-2.63-6.34-3.15c-1.61-0.18-11.54-0.35-13.44-0.35c-0.47,0-0.66,0.26-0.66,0.88v22.17
			c0,0.61,0.09,0.97,0.66,0.97c2.08,0,12.96,0,15.14-0.17c2.27-0.18,3.69-0.44,4.54-1.32c0.66-0.7,1.04-1.14,1.51-1.14
			c0.38,0,0.66,0.18,0.66,0.7c0,0.52-0.38,1.93-0.76,6.4c-0.1,1.76-0.38,5.26-0.38,5.87c0,0.7,0,1.67-0.85,1.67
			c-0.66,0-0.85-0.35-0.85-0.79c-0.09-0.88-0.09-2.02-0.38-3.16c-0.47-1.76-1.8-3.07-5.3-3.42c-1.8-0.17-11.16-0.26-13.43-0.26
			c-0.47,0-0.57,0.35-0.57,0.87v6.93c0,2.98-0.1,11.05,0,13.59c0.19,6.05,1.7,7.36,11.35,7.36c2.46,0,6.43,0,8.89-1.05
			c2.46-1.05,3.6-2.89,4.26-6.48c0.19-0.97,0.38-1.32,1.04-1.32c0.76,0,0.76,0.7,0.76,1.58c0,2.02-0.76,7.98-1.23,9.73
			c-0.66,2.28-1.51,2.28-5.11,2.28c-7.09,0-12.3-0.17-16.37-0.26c-4.07-0.17-7-0.26-9.84-0.26c-1.04,0-3.12,0-5.39,0.09
			c-2.17,0-4.64,0.17-6.53,0.17c-1.23,0-1.89-0.26-1.89-0.88c0-0.44,0.38-0.7,1.51-0.7c1.42,0,2.56-0.17,3.41-0.35
			c1.89-0.35,2.37-2.28,2.74-4.82c0.47-3.68,0.47-10.61,0.47-18.67V624.66z"/>
		<path class="st0" d="M1677.01,624.66c0-13.32,0-15.78-0.19-18.58c-0.19-2.98-0.95-4.38-4.07-5c-0.76-0.17-2.37-0.26-3.69-0.26
			c-1.04,0-1.61-0.17-1.61-0.79c0-0.61,0.66-0.79,2.08-0.79c5.02,0,10.97,0.26,13.62,0.26c2.93,0,8.89-0.26,14.57-0.26
			c11.82,0,27.62,0,37.94,9.99c4.73,4.56,9.18,11.83,9.18,22.26c0,11.05-5.02,19.46-10.31,24.46c-4.35,4.12-14.19,10.34-31.69,10.34
			c-3.41,0-7.28-0.26-10.88-0.53c-3.6-0.26-6.91-0.52-9.27-0.52c-1.04,0-3.12,0-5.39,0.09c-2.17,0-4.64,0.17-6.53,0.17
			c-1.23,0-1.89-0.26-1.89-0.88c0-0.44,0.38-0.7,1.51-0.7c1.42,0,2.56-0.17,3.41-0.35c1.89-0.35,2.37-2.28,2.74-4.82
			c0.47-3.68,0.47-10.61,0.47-18.67V624.66z M1688.84,634.31c0,9.29,0.1,16.04,0.19,17.71c0.1,2.19,0.29,5.69,1.04,6.66
			c1.23,1.67,4.92,3.51,12.39,3.51c9.65,0,16.08-1.76,21.76-6.31c6.05-4.82,7.95-12.8,7.95-21.83c0-11.13-5.02-18.32-9.08-21.91
			c-8.7-7.71-19.49-8.77-26.87-8.77c-1.89,0-5.39,0.26-6.15,0.61c-0.85,0.35-1.14,0.79-1.14,1.75c-0.1,2.98-0.1,10.61-0.1,17.53
			V634.31z"/>
		<path class="st0" d="M1761.56,624.66c0-13.32,0-15.78-0.19-18.58c-0.19-2.98-0.95-4.38-4.07-5c-0.76-0.17-2.37-0.26-3.69-0.26
			c-1.04,0-1.61-0.17-1.61-0.79c0-0.61,0.66-0.79,2.08-0.79c2.55,0,5.3,0.08,7.66,0.08c2.46,0.09,4.64,0.17,5.96,0.17
			c3.03,0,21.86,0,23.65-0.08c1.8-0.17,3.31-0.35,4.06-0.53c0.48-0.08,1.04-0.35,1.52-0.35c0.47,0,0.57,0.35,0.57,0.79
			c0,0.61-0.48,1.67-0.76,5.7c-0.1,0.88-0.29,4.73-0.47,5.78c-0.1,0.44-0.28,0.96-0.94,0.96c-0.67,0-0.85-0.44-0.85-1.23
			c0-0.61-0.1-2.1-0.57-3.16c-0.67-1.58-1.61-2.63-6.34-3.15c-1.61-0.18-11.54-0.35-13.43-0.35c-0.47,0-0.66,0.26-0.66,0.88v22.17
			c0,0.61,0.09,0.97,0.66,0.97c2.08,0,12.96,0,15.14-0.17c2.27-0.18,3.69-0.44,4.54-1.32c0.66-0.7,1.04-1.14,1.52-1.14
			c0.38,0,0.66,0.18,0.66,0.7c0,0.52-0.38,1.93-0.76,6.4c-0.1,1.76-0.38,5.26-0.38,5.87c0,0.7,0,1.67-0.85,1.67
			c-0.66,0-0.85-0.35-0.85-0.79c-0.1-0.88-0.1-2.02-0.38-3.16c-0.47-1.76-1.8-3.07-5.3-3.42c-1.8-0.17-11.17-0.26-13.44-0.26
			c-0.47,0-0.57,0.35-0.57,0.87v6.93c0,2.98-0.1,11.05,0,13.59c0.19,6.05,1.7,7.36,11.35,7.36c2.46,0,6.43,0,8.89-1.05
			c2.46-1.05,3.6-2.89,4.26-6.48c0.19-0.97,0.38-1.32,1.04-1.32c0.76,0,0.76,0.7,0.76,1.58c0,2.02-0.76,7.98-1.23,9.73
			c-0.67,2.28-1.52,2.28-5.11,2.28c-7.09,0-12.3-0.17-16.37-0.26c-4.07-0.17-7-0.26-9.84-0.26c-1.04,0-3.12,0-5.39,0.09
			c-2.17,0-4.64,0.17-6.53,0.17c-1.23,0-1.89-0.26-1.89-0.88c0-0.44,0.38-0.7,1.51-0.7c1.42,0,2.56-0.17,3.41-0.35
			c1.89-0.35,2.37-2.28,2.74-4.82c0.47-3.68,0.47-10.61,0.47-18.67V624.66z"/>
		<path class="st0" d="M1819.14,624.66c0-13.32,0-15.78-0.19-18.58c-0.19-2.98-0.94-4.38-4.07-5c-0.75-0.17-2.36-0.26-3.69-0.26
			c-1.04,0-1.61-0.17-1.61-0.79c0-0.61,0.66-0.79,2.08-0.79c5.02,0,10.98,0.26,12.96,0.26c3.22,0,10.41-0.26,13.34-0.26
			c5.96,0,12.3,0.52,17.41,3.77c2.65,1.67,6.43,6.13,6.43,12.01c0,6.49-2.93,12.45-12.49,19.63c8.42,9.82,14.95,17.62,20.53,23.05
			c5.3,5.09,9.18,5.7,10.59,5.97c1.04,0.17,1.89,0.26,2.65,0.26c0.76,0,1.14,0.26,1.14,0.7c0,0.7-0.66,0.88-1.8,0.88h-8.99
			c-5.3,0-7.67-0.44-10.13-1.67c-4.06-2.02-7.66-6.14-12.96-12.89c-3.79-4.82-8.14-10.78-9.37-12.1c-0.48-0.52-1.04-0.61-1.7-0.61
			l-8.23-0.17c-0.47,0-0.76,0.17-0.76,0.7v1.23c0,8.15,0,15.07,0.47,18.75c0.28,2.54,0.85,4.47,3.69,4.82
			c1.42,0.17,3.51,0.35,4.64,0.35c0.76,0,1.14,0.26,1.14,0.7c0,0.61-0.66,0.88-1.89,0.88c-5.49,0-12.49-0.26-13.91-0.26
			c-1.8,0-7.76,0.26-11.54,0.26c-1.23,0-1.89-0.26-1.89-0.88c0-0.44,0.38-0.7,1.52-0.7c1.42,0,2.56-0.17,3.4-0.35
			c1.89-0.35,2.37-2.28,2.75-4.82c0.47-3.68,0.47-10.61,0.47-18.67V624.66z M1830.3,631.59c0,0.96,0.19,1.32,0.85,1.58
			c1.98,0.61,4.82,0.88,7.19,0.88c3.78,0,5.01-0.35,6.72-1.49c2.84-1.92,5.58-5.96,5.58-13.14c0-12.45-8.89-16.04-14.47-16.04
			c-2.37,0-4.07,0.08-5.02,0.35c-0.66,0.17-0.85,0.53-0.85,1.23V631.59z"/>
		<path class="st0" d="M1907.18,642.64c-0.48,0-0.66,0.17-0.85,0.7l-5.1,12.54c-0.95,2.19-1.42,4.29-1.42,5.35
			c0,1.58,0.85,2.72,3.78,2.72h1.42c1.14,0,1.42,0.17,1.42,0.7c0,0.7-0.57,0.88-1.61,0.88c-3.02,0-7.09-0.26-10.02-0.26
			c-1.04,0-6.25,0.26-11.17,0.26c-1.23,0-1.8-0.17-1.8-0.88c0-0.53,0.38-0.7,1.14-0.7c0.85,0,2.18-0.08,2.93-0.17
			c4.35-0.52,6.14-3.51,8.04-7.89l23.75-55.05c1.14-2.54,1.71-3.51,2.65-3.51c0.85,0,1.42,0.79,2.36,2.8
			c2.27,4.82,17.41,40.59,23.46,53.91c3.6,7.89,6.34,9.12,8.33,9.55c1.42,0.26,2.84,0.35,3.97,0.35c0.76,0,1.23,0.09,1.23,0.7
			c0,0.7-0.85,0.88-4.35,0.88c-3.41,0-10.31,0-17.88-0.17c-1.7-0.09-2.84-0.09-2.84-0.7c0-0.53,0.38-0.7,1.32-0.79
			c0.66-0.17,1.32-0.97,0.85-2.02l-7.57-18.58c-0.19-0.44-0.48-0.61-0.94-0.61H1907.18z M1926.48,638.25c0.47,0,0.57-0.26,0.47-0.53
			l-8.51-21.65c-0.1-0.35-0.19-0.79-0.47-0.79c-0.29,0-0.47,0.44-0.57,0.79l-8.7,21.56c-0.1,0.35,0,0.61,0.38,0.61H1926.48z"/>
		<path class="st0" d="M1985.61,640.09c0,11.22,0,17.27,1.99,18.84c1.61,1.32,4.06,1.93,11.45,1.93c5.01,0,8.7-0.08,11.06-2.45
			c1.14-1.14,2.27-3.6,2.47-5.26c0.09-0.79,0.28-1.31,1.04-1.31c0.66,0,0.75,0.43,0.75,1.49c0,0.97-0.66,7.54-1.42,10.08
			c-0.57,1.93-1.04,2.36-5.96,2.36c-6.81,0-11.73-0.17-15.99-0.26c-4.26-0.17-7.66-0.26-11.54-0.26c-1.04,0-3.12,0-5.39,0.09
			c-2.18,0-4.64,0.17-6.53,0.17c-1.23,0-1.89-0.26-1.89-0.88c0-0.44,0.38-0.7,1.52-0.7c1.42,0,2.56-0.17,3.4-0.35
			c1.89-0.35,2.37-2.28,2.75-4.82c0.47-3.68,0.47-10.61,0.47-18.67v-15.43c0-13.32,0-15.78-0.19-18.58c-0.19-2.98-0.94-4.38-4.07-5
			c-0.75-0.17-1.89-0.26-3.12-0.26c-1.04,0-1.61-0.17-1.61-0.79c0-0.61,0.66-0.79,2.08-0.79c4.44,0,10.41,0.26,12.96,0.26
			c2.27,0,9.18-0.26,12.87-0.26c1.33,0,1.99,0.17,1.99,0.79c0,0.61-0.57,0.79-1.7,0.79c-1.05,0-2.56,0.09-3.69,0.26
			c-2.56,0.44-3.31,1.93-3.5,5c-0.19,2.8-0.19,5.26-0.19,18.58V640.09z"/>
		<path class="st0" d="M2059.41,624.66c0-13.32,0-15.78-0.19-18.58c-0.19-2.98-0.94-4.38-4.07-5c-0.75-0.17-2.36-0.26-3.69-0.26
			c-1.04,0-1.61-0.17-1.61-0.79c0-0.61,0.66-0.79,2.08-0.79c5.01,0,10.98,0.26,13.62,0.26c2.93,0,8.89-0.26,14.57-0.26
			c11.83,0,27.63,0,37.94,9.99c4.73,4.56,9.18,11.83,9.18,22.26c0,11.05-5.01,19.46-10.31,24.46c-4.35,4.12-14.19,10.34-31.69,10.34
			c-3.41,0-7.29-0.26-10.88-0.53c-3.59-0.26-6.9-0.52-9.27-0.52c-1.04,0-3.12,0-5.39,0.09c-2.18,0-4.64,0.17-6.53,0.17
			c-1.23,0-1.89-0.26-1.89-0.88c0-0.44,0.38-0.7,1.52-0.7c1.42,0,2.56-0.17,3.4-0.35c1.89-0.35,2.37-2.28,2.75-4.82
			c0.47-3.68,0.47-10.61,0.47-18.67V624.66z M2071.24,634.31c0,9.29,0.1,16.04,0.19,17.71c0.09,2.19,0.28,5.69,1.04,6.66
			c1.23,1.67,4.92,3.51,12.39,3.51c9.65,0,16.08-1.76,21.76-6.31c6.06-4.82,7.95-12.8,7.95-21.83c0-11.13-5.01-18.32-9.09-21.91
			c-8.7-7.71-19.49-8.77-26.87-8.77c-1.89,0-5.39,0.26-6.15,0.61c-0.85,0.35-1.14,0.79-1.14,1.75c-0.1,2.98-0.1,10.61-0.1,17.53
			V634.31z"/>
		<path class="st0" d="M2143.96,624.66c0-13.32,0-15.78-0.19-18.58c-0.19-2.98-0.94-4.38-4.07-5c-0.75-0.17-2.36-0.26-3.69-0.26
			c-1.04,0-1.61-0.17-1.61-0.79c0-0.61,0.66-0.79,2.08-0.79c2.56,0,5.3,0.08,7.67,0.08c2.46,0.09,4.64,0.17,5.96,0.17
			c3.03,0,21.86,0,23.65-0.08c1.8-0.17,3.31-0.35,4.06-0.53c0.48-0.08,1.04-0.35,1.52-0.35c0.48,0,0.57,0.35,0.57,0.79
			c0,0.61-0.47,1.67-0.75,5.7c-0.1,0.88-0.29,4.73-0.48,5.78c-0.1,0.44-0.28,0.96-0.94,0.96c-0.67,0-0.85-0.44-0.85-1.23
			c0-0.61-0.1-2.1-0.57-3.16c-0.67-1.58-1.61-2.63-6.34-3.15c-1.61-0.18-11.54-0.35-13.43-0.35c-0.47,0-0.66,0.26-0.66,0.88v22.17
			c0,0.61,0.1,0.97,0.66,0.97c2.08,0,12.96,0,15.14-0.17c2.27-0.18,3.69-0.44,4.54-1.32c0.66-0.7,1.04-1.14,1.52-1.14
			c0.38,0,0.66,0.18,0.66,0.7c0,0.52-0.38,1.93-0.76,6.4c-0.1,1.76-0.38,5.26-0.38,5.87c0,0.7,0,1.67-0.85,1.67
			c-0.66,0-0.85-0.35-0.85-0.79c-0.1-0.88-0.1-2.02-0.38-3.16c-0.48-1.76-1.8-3.07-5.3-3.42c-1.8-0.17-11.17-0.26-13.44-0.26
			c-0.47,0-0.57,0.35-0.57,0.87v6.93c0,2.98-0.1,11.05,0,13.59c0.19,6.05,1.7,7.36,11.35,7.36c2.46,0,6.43,0,8.89-1.05
			c2.46-1.05,3.6-2.89,4.26-6.48c0.19-0.97,0.38-1.32,1.04-1.32c0.76,0,0.76,0.7,0.76,1.58c0,2.02-0.76,7.98-1.23,9.73
			c-0.67,2.28-1.52,2.28-5.11,2.28c-7.1,0-12.3-0.17-16.37-0.26c-4.07-0.17-7-0.26-9.84-0.26c-1.05,0-3.13,0-5.39,0.09
			c-2.18,0-4.64,0.17-6.53,0.17c-1.23,0-1.89-0.26-1.89-0.88c0-0.44,0.38-0.7,1.52-0.7c1.42,0,2.56-0.17,3.4-0.35
			c1.89-0.35,2.37-2.28,2.75-4.82c0.47-3.68,0.47-10.61,0.47-18.67V624.66z"/>
		<path class="st0" d="M2213.21,640.09c0,11.22,0,17.27,1.99,18.84c1.6,1.32,4.06,1.93,11.45,1.93c5.01,0,8.7-0.08,11.06-2.45
			c1.14-1.14,2.27-3.6,2.47-5.26c0.09-0.79,0.28-1.31,1.04-1.31c0.66,0,0.75,0.43,0.75,1.49c0,0.97-0.66,7.54-1.42,10.08
			c-0.56,1.93-1.04,2.36-5.96,2.36c-6.81,0-11.73-0.17-15.99-0.26c-4.26-0.17-7.66-0.26-11.54-0.26c-1.04,0-3.12,0-5.39,0.09
			c-2.18,0-4.64,0.17-6.53,0.17c-1.23,0-1.89-0.26-1.89-0.88c0-0.44,0.38-0.7,1.52-0.7c1.42,0,2.56-0.17,3.4-0.35
			c1.89-0.35,2.37-2.28,2.75-4.82c0.47-3.68,0.47-10.61,0.47-18.67v-15.43c0-13.32,0-15.78-0.19-18.58c-0.19-2.98-0.94-4.38-4.07-5
			c-0.75-0.17-1.89-0.26-3.12-0.26c-1.04,0-1.61-0.17-1.61-0.79c0-0.61,0.66-0.79,2.08-0.79c4.44,0,10.41,0.26,12.96,0.26
			c2.27,0,9.18-0.26,12.87-0.26c1.33,0,1.99,0.17,1.99,0.79c0,0.61-0.57,0.79-1.7,0.79c-1.05,0-2.56,0.09-3.69,0.26
			c-2.56,0.44-3.31,1.93-3.5,5c-0.19,2.8-0.19,5.26-0.19,18.58V640.09z"/>
		<path class="st0" d="M2288.43,657.19c-9.27-7.54-11.73-17.36-11.73-25.86c0-5.96,1.99-16.3,11.07-24.02
			c6.81-5.78,15.8-9.29,29.9-9.29c5.87,0,9.37,0.35,13.72,0.87c3.6,0.44,6.62,1.23,9.46,1.49c1.04,0.09,1.42,0.53,1.42,1.05
			c0,0.7-0.28,1.76-0.47,4.82c-0.19,2.89-0.1,7.71-0.29,9.46c-0.09,1.32-0.28,2.02-1.13,2.02c-0.76,0-0.95-0.7-0.95-1.93
			c-0.09-2.72-1.32-5.78-3.69-8.06c-3.13-3.07-10.5-5.44-19.2-5.44c-8.23,0-13.63,1.93-17.79,5.44c-6.91,5.87-8.71,14.2-8.71,22.7
			c0,20.86,17.12,31.21,29.8,31.21c8.42,0,13.53-0.87,17.32-4.91c1.61-1.67,2.84-4.21,3.22-5.78c0.28-1.4,0.47-1.76,1.23-1.76
			c0.66,0,0.85,0.61,0.85,1.32c0,1.05-1.14,8.68-2.08,11.66c-0.48,1.49-0.85,1.92-2.46,2.54c-3.79,1.4-10.98,2.01-17.03,2.01
			C2307.92,666.74,2297.04,664.11,2288.43,657.19z"/>
		<path class="st0" d="M2351.31,632.38c0-14.99,10.69-34.36,39.08-34.36c23.56,0,38.22,12.7,38.22,32.78
			c0,20.07-15.13,35.94-39.17,35.94C2362.29,666.74,2351.31,647.9,2351.31,632.38z M2415.36,634.04c0-19.63-12.21-31.82-27.73-31.82
			c-10.88,0-23.27,5.61-23.27,27.44c0,18.24,10.88,32.7,29.04,32.7C2400.04,662.36,2415.36,659.38,2415.36,634.04z"/>
		<path class="st0" d="M2452.09,653.59c0.19,6.84,1.42,9.12,3.31,9.73c1.61,0.53,3.41,0.61,4.92,0.61c1.05,0,1.61,0.17,1.61,0.7
			c0,0.7-0.85,0.88-2.18,0.88c-6.15,0-9.93-0.26-11.73-0.26c-0.85,0-5.3,0.26-10.22,0.26c-1.23,0-2.08-0.09-2.08-0.88
			c0-0.53,0.57-0.7,1.51-0.7c1.23,0,2.93-0.08,4.26-0.44c2.46-0.7,2.84-3.24,2.93-10.87l0.85-51.9c0-1.75,0.28-2.98,1.23-2.98
			c1.04,0,1.89,1.14,3.5,2.72c1.14,1.14,15.52,15.43,29.33,28.13c6.43,5.97,19.2,18.59,20.82,19.99h0.47l-0.94-39.35
			c-0.1-5.35-0.94-7.02-3.22-7.89c-1.42-0.53-3.69-0.53-5.01-0.53c-1.14,0-1.52-0.26-1.52-0.79c0-0.7,1.04-0.79,2.46-0.79
			c4.92,0,9.46,0.26,11.45,0.26c1.04,0,4.64-0.26,9.27-0.26c1.23,0,2.18,0.08,2.18,0.79c0,0.52-0.57,0.79-1.7,0.79
			c-0.94,0-1.7,0-2.84,0.26c-2.65,0.7-3.41,2.54-3.5,7.45l-1.04,55.31c0,1.92-0.38,2.72-1.23,2.72c-1.04,0-2.18-0.97-3.22-1.93
			c-5.96-5.26-18.07-16.74-27.91-25.77c-10.31-9.46-20.81-20.43-22.51-22.09h-0.29L2452.09,653.59z"/>
		<path class="st0" d="M2526.77,664.46c-1.52-0.61-1.8-1.05-1.8-2.98c0-4.82,0.38-10.08,0.48-11.48c0.09-1.31,0.38-2.28,1.14-2.28
			c0.85,0,0.94,0.79,0.94,1.49c0,1.14,0.38,2.98,0.85,4.47c2.08,6.48,7.66,8.85,13.53,8.85c8.51,0,12.68-5.35,12.68-9.99
			c0-4.29-1.42-8.33-9.27-14.02l-4.35-3.16c-10.41-7.54-14-13.67-14-20.77c0-9.64,8.7-16.57,21.85-16.57
			c6.15,0,10.13,0.87,12.58,1.49c0.85,0.18,1.32,0.44,1.32,1.05c0,1.14-0.38,3.69-0.38,10.52c0,1.92-0.28,2.63-1.04,2.63
			c-0.66,0-0.94-0.52-0.94-1.58c0-0.79-0.48-3.51-2.46-5.78c-1.42-1.67-4.17-4.3-10.31-4.3c-7,0-11.26,3.77-11.26,9.03
			c0,4.03,2.18,7.1,10.03,12.62l2.65,1.84c11.44,7.98,15.51,14.03,15.51,22.36c0,5.08-2.08,11.13-8.89,15.25
			c-4.73,2.81-10.03,3.6-15.04,3.6C2535.1,666.74,2530.84,666.13,2526.77,664.46z"/>
		<path class="st0" d="M2582.56,624.66c0-13.32,0-15.78-0.19-18.58c-0.19-2.98-0.94-4.38-4.06-5c-0.76-0.17-2.37-0.26-3.69-0.26
			c-1.04,0-1.61-0.17-1.61-0.79c0-0.61,0.66-0.79,2.08-0.79c5.01,0,10.97,0.26,13.81,0.26c2.27,0,8.23-0.26,11.64-0.26
			c1.42,0,2.09,0.17,2.09,0.79c0,0.61-0.57,0.79-1.52,0.79c-1.04,0-1.61,0.09-2.74,0.26c-2.56,0.44-3.31,1.93-3.51,5
			c-0.19,2.8-0.19,5.26-0.19,18.58v12.27c0,12.71,2.74,18.06,7.38,21.56c4.26,3.25,8.61,3.6,11.83,3.6c4.16,0,9.27-1.23,13.05-4.73
			c5.21-4.82,5.49-12.71,5.49-21.74v-10.96c0-13.32,0-15.78-0.19-18.58c-0.19-2.98-0.94-4.38-4.06-5c-0.76-0.17-2.37-0.26-3.41-0.26
			c-1.04,0-1.61-0.17-1.61-0.79c0-0.61,0.66-0.79,1.98-0.79c4.83,0,10.79,0.26,10.88,0.26c1.14,0,7.09-0.26,10.79-0.26
			c1.32,0,1.98,0.17,1.98,0.79c0,0.61-0.57,0.79-1.7,0.79c-1.04,0-1.61,0.09-2.75,0.26c-2.55,0.44-3.31,1.93-3.5,5
			c-0.19,2.8-0.19,5.26-0.19,18.58v9.38c0,9.73-1.04,20.08-8.99,26.38c-6.72,5.35-13.53,6.31-19.68,6.31c-5.01,0-14.09-0.26-21-6.05
			c-4.82-4.03-8.42-10.52-8.42-23.23V624.66z"/>
		<path class="st0" d="M2666.83,599.6c0.28-1.49,0.85-2.28,1.61-2.28c0.76,0,1.32,0.44,2.56,2.72l25.83,49.44l25.74-50.05
			c0.76-1.4,1.23-2.1,2.08-2.1c0.85,0,1.42,0.88,1.71,2.72l8.6,54.17c0.85,5.53,1.8,8.06,4.64,8.86c2.75,0.79,4.64,0.87,5.87,0.87
			c0.85,0,1.52,0.09,1.52,0.61c0,0.7-1.14,0.97-2.46,0.97c-2.37,0-15.42-0.26-19.21-0.53c-2.17-0.17-2.74-0.44-2.74-0.96
			c0-0.44,0.38-0.7,1.04-0.96c0.57-0.18,0.85-1.32,0.47-3.77l-5.68-38.57h-0.38l-20.62,39.8c-2.18,4.12-2.65,4.91-3.5,4.91
			c-0.85,0-1.8-1.75-3.31-4.38c-2.27-4.03-9.75-17.44-10.88-19.9c-0.85-1.84-6.52-12.89-9.84-19.46h-0.38l-4.92,34.89
			c-0.19,1.58-0.28,2.72-0.28,4.12c0,1.67,1.23,2.45,2.84,2.8c1.7,0.35,3.03,0.44,3.98,0.44c0.76,0,1.42,0.17,1.42,0.61
			c0,0.79-0.85,0.97-2.27,0.97c-3.97,0-8.23-0.26-9.93-0.26c-1.8,0-6.34,0.26-9.37,0.26c-0.94,0-1.7-0.17-1.7-0.97
			c0-0.44,0.57-0.61,1.52-0.61c0.76,0,1.42,0,2.84-0.26c2.65-0.53,3.4-3.94,3.88-6.93L2666.83,599.6z"/>
		<path class="st0" d="M2763.7,624.66c0-13.32,0-15.78-0.19-18.58c-0.19-2.98-1.14-4.47-3.22-4.91c-1.04-0.26-2.27-0.35-3.4-0.35
			c-0.95,0-1.52-0.17-1.52-0.88c0-0.52,0.76-0.7,2.27-0.7c3.6,0,9.56,0.26,12.3,0.26c2.36,0,7.95-0.26,11.54-0.26
			c1.23,0,1.99,0.17,1.99,0.7c0,0.7-0.57,0.88-1.52,0.88c-0.94,0-1.7,0.09-2.84,0.26c-2.56,0.44-3.31,1.93-3.5,5
			c-0.19,2.8-0.19,5.26-0.19,18.58v15.43c0,8.5,0,15.43,0.37,19.2c0.29,2.36,0.95,3.94,3.79,4.29c1.32,0.17,3.4,0.35,4.82,0.35
			c1.04,0,1.52,0.26,1.52,0.7c0,0.61-0.76,0.88-1.8,0.88c-6.24,0-12.21-0.26-14.76-0.26c-2.17,0-8.14,0.26-11.92,0.26
			c-1.23,0-1.89-0.26-1.89-0.88c0-0.44,0.38-0.7,1.52-0.7c1.42,0,2.56-0.17,3.4-0.35c1.89-0.35,2.47-1.84,2.75-4.38
			c0.47-3.68,0.47-10.61,0.47-19.11V624.66z"/>
		<path class="st0" d="M2805.15,624.66c0-13.32,0-15.78-0.19-18.58c-0.19-2.98-0.94-4.38-4.07-5c-0.75-0.17-2.36-0.26-3.69-0.26
			c-1.04,0-1.61-0.17-1.61-0.79c0-0.61,0.66-0.79,2.08-0.79c5.01,0,10.98,0.26,13.63,0.26c2.93,0,8.89-0.26,14.57-0.26
			c11.83,0,27.63,0,37.94,9.99c4.73,4.56,9.18,11.83,9.18,22.26c0,11.05-5.01,19.46-10.31,24.46c-4.35,4.12-14.19,10.34-31.69,10.34
			c-3.41,0-7.29-0.26-10.88-0.53c-3.59-0.26-6.9-0.52-9.27-0.52c-1.05,0-3.13,0-5.39,0.09c-2.18,0-4.64,0.17-6.53,0.17
			c-1.23,0-1.89-0.26-1.89-0.88c0-0.44,0.38-0.7,1.52-0.7c1.42,0,2.56-0.17,3.4-0.35c1.89-0.35,2.37-2.28,2.75-4.82
			c0.47-3.68,0.47-10.61,0.47-18.67V624.66z M2816.98,634.31c0,9.29,0.1,16.04,0.19,17.71c0.09,2.19,0.28,5.69,1.04,6.66
			c1.23,1.67,4.92,3.51,12.39,3.51c9.65,0,16.08-1.76,21.76-6.31c6.05-4.82,7.95-12.8,7.95-21.83c0-11.13-5.02-18.32-9.09-21.91
			c-8.7-7.71-19.49-8.77-26.87-8.77c-1.89,0-5.39,0.26-6.15,0.61c-0.85,0.35-1.14,0.79-1.14,1.75c-0.1,2.98-0.1,10.61-0.1,17.53
			V634.31z"/>
		<path class="st0" d="M2883.28,632.38c0-14.99,10.69-34.36,39.08-34.36c23.56,0,38.22,12.7,38.22,32.78
			c0,20.07-15.13,35.94-39.17,35.94C2894.26,666.74,2883.28,647.9,2883.28,632.38z M2947.33,634.04c0-19.63-12.21-31.82-27.73-31.82
			c-10.88,0-23.27,5.61-23.27,27.44c0,18.24,10.88,32.7,29.04,32.7C2932.01,662.36,2947.33,659.38,2947.33,634.04z"/>
		<path class="st0" d="M2977.65,624.66c0-13.32,0-15.78-0.19-18.58c-0.19-2.98-0.94-4.38-4.07-5c-0.75-0.17-2.36-0.26-3.69-0.26
			c-1.04,0-1.61-0.17-1.61-0.79c0-0.61,0.66-0.79,2.08-0.79c5.02,0,10.98,0.26,12.96,0.26c3.22,0,10.41-0.26,13.34-0.26
			c5.96,0,12.3,0.52,17.41,3.77c2.65,1.67,6.43,6.13,6.43,12.01c0,6.49-2.93,12.45-12.49,19.63c8.42,9.82,14.95,17.62,20.53,23.05
			c5.3,5.09,9.18,5.7,10.59,5.97c1.04,0.17,1.89,0.26,2.65,0.26c0.76,0,1.14,0.26,1.14,0.7c0,0.7-0.66,0.88-1.8,0.88h-8.99
			c-5.3,0-7.67-0.44-10.13-1.67c-4.06-2.02-7.66-6.14-12.96-12.89c-3.79-4.82-8.14-10.78-9.37-12.1c-0.47-0.52-1.04-0.61-1.7-0.61
			l-8.23-0.17c-0.47,0-0.76,0.17-0.76,0.7v1.23c0,8.15,0,15.07,0.47,18.75c0.28,2.54,0.85,4.47,3.69,4.82
			c1.42,0.17,3.51,0.35,4.64,0.35c0.76,0,1.14,0.26,1.14,0.7c0,0.61-0.66,0.88-1.89,0.88c-5.49,0-12.49-0.26-13.91-0.26
			c-1.8,0-7.76,0.26-11.54,0.26c-1.23,0-1.89-0.26-1.89-0.88c0-0.44,0.38-0.7,1.52-0.7c1.42,0,2.56-0.17,3.4-0.35
			c1.89-0.35,2.37-2.28,2.75-4.82c0.47-3.68,0.47-10.61,0.47-18.67V624.66z M2988.82,631.59c0,0.96,0.19,1.32,0.85,1.58
			c1.98,0.61,4.82,0.88,7.19,0.88c3.78,0,5.01-0.35,6.72-1.49c2.84-1.92,5.58-5.96,5.58-13.14c0-12.45-8.89-16.04-14.47-16.04
			c-2.37,0-4.07,0.08-5.01,0.35c-0.66,0.17-0.85,0.53-0.85,1.23V631.59z"/>
	</g>
	<g>
		<g>
			<path class="st0" d="M1658.07,457.19c-100.67-0.32-829.86,0-829.86,0s180.54-0.32,79.87,0c-92.96,0.29-830.42,6.9-908.07,19.07
				c77.65,12.19,815.12,18.78,908.07,19.08c100.67,0.32-79.87,0-79.87,0s729.19,0.32,829.86,0"/>
		</g>
	</g>
	<g>
		<g>
			<path class="st0" d="M1897.71,457.19c100.68-0.32,829.86,0,829.86,0s-180.53-0.32-79.86,0c92.96,0.29,830.42,6.9,908.07,19.07
				c-77.66,12.19-815.11,18.78-908.07,19.08c-100.67,0.32,79.86,0,79.86,0s-729.18,0.32-829.86,0"/>
		</g>
	</g>
</g>
</svg>
