<?xml version="1.0" encoding="utf-8"?>
<!-- Generator: Adobe Illustrator 25.4.1, SVG Export Plug-In . SVG Version: 6.00 Build 0)  -->
<svg version="1.1" id="Capa_1" xmlns="http://www.w3.org/2000/svg" xmlns:xlink="http://www.w3.org/1999/xlink" x="0px" y="0px"
	 viewBox="0 0 1080 1080" style="enable-background:new 0 0 1080 1080;" xml:space="preserve">
<style type="text/css">
	.st0{fill:#903F8F;}
	.st1{fill:#FFFFFF;}
	.st2{fill:#903F8F;stroke:#903F8F;stroke-width:0.25;stroke-miterlimit:10;}
	.st3{fill:#FAFCFC;}
	.st4{fill:#903F8F;stroke:#903F8F;stroke-miterlimit:10;}
</style>
<symbol  id="Nuevo_símbolo" viewBox="-47.31 -46.37 94.62 92.75">
	<g>
		<path class="st0" d="M30.25,34.98c10.34-8.33,16.98-21.07,17.06-35.35c0.15-24.84-19.82-45.42-44.65-45.99
			C-20.22-46.89-39.4-30.6-43.39-8.99c0,0,6.44,18.57,16.76,9.25c0,0,10.18-9.68,19.3-5.34c0,0,6.51,3.15-1.61,18.25
			c-0.58,1.09-0.91,2.31-0.87,3.54c0.03,1.01,0.1,1.77,1.08,3.06c0,0,3.74,4.38,12.27-1.3c0,0,6.22-3.63,9.49,0
			c0,0,4.38,4.77-0.08,12.96c0,0-3.27,5.6-0.04,8.59c0,0,4.67,4.71,14.91-3.5L30.25,34.98z"/>
		<g>
			<g>
				<path class="st0" d="M21.79,40.77c0.2-0.11,2.06-1.1,3.75-1.97c-0.68,0.7-1.28,1.46-1.79,2.2c-0.31,0.2-0.54,0.34-0.54,0.34
					c-0.25,0.14-0.49,0.27-0.73,0.4c-6.96,3.85-11.06,5.92-14.39,3.76c-3.45-2.23-2.39-5.54-0.38-10.74
					c0.36-0.92,1.6-4.91,1.62-4.84c0.59-2.5,0.53-4.83-1.4-6.17c-0.03-0.02-0.05-0.04-0.08-0.05c-1.67-1.08-10.93,0.8-11.14,0.84
					c-4.5,0.86-7.18,3-10.99,0.53c-2.84-1.84-0.54-8.74-0.47-8.74c0.14-0.32,4.69-11.23,1-13.62c-3.23-2.09-14.33,3.35-14.94,3.48
					c-0.3,0.17-1.75,0.96-1.99,1.09c-6.96,3.85-11.06,5.92-14.39,3.76c-3.45-2.23-2.39-5.54-0.38-10.74
					c0.28-0.72,1.69-4.73,1.72-5.1c0-0.06,0-0.12,0-0.19c0.06-0.29,0.11-0.58,0.15-0.87c0.25-1.13,0.34-2.34,0.3-3.59
					c1.26,1.78,1.11,3.99,0.28,6.74c0.01,0,0.01,0,0.02,0C-43-2.65-43.44-1.27-43.46-1.2c-0.01,0.03-0.24,0.59-0.33,0.85
					c-0.04,0.13-0.09,0.26-0.14,0.4c0-0.01,0-0.02,0-0.04C-44.05,0.34-44.17,0.67-44.3,1c-1.39,3.59-3.11,8.05-0.48,9.75
					c2.29,1.49,7.41-1.12,11.86-3.57l1.56-0.86c0.32-0.17,13.59-6.7,17.9-3.91c4.91,3.18-0.24,14.46-0.5,15.36
					c-0.1,0.37-1.72,5.9-0.03,7c2.55,1.66,8.65-0.98,9.51-1.06c0.23-0.09,9.21-2.53,12.64-0.31c0.05,0.04,0.11,0.07,0.16,0.11
					c2.87,1.98,2.91,4.66,1.84,8.24c0.03,0-0.27,0.85-0.36,1.11c0.01,0.35-0.82,2.24-0.95,2.58c-0.13,0.33-2.55,8.41-0.48,9.75
					C10.67,46.68,21.51,40.84,21.79,40.77z"/>
			</g>
			<g>
				<path class="st0" d="M16.55,44.14c-0.24,0.19-0.5,0.44-0.75,0.71c-1.29,0-2.51-0.37-3.8-1.28c-3.33-2.33-3.32-4.81-3.04-8.66
					c0.05-0.68,0.03-3.68,0.07-3.62c-0.16-1.91-0.8-3.79-2.69-5.16c-0.03-0.02-0.05-0.04-0.08-0.05c-1.61-1.13-8.54-1.07-8.7-1.07
					C-5.83,25-7.43,26.3-11.1,23.73c-2.75-1.92-2.66-7.08-2.6-7.07c0.03-0.24,0.89-8.25-2.67-10.74
					c-3.12-2.18-10.62,0.43-11.07,0.45c-0.2,0.08-1.16,0.5-1.31,0.56c-4.59,1.99-7.35,3.01-10.56,0.76
					c-3.33-2.33-3.32-4.81-3.04-8.66c0.04-0.53,0.15-3.52,0.08-3.82c-0.01-0.05-0.03-0.1-0.05-0.15c-0.03-0.22-0.06-0.45-0.1-0.67
					c-0.09-0.87-0.33-1.82-0.67-2.82c1.46,1.62,1.9,3.37,1.94,5.44c0,0,0.01,0,0.01,0c-0.01,0.03-0.01,1.06,0,1.12
					c0,0.02-0.04,0.44-0.04,0.63c0,0.09-0.01,0.19-0.01,0.3c0-0.01-0.01-0.02-0.01-0.03c-0.01,0.24-0.03,0.48-0.05,0.73
					c-0.2,2.65-0.44,5.95,2.1,7.73c2.21,1.55,5.64,0.26,8.59-1l1.03-0.44c0.21-0.09,9.17-3.24,13.33-0.33
					c4.74,3.32,3.49,11.54,3.51,12.21c0.01,0.28,0.12,4.45,1.75,5.6c2.47,1.72,6.68,0.57,7.34,0.64c0.16-0.04,6.73-0.59,10.04,1.73
					c0.05,0.04,0.11,0.08,0.16,0.11c2.8,2.04,3.52,4.18,3.57,6.88c0.02,0.01,0,0.64,0,0.84c0.09,0.28-0.08,1.67-0.1,1.91
					c-0.02,0.25,0.1,6.33,2.1,7.73c1.17,0.82,3.72,0.37,5.9-0.23C17.51,43.45,17,43.78,16.55,44.14z"/>
			</g>
			<path class="st0" d="M23.76,41c0,0,7.81-6.49,10.86-10.02l-7.05,4.19c0,0-5.12,5.55-9.31,7.32"/>
			<path class="st0" d="M-45.45,0.31c0,0,0.76-6.36,3.27-14.98l1.67,5.24l-2.6,4.22l-1.99,5.52"/>
		</g>
	</g>
	<g>
		<g>
			<path class="st1" d="M-11.78-26.91c0.09,0,0.18,0,0.26,0c8.11,0,16.22,0,24.33,0c0.08,0,0.17,0,0.25,0
				c0.23-0.02,0.4-0.21,0.41-0.43c0-0.22-0.16-0.41-0.39-0.44c-0.08-0.01-0.15-0.01-0.23-0.01c-8.73,0-17.46,0-26.18,0
				c-0.18,0-0.27-0.05-0.34-0.22c-1.15-2.54-2.3-5.08-3.45-7.61c-0.14-0.3-0.37-0.42-0.62-0.32c-0.25,0.1-0.32,0.38-0.18,0.69
				c1.53,3.37,3.06,6.73,4.59,10.1c1.36,2.99,2.72,5.99,4.08,8.98C-6.18-9.39-3.11-2.62-0.03,4.15c0.08,0.18,0.06,0.25-0.1,0.36
				C-1.5,5.45-2.2,6.75-2.12,8.41c0.09,1.71,0.93,3,2.47,3.75c2.6,1.27,5.62-0.23,6.24-3.06C6.98,7.32,6.17,5.41,4.6,4.46
				c-0.16-0.1-0.17-0.18-0.11-0.35c1.16-3.04,2.32-6.07,3.47-9.11C8-5.09,8.04-5.18,8.07-5.28c0.09-0.35-0.2-0.66-0.54-0.54
				c-0.54,0.2-1.07,0.42-1.6,0.66C4.65-4.57,3.38-3.97,2.11-3.37c-0.18,0.09-0.32,0.07-0.5-0.01C0.02-4.12-1.57-4.88-3.18-5.6
				c-0.32-0.14-0.47-0.33-0.6-0.62c-1.35-2.99-2.71-5.98-4.07-8.96c-0.03-0.07-0.07-0.15-0.12-0.27c0.15,0,0.26,0,0.38,0
				c4.8,0,9.59,0,14.39,0c0.09,0,0.19,0,0.28,0c0.25-0.02,0.43-0.2,0.44-0.43c0.01-0.22-0.18-0.42-0.42-0.45
				c-0.08-0.01-0.17-0.01-0.25-0.01c-4.39,0-8.77,0-13.16,0c-0.09,0-0.18,0-0.27,0c0-0.01-0.01-0.03-0.01-0.04
				c0.06-0.03,0.11-0.07,0.17-0.1c2.37-1.11,4.74-2.21,7.11-3.33c0.17-0.08,0.31-0.08,0.48,0c2.05,0.97,4.11,1.93,6.16,2.89
				c0.29,0.14,0.57,0.07,0.68-0.17c0.11-0.25,0-0.49-0.3-0.63c-1.82-0.86-3.65-1.71-5.47-2.57C2.17-20.31,2.1-20.35,2-20.4
				c0.12-0.06,0.2-0.11,0.29-0.15c3.2-1.5,6.41-2.99,9.61-4.49c0.04-0.02,0.08-0.04,0.13-0.06c0.22-0.12,0.32-0.38,0.22-0.59
				c-0.09-0.21-0.36-0.31-0.59-0.21c-0.51,0.23-1.02,0.47-1.53,0.71c-3,1.4-6,2.8-9,4.21c-0.14,0.07-0.25,0.06-0.39-0.01
				c-4.11-1.93-8.22-3.85-12.33-5.78c-0.07-0.03-0.13-0.07-0.19-0.1C-11.78-26.88-11.78-26.89-11.78-26.91z M-12.91-26.33
				c0.01-0.01,0.03-0.03,0.04-0.04c4.23,1.98,8.47,3.97,12.76,5.98c-2.81,1.31-5.56,2.6-8.33,3.89
				C-9.94-19.8-11.42-23.07-12.91-26.33z M5.8,8.21c0,1.94-1.6,3.54-3.53,3.53c-1.93-0.01-3.52-1.6-3.52-3.52
				c0.01-2.02,1.6-3.54,3.53-3.54C4.23,4.67,5.8,6.27,5.8,8.21z M3.6,3.98C3.52,3.96,3.47,3.96,3.42,3.95
				C2.64,3.73,1.86,3.74,1.09,3.96C0.91,4.01,0.85,3.96,0.78,3.81C0.12,2.34-0.55,0.88-1.21-0.58c-0.03-0.07-0.06-0.14-0.09-0.21
				c0.05-0.03,0.07-0.05,0.1-0.06c0.98-0.46,1.96-0.92,2.94-1.36c0.09-0.04,0.23-0.02,0.32,0.03c0.98,0.45,1.95,0.9,2.92,1.36
				C5.1-0.77,5.22-0.71,5.36-0.65C4.77,0.9,4.19,2.43,3.6,3.98z M5.68-1.48C4.76-1.91,3.86-2.33,2.92-2.77
				c1.34-0.62,2.62-1.22,3.9-1.82c0.01,0.02,0.02,0.03,0.03,0.05C6.46-3.54,6.08-2.53,5.68-1.48z M-1.67-1.61
				c-0.44-0.97-0.88-1.93-1.31-2.88c0.01-0.01,0.03-0.03,0.04-0.04c1.24,0.58,2.48,1.16,3.76,1.76C-0.05-2.37-0.85-1.99-1.67-1.61z"
				/>
			<path class="st1" d="M21.32-8.49c0-1.8,0.01-3.6,0-5.4c-0.01-1.27-0.55-2.24-1.71-2.79c-0.37-0.18-0.81-0.28-1.22-0.29
				c-1.92-0.03-3.85-0.02-5.77-0.01c-1.58,0-2.92,1.33-2.92,2.91c-0.01,3.72-0.01,7.45,0,11.17c0,1.6,1.34,2.91,2.94,2.91
				c1.89,0,3.78,0,5.68,0c1.69,0,3-1.3,3.01-2.99C21.33-4.81,21.32-6.65,21.32-8.49z M10.58-2.96c0.11,0,0.19,0,0.27,0
				c0.7,0,1.41,0,2.11,0c0.33,0,0.54-0.18,0.54-0.44c0-0.27-0.21-0.44-0.54-0.44c-0.7,0-1.39,0-2.09,0c-0.09,0-0.18,0-0.28,0
				c0-0.5,0-0.97,0-1.46c0.11,0,0.2,0,0.29,0c0.65,0,1.3,0,1.95,0c0.06,0,0.12,0,0.19,0c0.28-0.01,0.48-0.19,0.48-0.43
				c0.01-0.25-0.2-0.45-0.48-0.45c-0.73-0.01-1.45,0-2.18,0c-0.08,0-0.16-0.01-0.24-0.01c0-0.53,0-1.02,0-1.54c0.1,0,0.19,0,0.27,0
				c0.71,0,1.42,0,2.13,0c0.2,0,0.39-0.07,0.44-0.26c0.04-0.14,0.02-0.34-0.06-0.44c-0.08-0.1-0.28-0.17-0.42-0.17
				c-0.69-0.02-1.39-0.01-2.08-0.01c-0.09,0-0.18,0-0.28,0c0-0.58,0-1.13,0-1.7c0.1,0,0.19,0,0.27,0c0.7,0,1.39,0,2.09,0
				c0.33,0,0.54-0.17,0.55-0.44c0-0.27-0.21-0.44-0.54-0.45c-0.7,0-1.39,0-2.09,0c-0.09,0-0.18,0-0.28,0c0-0.52,0-1.01,0-1.52
				c0.11,0,0.2,0,0.29,0c0.71,0,1.42,0,2.13,0c0.36,0,0.58-0.34,0.42-0.64c-0.1-0.18-0.26-0.25-0.46-0.25c-0.73,0-1.47,0-2.2,0
				c-0.12,0-0.2-0.01-0.21-0.17c-0.08-1.32,0.84-2.32,2.16-2.32c1.85,0,3.69,0,5.54,0c0.41,0,0.79,0.1,1.15,0.3
				c0.71,0.41,1.17,1.42,0.96,2.18c-0.08,0-0.16,0-0.24,0c-0.7,0-1.39,0-2.09,0c-0.35,0-0.56,0.18-0.56,0.45
				c0.01,0.27,0.21,0.43,0.55,0.43c0.7,0,1.41,0,2.11,0c0.08,0,0.16,0.01,0.26,0.01c0,0.51,0,0.99,0,1.5c-0.1,0-0.19,0-0.28,0
				c-0.71,0-1.42,0-2.13,0c-0.32,0-0.54,0.23-0.49,0.5c0.04,0.23,0.23,0.38,0.51,0.38c0.72,0,1.44,0,2.15,0
				c0.08,0,0.16,0.01,0.25,0.01c0,0.57,0,1.12,0,1.69c-0.11,0-0.2,0-0.29,0c-0.66,0-1.31,0-1.97,0c-0.05,0-0.11,0-0.16,0
				c-0.3,0.01-0.5,0.19-0.49,0.44c0,0.25,0.2,0.44,0.5,0.44c0.73,0.01,1.45,0,2.18,0c0.08,0,0.16,0.01,0.23,0.01
				c0,0.53,0,1.03,0,1.54c-0.1,0-0.19,0-0.27,0c-0.67,0-1.34,0-2.02,0c-0.05,0-0.11,0-0.16,0c-0.27,0.02-0.47,0.22-0.46,0.46
				c0.01,0.24,0.19,0.42,0.46,0.43c0.72,0.01,1.44,0,2.15,0c0.1,0,0.19,0,0.29,0c0,0.5,0,0.97,0,1.46c-0.11,0-0.2,0-0.29,0
				c-0.69,0-1.37,0-2.06,0c-0.35,0-0.56,0.17-0.56,0.45c0.01,0.27,0.22,0.43,0.55,0.43c0.7,0,1.41,0,2.11,0c0.08,0,0.16,0,0.26,0
				c0,0.1,0.01,0.17,0,0.23c-0.12,1.05-1,1.85-2.06,1.85c-1.88,0-3.75,0-5.63,0c-0.57,0-1.07-0.17-1.48-0.56
				C10.82-1.83,10.59-2.33,10.58-2.96z"/>
			<path class="st1" d="M23.13-7.63c0.23-0.02,0.43-0.02,0.62-0.05c0.65-0.11,1.12-0.62,1.17-1.28c0.02-0.25,0.02-0.51,0-0.76
				c-0.06-0.69-0.57-1.22-1.27-1.29c-0.16-0.02-0.32-0.03-0.51-0.04c0-0.08-0.01-0.17-0.01-0.26c-0.01-0.98,0.02-1.96-0.03-2.94
				c-0.09-2.03-1.67-3.91-3.64-4.4c-0.18-0.05-0.44-0.04-0.53-0.16c-0.1-0.12-0.03-0.37-0.04-0.56c0-0.32,0-0.65,0-0.97
				c0-0.36-0.17-0.53-0.52-0.53c-2.19,0-4.37,0-6.56,0c-0.37,0-0.53,0.17-0.53,0.54c0,0.53,0,1.05,0,1.58c0,0.14-0.05,0.2-0.18,0.25
				c-1.63,0.64-2.67,1.82-3.09,3.52c-0.1,0.39-0.13,0.79-0.14,1.19c-0.02,0.83-0.01,1.65-0.01,2.48c0,0.08,0,0.17,0,0.27
				c-0.14,0.02-0.27,0.03-0.39,0.04c-0.74,0.08-1.27,0.65-1.29,1.39c-0.01,0.18,0,0.36,0,0.53c0.01,0.82,0.62,1.42,1.44,1.44
				c0.07,0,0.14,0,0.24,0c0,0.35,0,0.68,0,1.01c0,0.13,0,0.26,0.02,0.39C7.94-6.02,8.13-5.89,8.35-5.9c0.21-0.01,0.37-0.16,0.4-0.38
				c0.01-0.08,0.01-0.17,0.01-0.25c0-2.42-0.01-4.83,0-7.25c0-1.41,0.57-2.56,1.72-3.4c0.67-0.49,1.44-0.74,2.27-0.75
				c1.83-0.01,3.66-0.01,5.49,0c2.2,0.01,3.99,1.83,3.99,4.04c0,2.45,0,4.9,0,7.34c0,0.07,0,0.14,0,0.21
				c0.03,0.26,0.21,0.44,0.45,0.43c0.24,0,0.42-0.18,0.43-0.45c0.01-0.34,0-0.68,0-1.02C23.13-7.46,23.13-7.54,23.13-7.63z
				 M12.19-18.82c0-0.38,0-0.76,0-1.16c1.95,0,3.88,0,5.83,0c0,0.31-0.01,0.6,0,0.89c0.02,0.22-0.07,0.27-0.27,0.27
				c-1.61-0.01-3.22,0-4.84,0C12.67-18.82,12.43-18.82,12.19-18.82z M23.14-10.17c0.2,0.03,0.4,0.02,0.57,0.08
				c0.24,0.08,0.35,0.28,0.33,0.53c-0.02,0.35,0.13,0.76-0.31,0.96c-0.17,0.08-0.38,0.06-0.6,0.08C23.14-9.08,23.14-9.6,23.14-10.17
				z M7.86-8.56C7.32-8.49,7.08-8.7,7.07-9.21c0-0.1,0-0.2,0-0.3c0.01-0.47,0.32-0.71,0.79-0.6C7.86-9.6,7.86-9.09,7.86-8.56z"/>
			<path class="st1" d="M14.43-25.69c-0.6,0.32-0.9,0.84-0.87,1.57c-0.33,0-0.65,0-0.96,0c-0.27,0-0.54,0-0.81,0
				c-0.33,0.01-0.5,0.18-0.5,0.5c0,0.64,0,1.28,0,1.92c0,0.4,0.16,0.56,0.56,0.56c1.69,0,3.38,0.01,5.07,0.01
				c0.48,0,0.96,0.01,1.44,0c0.37,0,0.53-0.17,0.53-0.54c0-0.64,0-1.28,0-1.92c0-0.37-0.17-0.53-0.54-0.54c-0.59,0-1.19,0-1.81,0
				c0-0.09-0.01-0.17-0.01-0.24c-0.02-0.63-0.39-1.14-0.98-1.36c-0.07-0.03-0.15-0.07-0.18-0.12c-0.48-0.94-0.77-1.92-0.5-2.99
				c0.21-0.82,0.74-1.41,1.45-1.85c0.48-0.3,0.99-0.54,1.47-0.83c0.91-0.54,1.74-1.18,2.32-2.09c0.91-1.41,0.86-2.83-0.04-4.22
				c-0.53-0.83-1.27-1.45-2.16-1.87c-0.3-0.14-0.57-0.07-0.68,0.16c-0.12,0.24,0.01,0.49,0.31,0.64c0.98,0.49,1.74,1.2,2.14,2.24
				c0.43,1.12,0.12,2.11-0.63,2.98c-0.71,0.83-1.63,1.38-2.59,1.87c-0.83,0.42-1.56,0.97-2.05,1.78c-0.6,1.01-0.65,2.09-0.36,3.2
				C14.16-26.43,14.3-26.07,14.43-25.69z M12.18-23.23c0.11,0,0.19,0,0.27,0c0.47,0,0.94,0,1.41,0c0.43,0,0.58-0.15,0.58-0.59
				c0-0.17-0.01-0.34,0-0.51c0.01-0.35,0.28-0.6,0.61-0.6c0.33,0,0.59,0.27,0.6,0.61c0,0.18,0,0.35,0,0.53
				c0,0.38,0.17,0.55,0.55,0.55c0.52,0,1.03,0,1.55,0c0.08,0,0.16,0.01,0.26,0.01c0,0.34-0.01,0.66,0,0.97
				c0.01,0.19-0.05,0.25-0.25,0.25C16-22,14.24-22,12.47-22.01c-0.1,0-0.19-0.02-0.29-0.03C12.18-22.44,12.18-22.81,12.18-23.23z"/>
			<path class="st1" d="M-12.94,16.27c0.33,0,0.52-0.34,0.37-0.68c-0.16-0.36-0.33-0.71-0.48-1.08c-0.93-2.26-1.34-4.62-1.23-7.06
				c0.09-2.07,0.56-4.06,1.4-5.96c0.02-0.05,0.05-0.1,0.06-0.15c0.09-0.24-0.01-0.49-0.22-0.59c-0.22-0.1-0.47,0-0.58,0.23
				c-0.13,0.26-0.24,0.54-0.34,0.81c-0.93,2.37-1.33,4.83-1.19,7.37c0.13,2.35,0.71,4.58,1.73,6.7
				C-13.28,16.15-13.14,16.27-12.94,16.27z"/>
			<path class="st1" d="M19.74,8.21c-0.03-2.53-0.55-4.95-1.59-7.25c-0.04-0.09-0.09-0.19-0.16-0.25c-0.16-0.14-0.35-0.16-0.53-0.04
				c-0.18,0.11-0.24,0.34-0.15,0.56c0.15,0.37,0.32,0.74,0.46,1.11c1.07,2.82,1.34,5.73,0.84,8.7c-0.25,1.48-0.71,2.91-1.35,4.27
				c-0.14,0.3-0.08,0.57,0.16,0.68c0.24,0.11,0.5,0,0.63-0.3c0.91-1.96,1.47-4.01,1.62-6.17C19.7,9.09,19.72,8.65,19.74,8.21z"/>
			<path class="st1" d="M-11.97,8.09c0.01,2.05,0.38,3.9,1.12,5.66c0.02,0.06,0.05,0.11,0.08,0.17c0.12,0.23,0.37,0.32,0.59,0.23
				c0.21-0.1,0.31-0.35,0.22-0.59c-0.17-0.45-0.35-0.89-0.49-1.35c-0.95-3.09-0.8-6.14,0.41-9.13c0.02-0.05,0.04-0.1,0.06-0.15
				c0.1-0.26,0.01-0.51-0.21-0.61c-0.23-0.1-0.5,0-0.6,0.28c-0.27,0.77-0.55,1.54-0.76,2.33C-11.87,6-11.96,7.11-11.97,8.09z"/>
			<path class="st1" d="M16.52,8.6c-0.01-2.29-0.38-4.14-1.12-5.93c-0.01-0.03-0.02-0.06-0.04-0.09c-0.12-0.26-0.38-0.37-0.61-0.26
				c-0.22,0.1-0.29,0.36-0.2,0.61c0.25,0.74,0.54,1.46,0.72,2.22c0.66,2.75,0.43,5.45-0.61,8.08c-0.02,0.04-0.04,0.08-0.05,0.13
				c-0.07,0.24,0.03,0.48,0.24,0.56c0.22,0.09,0.48,0,0.58-0.24c0.17-0.43,0.33-0.86,0.47-1.3C16.3,11.1,16.52,9.6,16.52,8.6z"/>
			<path class="st1" d="M-8.56,8.21c0,1.22,0.21,2.41,0.59,3.57c0.01,0.04,0.03,0.07,0.04,0.11c0.11,0.29,0.35,0.42,0.59,0.33
				c0.24-0.09,0.34-0.34,0.23-0.64c-0.8-2.34-0.78-4.68,0.1-7c0.11-0.29,0.01-0.55-0.23-0.64c-0.24-0.09-0.48,0.04-0.59,0.33
				C-8.31,5.55-8.56,6.86-8.56,8.21z"/>
			<path class="st1" d="M13.11,8.12C13.1,6.94,12.89,5.7,12.45,4.5c-0.05-0.14-0.19-0.29-0.32-0.35c-0.11-0.04-0.31,0.01-0.41,0.09
				c-0.16,0.12-0.15,0.31-0.1,0.51c0.19,0.74,0.4,1.47,0.52,2.22c0.25,1.54,0.03,3.04-0.46,4.52c-0.13,0.38-0.06,0.63,0.2,0.73
				c0.27,0.1,0.5-0.05,0.63-0.44C12.9,10.63,13.11,9.44,13.11,8.12z"/>
		</g>
		<path class="st2" d="M-8.14,11.21l0.61-1.33c0,0-0.53-2.69,0.54-5.29c0,0,0.1-1.14-0.76-0.44C-7.76,4.15-9.34,7.4-8.14,11.21z"/>
		<path class="st2" d="M-10.78,13.92c0,0-2.68-5.51,0.08-11.51c0,0,0.78-0.51,0.7,0.52c0,0-2.29,4.46-0.2,10.04l0.21,0.54
			C-9.99,13.51-9.81,14.62-10.78,13.92z"/>
		<path class="st2" d="M-12.57,15.59c0,0-2.29-3.52-1.6-9.43c0,0,0.29-2.81,1.36-4.82c0,0,0.07-0.9-0.74-0.46
			c0,0-2.6,5.01-1.37,10.32c0,0,0.18,1.71,1.62,4.86C-13.31,16.06-12.42,16.78-12.57,15.59z"/>
	</g>
</symbol>
<symbol  id="Nuevo_símbolo_1" viewBox="-47.17 -46.23 94.34 92.47">
	<g>
		<path class="st0" d="M30.16,34.88c10.31-8.3,16.92-21,17.01-35.25c0.15-24.76-19.76-45.28-44.52-45.85
			c-22.81-0.52-41.94,15.72-45.91,37.26c0,0,6.42,18.51,16.71,9.22c0,0,10.15-9.65,19.24-5.33c0,0,6.49,3.14-1.61,18.19
			c-0.58,1.08-0.91,2.3-0.87,3.53c0.03,1.01,0.1,1.76,1.07,3.05c0,0,3.73,4.36,12.24-1.29c0,0,6.2-3.62,9.46,0
			c0,0,4.36,4.76-0.08,12.92c0,0-3.26,5.59-0.04,8.56c0,0,4.65,4.69,14.87-3.48L30.16,34.88z"/>
		<g>
			<g>
				<path class="st0" d="M21.73,40.64c0.2-0.11,2.05-1.1,3.74-1.97c-0.68,0.7-1.28,1.45-1.78,2.2c-0.31,0.2-0.54,0.34-0.54,0.34
					c-0.24,0.14-0.49,0.27-0.73,0.4c-6.94,3.84-11.03,5.9-14.35,3.75c-3.44-2.23-2.38-5.52-0.38-10.71
					c0.36-0.92,1.59-4.89,1.62-4.82c0.59-2.5,0.53-4.82-1.4-6.15c-0.03-0.02-0.05-0.04-0.08-0.05c-1.66-1.08-10.9,0.8-11.11,0.84
					c-4.49,0.86-7.16,2.99-10.95,0.53c-2.84-1.84-0.54-8.71-0.47-8.71c0.14-0.32,4.67-11.19,1-13.57
					c-3.22-2.09-14.29,3.34-14.89,3.47c-0.3,0.16-1.74,0.96-1.98,1.09c-6.94,3.84-11.03,5.9-14.35,3.75
					c-3.44-2.23-2.38-5.52-0.38-10.71c0.28-0.72,1.69-4.72,1.71-5.09c0-0.06,0-0.12,0-0.18c0.06-0.29,0.11-0.58,0.15-0.86
					c0.25-1.13,0.33-2.33,0.3-3.58c1.26,1.77,1.1,3.98,0.28,6.72c0.01,0,0.01,0,0.02,0c-0.02,0.04-0.46,1.41-0.48,1.49
					c-0.01,0.03-0.24,0.59-0.33,0.85c-0.04,0.13-0.09,0.26-0.14,0.4c0-0.01,0-0.02,0-0.04c-0.12,0.32-0.24,0.65-0.37,0.98
					c-1.38,3.57-3.1,8.02-0.48,9.72c2.29,1.48,7.39-1.12,11.83-3.56l1.55-0.86c0.31-0.17,13.55-6.68,17.85-3.89
					c4.9,3.17-0.24,14.42-0.49,15.31c-0.1,0.37-1.72,5.88-0.03,6.98c2.55,1.65,8.63-0.98,9.48-1.05c0.23-0.09,9.18-2.53,12.6-0.31
					c0.05,0.04,0.11,0.07,0.16,0.11c2.86,1.98,2.91,4.64,1.83,8.21c0.03,0-0.27,0.85-0.36,1.11c0.01,0.35-0.82,2.24-0.95,2.57
					c-0.13,0.33-2.54,8.39-0.48,9.72C10.63,46.54,21.45,40.71,21.73,40.64z"/>
			</g>
			<g>
				<path class="st0" d="M16.5,44c-0.24,0.19-0.5,0.44-0.75,0.71c-1.29,0-2.5-0.37-3.79-1.27c-3.32-2.32-3.31-4.79-3.03-8.63
					C8.98,34.13,8.96,31.14,9,31.2c-0.16-1.91-0.8-3.77-2.68-5.14C6.29,26.04,6.26,26.02,6.24,26c-1.61-1.12-8.52-1.06-8.68-1.06
					c-3.38-0.01-4.97,1.28-8.63-1.29c-2.74-1.91-2.65-7.06-2.59-7.05c0.03-0.23,0.89-8.23-2.66-10.71
					c-3.11-2.17-10.59,0.43-11.04,0.44c-0.2,0.08-1.15,0.49-1.31,0.56c-4.58,1.99-7.32,3-10.53,0.76c-3.32-2.32-3.31-4.79-3.03-8.63
					c0.04-0.53,0.15-3.51,0.08-3.8c-0.01-0.05-0.03-0.1-0.05-0.15c-0.03-0.22-0.06-0.45-0.1-0.67c-0.09-0.86-0.33-1.81-0.67-2.82
					c1.46,1.62,1.89,3.36,1.93,5.42c0,0,0.01,0,0.01,0c-0.01,0.03-0.01,1.06,0,1.12c0,0.02-0.04,0.44-0.04,0.63
					c0,0.09-0.01,0.19-0.01,0.3c0-0.01-0.01-0.02-0.01-0.03c-0.01,0.24-0.03,0.48-0.05,0.72c-0.2,2.65-0.44,5.94,2.09,7.7
					c2.21,1.54,5.63,0.26,8.56-1l1.02-0.44c0.21-0.09,9.15-3.23,13.29-0.32c4.73,3.31,3.48,11.5,3.5,12.18
					c0.01,0.28,0.12,4.44,1.75,5.58c2.46,1.72,6.66,0.57,7.32,0.64c0.16-0.04,6.71-0.58,10.01,1.73c0.05,0.04,0.11,0.07,0.16,0.11
					c2.79,2.03,3.51,4.17,3.56,6.86c0.02,0.01,0,0.64,0,0.83c0.09,0.28-0.08,1.66-0.1,1.91c-0.02,0.25,0.1,6.31,2.09,7.7
					c1.16,0.81,3.71,0.37,5.89-0.23C17.46,43.32,16.95,43.65,16.5,44z"/>
			</g>
			<path class="st0" d="M23.69,40.87c0,0,7.78-6.47,10.82-9.99l-7.03,4.18c0,0-5.11,5.53-9.28,7.29"/>
			<path class="st0" d="M-45.31,0.31c0,0,0.75-6.34,3.26-14.94l1.66,5.22l-2.59,4.21l-1.98,5.5"/>
		</g>
	</g>
	<g>
		<g>
			<path class="st3" d="M-15.03-25.29c0.18,2.46,0.18,2.46,1.69,2.74c-0.26,2.33-0.68,4.63-2.28,6.47c-2.07,2.38-2.02,5.98,0.2,8.18
				c2.28,2.26,5.88,2.35,8.24,0.21c2.35-2.13,2.6-5.66,0.6-8.14c-1.58-1.96-2.12-4.29-2.37-6.75c0.65-0.23,1.56,0.22,1.73-0.73
				c0.11-0.61,0.02-1.25,0.02-1.98c1.56,0,3,0.01,4.44,0c1.24-0.01,1.84-0.62,1.85-1.88c0.01-0.93,0-1.85,0-2.78
				c0-1.53-0.06-1.61-1.49-2.08c-0.36-2.61-0.4-2.64-3.16-2.64c-3.99,0-7.98,0-11.98,0c-1.72,0-2.12,0.39-2.14,2.15
				c0,0.14-0.02,0.29-0.03,0.52c-1.46,0.16-1.6,1.2-1.53,2.4c0.05,0.87-0.01,1.74,0.01,2.6c0.03,1.1,0.66,1.7,1.74,1.71
				C-18.02-25.29-16.55-25.29-15.03-25.29z M-10.73-24.51c0.16,1.39,0.22,2.63,0.46,3.84c0.44,2.16,1.1,4.22,2.56,5.97
				c1.45,1.74,1.15,4.31-0.56,5.86c-1.65,1.49-4.31,1.47-5.92-0.06c-1.67-1.58-1.94-4.16-0.43-5.87c1.27-1.42,1.85-3.1,2.35-4.84
				c0.46-1.58,0.64-3.2,0.33-4.87c-0.5-0.03-0.95-0.06-1.51-0.09c0-0.79,0-1.52,0-2.32c-2.12,0-4.13,0-6.16,0c0-1.19,0-2.29,0-3.38
				c5.74,0,11.41,0,17.07,0c0,1.17,0,2.25,0,3.45c-2.09,0-4.12,0-6.23,0c0,0.82,0,1.53,0,2.32C-9.42-24.51-9.99-24.51-10.73-24.51z
				 M-18.08-33.05c4.72,0,9.35,0,13.97,0c0,0.39,0,0.72,0,1.06c-4.69,0-9.32,0-13.97,0C-18.08-32.37-18.08-32.68-18.08-33.05z"/>
			<path class="st3" d="M11.05-28.97c0.06,1.15,0.09,2.31,0.18,3.46c0.03,0.33,0.15,0.67,0.31,0.97
				c3.49,6.74,6.98,13.48,10.48,20.22C22.51-3.37,23.06-3.2,24-3.7c1.3-0.69,2.6-1.38,3.89-2.09c0.93-0.51,1.09-1.04,0.6-1.99
				c-3.52-6.79-7.04-13.58-10.58-20.36c-0.17-0.32-0.44-0.61-0.73-0.82c-1.71-1.29-3.43-2.56-5.16-3.81
				c-0.23-0.17-0.56-0.2-0.85-0.29c-0.08,0.29-0.24,0.59-0.24,0.88c0.02,1.07,0.1,2.14,0.15,3.2
				C11.08-28.97,11.07-28.97,11.05-28.97z M23.36-5.14c-3.39-6.54-6.76-13.03-10.14-19.55c1.28-0.71,2.46-1.36,3.68-2.04
				c3.41,6.57,6.77,13.06,10.17,19.6C25.8-6.45,24.62-5.81,23.36-5.14z M12.74-26.23c-0.27-1.75-0.49-3.58-0.49-4.95
				c1.03,0.76,2.53,2.38,3.64,3.21C14.79-27.36,13.84-26.84,12.74-26.23z"/>
			<path class="st3" d="M18.31-7.71c0,7.12,0,14.24,0,21.41c-9.85,0-19.61,0-29.44,0c0-6.09,0-12.14,0-18.22
				c-0.49-0.16-0.92-0.29-1.51-0.48c0,0.36,0,0.65,0,0.95c0,5.78,0,11.56,0,17.35c0,1.56,0.46,2.02,2,2.02c9.45,0,18.91,0,28.36,0
				c1.6,0,2.02-0.42,2.03-2.07c0.01-5.84,0.07-11.68-0.04-17.52c-0.02-1.17-0.69-2.33-1.06-3.5C18.54-7.74,18.42-7.72,18.31-7.71z"
				/>
			<path class="st3" d="M10.78-4.61c0,2.58,0.01,5.03-0.01,7.48c0,0.21-0.11,0.46-0.26,0.61c-2.19,2.26-4.4,4.5-6.65,6.78
				c-0.3-0.25-0.51-0.4-0.68-0.57C1.2,7.71-0.79,5.73-2.75,3.73C-2.98,3.5-3.23,3.16-3.23,2.87c-0.04-2.45-0.02-4.91-0.02-7.42
				c2.74,0,5.41,0,8.14,0c0,1.26,0,2.52,0,3.82c-0.74,0-1.45,0-2.31,0c0-0.49,0.1-1-0.03-1.43C2.44-2.5,2.06-2.76,1.8-3.05
				C1.54-2.76,1.28-2.47,1.02-2.17c-0.01,0.02,0,0.06,0,0.09c-0.15,2.6,0.2,2.97,2.79,2.98c2.48,0,2.71-0.23,2.71-2.72
				c0-1.07-0.01-2.14,0-3.21c0.01-0.74-0.28-1.14-1.07-1.14C2.6-6.17-0.26-6.2-3.13-6.17c-1.05,0.01-1.68,0.62-1.7,1.68
				C-4.85-1.98-4.87,0.53-4.8,3.05c0.01,0.52,0.31,1.14,0.68,1.52c2.14,2.23,4.34,4.41,6.53,6.59c0.9,0.9,1.74,0.91,2.64,0.02
				c2.24-2.22,4.48-4.43,6.68-6.69c0.35-0.36,0.6-0.96,0.62-1.45c0.06-2.48,0.05-4.97,0.03-7.46c-0.01-1.32-1.22-2.14-2.49-1.69
				c-0.27,0.1-0.59,0.54-0.58,0.8C9.32-5.07,9.72-4.8,10-4.63C10.17-4.53,10.45-4.61,10.78-4.61z"/>
			<path class="st3" d="M-6.35-18.68c0.38,1.52,0.44,1.57,1.78,1.57c5.72,0,11.44,0,17.16,0c0.31,0,0.61,0,0.95,0
				c-0.5-1.57-0.5-1.57-1.96-1.57c-5.69,0-11.38,0-17.07,0C-5.77-18.68-6.02-18.68-6.35-18.68z"/>
			<path class="st3" d="M-4.42-15.51c0.4,1.53,0.4,1.53,1.86,1.53c5.34,0,10.69,0,16.03,0c0.26,0,0.55,0.05,0.77-0.05
				c0.23-0.11,0.51-0.37,0.52-0.58c0.02-0.26-0.16-0.6-0.37-0.78c-0.16-0.15-0.49-0.15-0.74-0.15c-5.92-0.01-11.84,0-17.76,0
				C-4.19-15.55-4.28-15.53-4.42-15.51z"/>
			<path class="st3" d="M11.91-20.24c-0.54-1.57-0.54-1.57-1.98-1.57c-5.24,0-10.47,0-15.71,0c-0.99,0-1.56,0.45-1.34,1.07
				c0.07,0.21,0.37,0.47,0.56,0.47C-0.43-20.23,5.7-20.24,11.91-20.24z"/>
			<path class="st3" d="M10.31-23.43c-0.63-1.5-0.63-1.5-2.13-1.5c-2.57,0-5.15,0-7.72,0c-0.26,0-0.61-0.06-0.76,0.07
				c-1.36,1.27-3.04,0.86-4.62,0.94c-0.26,0.01-0.52,0.12-0.78,0.18c0.02,0.1,0.04,0.2,0.06,0.3C-0.35-23.43,4.95-23.43,10.31-23.43
				z"/>
			<path class="st3" d="M-1.38-34.6c0.13,0.5,0.24,0.95,0.37,1.45c3.42,0,6.88,0,10.35,0c0.37-0.46,0.75-0.94,1.15-1.45
				C6.58-34.6,2.62-34.6-1.38-34.6z"/>
			<path class="st3" d="M12.25-34.67c1.55,2.19,3.88,1.43,6.08,1.59c0,0.96-0.19,1.93,0.05,2.78c0.22,0.79,0.9,1.45,1.49,2.32
				c0-1.86,0.04-3.55-0.02-5.23c-0.02-0.83-0.66-1.44-1.45-1.45C16.33-34.69,14.25-34.67,12.25-34.67z"/>
			<path class="st3" d="M9.68-26.54c-0.05-0.55-0.09-1-0.14-1.46c-3.04,0-6.01,0-9.02,0c0,0.5,0,0.95,0,1.46
				C3.53-26.54,6.54-26.54,9.68-26.54z"/>
			<path class="st3" d="M0.51-31.17c0,0.57,0,1.02,0,1.52c2.98,0,5.92,0,8.97,0c0-0.33,0.06-0.68-0.02-0.99
				c-0.06-0.21-0.31-0.51-0.49-0.51C6.17-31.18,3.37-31.17,0.51-31.17z"/>
			<path class="st3" d="M-14.27-12.13c0.01,1.82,1.55,3.33,3.05,3.19c0.3-0.03,0.69-0.4,0.78-0.69c0.06-0.18-0.33-0.7-0.58-0.75
				c-1-0.2-1.59-0.67-1.74-1.73c-0.04-0.26-0.57-0.66-0.81-0.62C-13.88-12.69-14.13-12.26-14.27-12.13z"/>
		</g>
		<rect x="-12.64" y="-4.99" class="st4" width="1.51" height="18.69"/>
		<path class="st4" d="M-9.89,15.32l0.47-1.62h-1.71h-1.51c0,0-0.24,1.33,0.88,1.47L-9.89,15.32z"/>
	</g>
</symbol>
<symbol  id="Nuevo_símbolo_2" viewBox="-46.66 -45.73 93.31 91.46">
	<g>
		<path class="st0" d="M29.83,34.5c10.19-8.21,16.74-20.77,16.82-34.87C46.8-24.86,27.11-45.16,2.62-45.72
			c-22.57-0.52-41.48,15.54-45.41,36.86c0,0,6.35,18.31,16.52,9.12c0,0,10.04-9.55,19.03-5.27c0,0,6.42,3.11-1.59,18
			c-0.58,1.07-0.9,2.28-0.86,3.49c0.03,1,0.09,1.74,1.06,3.02c0,0,3.69,4.32,12.1-1.28c0,0,6.13-3.58,9.36,0
			c0,0,4.32,4.71-0.08,12.78c0,0-3.23,5.53-0.04,8.47c0,0,4.6,4.64,14.71-3.45L29.83,34.5z"/>
		<g>
			<g>
				<path class="st0" d="M21.49,40.2c0.2-0.11,2.03-1.09,3.7-1.95c-0.67,0.69-1.26,1.44-1.76,2.17c-0.31,0.2-0.53,0.34-0.53,0.33
					c-0.24,0.13-0.48,0.27-0.72,0.4c-6.86,3.8-10.91,5.84-14.2,3.71c-3.4-2.2-2.36-5.46-0.37-10.59c0.35-0.91,1.58-4.84,1.6-4.77
					c0.58-2.47,0.52-4.77-1.38-6.08c-0.03-0.02-0.05-0.04-0.08-0.05C6.1,22.3-3.03,24.16-3.24,24.2c-4.44,0.85-7.08,2.96-10.83,0.53
					c-2.8-1.82-0.54-8.62-0.47-8.62c0.14-0.32,4.62-11.07,0.99-13.43c-3.19-2.06-14.14,3.3-14.73,3.43
					c-0.3,0.16-1.73,0.95-1.96,1.08c-6.86,3.8-10.91,5.84-14.2,3.71c-3.4-2.2-2.36-5.46-0.37-10.59c0.27-0.71,1.67-4.67,1.7-5.03
					c0-0.06,0-0.12,0-0.18c0.06-0.29,0.11-0.57,0.15-0.85c0.25-1.12,0.33-2.3,0.3-3.54c1.25,1.75,1.09,3.93,0.28,6.65
					c0.01,0,0.01,0,0.02,0c-0.02,0.04-0.45,1.4-0.47,1.47c-0.01,0.03-0.23,0.59-0.32,0.84c-0.04,0.12-0.09,0.26-0.14,0.39
					c0-0.01,0-0.02,0-0.04c-0.12,0.32-0.24,0.64-0.37,0.97c-1.37,3.54-3.07,7.94-0.48,9.61c2.26,1.46,7.31-1.11,11.7-3.52l1.53-0.85
					c0.31-0.17,13.4-6.61,17.65-3.85c4.84,3.14-0.24,14.26-0.49,15.14c-0.1,0.36-1.7,5.82-0.03,6.9c2.52,1.63,8.53-0.97,9.38-1.04
					c0.23-0.09,9.08-2.5,12.47-0.3c0.05,0.03,0.11,0.07,0.16,0.11c2.83,1.95,2.87,4.59,1.81,8.12c0.03,0-0.26,0.84-0.35,1.1
					c0.01,0.35-0.81,2.21-0.94,2.54c-0.13,0.33-2.51,8.3-0.48,9.61C10.52,46.03,21.22,40.27,21.49,40.2z"/>
			</g>
			<g>
				<path class="st0" d="M16.32,43.53c-0.24,0.19-0.5,0.43-0.74,0.7c-1.27,0-2.48-0.37-3.75-1.26c-3.28-2.3-3.28-4.74-3-8.54
					c0.05-0.67,0.03-3.63,0.07-3.57c-0.16-1.88-0.79-3.73-2.65-5.09c-0.03-0.02-0.05-0.04-0.08-0.05c-1.59-1.11-8.43-1.05-8.58-1.05
					c-3.34-0.01-4.91,1.26-8.54-1.27c-2.71-1.89-2.62-6.98-2.57-6.97c0.03-0.23,0.88-8.14-2.63-10.59
					c-3.08-2.15-10.47,0.43-10.92,0.44c-0.2,0.08-1.14,0.49-1.3,0.56c-4.53,1.96-7.24,2.97-10.42,0.75c-3.28-2.3-3.28-4.74-3-8.54
					c0.04-0.53,0.15-3.47,0.08-3.76c-0.01-0.05-0.03-0.1-0.05-0.15c-0.03-0.22-0.06-0.44-0.1-0.66c-0.09-0.85-0.32-1.79-0.66-2.79
					c1.44,1.6,1.87,3.32,1.91,5.36c0,0,0.01,0,0.01,0c-0.01,0.03-0.01,1.05,0,1.1c0,0.02-0.04,0.43-0.04,0.62
					c0,0.09-0.01,0.19-0.01,0.29c0-0.01-0.01-0.02-0.01-0.03c-0.01,0.23-0.03,0.47-0.05,0.72c-0.19,2.62-0.43,5.87,2.07,7.62
					c2.18,1.53,5.57,0.26,8.47-0.99l1.01-0.44C-28.94,5.87-20.1,2.76-16,5.63c4.68,3.27,3.44,11.38,3.46,12.05
					c0.01,0.28,0.12,4.39,1.73,5.52c2.43,1.7,6.59,0.56,7.24,0.63c0.16-0.04,6.63-0.58,9.9,1.71c0.05,0.04,0.11,0.07,0.16,0.11
					c2.76,2.01,3.47,4.12,3.52,6.79c0.02,0.01,0,0.63,0,0.82c0.09,0.28-0.08,1.64-0.1,1.89c-0.02,0.24,0.1,6.25,2.07,7.62
					c1.15,0.81,3.67,0.37,5.82-0.23C17.27,42.85,16.76,43.17,16.32,43.53z"/>
			</g>
			<path class="st0" d="M23.43,40.43c0,0,7.7-6.4,10.71-9.88l-6.96,4.13c0,0-5.05,5.47-9.18,7.21"/>
			<path class="st0" d="M-44.82,0.31c0,0,0.75-6.27,3.23-14.77l1.64,5.16l-2.56,4.16l-1.96,5.44"/>
		</g>
	</g>
	<g>
		<g>
			<path class="st1" d="M-0.08-6.14c0,2.31-1.87,4.18-4.18,4.18s-4.18-1.87-4.18-4.18s1.87-4.18,4.18-4.18S-0.08-8.45-0.08-6.14z
				 M-1.25-6.14c0-1.66-1.35-3.01-3.01-3.01s-3.01,1.35-3.01,3.01s1.35,3.01,3.01,3.01S-1.25-4.48-1.25-6.14z"/>
			<path class="st1" d="M-17.26-35.15h31.72c0.36,0,0.62,0.35,0.52,0.69l-3.73,13.08c-0.07,0.23-0.28,0.4-0.52,0.4H1.61v9.9
				l-0.08-0.04c1.15,1.34,1.85,3.08,1.85,4.98c0,0.24-0.01,0.48-0.03,0.71l0,0l4.57,6.07l0,0c7.18-5.81,15.05-6.36,19.48-5.98
				c0.45,0.04,0.65,0.58,0.35,0.9L15.57,8.43l3.11,5.48l2.75,4.84c0.49-0.34,1.07-0.54,1.71-0.54c1.66,0,3,1.34,3,3
				c0,1.66-1.34,3-3,3c-1.66,0-3-1.34-3-3c0-0.63,0.19-1.21,0.52-1.7l-4.96-2.46l-5.65-2.8L-1.47,26.45
				c-0.3,0.32-0.84,0.16-0.92-0.27C-3.11,22.36-2.82,13.77,2.7,6.13l0,0l-6.25-4.67l0,0c-0.23,0.02-0.47,0.03-0.71,0.03
				c-4.22,0-7.64-3.42-7.64-7.64c0-1.89,0.69-3.62,1.82-4.95l-0.02,0.01v-9.9h-3.42c-0.24,0-0.46-0.16-0.52-0.39l-3.75-13.08
				C-17.88-34.81-17.62-35.15-17.26-35.15z M21.24,21.22c0,1.03,0.83,1.86,1.86,1.86c1.03,0,1.86-0.83,1.86-1.86
				c0-1.03-0.83-1.86-1.86-1.86C22.08,19.35,21.24,20.19,21.24,21.22z M14.89,9.14l-4.21,4.45l4.69,2.32l4.69,2.32L14.89,9.14z
				 M5.83,4.08c-7.6,8.04-7.64,17.8-7.24,20.72L26.11-4.3C22.16-4.49,13.43-3.95,5.83,4.08z M3.07-4.01
				C2.35-1.51,0.38,0.46-2.11,1.19l0,0l5.46,4.08l0,0c0.52-0.67,1.09-1.32,1.7-1.97c0.67-0.71,1.35-1.36,2.04-1.96l0,0L3.07-4.01
				L3.07-4.01z M-4.26-12.66c-3.6,0-6.51,2.92-6.51,6.51c0,3.6,2.92,6.51,6.51,6.51s6.51-2.92,6.51-6.51
				C2.25-9.74-0.66-12.66-4.26-12.66z M-8.99-12.14c1.3-1.03,2.94-1.64,4.73-1.64c1.81,0,3.47,0.63,4.78,1.68l0,0v-8.88h-9.51
				L-8.99-12.14L-8.99-12.14z M-16.54-34.06l3.42,12h3.02h11.7h8.73l3.42-12H-16.54z"/>
		</g>
		<path class="st4" d="M-11.89-5.89h1.12c0,0,0,5.14,5.85,6.25v1.19C-4.92,1.55-11.45,0.88-11.89-5.89z"/>
		<path class="st4" d="M-5.37-2.12c0,0-2.45-0.59-2.98-3.18C-8.35-5.29-6.09-4.69-5.37-2.12z"/>
		<path class="st4" d="M7.48,16.98l-2.02,0.56L-1.4,24.8c0,0-0.44-1.41,0-3.91l-1.22,0.23c0,0-0.37,2.74,0.31,5.25
			c0,0,0.21,0.74,1.14-0.23L7.48,16.98z"/>
	</g>
</symbol>
<symbol  id="Nuevo_símbolo_3" viewBox="-46.8 -45.87 93.6 91.74">
	<g>
		<path class="st0" d="M29.92,34.6C40.15,26.36,46.71,13.77,46.8-0.37c0.14-24.57-19.61-44.93-44.17-45.49
			C-20-46.38-38.97-30.27-42.91-8.89c0,0,6.37,18.37,16.57,9.15c0,0,10.07-9.58,19.09-5.29c0,0,6.44,3.12-1.6,18.05
			c-0.58,1.08-0.9,2.28-0.86,3.5c0.03,1,0.09,1.75,1.07,3.03c0,0,3.7,4.33,12.14-1.28c0,0,6.15-3.59,9.39,0
			c0,0,4.33,4.72-0.08,12.81c0,0-3.24,5.54-0.04,8.5c0,0,4.62,4.66,14.75-3.46L29.92,34.6z"/>
		<g>
			<g>
				<path class="st0" d="M21.56,40.32c0.2-0.11,2.03-1.09,3.71-1.95c-0.68,0.7-1.27,1.44-1.77,2.18c-0.31,0.2-0.54,0.34-0.54,0.33
					c-0.24,0.13-0.48,0.27-0.72,0.4C15.36,45.09,11.3,47.14,8,45.01c-3.41-2.21-2.37-5.48-0.38-10.62c0.35-0.91,1.58-4.86,1.61-4.78
					c0.58-2.48,0.53-4.78-1.39-6.1c-0.03-0.02-0.05-0.04-0.08-0.05c-1.65-1.07-10.81,0.79-11.02,0.83
					c-4.46,0.85-7.1,2.97-10.87,0.53c-2.81-1.82-0.54-8.65-0.47-8.64c0.14-0.32,4.64-11.1,0.99-13.47
					C-16.79,0.62-27.77,6-28.37,6.13c-0.3,0.16-1.73,0.95-1.97,1.08c-6.88,3.81-10.94,5.86-14.24,3.72
					c-3.41-2.21-2.37-5.48-0.38-10.62c0.27-0.71,1.67-4.68,1.7-5.05c0-0.06,0-0.12,0-0.18c0.06-0.29,0.11-0.58,0.15-0.86
					c0.25-1.12,0.33-2.31,0.3-3.55c1.25,1.76,1.09,3.95,0.28,6.67c0.01,0,0.01,0,0.02,0c-0.02,0.04-0.45,1.4-0.47,1.48
					c-0.01,0.03-0.23,0.59-0.32,0.84c-0.04,0.12-0.09,0.26-0.14,0.39c0-0.01,0-0.02,0-0.04c-0.12,0.32-0.24,0.64-0.37,0.97
					c-1.37,3.55-3.08,7.96-0.48,9.64c2.27,1.47,7.33-1.11,11.74-3.53l1.54-0.85c0.31-0.17,13.45-6.63,17.71-3.86
					c4.86,3.15-0.24,14.3-0.49,15.19c-0.1,0.37-1.71,5.84-0.03,6.92c2.53,1.64,8.56-0.97,9.4-1.04c0.23-0.09,9.11-2.51,12.51-0.31
					c0.05,0.04,0.11,0.07,0.16,0.11c2.84,1.96,2.88,4.6,1.82,8.15c0.03,0-0.26,0.84-0.35,1.1c0.01,0.35-0.81,2.22-0.94,2.55
					c-0.13,0.33-2.52,8.32-0.48,9.64C10.55,46.17,21.28,40.39,21.56,40.32z"/>
			</g>
			<g>
				<path class="st0" d="M16.37,43.66c-0.24,0.19-0.5,0.43-0.74,0.7c-1.28,0-2.48-0.37-3.76-1.26c-3.29-2.3-3.29-4.75-3.01-8.56
					c0.05-0.68,0.03-3.64,0.07-3.58c-0.16-1.89-0.8-3.74-2.66-5.1c-0.03-0.02-0.05-0.04-0.08-0.05c-1.59-1.12-8.45-1.06-8.61-1.06
					c-3.35-0.01-4.93,1.27-8.56-1.28c-2.72-1.9-2.63-7-2.57-6.99c0.03-0.23,0.88-8.16-2.64-10.62c-3.08-2.16-10.51,0.43-10.95,0.44
					c-0.2,0.08-1.14,0.49-1.3,0.56c-4.54,1.97-7.27,2.98-10.45,0.75c-3.29-2.3-3.29-4.75-3.01-8.56c0.04-0.53,0.15-3.48,0.08-3.77
					c-0.01-0.05-0.03-0.1-0.05-0.15c-0.03-0.22-0.06-0.44-0.1-0.66c-0.09-0.86-0.32-1.8-0.67-2.79c1.45,1.6,1.88,3.33,1.92,5.38
					c0,0,0.01,0,0.01,0c-0.01,0.03-0.01,1.05,0,1.11c0,0.02-0.04,0.43-0.04,0.62c0,0.09-0.01,0.19-0.01,0.29
					c0-0.01-0.01-0.02-0.01-0.03c-0.01,0.24-0.03,0.48-0.05,0.72c-0.19,2.62-0.44,5.89,2.07,7.64c2.19,1.53,5.58,0.26,8.49-0.99
					l1.02-0.44c0.21-0.09,9.07-3.2,13.19-0.32c4.69,3.28,3.45,11.41,3.48,12.08c0.01,0.28,0.12,4.41,1.74,5.53
					c2.44,1.71,6.61,0.56,7.26,0.64c0.16-0.04,6.65-0.58,9.93,1.71c0.05,0.04,0.11,0.07,0.16,0.11c2.77,2.01,3.48,4.14,3.53,6.81
					c0.02,0.01,0,0.63,0,0.83c0.09,0.28-0.08,1.65-0.1,1.89c-0.02,0.24,0.1,6.27,2.07,7.64c1.16,0.81,3.68,0.37,5.84-0.23
					C17.32,42.98,16.81,43.3,16.37,43.66z"/>
			</g>
			<path class="st0" d="M23.5,40.55c0,0,7.72-6.42,10.74-9.91l-6.98,4.15c0,0-5.07,5.49-9.21,7.24"/>
			<path class="st0" d="M-44.95,0.31c0,0,0.75-6.29,3.24-14.82l1.65,5.18l-2.57,4.18l-1.96,5.46"/>
		</g>
	</g>
	<g>
		<g>
			<path class="st1" d="M14.72,0.31c-0.13-0.07-0.26-0.15-0.39-0.2c-0.09-0.03-0.2-0.01-0.3-0.01c-10.22,0-20.44,0-30.66,0.01
				c-0.92,0-1.74-0.59-1.88-1.37c-0.03-0.18-0.06-0.36-0.06-0.54c0-8.85,0-17.7-0.02-26.56c0-1.25,0.75-1.95,1.85-2.04
				c0.07-0.01,0.15,0,0.22,0c13.54,0,27.08,0,40.61,0c1.08,0,1.78,0.5,2.01,1.4c0.04,0.14,0.04,0.3,0.04,0.45
				c0,8.94,0,17.89,0,26.83c0,0.94-0.77,1.8-1.82,1.81c-0.8,0.01-1.6,0.01-2.4,0c-0.26-0.01-0.35,0.09-0.45,0.35
				c-0.54,1.42-1.5,2.26-2.98,2.45c-0.92,0.11-1.7-0.17-2.48-0.61c-0.1-0.06-0.26-0.08-0.37-0.05c-2.81,0.8-5.63,1.6-8.44,2.41
				C4.52,5.43,1.84,6.23-0.85,7.01C-3.27,7.71-5.71,8.4-8.13,9.1c-1,0.29-2.01,0.57-3,0.88c-0.15,0.05-0.31,0.23-0.39,0.39
				c-0.33,0.74-1.29,1.29-1.98,1.1c-1.05-0.29-1.58-1.05-1.51-2.06c0.1-1.58,1.63-2.22,2.7-1.56c0.41,0.25,0.73,0.18,1.12,0.07
				c2.81-0.82,5.62-1.62,8.43-2.44c3-0.87,6.01-1.73,9.01-2.6c2.81-0.81,5.62-1.64,8.42-2.45C14.69,0.38,14.71,0.35,14.72,0.31z
				 M-16.72-1.97c13.69,0,27.35,0,41,0c0-8.81,0-17.59,0-26.36c-13.68,0-27.33,0-41,0C-16.72-19.54-16.72-10.77-16.72-1.97z
				 M16.63,0.12c0.46,0.61,0.97,0.86,1.58,0.81c0.52-0.04,0.96-0.29,1.26-0.81C18.53,0.12,17.64,0.12,16.63,0.12z"/>
			<path class="st1" d="M-14.13-15.17c0.04-3.08,1.1-5.67,3.24-7.76c1.88-1.83,4.14-2.72,6.64-2.71c2.76,0.01,5.2,1.08,7.13,3.24
				c1.89,2.11,2.82,4.67,2.73,7.58C5.41-9.21,1.35-4.7-4.25-4.65C-9.69-4.61-14.17-9.23-14.13-15.17z M-12.26-14.15
				c0.19,0.74,0.37,1.43,0.55,2.12c0.13,0.49,0.39,0.74,0.91,0.64c0.27-0.05,0.55-0.01,0.83-0.01c4.16,0,8.32,0,12.48,0
				c0.24,0,0.46,0.01,0.55-0.3c0.23-0.81,0.46-1.62,0.7-2.46C-1.63-14.15-6.91-14.15-12.26-14.15z M-12.32-16.15
				c5.42,0,10.71,0,16.07,0c-0.23-0.81-0.47-1.57-0.66-2.33C3-18.84,2.81-18.91,2.5-18.91C0.48-18.9-1.54-18.9-3.57-18.9
				c-2.49,0-4.97,0-7.46,0.01c-0.16,0-0.42,0.08-0.46,0.19C-11.78-17.88-12.03-17.04-12.32-16.15z M-10.1-9.42
				c2.62,3.39,8.42,3.95,11.65,0C-2.33-9.42-6.21-9.42-10.1-9.42z M1.56-20.87c-3.18-3.85-8.92-3.48-11.6,0
				C-6.18-20.87-2.32-20.87,1.56-20.87z"/>
			<path class="st1" d="M18.1-11.39c0.89-0.06,1.84,0.79,1.84,1.92c-0.01,1.12-0.84,1.99-1.84,1.97c-1.01-0.02-1.8-0.87-1.83-1.95
				C16.24-10.57,17.15-11.42,18.1-11.39z"/>
			<path class="st1" d="M18.08-14.17c-0.96,0.11-1.86-0.91-1.83-1.9c0.04-1.12,0.77-1.93,1.84-1.98c0.94-0.04,1.83,0.94,1.84,1.94
				C19.96-15.04,18.93-14,18.08-14.17z"/>
		</g>
		<circle class="st4" cx="-13.37" cy="9.59" r="1.91"/>
		<polygon class="st4" points="-11.41,10.08 -7.35,9.1 -6.22,6.75 -12.08,8.18 		"/>
		<path class="st4" d="M-5.72-2.68l0.76,2.78l-11.45,0.01c0,0-2,0.18-2.15-2.45l-0.01-1.89l2.05-0.89v2.44H-5.72z"/>
	</g>
</symbol>
<use xlink:href="#Nuevo_símbolo"  width="94.62" height="92.75" x="-47.31" y="-46.37" transform="matrix(9.199 0 0 -9.199 556.0468 514.4063)" style="display:none;overflow:visible;"/>
<use xlink:href="#Nuevo_símbolo_1"  width="94.34" height="92.47" x="-47.17" y="-46.23" transform="matrix(9.199 0 0 -9.199 556.0468 514.4063)" style="display:none;overflow:visible;"/>
<use xlink:href="#Nuevo_símbolo_2"  width="93.31" height="91.46" x="-46.66" y="-45.73" transform="matrix(9.199 0 0 -9.199 556.0468 514.4063)" style="display:none;overflow:visible;"/>
<use xlink:href="#Nuevo_símbolo_3"  width="93.6" height="91.74" x="-46.8" y="-45.87" transform="matrix(9.199 0 0 -9.199 556.0468 514.4063)" style="overflow:visible;"/>
</svg>
