<?xml version="1.0" encoding="utf-8"?>
<!-- Generator: Adobe Illustrator 25.4.1, SVG Export Plug-In . SVG Version: 6.00 Build 0)  -->
<svg version="1.1" id="Capa_1" xmlns="http://www.w3.org/2000/svg" xmlns:xlink="http://www.w3.org/1999/xlink" x="0px" y="0px"
	 viewBox="0 0 1080 1080" style="enable-background:new 0 0 1080 1080;" xml:space="preserve">
<style type="text/css">
	.st0{fill:#FFFFFF;stroke:#FFFFFF;stroke-miterlimit:10;}
	.st1{fill:#FFFFFF;}
	.st2{fill:#263B4E;stroke:#263B4E;stroke-miterlimit:10;}
</style>
<symbol  id="Nuevo_símbolo_3" viewBox="-27.83 -27.29 55.67 54.58">
	<g>
		<path class="st0" d="M17.39,20.65c6.03-4.86,9.9-12.28,9.95-20.61C27.42-14.45,15.78-26.45,1.3-26.78
			c-13.34-0.31-24.52,9.19-26.85,21.79c0,0,3.75,10.83,9.77,5.39c0,0,5.94-5.64,11.25-3.12c0,0,3.8,1.84-0.94,10.64
			C-5.8,8.56-5.99,9.27-5.97,9.99c0.02,0.59,0.06,1.03,0.63,1.79c0,0,2.18,2.55,7.16-0.76c0,0,3.63-2.12,5.53,0
			c0,0,2.55,2.78-0.05,7.55c0,0-1.91,3.27-0.02,5.01c0,0,2.72,2.75,8.7-2.04L17.39,20.65z"/>
		<g>
			<g>
				<path class="st1" d="M12.46,24.02c0.12-0.07,1.2-0.64,2.19-1.15c-0.4,0.41-0.75,0.85-1.04,1.29c-0.18,0.12-0.32,0.2-0.32,0.2
					c-0.14,0.08-0.29,0.16-0.43,0.24c-4.06,2.24-6.45,3.45-8.39,2.19c-2.01-1.3-1.39-3.23-0.22-6.26c0.21-0.54,0.93-2.86,0.95-2.82
					c0.34-1.46,0.31-2.82-0.82-3.6c-0.02-0.01-0.03-0.02-0.05-0.03c-0.97-0.63-6.37,0.47-6.5,0.49c-2.63,0.5-4.19,1.75-6.41,0.31
					c-1.66-1.07-0.32-5.1-0.28-5.1c0.08-0.19,2.73-6.55,0.58-7.94c-1.88-1.22-8.36,1.95-8.71,2.03c-0.18,0.1-1.02,0.56-1.16,0.64
					c-4.06,2.24-6.45,3.45-8.39,2.19c-2.01-1.3-1.39-3.23-0.22-6.26c0.16-0.42,0.99-2.76,1-2.98c0-0.04,0-0.07,0-0.11
					c0.03-0.17,0.07-0.34,0.09-0.5c0.14-0.66,0.2-1.36,0.18-2.09c0.74,1.04,0.64,2.33,0.16,3.93c0,0,0.01,0,0.01,0
					c-0.01,0.02-0.27,0.83-0.28,0.87c0,0.02-0.14,0.35-0.19,0.5c-0.03,0.07-0.05,0.15-0.08,0.23c0-0.01,0-0.01,0-0.02
					c-0.07,0.19-0.14,0.38-0.22,0.57c-0.81,2.09-1.81,4.69-0.28,5.68c1.34,0.87,4.32-0.65,6.92-2.08l0.91-0.5
					c0.18-0.1,7.93-3.91,10.44-2.28c2.86,1.86-0.14,8.43-0.29,8.95c-0.06,0.22-1.01,3.44-0.02,4.08c1.49,0.97,5.05-0.57,5.54-0.62
					c0.14-0.05,5.37-1.48,7.37-0.18c0.03,0.02,0.06,0.04,0.1,0.06c1.67,1.16,1.7,2.71,1.07,4.8c0.02,0-0.16,0.49-0.21,0.65
					c0,0.2-0.48,1.31-0.55,1.5c-0.08,0.19-1.49,4.9-0.28,5.68C5.97,27.47,12.29,24.06,12.46,24.02z"/>
			</g>
			<g>
				<path class="st1" d="M9.4,25.98c-0.14,0.11-0.29,0.25-0.44,0.41c-0.75,0-1.46-0.22-2.22-0.74c-1.94-1.36-1.94-2.8-1.77-5.05
					c0.03-0.4,0.02-2.15,0.04-2.11c-0.1-1.11-0.47-2.21-1.57-3.01c-0.02-0.01-0.03-0.02-0.04-0.03c-0.94-0.66-4.98-0.62-5.07-0.62
					c-1.97-0.01-2.9,0.75-5.05-0.75c-1.6-1.12-1.55-4.13-1.52-4.12C-8.22,9.82-7.72,5.15-9.8,3.7c-1.82-1.27-6.19,0.25-6.45,0.26
					c-0.12,0.05-0.67,0.29-0.77,0.33c-2.68,1.16-4.28,1.75-6.16,0.44c-1.94-1.36-1.94-2.8-1.77-5.05c0.02-0.31,0.09-2.05,0.05-2.23
					c-0.01-0.03-0.02-0.06-0.03-0.09c-0.02-0.13-0.03-0.26-0.06-0.39c-0.05-0.5-0.19-1.06-0.39-1.65c0.85,0.94,1.11,1.96,1.13,3.17
					c0,0,0.01,0,0.01,0c0,0.02,0,0.62,0,0.65c0,0.01-0.02,0.26-0.03,0.37c0,0.05-0.01,0.11-0.01,0.17c0-0.01,0-0.01-0.01-0.02
					c-0.01,0.14-0.02,0.28-0.03,0.42c-0.11,1.55-0.26,3.47,1.22,4.51c1.29,0.9,3.29,0.15,5.01-0.58l0.6-0.26
					c0.12-0.05,5.35-1.89,7.77-0.19c2.77,1.93,2.03,6.73,2.05,7.12c0.01,0.16,0.07,2.6,1.02,3.26c1.44,1.01,3.89,0.33,4.28,0.37
					c0.1-0.02,3.92-0.34,5.85,1.01c0.03,0.02,0.06,0.04,0.09,0.07c1.63,1.19,2.05,2.44,2.08,4.01c0.01,0,0,0.37,0,0.49
					c0.06,0.16-0.05,0.97-0.06,1.12c-0.01,0.14,0.06,3.69,1.22,4.51c0.68,0.48,2.17,0.22,3.44-0.13C9.96,25.58,9.66,25.78,9.4,25.98
					z"/>
			</g>
			<path class="st1" d="M13.6,24.15c0,0,4.55-3.79,6.33-5.84l-4.11,2.44c0,0-2.99,3.24-5.43,4.27"/>
			<path class="st1" d="M-26.75,0.43c0,0,0.44-3.71,1.91-8.73l0.97,3.05l-1.51,2.46l-1.16,3.22"/>
		</g>
	</g>
	<g>
		<g>
			<path class="st2" d="M8.43,0.43C8.35,0.39,8.28,0.34,8.2,0.31c-0.05-0.02-0.12,0-0.18,0c-6.02,0-12.05,0-18.07,0
				c-0.54,0-1.02-0.35-1.11-0.81c-0.02-0.1-0.04-0.21-0.04-0.32c0-5.22,0-10.44-0.01-15.65c0-0.74,0.44-1.15,1.09-1.2
				c0.04,0,0.09,0,0.13,0c7.98,0,15.96,0,23.94,0c0.64,0,1.05,0.29,1.19,0.82c0.02,0.09,0.03,0.18,0.03,0.27c0,5.27,0,10.54,0,15.82
				c0,0.55-0.45,1.06-1.07,1.07c-0.47,0-0.94,0.01-1.42,0c-0.15,0-0.21,0.06-0.27,0.21c-0.32,0.84-0.89,1.33-1.76,1.44
				c-0.54,0.07-1-0.1-1.46-0.36C9.13,1.56,9.04,1.55,8.97,1.57C7.31,2.04,5.65,2.51,4,2.99C2.41,3.45,0.83,3.92-0.75,4.38
				C-2.18,4.8-3.61,5.2-5.04,5.61c-0.59,0.17-1.18,0.33-1.77,0.52C-6.9,6.16-7,6.26-7.04,6.36C-7.23,6.8-7.8,7.12-8.21,7.01
				C-8.83,6.84-9.14,6.39-9.1,5.8c0.06-0.93,0.96-1.31,1.59-0.92c0.24,0.15,0.43,0.11,0.66,0.04c1.65-0.49,3.31-0.96,4.97-1.44
				c1.77-0.51,3.54-1.02,5.31-1.53C5.09,1.47,6.74,0.98,8.4,0.5C8.41,0.48,8.42,0.45,8.43,0.43z M-10.11-0.91
				c8.07,0,16.12,0,24.17,0c0-5.19,0-10.37,0-15.54c-8.07,0-16.11,0-24.17,0C-10.11-11.27-10.11-6.1-10.11-0.91z M9.55,0.32
				c0.27,0.36,0.57,0.51,0.93,0.48c0.31-0.02,0.56-0.17,0.74-0.48C10.67,0.32,10.15,0.32,9.55,0.32z"/>
			<path class="st2" d="M-8.58-8.69c0.02-1.81,0.65-3.34,1.91-4.57c1.11-1.08,2.44-1.6,3.91-1.6c1.63,0.01,3.06,0.64,4.2,1.91
				c1.12,1.25,1.66,2.75,1.61,4.47c-0.11,3.31-2.51,5.97-5.81,6C-5.96-2.47-8.6-5.19-8.58-8.69z M-7.48-8.09
				c0.11,0.43,0.22,0.84,0.33,1.25c0.08,0.29,0.23,0.44,0.54,0.38c0.16-0.03,0.32-0.01,0.49-0.01c2.45,0,4.9,0,7.35,0
				c0.14,0,0.27,0.01,0.32-0.18c0.13-0.48,0.27-0.95,0.41-1.45C-1.21-8.09-4.32-8.09-7.48-8.09z M-7.51-9.27c3.2,0,6.31,0,9.47,0
				c-0.14-0.48-0.28-0.92-0.39-1.38c-0.05-0.21-0.16-0.25-0.35-0.25c-1.19,0.01-2.38,0-3.57,0c-1.47,0-2.93,0-4.4,0
				c-0.09,0-0.25,0.05-0.27,0.11C-7.2-10.29-7.34-9.79-7.51-9.27z M-6.2-5.3c1.54,2,4.97,2.33,6.87,0C-1.63-5.3-3.91-5.3-6.2-5.3z
				 M0.67-12.05c-1.87-2.27-5.26-2.05-6.84,0C-3.89-12.05-1.62-12.05,0.67-12.05z"/>
			<path class="st2" d="M10.42-6.46C10.94-6.5,11.51-6,11.5-5.33c0,0.66-0.5,1.17-1.09,1.16C9.82-4.18,9.35-4.68,9.34-5.32
				C9.32-5.98,9.86-6.48,10.42-6.46z"/>
			<path class="st2" d="M10.41-8.1C9.84-8.04,9.32-8.64,9.33-9.23c0.02-0.66,0.45-1.14,1.08-1.17c0.56-0.03,1.08,0.55,1.09,1.14
				C11.51-8.61,10.91-8,10.41-8.1z"/>
		</g>
		<circle class="st0" cx="-8.13" cy="5.91" r="1.13"/>
		<polygon class="st0" points="-6.97,6.19 -4.58,5.61 -3.91,4.23 -7.37,5.07 		"/>
		<path class="st0" d="M-3.62-1.33l0.45,1.64l-6.75,0c0,0-1.18,0.11-1.27-1.44l0-1.12l1.21-0.52v1.44H-3.62z"/>
	</g>
</symbol>
<use xlink:href="#Nuevo_símbolo_3"  width="55.67" height="54.58" x="-27.83" y="-27.29" transform="matrix(16.0744 0 0 -16.0744 540 540)" style="overflow:visible;"/>
</svg>
