<?xml version="1.0" encoding="utf-8"?>
<!-- Generator: Adobe Illustrator 27.1.0, SVG Export Plug-In . SVG Version: 6.00 Build 0)  -->
<svg version="1.1" id="Capa_1" xmlns="http://www.w3.org/2000/svg" xmlns:xlink="http://www.w3.org/1999/xlink" x="0px" y="0px"
	 viewBox="0 0 2195.31 668.69" style="enable-background:new 0 0 2195.31 668.69;" xml:space="preserve">
<style type="text/css">
	.st0{fill:#9BC558;}
</style>
<g>
	<path id="path3631_00000051374913432240715770000002316338944804139690_" class="st0" d="M844.1,559.57
		c-0.19-0.01-0.47,0.17-0.89,0.3c-0.42,0.17-1.16,0.46-1.77,0.89c-1.38,0.89-4.09,3.09-8.58,6.51c-4.48,3.41-8.38,6.26-11.24,8.87
		c-0.31,0.3-0.38,0.63-0.59,0.89c-0.21,0.26-0.29,0.64-0.3,0.89c0.02,0.25,0.13,0.47,0.3,0.59c0.17,0.13,0.15,0,0.3,0
		c0.13,0,0.51-0.09,0.89-0.3c0.38-0.2,0.68-0.33,1.18-0.59c2.45-1.32,5.74-2.65,9.76-4.14c4.01-1.49,7.68-2.73,11.24-3.25
		c1.21-0.09,2.31-0.04,2.96,0c0.64,0,0.89,0,1.18,0c0.34,0,0.68-0.04,0.89-0.3c0.2-0.26,0.33-0.76,0-1.48
		c-0.73-1.65-1.49-2.93-2.07-4.14c-0.58-1.21-1.29-2.4-1.77-3.25c-0.29-0.55-0.37-0.96-0.59-1.18
		C844.76,559.63,844.51,559.56,844.1,559.57L844.1,559.57z M679.98,585.59c-0.54,0-1.28,0.52-1.77,1.18
		c-0.5,0.66-0.88,1.49-1.48,2.96l-28.39,65.94c-1.04,2.65-2.27,4.65-3.55,6.21c-1.28,1.56-2.93,2.58-5.32,2.96
		c-0.5,0-1.21-0.09-1.77,0c-0.56,0-0.98,0.3-1.48,0.3c-0.43,0.01-0.69,0.09-0.89,0.3c-0.2,0.21-0.3,0.58-0.3,0.89
		c0,0.43-0.02,0.73,0.3,0.89c0.32,0.17,0.8,0.01,1.48,0c2.93,0,5.59,0.09,7.98,0s4.08-0.29,4.73-0.3c1.79,0,3.71,0.21,5.91,0.3
		c2.2,0.11,4.36-0.01,6.21,0c0.56,0.01,0.89,0.13,1.18,0c0.29-0.15,0.29-0.46,0.3-0.89c0.02-0.31-0.08-0.68-0.3-0.89
		c-0.21-0.21-0.52-0.29-1.18-0.3h-1.48c-1.63-0.01-2.92-0.38-3.55-0.89c-0.63-0.51-0.92-1.14-0.89-2.07c0-0.64,0.04-1.51,0.3-2.66
		c0.26-1.15,0.63-2.52,1.18-3.84l5.91-13.9c0.11-0.3,0.17-0.5,0.3-0.59c0.13-0.09,0.3-0.3,0.59-0.3h25.43
		c0.25-0.01,0.7,0.15,0.89,0.3c0.19,0.11,0.17,0.3,0.3,0.59l8.28,20.99c0.22,0.62,0.24,1.05,0,1.48c-0.24,0.43-0.49,0.81-0.89,0.89
		c-0.54,0.09-1,0.11-1.18,0.3c-0.19,0.19-0.01,0.28,0,0.59c0.01,0.35,0.02,0.79,0.59,0.89c0.56,0.09,1.37-0.04,2.37,0
		c4.61,0.11,8.78,0.27,12.42,0.3h8.58c1.97,0.01,3.24-0.17,3.84-0.3c0.6-0.15,0.65-0.46,0.59-0.89c0-0.74-0.2-0.89-1.18-0.89
		c-0.61,0-1.42-0.2-2.07-0.3c-0.65-0.09-1.28-0.17-2.07-0.3c-0.98,0-2.31-0.65-3.84-2.07c-1.54-1.42-3.23-4.58-5.32-9.17
		c-2.46-5.68-5.8-13.17-9.76-22.47c-3.96-9.3-7.76-17.84-11.24-26.02c-3.48-8.18-5.78-13.35-6.8-15.67
		c-0.52-1.16-0.76-2.13-1.18-2.66C681.33,585.94,680.74,585.58,679.98,585.59L679.98,585.59z M889.63,585.59
		c-0.54,0-0.98,0.52-1.48,1.18c-0.5,0.66-0.88,1.49-1.48,2.96l-28.39,65.94c-1.04,2.65-2.27,4.65-3.55,6.21
		c-1.28,1.56-3.23,2.58-5.62,2.96c-0.5,0-0.91-0.09-1.48,0c-0.46,0-0.77,0.27-1.18,0.3c-0.84,0-1.92-0.2-2.96-0.3
		c-1.04-0.09-1.88-0.17-2.66-0.3c-1.56-0.25-2.67-0.67-3.25-1.48c-0.59-0.81-0.75-1.84-0.89-3.25c-0.24-2.26-0.54-5.51-0.59-9.46
		c-0.04-3.95-0.02-8.51,0-13.6v-18.33c-0.01-7.66-0.02-12.81,0-15.67c0.02-2.86,0.17-5.12,0.3-6.51c0.09-1.82,0.3-2.98,0.89-3.84
		c0.58-0.86,1.81-1.55,3.25-1.77c0.6-0.11,0.98-0.24,1.48-0.3c0.5-0.09,0.94,0,1.48,0c0.56,0,1.18-0.15,1.48-0.3
		c0.3-0.17,0.29-0.41,0.3-0.89c-0.01-0.3-0.2-0.76-0.59-0.89c-0.39-0.13-0.79,0-1.48,0c-2.24,0-4.93-0.02-7.69,0
		c-2.76,0.09-4.71,0.29-6.21,0.3c-1.7,0-4.2-0.27-7.1-0.3c-2.9-0.09-5.2,0.01-7.39,0c-1.72,0-2.66,0.29-2.66,0.89
		c0,0.48,0,0.72,0.3,0.89c0.29,0.17,0.92,0.3,1.48,0.3c1.37,0,2.59-0.06,3.84,0.3c1.16,0.33,2.07,0.97,2.66,1.77
		c0.59,0.8,1.07,2.1,1.18,3.84c0.06,1.38-0.01,3.65,0,6.51c0.01,2.86,0,8.02,0,15.67v18.33c0.01,5.09,0.04,9.66,0,13.6
		c-0.06,3.94-0.36,6.97-0.59,9.17c-0.15,1.53-0.44,2.75-0.89,3.55c-0.45,0.8-1.29,1.25-2.37,1.48c-0.96,0.25-1.97,0.59-3.55,0.59
		c-0.66,0-1.23,0.08-1.48,0.3c-0.08,0.08-0.24-0.08-0.3,0c-0.23-0.23-0.45-0.28-0.89-0.3c-0.42,0-0.8-0.01-1.18,0
		c-0.38,0-0.94-0.17-1.48-0.3c-0.86-0.09-2.22-0.67-4.14-1.48c-1.92-0.81-4.38-2.42-7.39-5.32c-3.24-3.27-6.74-7.45-10.65-12.12
		c-3.9-4.67-8.23-9.75-13.01-15.67c5.25-4.19,8.84-8.13,11.24-11.83c2.39-3.7,3.58-7.71,3.55-11.53c-0.13-3.54-1.01-6.38-2.66-8.87
		c-1.65-2.49-3.36-4.25-5.03-5.32c-2.95-1.85-6.14-3.27-9.76-3.84c-3.62-0.58-7.14-0.65-10.65-0.59c-1.92,0-4.68-0.02-8.28,0
		c-3.6,0.09-6.47,0.29-8.58,0.3c-1.23,0-3.38-0.27-6.21-0.3c-2.83-0.09-5.62,0.01-8.58,0c-0.8-0.01-1.36,0.17-1.77,0.3
		c-0.42,0.15-0.59,0.23-0.59,0.59c0.01,0.37-0.04,0.7,0.3,0.89c0.33,0.19,0.92,0.3,1.48,0.3c0.83,0,1.57-0.09,2.37,0
		c0.8,0.09,1.61,0.17,2.07,0.3c1.69,0.44,2.88,0.98,3.55,1.77c0.67,0.79,0.8,2.11,0.89,3.84c0.06,1.38,0.28,3.65,0.3,6.51
		c0.01,2.86,0,8.02,0,15.67v18.33c0.01,4.85,0.04,9.44,0,13.31s-0.36,6.9-0.59,9.17c-0.15,1.55-0.44,2.6-0.89,3.55
		c-0.45,0.95-1.29,1.52-2.37,1.77c-0.96,0.25-2.27,0.59-3.84,0.59c-0.66,0-0.93,0.08-1.18,0.3c-0.25,0.23-0.31,0.33-0.3,0.59
		c0.02,0.74,0.7,1.18,2.07,1.18c2.31,0,4.72,0.09,7.39,0c2.68-0.09,4.71-0.29,5.91-0.3c1.01,0,3.07,0.21,6.51,0.3
		c3.44,0.11,7-0.01,10.35,0c0.68,0,1.09-0.11,1.48-0.3c0.39-0.19,0.58-0.52,0.59-0.89c0-0.26-0.06-0.36-0.3-0.59
		c-0.23-0.23-0.75-0.28-1.18-0.3c-0.71,0-1.38-0.2-2.37-0.3s-1.83-0.17-2.66-0.3c-1.6-0.26-2.72-0.83-3.25-1.77
		c-0.53-0.95-1.05-2-1.18-3.55c-0.24-2.26-0.21-5.32-0.3-9.17c-0.09-3.84-0.3-8.4-0.3-13.31v-1.48c0.01-0.3,0.13-0.46,0.3-0.59
		c0.15-0.13,0.34,0,0.59,0h9.76c0.37-0.01,0.86,0.15,1.18,0.3c0.32,0.09,0.58,0.3,0.89,0.59c0.75,0.94,1.93,2.82,3.84,5.62
		c1.92,2.8,3.99,5.6,6.21,8.58c2.96,4.05,5.69,7.23,7.98,9.76s4.52,4.46,6.8,5.62c1.35,0.73,2.95,1.44,4.73,1.77
		c1.78,0.33,4.14,0.3,7.1,0.3h10.35c0.68,0.01,1.12-0.17,1.48-0.3c0.22-0.09,0.21-0.39,0.3-0.59c0.15,0.58,0.86,0.89,2.07,0.89
		c2.32,0,4.83,0.09,7.69,0c2.86-0.09,5.11-0.29,6.51-0.3c1.57,0,3.89,0.21,7.1,0.3c3.2,0.11,6.68-0.01,10.35,0
		c0.24,0,0.39,0.02,0.59,0c2.93,0,5.59,0.09,7.98,0s4.08-0.29,4.73-0.3c1.79,0,3.71,0.21,5.91,0.3c2.2,0.11,4.07-0.01,5.91,0
		c0.56,0.01,1.18,0.13,1.48,0c0.29-0.15,0.29-0.46,0.3-0.89c0.02-0.31-0.08-0.68-0.3-0.89c-0.21-0.21-0.52-0.29-1.18-0.3h-1.77
		c-1.63-0.01-2.62-0.38-3.25-0.89c-0.63-0.51-0.91-1.14-0.89-2.07c0-0.64,0.04-1.51,0.3-2.66c0.26-1.15,0.63-2.52,1.18-3.84
		l5.91-13.9c0.11-0.3,0.17-0.5,0.3-0.59c0.13-0.09,0.3-0.3,0.59-0.3h25.43c0.25-0.01,0.41,0.15,0.59,0.3
		c0.19,0.11,0.47,0.3,0.59,0.59l8.28,20.99c0.22,0.62,0.24,1.05,0,1.48c-0.24,0.43-0.49,0.81-0.89,0.89c-0.54,0.09-1,0.11-1.18,0.3
		c-0.19,0.19-0.31,0.28-0.3,0.59c0.01,0.35,0.32,0.79,0.89,0.89c0.56,0.09,1.37-0.04,2.37,0c4.61,0.11,8.78,0.27,12.42,0.3h8.28
		c1.97,0.01,3.54-0.17,4.14-0.3c0.6-0.15,0.65-0.46,0.59-0.89c0-0.74-0.49-0.89-1.48-0.89c-0.61,0-1.12-0.2-1.77-0.3
		s-1.28-0.17-2.07-0.3c-0.98,0-2.31-0.65-3.84-2.07c-1.54-1.42-3.53-4.58-5.62-9.17c-2.46-5.68-5.5-13.17-9.46-22.47
		c-3.96-9.3-7.76-17.84-11.24-26.02c-3.48-8.18-5.78-13.35-6.8-15.67c-0.52-1.16-1.05-2.13-1.48-2.66
		C890.98,585.94,890.4,585.57,889.63,585.59L889.63,585.59z M237.31,586.77c-7.7,0.09-14.07,1.88-19.22,5.62
		c-5.15,3.74-7.78,8.9-7.98,15.38c-0.09,4.56,1,8.63,3.55,12.42c2.55,3.79,7,7.54,13.31,11.24l6.21,3.84
		c4.64,2.81,7.84,5.3,9.17,7.69c1.32,2.39,1.93,4.84,1.77,7.1c-0.04,3.78-1.52,6.68-4.14,9.17c-2.62,2.49-6.23,3.75-10.94,3.84
		c-3.53,0.09-7.03-0.51-10.35-2.07c-3.32-1.56-5.48-4.46-6.8-8.28c-0.31-0.95-0.72-1.68-0.89-2.66c-0.17-0.98-0.29-1.96-0.3-2.66
		c0.02-0.4,0.13-0.82,0-1.18c-0.13-0.36-0.41-0.56-0.89-0.59c-0.43,0-0.95,0.4-1.18,0.89c-0.23,0.49-0.29,1.26-0.3,2.07
		c-0.08,0.98-0.13,2.65-0.3,5.32c-0.15,2.67-0.28,5.63-0.3,8.58c-0.02,1.13,0.01,1.9,0.3,2.37c0.29,0.46,0.93,0.86,1.77,1.18
		c2.39,1.03,5.2,1.67,8.28,2.07c3.08,0.4,5.98,0.61,9.17,0.59c2.96,0.09,6.24-0.33,9.46-0.89c3.22-0.57,6.22-1.75,8.87-3.55
		c3.9-2.75,6.6-5.66,8.28-8.87c1.68-3.21,2.41-6.78,2.37-10.65c0.11-4.71-1.07-9.17-3.84-13.31c-2.78-4.14-7.76-8.22-14.79-12.12
		l-4.44-2.37c-4.73-2.65-7.95-4.97-9.46-7.1c-1.51-2.13-2.2-4.52-2.07-6.8c0.13-3.59,1.58-6.35,4.44-8.28
		c2.85-1.93,6.34-2.64,10.35-2.66c3.47,0.09,6.08,0.41,7.98,1.48c1.9,1.07,3.38,2.19,4.14,3.25c1.14,1.41,1.98,2.82,2.37,4.14
		c0.39,1.32,0.62,2.41,0.59,2.96c0,1.23,0.15,1.77,0.89,1.77c0.88,0,1.46-1.04,1.48-3.25c0.02-4.04,0.19-7.01,0.3-8.87
		c0.11-1.86-0.02-3.24,0-3.84c0-0.36-0.06-0.68-0.3-0.89c-0.25-0.21-0.69-0.17-1.18-0.3c-1.44-0.4-3.57-0.82-6.21-1.18
		C243.84,587,240.84,586.8,237.31,586.77L237.31,586.77z M382.8,586.77c-7.99,0-14.6,1.02-20.11,2.96
		c-5.51,1.94-10.33,4.51-14.19,7.98c-5.05,4.78-8.3,9.79-10.05,15.08c-1.76,5.29-2.78,9.86-2.66,13.6
		c-0.11,5.14,1.02,10.54,2.96,15.97c1.94,5.43,5.4,10.2,10.65,14.79c4.93,4.08,10.63,7.12,16.86,8.87
		c6.22,1.76,13.01,2.71,20.4,2.66c3.61,0,7.06-0.23,10.65-0.59c3.58-0.36,6.61-0.92,8.87-1.77c0.89-0.34,1.39-0.77,1.77-1.18
		c0.39-0.42,0.67-1.18,0.89-2.07c0.58-2.06,1.3-4.53,1.77-7.69c0.47-3.15,0.56-5.32,0.59-6.21c-0.01-0.45-0.08-0.81-0.3-1.18
		c-0.22-0.38-0.51-0.57-0.89-0.59c-0.42,0-0.7,0.28-0.89,0.59c-0.19,0.31-0.19,0.69-0.3,1.48c-0.2,1.02-0.82,2.26-1.48,3.55
		c-0.66,1.28-1.43,2.46-2.37,3.55c-2.08,2.33-4.7,3.72-7.69,4.44c-2.99,0.72-6.8,1.25-11.53,1.18c-4.99,0.01-9.94-1.48-15.08-4.14
		c-5.14-2.66-9.48-6.7-13.01-12.12s-5.47-12.13-5.62-20.4c-0.08-5.17,0.66-10.06,2.07-14.79c1.41-4.72,4.07-8.91,7.98-12.42
		c2.41-2.08,5.32-3.5,8.58-4.44c3.26-0.94,7.14-1.49,11.83-1.48c5,0,9.18,0.65,12.72,1.77c3.54,1.13,6.42,2.62,8.28,4.44
		c1.35,1.38,2.27,2.73,2.96,4.44c0.69,1.7,1.12,3.63,1.18,5.32c-0.01,0.68,0.13,1.09,0.3,1.48c0.17,0.39,0.46,0.59,0.89,0.59
		c0.48,0,0.66-0.41,0.89-0.89c0.22-0.47,0.54-1.02,0.59-1.77c0.06-1.17-0.04-2.76,0-5.03c0.04-2.26,0.19-4.36,0.3-6.21
		c0.13-1.8,0.2-3.01,0.3-3.84c0.09-0.83,0.29-1.68,0.3-2.07c0.01-0.31-0.36-0.36-0.59-0.59c-0.24-0.22-0.58-0.52-1.18-0.59
		c-1.6-0.2-3.23-0.28-5.03-0.59c-1.8-0.32-3.59-0.87-5.62-1.18c-2.39-0.31-4.99-0.38-7.39-0.59
		C388.97,586.86,386.1,586.79,382.8,586.77L382.8,586.77z M576.48,586.77c-0.59,0-0.96,0.44-1.18,1.77c-0.21,0.79-0.55,3-1.18,6.21
		c-0.64,3.21-1.1,5.28-1.18,6.51c-0.01,0.56,0.15,0.89,0.3,1.18c0.15,0.29,0.23,0.59,0.59,0.59c0.36,0,0.71-0.08,0.89-0.3
		c0.17-0.24,0.19-0.75,0.3-1.18c0.11-0.38,0.31-0.85,0.59-1.48c0.28-0.62,0.93-1.32,1.48-2.07c0.74-1.15,1.68-1.89,3.25-2.37
		c1.57-0.47,4.02-0.55,7.1-0.59l16.26-0.59v42.29c0.01,4.85-0.24,9.44-0.3,13.31c-0.06,3.86-0.06,6.9-0.3,9.17
		c-0.15,1.55-0.44,2.6-0.89,3.55c-0.45,0.95-1.29,1.52-2.37,1.77c-0.44,0.13-0.83,0.24-1.48,0.3c-0.65,0.09-1.56,0.3-2.37,0.3
		c-0.66,0-0.93,0.08-1.18,0.3c-0.25,0.23-0.6,0.33-0.59,0.59c0.02,0.74,0.7,1.18,2.07,1.18c2.32,0,5.13,0.09,7.98,0
		c2.86-0.09,4.81-0.29,6.21-0.3c1.63,0,4.21,0.21,7.39,0.3c3.18,0.11,6.4-0.01,10.05,0c0.63,0,1.1-0.11,1.48-0.3
		c0.38-0.19,0.58-0.52,0.59-0.89c0.01-0.26-0.02-0.36-0.3-0.59c-0.27-0.23-0.57-0.28-1.18-0.3c-0.84,0-1.92-0.2-2.96-0.3
		c-1.04-0.09-1.88-0.17-2.66-0.3c-1.55-0.26-2.7-0.84-3.25-1.77c-0.55-0.94-0.75-2.06-0.89-3.55c-0.24-2.33-0.51-5.29-0.59-9.17
		c-0.09-3.88-0.01-8.46,0-13.31v-42.29l13.6,0.3c4.77,0.13,7.9,0.84,9.76,2.07c1.86,1.23,2.92,2.71,2.96,4.14v0.89
		c0.04,0.79,0.42,1.46,0.59,1.77c0.17,0.31,0.47,0.31,0.89,0.3c0.3,0,0.44,0,0.59-0.3c0.15-0.29,0.24-0.63,0.3-1.18
		c0.01-1.57-0.08-4.03,0-6.8c0.08-2.77,0.29-4.59,0.3-5.91c0.01-0.79-0.19-1.43-0.3-1.77c-0.11-0.35-0.23-0.59-0.59-0.59
		c-0.17,0-0.42,0.24-0.89,0.3c-0.47,0.09-1.22,0.17-2.07,0.3c-0.79,0.13-1.75,0.2-2.96,0.3c-1.21,0.09-2.72,0.3-4.44,0.3h-44.06
		c-1.81,0-3.43-0.19-5.32-0.3c-1.89-0.09-3.7-0.11-5.32-0.3c-1.32-0.21-2.26-0.59-2.96-0.89S576.88,586.8,576.48,586.77
		L576.48,586.77z M324.25,587.36c-0.3,0.13-0.58,0.22-0.89,0.3c-0.44,0.09-1.27,0.15-2.07,0.3c-0.8,0.13-1.67,0.23-2.66,0.3
		c-0.96,0-3.44,0.3-7.69,0.3c-4.25,0-8.61,0-13.01,0h-8.87c-1.64,0-3.88-0.27-6.8-0.3c-2.92-0.09-5.94,0.01-8.87,0
		c-0.8,0-1.36,0.17-1.77,0.3c-0.42,0.15-0.59,0.23-0.59,0.59c0.01,0.37,0.26,0.7,0.59,0.89c0.33,0.19,0.62,0.3,1.18,0.3
		c0.83,0,1.87-0.09,2.66,0c0.8,0.09,1.32,0.17,1.77,0.3c1.69,0.44,2.88,1.27,3.55,2.07c0.67,0.79,1.1,1.81,1.18,3.55
		c0.06,1.38-0.01,3.65,0,6.51c0.01,2.86,0,8.02,0,15.67v18.33c0.01,4.85,0.06,9.44,0,13.31c-0.06,3.86-0.06,6.9-0.3,9.17
		c-0.15,1.55-0.73,2.6-1.18,3.55c-0.45,0.95-0.99,1.52-2.07,1.77c-0.96,0.25-2.27,0.59-3.84,0.59c-0.66,0-1.23,0.08-1.48,0.3
		c-0.25,0.23-0.31,0.33-0.3,0.59c0.02,0.74,0.7,1.18,2.07,1.18c1.12,0,2.26,0.09,3.55,0c1.29-0.09,2.54-0.23,3.84-0.3
		c1.31-0.01,2.77,0.09,3.84,0c1.08,0,1.73,0,2.37,0c1.59,0,3.55-0.09,5.62,0c2.07,0.09,4.46,0.23,7.1,0.3
		c2.64,0.13,5.57-0.06,8.87,0c3.3,0.09,6.89,0.3,10.94,0.3c1.97,0.09,3.35-0.06,4.14-0.3c0.79-0.28,1.46-1.07,1.77-2.37
		c0.33-1.25,0.57-3.37,0.89-5.91c0.31-2.54,0.57-4.24,0.59-5.62c0.01-0.59-0.17-1.26-0.3-1.77c-0.13-0.51-0.47-0.86-0.89-0.89
		c-0.36,0-0.42,0.33-0.59,0.59c-0.17,0.26-0.48,0.63-0.59,1.18c-0.35,2.13-0.76,3.8-1.48,5.03c-0.72,1.22-1.92,2.07-3.25,2.66
		c-1.49,0.6-3.11,1.02-5.03,1.18c-1.92,0.17-3.54,0.02-5.03,0c-5.44,0.09-9.38-0.27-11.53-1.48c-2.15-1.21-3.23-3.61-3.25-7.1
		c-0.06-1.77-0.02-4.41,0-7.69c0.02-3.27-0.01-5.97,0-7.98v-8.28c-0.01-0.31,0.21-0.38,0.3-0.59c0.09-0.21,0.06-0.58,0.3-0.59
		c1.03,0,2.9,0.2,5.32,0.3c2.42,0,4.76-0.08,7.1,0c2.34,0.09,3.95,0.21,4.73,0.3c1.99,0.2,3.26,0.76,4.14,1.48
		c0.88,0.72,1.51,1.6,1.77,2.66c0.11,0.68,0.26,1.42,0.3,2.07c0.04,0.65-0.06,1.22,0,1.77c-0.01,0.26,0.15,0.43,0.3,0.59
		c0.15,0.17,0.52,0.29,0.89,0.3c0.48,0,0.75-0.37,0.89-0.89c0.13-0.52,0.02-1,0-1.48c0.01-0.48,0.2-1.44,0.3-2.96
		c0.09-1.51,0.17-2.98,0.3-4.14c0.3-2.59,0.46-4.5,0.59-5.62c0.13-1.12,0.3-1.81,0.3-2.07c-0.01-0.31-0.13-0.38-0.3-0.59
		c-0.15-0.21-0.34-0.29-0.59-0.3c-0.23,0-0.34,0.04-0.59,0.3c-0.25,0.26-0.76,0.51-1.18,0.89c-0.48,0.54-0.94,0.97-1.77,1.18
		c-0.84,0.22-1.97,0.49-3.25,0.59c-0.96,0.09-2.94-0.02-5.62,0c-2.68,0-5.31,0-7.98,0c-2.68,0.01-4.36-0.01-5.32,0
		c-0.3-0.01-0.49-0.09-0.59-0.3c-0.09-0.21-0.3-0.28-0.3-0.59v-26.02c0-0.63,0.4-0.87,0.89-0.89c0.87,0,2.58-0.09,5.03,0
		c2.44,0,4.69,0.22,7.1,0.3c2.4,0.09,3.98,0.21,4.73,0.3c2.61,0.26,4.42,0.51,5.32,1.18c0.9,0.67,1.44,1.73,1.77,2.66
		c0.3,0.65,0.49,1.33,0.59,2.07c0.09,0.74,0.3,1.37,0.3,1.77c-0.01,0.44-0.11,0.65,0,0.89c0.11,0.24,0.53,0.3,0.89,0.3
		c0.42,0,0.71-0.17,0.89-0.59c0.17-0.41,0.24-0.89,0.3-1.18c0.13-0.76,0.19-1.98,0.3-3.55c0.11-1.57,0.23-2.56,0.3-3.25
		c0.15-2.33,0.39-4.09,0.59-5.03c0.2-0.94,0.27-1.47,0.3-1.77c0.01-0.26-0.2-0.39-0.3-0.59c-0.09-0.2-0.29-0.28-0.59-0.3
		C324.59,587.36,324.54,587.27,324.25,587.36L324.25,587.36z M560.52,587.36c-0.29,0.13-0.58,0.22-0.89,0.3
		c-0.44,0.09-1.27,0.15-2.07,0.3c-0.8,0.13-1.67,0.23-2.66,0.3c-0.96,0-3.44,0.3-7.69,0.3c-4.25,0-8.61,0-13.01,0h-8.87
		c-1.64,0-3.88-0.27-6.8-0.3c-2.92-0.09-5.94,0.01-8.87,0c-0.8,0-1.36,0.17-1.77,0.3c-0.42,0.15-0.59,0.23-0.59,0.59
		c0.01,0.37,0.26,0.7,0.59,0.89c0.33,0.19,0.62,0.3,1.18,0.3c0.83,0,1.87-0.09,2.66,0c0.79,0.09,1.32,0.17,1.77,0.3
		c1.69,0.44,2.88,1.27,3.55,2.07c0.67,0.79,1.1,1.81,1.18,3.55c0.06,1.38-0.01,3.65,0,6.51c0.01,2.86,0,8.02,0,15.67v18.33
		c0.01,4.85,0.06,9.44,0,13.31c-0.06,3.86-0.06,6.9-0.3,9.17c-0.15,1.55-0.73,2.6-1.18,3.55s-0.99,1.52-2.07,1.77
		c-0.96,0.25-2.27,0.59-3.84,0.59c-0.42,0-0.8-0.01-1.18,0c-0.38,0-0.65-0.17-1.18-0.3c-0.86-0.09-2.22-0.67-4.14-1.48
		c-1.92-0.81-4.38-2.42-7.39-5.32c-3.24-3.27-7.04-7.45-10.94-12.12c-3.9-4.67-8.23-9.75-13.01-15.67
		c5.25-4.19,9.14-8.13,11.53-11.83c2.39-3.7,3.58-7.71,3.55-11.53c-0.13-3.54-1.01-6.38-2.66-8.87c-1.65-2.49-3.36-4.25-5.03-5.32
		c-2.95-1.85-6.14-3.27-9.76-3.84c-3.62-0.58-7.14-0.65-10.65-0.59c-1.92,0-4.68-0.02-8.28,0c-3.6,0.09-6.47,0.29-8.58,0.3
		c-1.23,0-3.38-0.27-6.21-0.3c-2.83-0.09-5.62,0.01-8.58,0c-0.8-0.01-1.36,0.17-1.77,0.3c-0.42,0.15-0.59,0.23-0.59,0.59
		c0.01,0.37-0.04,0.7,0.3,0.89c0.33,0.19,0.92,0.3,1.48,0.3c0.83,0,1.57-0.09,2.37,0s1.32,0.17,1.77,0.3
		c1.69,0.44,2.88,0.98,3.55,1.77c0.67,0.79,1.1,2.11,1.18,3.84c0.06,1.38,0.28,3.65,0.3,6.51s0,8.02,0,15.67v18.33
		c0.01,4.85-0.24,9.44-0.3,13.31c-0.06,3.86-0.06,6.9-0.3,9.17c-0.15,1.55-0.44,2.6-0.89,3.55c-0.45,0.95-1.29,1.52-2.37,1.77
		c-0.96,0.25-2.27,0.59-3.84,0.59c-0.66,0-0.93,0.08-1.18,0.3c-0.25,0.23-0.6,0.33-0.59,0.59c0.02,0.74,0.7,1.18,2.07,1.18
		c2.31,0,5.01,0.09,7.69,0c2.68-0.09,4.42-0.29,5.62-0.3c1.01,0,3.36,0.21,6.8,0.3c3.44,0.11,6.71-0.01,10.05,0
		c0.68,0,1.38-0.11,1.77-0.3c0.39-0.19,0.58-0.52,0.59-0.89c0-0.26-0.06-0.36-0.3-0.59c-0.23-0.23-0.75-0.28-1.18-0.3
		c-0.71,0-1.38-0.2-2.37-0.3c-0.99-0.09-2.12-0.17-2.96-0.3c-1.6-0.26-2.43-0.83-2.96-1.77c-0.53-0.95-1.05-2-1.18-3.55
		c-0.24-2.26-0.21-5.32-0.3-9.17c-0.09-3.84-0.3-8.4-0.3-13.31v-1.48c0.01-0.3,0.13-0.46,0.3-0.59c0.15-0.13,0.34,0,0.59,0h9.76
		c0.37-0.01,0.57,0.15,0.89,0.3c0.32,0.09,0.88,0.3,1.18,0.59c0.75,0.94,1.93,2.82,3.84,5.62c1.92,2.8,3.99,5.6,6.21,8.58
		c2.96,4.05,5.69,7.23,7.98,9.76s4.52,4.46,6.8,5.62c1.35,0.73,2.95,1.44,4.73,1.77c1.78,0.33,4.14,0.3,7.1,0.3h10.35
		c0.28,0.06,0.49,0,0.89,0c1.12,0,2.26,0.09,3.55,0c1.29-0.09,2.54-0.23,3.84-0.3c1.31-0.01,2.76,0.09,3.84,0c1.08,0,1.73,0,2.37,0
		c1.59,0,3.55-0.09,5.62,0c2.07,0.09,4.46,0.23,7.1,0.3c2.64,0.13,5.57-0.06,8.87,0c3.3,0.09,6.89,0.3,10.94,0.3
		c1.97,0.09,3.35-0.06,4.14-0.3c0.79-0.28,1.46-1.07,1.77-2.37c0.33-1.25,0.57-3.37,0.89-5.91c0.31-2.54,0.57-4.24,0.59-5.62
		c0.01-0.59-0.17-1.26-0.3-1.77c-0.13-0.51-0.47-0.86-0.89-0.89c-0.36,0-0.42,0.33-0.59,0.59c-0.17,0.26-0.48,0.63-0.59,1.18
		c-0.35,2.13-0.76,3.8-1.48,5.03c-0.72,1.22-1.92,2.07-3.25,2.66c-1.49,0.6-3.11,1.02-5.03,1.18c-1.92,0.17-3.54,0.02-5.03,0
		c-5.44,0.09-9.38-0.27-11.53-1.48c-2.15-1.21-3.23-3.61-3.25-7.1c-0.06-1.77-0.02-4.41,0-7.69c0.02-3.27-0.01-5.97,0-7.98v-8.28
		c-0.01-0.31,0.21-0.38,0.3-0.59c0.08-0.21,0.06-0.58,0.3-0.59c1.03,0,2.9,0.2,5.32,0.3c2.42,0,4.76-0.08,7.1,0
		c2.34,0.09,3.95,0.21,4.73,0.3c1.99,0.2,3.26,0.76,4.14,1.48c0.88,0.72,1.51,1.6,1.77,2.66c0.11,0.68,0.26,1.42,0.3,2.07
		c0.04,0.65-0.06,1.22,0,1.77c-0.01,0.26,0.15,0.43,0.3,0.59c0.15,0.17,0.52,0.29,0.89,0.3c0.48,0,0.75-0.37,0.89-0.89
		c0.13-0.52,0.02-1,0-1.48c0.01-0.48,0.2-1.44,0.3-2.96c0.09-1.51,0.17-2.98,0.3-4.14c0.3-2.59,0.45-4.5,0.59-5.62
		c0.13-1.12,0.3-1.81,0.3-2.07c-0.01-0.31-0.13-0.38-0.3-0.59c-0.15-0.21-0.34-0.29-0.59-0.3c-0.23,0-0.34,0.04-0.59,0.3
		c-0.25,0.26-0.76,0.51-1.18,0.89c-0.48,0.54-0.94,0.97-1.77,1.18c-0.84,0.22-1.97,0.49-3.25,0.59c-0.96,0.09-2.94-0.02-5.62,0
		c-2.68,0-5.31,0-7.98,0c-2.68,0.01-4.36-0.01-5.32,0c-0.3-0.01-0.49-0.09-0.59-0.3c-0.09-0.21-0.3-0.28-0.3-0.59v-26.02
		c0-0.63,0.4-0.87,0.89-0.89c0.87,0,2.58-0.09,5.03,0c2.44,0,4.69,0.22,7.1,0.3c2.4,0.09,3.98,0.21,4.73,0.3
		c2.61,0.26,4.42,0.51,5.32,1.18c0.9,0.67,1.44,1.73,1.77,2.66c0.3,0.65,0.49,1.33,0.59,2.07c0.09,0.74,0.3,1.37,0.3,1.77
		c-0.01,0.44-0.11,0.65,0,0.89c0.11,0.24,0.53,0.3,0.89,0.3c0.42,0,0.71-0.17,0.89-0.59c0.17-0.41,0.24-0.89,0.3-1.18
		c0.13-0.76,0.19-1.98,0.3-3.55c0.11-1.57,0.23-2.56,0.3-3.25c0.15-2.33,0.39-4.09,0.59-5.03c0.21-0.94,0.28-1.47,0.3-1.77
		c0.01-0.26-0.19-0.39-0.3-0.59c-0.09-0.2-0.29-0.28-0.59-0.3C560.86,587.36,560.81,587.26,560.52,587.36L560.52,587.36z
		 M1125.9,587.36c-0.3,0.13-0.58,0.22-0.89,0.3c-0.44,0.09-0.98,0.15-1.77,0.3c-0.8,0.13-1.67,0.23-2.66,0.3
		c-0.96,0-3.73,0.3-7.98,0.3c-4.25,0-8.31,0-12.72,0h-8.87c-1.64,0-3.88-0.27-6.8-0.3c-2.92-0.09-5.94,0.01-8.87,0
		c-0.8,0-1.36,0.17-1.77,0.3c-0.42,0.15-0.59,0.23-0.59,0.59c0.01,0.37,0.26,0.7,0.59,0.89c0.33,0.19,0.62,0.3,1.18,0.3
		c0.83,0,1.57-0.09,2.37,0c0.79,0.09,1.61,0.17,2.07,0.3c1.69,0.44,2.88,1.27,3.55,2.07c0.67,0.79,1.1,1.81,1.18,3.55
		c0.06,1.38-0.01,3.65,0,6.51c0.01,2.86,0,8.02,0,15.67v18.33c0.01,4.85,0.06,9.44,0,13.31c-0.04,3.86-0.36,6.9-0.59,9.17
		c-0.15,1.55-0.44,2.6-0.89,3.55c-0.45,0.95-1.29,1.52-2.37,1.77c-0.96,0.25-1.97,0.59-3.55,0.59c-0.66,0-1.23,0.08-1.48,0.3
		c-0.25,0.23-0.31,0.33-0.3,0.59c0.02,0.74,0.7,1.18,2.07,1.18c1.12,0,2.26,0.09,3.55,0c1.29-0.09,2.54-0.23,3.84-0.3
		c1.31-0.01,2.47,0.09,3.55,0c1.08,0,2.03,0,2.66,0c1.59,0,3.55-0.09,5.62,0c2.07,0.09,4.16,0.23,6.8,0.3
		c2.64,0.13,5.87-0.06,9.17,0c3.3,0.09,6.89,0.3,10.94,0.3c1.97,0.09,3.35-0.06,4.14-0.3c0.79-0.28,1.17-1.07,1.48-2.37
		c0.33-1.25,0.87-3.37,1.18-5.91c0.31-2.54,0.27-4.24,0.3-5.62c0.01-0.59,0.11-1.26,0-1.77c-0.13-0.51-0.47-0.86-0.89-0.89
		c-0.36,0-0.71,0.33-0.89,0.59c-0.17,0.26-0.19,0.63-0.3,1.18c-0.35,2.13-1.06,3.8-1.77,5.03c-0.72,1.22-1.62,2.07-2.96,2.66
		c-1.49,0.6-3.11,1.02-5.03,1.18c-1.92,0.17-3.54,0.02-5.03,0c-5.44,0.09-9.38-0.27-11.53-1.48c-2.15-1.21-3.23-3.61-3.25-7.1
		c-0.06-1.77-0.02-4.41,0-7.69c0.02-3.27-0.01-5.97,0-7.98v-8.28c-0.01-0.31-0.09-0.38,0-0.59c0.08-0.21,0.35-0.58,0.59-0.59
		c1.03,0,2.9,0.2,5.32,0.3c2.42,0,4.76-0.08,7.1,0c2.34,0.09,3.95,0.21,4.73,0.3c1.99,0.2,3.26,0.76,4.14,1.48
		c0.88,0.72,1.51,1.6,1.77,2.66c0.11,0.68,0.26,1.42,0.3,2.07c0.04,0.65-0.06,1.22,0,1.77c-0.01,0.26,0.15,0.43,0.3,0.59
		c0.15,0.17,0.23,0.29,0.59,0.3c0.48,0,1.04-0.37,1.18-0.89c0.13-0.52,0.02-1,0-1.48c0.01-0.48,0.2-1.44,0.3-2.96
		c0.09-1.51,0.17-2.98,0.3-4.14c0.3-2.59,0.45-4.5,0.59-5.62c0.13-1.12,0.3-1.81,0.3-2.07c-0.01-0.31-0.13-0.38-0.3-0.59
		c-0.15-0.21-0.34-0.29-0.59-0.3c-0.23,0-0.64,0.04-0.89,0.3c-0.25,0.26-0.47,0.51-0.89,0.89c-0.48,0.54-1.23,0.97-2.07,1.18
		c-0.84,0.22-1.67,0.49-2.96,0.59c-0.96,0.09-2.94-0.02-5.62,0c-2.68,0-5.31,0-7.98,0c-2.68,0.01-4.36-0.01-5.32,0
		c-0.3-0.01-0.79-0.09-0.89-0.3c-0.09-0.21-0.01-0.28,0-0.59v-26.02c0-0.63,0.4-0.87,0.89-0.89c0.87,0,2.29-0.09,4.73,0
		c2.44,0,4.99,0.22,7.39,0.3c2.4,0.09,3.98,0.21,4.73,0.3c2.61,0.26,4.42,0.51,5.32,1.18c0.9,0.67,1.44,1.73,1.77,2.66
		c0.3,0.65,0.49,1.33,0.59,2.07c0.09,0.74,0.3,1.37,0.3,1.77c-0.01,0.44-0.11,0.65,0,0.89c0.11,0.24,0.23,0.3,0.59,0.3
		c0.42,0,0.71-0.17,0.89-0.59c0.17-0.41,0.54-0.89,0.59-1.18c0.13-0.76,0.19-1.98,0.3-3.55c0.11-1.57,0.23-2.56,0.3-3.25
		c0.15-2.33,0.09-4.09,0.3-5.03c0.21-0.94,0.57-1.47,0.59-1.77c0.01-0.26-0.19-0.39-0.3-0.59c-0.09-0.2-0.29-0.28-0.59-0.3
		C1126.53,587.36,1126.19,587.27,1125.9,587.36L1125.9,587.36z M974.8,587.95c-0.8-0.01-1.36,0.17-1.77,0.3
		c-0.42,0.15-0.88,0.53-0.89,0.89c0.01,0.37,0.26,0.7,0.59,0.89c0.33,0.19,0.92,0,1.48,0c0.83,0,1.57,0.2,2.37,0.3
		c0.8,0.09,1.32,0.17,1.77,0.3c1.69,0.44,2.88,0.98,3.55,1.77c0.67,0.79,1.1,2.11,1.18,3.84c0.06,1.38-0.01,3.35,0,6.21
		c0.01,2.86,0,8.31,0,15.97v18.33c0.01,4.85,0.06,9.44,0,13.31s-0.06,6.9-0.3,9.17c-0.15,1.55-0.44,2.6-0.89,3.55
		c-0.45,0.95-1.29,1.52-2.37,1.77c-0.96,0.25-2.27,0.59-3.84,0.59c-0.66,0-1.23,0.08-1.48,0.3c-0.25,0.23-0.31,0.33-0.3,0.59
		c0.02,0.74,0.7,1.18,2.07,1.18c1.12,0,2.56,0.09,3.84,0c1.29-0.09,2.54-0.23,3.84-0.3c1.31-0.01,2.47,0.09,3.55,0
		c1.08,0,1.73,0,2.37,0c1.37,0,3.15-0.08,5.03,0c1.88,0.11,4.04,0.4,6.21,0.59c2.18,0.13,4.28,0.17,6.51,0.3
		c2.22,0.13,4.22,0.29,6.21,0.3c9.92-0.21,18.03-1.77,23.95-4.44c5.93-2.67,10-5.32,12.42-7.98c3.18-3.03,5.99-6.92,8.28-11.83
		c2.29-4.91,3.44-10.55,3.55-17.15c-0.09-6.2-1.29-11.56-3.25-15.97c-1.96-4.41-4.3-7.95-7.1-10.65
		c-6.14-5.72-13.05-9.4-20.99-10.65c-7.95-1.24-15.48-1.73-22.47-1.48c-3.38,0-6.77,0.27-10.05,0.3c-3.29,0.09-5.61-0.01-7.39,0
		c-1.64,0-4.18,0.04-7.1,0C980.45,588.15,977.73,587.96,974.8,587.95L974.8,587.95z M454.06,593.57c1.15-0.09,2.46,0,3.84,0
		c3.49-0.15,7.04,1.19,10.65,3.84c3.61,2.65,5.63,7.55,5.91,14.79c-0.08,4.27-0.94,7.59-2.37,10.05c-1.42,2.47-2.99,4.19-4.73,5.32
		c-0.86,0.66-1.88,1.23-2.96,1.48c-1.07,0.25-2.65,0.31-4.73,0.3c-1.38,0.01-2.68-0.17-4.14-0.3c-1.46-0.15-2.65-0.23-3.84-0.59
		c-0.36-0.17-0.74-0.33-0.89-0.59c-0.15-0.26-0.3-0.94-0.3-1.48v-31.05c-0.01-0.43,0.15-0.67,0.3-0.89
		c0.15-0.23,0.52-0.47,0.89-0.59C452.28,593.76,452.91,593.63,454.06,593.57L454.06,593.57z M754.5,593.57c1.15-0.09,2.46,0,3.84,0
		c3.49-0.15,7.04,1.19,10.65,3.84s5.63,7.55,5.91,14.79c-0.09,4.27-0.94,7.59-2.37,10.05c-1.42,2.47-2.99,4.19-4.73,5.32
		c-0.86,0.66-1.59,1.23-2.66,1.48c-1.07,0.25-2.65,0.31-4.73,0.3c-1.38,0.01-2.98-0.17-4.44-0.3c-1.46-0.15-2.65-0.23-3.84-0.59
		c-0.36-0.17-0.74-0.33-0.89-0.59c-0.15-0.26-0.3-0.94-0.3-1.48v-31.05c-0.01-0.43,0.15-0.67,0.3-0.89
		c0.15-0.23,0.52-0.47,0.89-0.59C752.72,593.76,753.35,593.63,754.5,593.57L754.5,593.57z M1005.85,593.57
		c4.35-0.13,9.12,0.53,14.49,1.77c5.37,1.25,10.58,3.99,15.67,8.28c2.52,2.09,4.76,5.13,6.8,9.46c2.04,4.33,3.13,9.92,3.25,16.56
		c0.06,5.46-0.4,10.33-1.77,14.79c-1.38,4.46-3.94,8.3-7.39,11.24c-3.22,2.67-6.53,4.55-10.35,5.62c-3.82,1.07-8.42,1.52-13.31,1.48
		c-4.22-0.09-7.48-0.63-9.76-1.48c-2.28-0.85-3.49-1.63-4.14-2.66c-0.42-0.63-0.71-1.79-0.89-3.25c-0.17-1.46-0.54-2.77-0.59-4.14
		c-0.08-1.1,0.06-3.69,0-7.39c-0.06-3.7,0-8.3,0-13.9v-13.01c0-4.23-0.02-8.38,0-12.12c0.01-3.74-0.06-6.38,0-8.28
		c-0.01-0.61,0.09-1.17,0.3-1.48c0.21-0.31,0.7-0.72,1.18-0.89c0.51-0.25,1.3-0.17,2.66-0.3
		C1003.36,593.75,1004.66,593.57,1005.85,593.57L1005.85,593.57z M677.02,606.88c0.11,0,0.22,0.37,0.3,0.59
		c0.08,0.22,0.24,0.38,0.3,0.59l10.05,26.61c0.15,0.39,0.17,0.57-0.3,0.59h-20.99c-0.19,0-0.51-0.21-0.59-0.3
		c-0.09-0.11,0.19-0.34,0.3-0.59l10.35-26.32c0.06-0.2,0.21-0.37,0.3-0.59C676.8,607.25,676.84,606.9,677.02,606.88L677.02,606.88z
		 M886.97,606.88c0.11,0,0.22,0.37,0.3,0.59c0.08,0.22-0.06,0.38,0,0.59l10.35,26.61c0.15,0.39-0.11,0.57-0.59,0.59h-20.7
		c-0.19,0-0.51-0.21-0.59-0.3c-0.09-0.11-0.11-0.34,0-0.59l10.65-26.32c0.06-0.2-0.09-0.37,0-0.59S886.8,606.9,886.97,606.88
		L886.97,606.88z M1965.27,555.58c-0.19-0.01-0.47,0.19-0.89,0.3c-0.42,0.19-1.16,0.45-1.77,0.89c-1.38,0.89-4.09,3.09-8.58,6.5
		c-4.48,3.41-8.38,6.26-11.24,8.87c-0.31,0.3-0.38,0.62-0.59,0.89c-0.21,0.25-0.29,0.64-0.3,0.89c0.02,0.25,0.13,0.47,0.3,0.59
		c0.17,0.19,0.15,0,0.3,0c0.13,0,0.51-0.19,0.89-0.3c0.38-0.21,0.68-0.32,1.18-0.59c2.44-1.32,5.74-2.65,9.76-4.14
		c4.01-1.49,7.68-2.73,11.24-3.25c1.21-0.19,2.31,0,2.96,0c0.64,0,0.89,0,1.18,0c0.34,0,0.69,0,0.89-0.3c0.2-0.26,0.33-0.76,0-1.48
		c-0.73-1.65-1.49-2.93-2.07-4.14c-0.58-1.21-1.29-2.4-1.77-3.25c-0.29-0.55-0.37-0.97-0.59-1.17
		C1965.94,555.66,1965.69,555.59,1965.27,555.58L1965.27,555.58z M1728.12,581.6c-0.54,0-1.28,0.53-1.77,1.17
		c-0.5,0.68-0.88,1.49-1.48,2.96l-28.39,65.94c-1.04,2.65-2.27,4.65-3.55,6.21c-1.28,1.55-2.93,2.58-5.32,2.96
		c-0.5,0.01-1.21,0.21-1.77,0.3c-0.56,0-0.98,0-1.48,0c-0.43,0.01-0.69,0-0.89,0.3c-0.2,0.21-0.3,0.57-0.3,0.89
		c0,0.42-0.02,0.72,0.3,0.89c0.32,0.19,0.8,0.01,1.48,0c2.93,0,5.59,0,7.98,0c2.39-0.19,4.08-0.28,4.73-0.3
		c1.79,0,3.71,0.21,5.91,0.3c2.2,0.19,4.36-0.01,6.21,0c0.56,0.01,0.89,0.19,1.18,0c0.29-0.19,0.59-0.45,0.59-0.89
		c0.02-0.32-0.08-0.68-0.3-0.89c-0.21-0.21-0.82-0.28-1.48-0.3h-1.48c-1.63-0.01-2.92-0.36-3.55-0.89
		c-0.63-0.53-0.91-1.14-0.89-2.07c0-0.64,0.04-1.51,0.3-2.66c0.26-1.15,0.93-2.53,1.48-3.84l5.62-13.9c0.11-0.3,0.17-0.49,0.3-0.59
		c0.13-0.19,0.3-0.3,0.59-0.3h25.73c0.25-0.01,0.41,0.19,0.59,0.3c0.19,0.19,0.17,0.3,0.3,0.59l8.58,20.99
		c0.22,0.62-0.06,1.04-0.3,1.48c-0.24,0.44-0.49,0.81-0.89,0.89c-0.54,0-0.7,0.19-0.89,0.3c-0.19,0.19-0.31,0.28-0.3,0.59
		c0.01,0.36,0.32,0.79,0.89,0.89c0.56,0,1.07,0,2.07,0c4.61,0.19,8.78,0.26,12.42,0.3h8.58c1.97,0.01,3.24-0.19,3.84-0.3
		c0.6-0.19,0.95-0.45,0.89-0.89c0-0.74-0.49-0.89-1.48-0.89c-0.61,0-1.42-0.21-2.07-0.3c-0.65,0-1.28-0.19-2.07-0.3
		c-0.98,0-2.31-0.66-3.84-2.07c-1.54-1.42-3.23-4.28-5.32-8.87c-2.46-5.69-5.8-13.17-9.76-22.47c-3.96-9.3-7.76-18.14-11.24-26.32
		c-3.48-8.18-5.78-13.35-6.8-15.67c-0.52-1.15-0.76-2.13-1.18-2.66c-0.43-0.53-1.01-0.89-1.77-0.89L1728.12,581.6z M1604.22,582.49
		c-0.56,0-1.15,0.25-1.48,0.89c-0.33,0.64-0.29,1.61-0.3,2.66l-1.18,61.8c-0.02,4.46-0.17,7.61-0.59,9.46
		c-0.42,1.86-1.29,2.97-2.66,3.25c-0.76,0.19-1.48,0.51-2.37,0.59c-0.38,0-0.94-0.19-1.48-0.3c-0.86,0-2.22-0.38-4.14-1.17
		c-1.92-0.81-4.38-2.72-7.39-5.62c-3.24-3.27-6.74-7.45-10.65-12.12c-3.9-4.67-8.23-9.76-13.01-15.67
		c5.25-4.19,8.84-8.13,11.24-11.83c2.39-3.7,3.58-7.71,3.55-11.53c-0.13-3.54-1.01-6.38-2.66-8.87c-1.65-2.49-3.36-4.24-5.03-5.32
		c-2.96-1.86-6.14-3.27-9.76-3.85c-3.62-0.59-7.14-0.64-10.65-0.59c-1.92,0-4.68,0-8.28,0s-6.47,0.28-8.58,0.3
		c-1.23,0-3.38-0.26-6.21-0.3c-2.83,0-5.62,0.01-8.58,0c-0.8-0.01-1.36,0.19-1.77,0.3c-0.42,0.19-0.59,0.23-0.59,0.59
		c0.01,0.36-0.04,0.7,0.3,0.89c0.33,0.19,0.92,0.3,1.48,0.3c0.83,0,1.57,0,2.37,0c0.8,0,1.61,0.19,2.07,0.3
		c1.69,0.45,2.88,0.98,3.55,1.78c0.67,0.79,0.8,2.11,0.89,3.85c0.06,1.38,0.28,3.65,0.3,6.5c0.01,2.86,0,8.02,0,15.67v18.33
		c0.01,4.85,0.06,9.44,0,13.31s-0.36,6.9-0.59,9.17c-0.15,1.55-0.44,2.6-0.89,3.55c-0.45,0.95-1.29,1.51-2.37,1.78
		c-0.96,0.25-2.27,0.59-3.84,0.59c-0.66,0-0.93,0-1.18,0.3c-0.25,0.23-0.31,0.32-0.3,0.59c0.02,0.74,0.7,1.17,2.07,1.17
		c2.31,0,4.72,0,7.39,0c2.68-0.19,4.71-0.28,5.91-0.3c1.01,0,3.07,0.21,6.51,0.3c3.44,0.19,7-0.01,10.35,0
		c0.68,0,1.09-0.19,1.48-0.3c0.39-0.19,0.58-0.51,0.59-0.89c0-0.26-0.06-0.36-0.3-0.59c-0.23-0.23-0.45-0.28-0.89-0.3
		c-0.71,0-1.67-0.21-2.66-0.3c-0.99,0-1.83-0.19-2.66-0.3c-1.6-0.26-2.72-0.83-3.25-1.78c-0.53-0.95-1.06-2-1.18-3.55
		c-0.24-2.26-0.21-5.33-0.3-9.17c-0.09-3.84-0.3-8.4-0.3-13.31v-1.48c0.01-0.3,0.13-0.45,0.3-0.59c0.15-0.19,0.34,0,0.59,0h9.76
		c0.37-0.01,0.86,0.19,1.18,0.3c0.32,0.19,0.58,0.3,0.89,0.59c0.75,0.93,1.93,2.82,3.84,5.62c1.92,2.8,3.99,5.6,6.21,8.58
		c2.96,4.05,5.69,7.23,7.98,9.76s4.52,4.46,6.8,5.62c1.35,0.74,2.95,1.44,4.73,1.78c1.78,0.32,4.14,0.3,7.1,0.3h10.35
		c1.92,0,3.75,0,5.32,0c2.19-0.19,3.57-0.28,4.14-0.3c1.01,0,2.92,0.21,5.32,0.3c2.41,0.19,5.34-0.01,8.87,0
		c0.75,0.01,1.33,0.19,1.77,0c0.44-0.19,0.58-0.45,0.59-0.89c0-0.32,0.01-0.68-0.3-0.89c-0.31-0.21-0.86-0.28-1.48-0.3
		c-0.87,0.01-1.98-0.19-2.96-0.3c-0.98-0.19-1.73-0.3-2.66-0.59c-1.05-0.28-2.02-1.02-2.66-2.66c-0.64-1.65-1.05-4.6-1.18-8.58
		l-1.18-42.58h0.3c1.23,1.17,4.38,4.1,9.17,9.17c4.78,5.07,10.17,10.65,16.26,16.56c5.85,5.65,11.62,11.29,17.45,16.86
		c5.83,5.56,10.62,9.99,14.19,13.31c0.55,0.57,1.33,1.04,2.07,1.48c0.74,0.44,1.44,0.57,2.37,0.59c0.45,0.01,0.84,0,1.18-0.59
		c0.34-0.53,0.57-1.49,0.59-2.66l1.18-65.94c0.04-2.89,0.32-4.97,0.89-6.21c0.57-1.25,1.51-2,2.96-2.37
		c0.66-0.19,1.27-0.26,1.77-0.3c0.51,0,0.94,0,1.48,0c0.62-0.01,1.17,0,1.48-0.3c0.31-0.21,0.59-0.57,0.59-0.89
		c-0.01-0.42-0.45-0.76-0.89-0.89c-0.44-0.19-1.03-0.01-1.77,0c-2.68,0-4.94,0-6.8,0c-1.86,0-2.9,0.28-3.55,0.3
		c-1.24,0-3.1-0.26-5.62-0.3c-2.52,0-5.38,0.01-8.28,0c-0.81,0-1.58-0.19-2.07,0c-0.49,0.19-0.58,0.47-0.59,0.89
		c-0.01,0.32,0.04,0.68,0.3,0.89c0.25,0.21,0.82,0.28,1.48,0.3c0.78,0,1.59,0,2.66,0c1.07,0,2.11,0.3,2.96,0.59
		c1.28,0.42,2.09,1.36,2.66,2.66c0.57,1.31,0.84,3.39,0.89,6.51l1.18,46.72h-0.59c-0.65-0.62-2.26-2.52-5.03-5.32
		c-2.76-2.8-5.76-6.02-9.17-9.46c-3.41-3.44-6.58-6.33-9.17-8.87c-8.19-8.03-15.37-15.3-21.88-21.88
		c-6.52-6.59-10.24-10.51-11.24-11.53c-0.92-0.95-1.9-1.7-2.66-2.37c-0.76-0.66-1.4-0.85-2.07-0.89V582.49z M2015.25,582.49
		c-0.56,0-0.85,0.25-1.18,0.89c-0.33,0.64-0.58,1.61-0.59,2.66l-0.89,61.8c-0.02,4.46-0.17,7.61-0.59,9.46
		c-0.42,1.86-1.29,2.97-2.66,3.25c-0.76,0.19-1.78,0.51-2.66,0.59c-0.88,0-1.61,0.01-2.37,0c-0.5,0.01-0.86,0-1.18,0.3
		c-0.32,0.21-0.58,0.57-0.59,0.89c0.01,0.47,0.15,0.74,0.59,0.89c0.44,0.19,1.32,0,2.07,0c2.85,0,5.21,0,7.39,0
		c2.19-0.19,3.57-0.28,4.14-0.3c1.01,0,2.62,0.21,5.03,0.3c2.41,0.19,5.34-0.01,8.87,0c0.75,0.01,1.63,0.19,2.07,0
		c0.44-0.19,0.58-0.45,0.59-0.89c0-0.32-0.28-0.68-0.59-0.89c-0.31-0.21-0.57-0.28-1.18-0.3c-0.87,0.01-1.98-0.19-2.96-0.3
		c-0.98-0.19-2.02-0.3-2.96-0.59c-1.05-0.28-1.73-1.02-2.37-2.66c-0.64-1.65-1.05-4.6-1.18-8.58l-1.18-42.58h0.3
		c1.23,1.17,4.38,4.1,9.17,9.17c4.78,5.07,10.17,10.65,16.26,16.56c5.85,5.65,11.62,11.29,17.45,16.86
		c5.83,5.56,10.62,9.99,14.19,13.31c0.55,0.57,1.04,1.04,1.77,1.48c0.74,0.44,1.74,0.57,2.66,0.59c0.45,0.01,0.84,0,1.18-0.59
		c0.34-0.53,0.28-1.49,0.3-2.66l1.48-65.94c0.04-2.89,0.32-4.97,0.89-6.21c0.57-1.25,1.51-2,2.96-2.37c0.66-0.19,1.27-0.26,1.77-0.3
		c0.51,0,0.94,0,1.48,0c0.61-0.01,1.17,0,1.48-0.3c0.31-0.21,0.3-0.57,0.3-0.89c-0.01-0.42-0.15-0.76-0.59-0.89
		c-0.44-0.19-1.03-0.01-1.77,0c-2.68,0-4.94,0-6.8,0c-1.86,0-3.2,0.28-3.84,0.3c-1.24,0-3.1-0.26-5.62-0.3c-2.52,0-5.08,0.01-7.98,0
		c-0.81,0-1.58-0.19-2.07,0c-0.49,0.19-0.58,0.47-0.59,0.89c-0.01,0.32,0.04,0.68,0.29,0.89c0.25,0.21,0.52,0.28,1.18,0.3
		c0.78,0,1.88,0,2.96,0c1.07,0,1.82,0.3,2.66,0.59c1.28,0.42,2.39,1.36,2.96,2.66c0.57,1.31,0.84,3.39,0.89,6.51l1.18,46.72h-0.59
		c-0.66-0.62-2.26-2.52-5.03-5.32c-2.77-2.8-6.06-6.02-9.46-9.46c-3.41-3.44-6.29-6.33-8.87-8.87c-8.19-8.03-15.66-15.3-22.18-21.88
		c-6.52-6.59-10.24-10.51-11.24-11.53c-0.92-0.95-1.6-1.7-2.37-2.37c-0.76-0.66-1.69-0.85-2.37-0.89V582.49z M1217.44,582.8
		c-2.35,0.19-4.67,0.76-7.1,1.17c-4.86,0.85-9.91,2.7-15.08,5.62c-5.15,2.91-9.65,7.26-13.31,13.01
		c-3.66,5.75-5.45,12.61-5.62,20.99c0.13,9.61,2.51,17.62,7.1,23.66c4.59,6.04,10.49,10.48,18.04,13.31
		c7.54,2.83,15.86,4.17,24.84,4.14c4.36,0,9.14-0.49,13.9-1.17c4.76-0.7,8.97-1.8,12.72-3.55c0.65-0.3,1.04-0.78,1.18-1.17
		c0.13-0.42,0.02-1.32,0-2.66v-11.53c-0.02-5.17,0.19-9.22,0.3-12.42c0.04-1.82,0.24-3.27,0.89-4.14c0.64-0.87,1.79-1.27,3.25-1.48
		c0.61-0.19,1.01-0.25,1.48-0.3c0.47,0,1.06,0,1.48,0c0.38-0.01,0.63-0.38,0.89-0.59c0.26-0.21,0.29-0.28,0.3-0.59
		c0-0.42,0.08-0.76-0.3-0.89c-0.37-0.19-1.04-0.01-1.77,0c-1.87,0-4.12,0-6.51,0c-2.38,0-4.4-0.01-6.21,0c-1.74,0-4.21,0-7.39,0
		s-6.2,0.01-9.17,0c-0.74,0-1.37-0.19-1.77,0c-0.4,0.19-0.59,0.47-0.59,0.89c0.01,0.3,0.27,0.38,0.59,0.59
		c0.32,0.21,0.68,0.59,1.18,0.59c0.77,0,1.58,0,2.37,0c0.78,0,1.32,0.19,1.77,0.3c1.69,0.45,2.85,0.98,3.55,1.78
		c0.69,0.79,1.15,2.11,1.18,3.84c0.06,1.59-0.01,3.3,0,5.32c0.01,2.02,0,4.52,0,7.1v9.46c0.01,0.91,0.01,1.78-0.3,2.37
		c-0.31,0.59-0.99,0.81-1.77,1.17c-1.27,0.53-2.34,1.06-3.55,1.17c-1.21,0.19-2.75,0.02-4.14,0c-11.69-0.21-20.86-3.82-27.5-10.94
		c-6.64-7.12-9.93-16.33-10.05-27.8c0.04-6.35,0.89-11.57,2.66-15.67c1.78-4.11,4.34-7.34,7.39-9.76c3.79-2.89,7.36-4.66,10.94-5.32
		c3.59-0.66,6.77-1,9.76-0.89c6.11,0.19,11.41,0.95,15.38,2.66c3.97,1.7,6.66,3.54,8.28,5.32c1.38,1.51,2.16,2.92,2.66,4.44
		c0.5,1.51,0.8,2.94,0.89,4.14c0.06,0.44,0.43,0.66,0.59,0.89c0.17,0.25,0.23,0.59,0.59,0.59c0.44,0,0.91-0.21,1.18-0.59
		c0.27-0.38,0.29-0.98,0.3-1.78c0.04-6.4,0.08-10.98,0.3-13.31c0.22-2.32,0.56-3.71,0.59-4.14c0.02-0.36-0.09-0.4-0.3-0.59
		c-0.2-0.21-0.58-0.53-1.18-0.59c-1.35,0-2.82,0-4.44-0.3c-1.61-0.23-2.97-0.4-4.14-0.59c-1.3-0.28-3.91-0.78-7.69-1.17
		c-3.77-0.4-7.59-0.55-11.53-0.59c-2.28,0-4.74-0.19-7.1,0L1217.44,582.8z M1317.98,582.8c-10.9,0.19-19.64,2.24-26.32,6.5
		c-6.68,4.26-11.46,9.73-14.49,15.97c-3.03,6.24-4.48,12.21-4.44,18.33c-0.04,6.35,1.41,12.69,4.44,18.93
		c3.03,6.23,7.67,11.51,14.19,15.67c6.52,4.17,15.27,6.34,25.73,6.51c14.11-0.28,25.12-4.43,33.12-12.42
		c8-7.99,11.98-18.18,12.12-30.46c-0.13-12.12-4.03-21.77-11.83-28.68C1342.71,586.23,1331.77,582.93,1317.98,582.8z M1816.24,582.8
		c-7.99,0-14.6,1.02-20.11,2.96c-5.51,1.94-10.33,4.51-14.19,7.98c-5.05,4.78-8.3,9.79-10.05,15.08c-1.76,5.29-2.48,9.86-2.37,13.6
		c-0.11,5.14,0.72,10.54,2.66,15.97c1.94,5.43,5.4,10.49,10.65,15.08c4.93,4.08,10.63,6.82,16.86,8.58
		c6.22,1.76,13.01,2.7,20.4,2.66c3.61,0,7.06-0.23,10.65-0.59c3.58-0.36,6.61-0.93,8.87-1.78c0.9-0.34,1.68-0.78,2.07-1.17
		c0.39-0.42,0.67-1.17,0.89-2.07c0.58-2.06,1-4.53,1.48-7.69c0.47-3.15,0.86-5.32,0.89-6.21c-0.01-0.45-0.37-0.81-0.59-1.17
		c-0.22-0.38-0.51-0.57-0.89-0.59c-0.42,0-0.7,0.28-0.89,0.59c-0.19,0.3-0.19,0.7-0.3,1.48c-0.2,1.02-0.82,2.26-1.48,3.55
		c-0.66,1.29-1.43,2.46-2.37,3.55c-2.08,2.33-4.4,3.72-7.39,4.43c-2.99,0.7-7.1,1.25-11.83,1.17c-4.99,0.01-9.94-1.48-15.08-4.14
		s-9.48-6.7-13.01-12.12s-5.47-12.13-5.62-20.4c-0.09-5.17,0.66-10.06,2.07-14.78c1.41-4.72,4.07-8.91,7.98-12.42
		c2.41-2.07,5.32-3.5,8.58-4.43c3.26-0.93,7.14-1.49,11.83-1.48c5,0,9.18,0.64,12.72,1.78c3.54,1.12,6.42,2.62,8.28,4.44
		c1.35,1.38,2.27,2.73,2.96,4.43c0.69,1.7,1.12,3.63,1.18,5.32c-0.01,0.68,0.13,1.08,0.3,1.48c0.15,0.4,0.46,0.59,0.89,0.59
		c0.48,0,0.66-0.19,0.89-0.59c0.22-0.47,0.54-1.31,0.59-2.07c0.06-1.17-0.04-2.76,0-5.03s0.19-4.36,0.3-6.21
		c0.13-1.8,0.2-3.01,0.3-3.84c0.09-0.83,0.29-1.68,0.3-2.07c0.01-0.32-0.06-0.36-0.3-0.59c-0.24-0.23-0.87-0.53-1.48-0.59
		c-1.6-0.19-3.23-0.28-5.03-0.59c-1.8-0.32-3.59-0.87-5.62-1.17c-2.39-0.32-4.99-0.38-7.39-0.59c-2.4-0.21-5.27-0.28-8.58-0.3
		L1816.24,582.8z M1950.49,582.8c-10.9,0.19-19.64,2.24-26.32,6.5c-6.68,4.26-11.46,9.73-14.49,15.97s-4.48,12.21-4.44,18.33
		c-0.04,6.35,1.41,12.69,4.44,18.93c3.03,6.23,7.67,11.51,14.19,15.67c6.52,4.17,14.97,6.34,25.43,6.51
		c14.11-0.28,25.41-4.43,33.41-12.42c8-7.99,11.98-18.18,12.12-30.46c-0.13-12.12-4.03-21.77-11.83-28.68
		C1975.22,586.23,1964.28,582.93,1950.49,582.8z M1493.92,583.38c-0.29,0.19-0.87,0.23-1.18,0.3c-0.44,0-0.98,0.19-1.77,0.3
		c-0.8,0.19-1.67,0.51-2.66,0.59c-0.96,0-3.44,0-7.69,0c-4.25,0-8.61,0-13.01,0h-8.87c-1.64-0.01-3.88-0.26-6.8-0.3
		c-2.92,0-5.94,0.01-8.87,0c-0.8-0.01-1.36,0.19-1.77,0.3c-0.42,0.19-0.59,0.23-0.59,0.59c0.01,0.36,0.26,0.7,0.59,0.89
		c0.33,0.19,0.62,0.3,1.18,0.3c0.83,0,1.87,0,2.66,0c0.8,0,1.32,0.19,1.77,0.3c1.69,0.45,2.88,1.27,3.55,2.07
		c0.67,0.79,1.1,1.82,1.18,3.55c0.06,1.38-0.01,3.65,0,6.5c0.01,2.86,0,8.02,0,15.67v18.33c0.01,4.85,0.06,9.44,0,13.31
		c-0.06,3.86-0.36,6.9-0.59,9.17c-0.15,1.55-0.44,2.6-0.89,3.55c-0.45,0.95-0.99,1.51-2.07,1.78c-0.96,0.25-2.27,0.59-3.84,0.59
		c-0.66,0-1.23,0-1.48,0.3c-0.25,0.23-0.31,0.32-0.3,0.59c0.02,0.74,0.7,1.17,2.07,1.17c1.12,0,2.26,0,3.55,0
		c1.29,0,2.54-0.23,3.84-0.3c1.31,0,2.47,0,3.55,0s2.03,0,2.66,0c1.59,0,3.55,0,5.62,0c2.07,0,4.46,0.23,7.1,0.3
		c2.64,0.19,5.57,0,8.87,0c3.3,0,6.89,0.3,10.94,0.3c1.97,0,3.35,0,4.14-0.3c0.79-0.28,1.46-1.06,1.77-2.37
		c0.33-1.25,0.57-3.37,0.89-5.91c0.31-2.54,0.57-4.25,0.59-5.62c0.01-0.59-0.17-1.27-0.3-1.78c-0.13-0.51-0.47-0.85-0.89-0.89
		c-0.36,0-0.42,0.32-0.59,0.59c-0.17,0.26-0.48,0.62-0.59,1.17c-0.35,2.13-0.76,3.8-1.48,5.03c-0.72,1.23-1.92,2.07-3.25,2.66
		c-1.49,0.61-3.11,1.02-5.03,1.17c-1.92,0.19-3.54,0-5.03,0c-5.44,0-9.38-0.26-11.53-1.48c-2.15-1.21-3.23-3.61-3.25-7.1
		c-0.06-1.76-0.02-4.41,0-7.69c0.02-3.28-0.01-5.97,0-7.98v-8.28c-0.01-0.3,0.21-0.38,0.3-0.59c0.08-0.21,0.06-0.59,0.3-0.59
		c1.03,0,2.9,0.21,5.32,0.3c2.42,0,4.76,0,7.1,0c2.34,0,3.95,0.21,4.73,0.3c1.99,0.19,3.26,0.76,4.14,1.48
		c0.88,0.72,1.51,1.61,1.77,2.66c0.11,0.68,0.26,1.42,0.3,2.07c0.04,0.64-0.06,1.21,0,1.78c-0.01,0.25,0.15,0.44,0.3,0.59
		c0.15,0.19,0.52,0.28,0.89,0.3c0.48,0,0.75-0.36,0.89-0.89c0.13-0.53,0.02-1,0-1.48c0.01-0.47,0.2-1.44,0.3-2.96
		c0.09-1.51,0.17-2.98,0.3-4.14c0.3-2.59,0.45-4.5,0.59-5.62c0.13-1.12,0.3-1.82,0.3-2.07c-0.01-0.3-0.13-0.38-0.3-0.59
		c-0.15-0.21-0.34-0.28-0.59-0.3c-0.23,0-0.34,0-0.59,0.3c-0.25,0.26-0.76,0.51-1.18,0.89c-0.48,0.55-0.94,0.97-1.77,1.17
		c-0.84,0.21-1.97,0.49-3.25,0.59c-0.96,0-2.94,0-5.62,0c-2.68,0-5.31,0-7.98,0c-2.68,0.01-4.36-0.01-5.32,0
		c-0.3-0.01-0.49,0-0.59-0.3c-0.09-0.21-0.3-0.28-0.3-0.59v-26.02c0-0.64,0.4-0.87,0.89-0.89c0.87,0,2.58,0,5.03,0
		s4.69,0.23,7.1,0.3c2.4,0,3.98,0.21,4.73,0.3c2.61,0.25,4.42,0.81,5.32,1.48c0.9,0.68,1.44,1.44,1.77,2.37
		c0.3,0.64,0.49,1.32,0.59,2.07c0.09,0.74,0.3,1.36,0.3,1.78c-0.01,0.44-0.11,0.64,0,0.89c0.11,0.25,0.53,0.3,0.89,0.3
		c0.42,0,0.71-0.19,0.89-0.59c0.17-0.42,0.24-0.89,0.3-1.17c0.13-0.76,0.19-1.98,0.3-3.55c0.11-1.57,0.23-2.56,0.3-3.25
		c0.15-2.34,0.39-4.09,0.59-5.03c0.21-0.95,0.28-1.48,0.3-1.78c0.01-0.26-0.19-0.4-0.3-0.59c-0.09-0.19-0.29-0.28-0.59-0.3
		c-0.25,0-0.3-0.19-0.59,0L1493.92,583.38z M1372.09,583.97c-0.8-0.01-1.65,0.19-2.07,0.3c-0.42,0.19-0.59,0.53-0.59,0.89
		c0.01,0.36,0.26,0.7,0.59,0.89c0.33,0.19,0.62,0.3,1.18,0.3c0.83,0,1.87,0,2.66,0c0.79,0,1.32,0.19,1.77,0.3
		c1.69,0.45,2.88,0.98,3.55,1.78c0.67,0.79,1.1,2.11,1.18,3.85c0.06,1.38-0.01,3.35,0,6.21c0.01,2.86,0,8.31,0,15.97v18.33
		c0.01,4.85,0.06,9.44,0,13.31s-0.06,6.9-0.3,9.17c-0.15,1.55-0.44,2.6-0.89,3.55c-0.45,0.95-1.29,1.51-2.37,1.78
		c-0.96,0.25-2.27,0.59-3.84,0.59c-0.66,0-1.23,0-1.48,0.3c-0.25,0.23-0.31,0.32-0.3,0.59c0.02,0.74,0.7,1.17,2.07,1.17
		c1.12,0,2.26,0,3.55,0c1.29,0,2.54-0.23,3.84-0.3c1.31,0,2.77,0,3.84,0s1.73,0,2.37,0c0.91,0,2.17,0,3.84,0
		c1.68,0,3.43,0.23,5.32,0.3c1.9,0.19,3.73,0,5.32,0c1.59,0,2.88,0.3,3.55,0.3c9.92-0.25,17.22-2.56,21.88-7.1
		c4.66-4.54,6.85-9.83,6.8-15.67c-0.28-6.15-2.65-11.02-6.8-14.79c-4.15-3.76-8.31-6.57-13.01-7.98c3.2-1.98,5.88-4.31,8.28-7.39
		c2.4-3.09,3.72-6.87,3.84-10.94c0.26-3.07-1.1-6.24-4.14-9.76c-3.04-3.52-9.41-5.61-18.93-5.91c-1.95,0-4.36,0.26-7.39,0.3
		c-3.03,0-6.06-0.01-8.87,0c-1.17,0-3.1,0-5.91,0c-2.82,0-5.62-0.28-8.58-0.3L1372.09,583.97z M1856.16,584.27
		c-0.43,0.19-0.59,0.59-0.59,0.89c0,0.49,0.3,0.72,0.59,0.89c0.3,0.19,0.63,0.3,1.18,0.3c1.37,0,2.59,0,3.84,0.3
		c1.16,0.32,2.07,0.97,2.66,1.78c0.59,0.79,1.07,2.1,1.18,3.85c0.06,1.38-0.01,3.65,0,6.5c0.01,2.86,0,8.02,0,15.67v18.33
		c0.01,5.09,0.04,9.66,0,13.6c-0.06,3.94-0.06,6.97-0.3,9.17c-0.15,1.53-0.73,2.75-1.18,3.55c-0.45,0.81-0.99,1.25-2.07,1.48
		c-0.96,0.25-2.27,0.59-3.84,0.59c-0.66,0-1.23,0-1.48,0.3c-0.25,0.23-0.31,0.32-0.3,0.59c0.02,0.74,0.7,1.17,2.07,1.17
		c2.32,0,4.83,0,7.69,0c2.86-0.19,5.11-0.28,6.51-0.3c1.57,0,3.89,0.21,7.1,0.3c3.2,0.19,6.68-0.01,10.35,0
		c0.63,0,1.1-0.19,1.48-0.3c0.38-0.19,0.58-0.51,0.59-0.89c0.01-0.26-0.02-0.36-0.3-0.59c-0.27-0.23-0.87-0.28-1.48-0.3
		c-0.84,0-1.62-0.21-2.66-0.3c-1.04,0-2.18-0.19-2.96-0.3c-1.56-0.25-2.37-0.66-2.96-1.48c-0.59-0.81-1.04-1.84-1.18-3.25
		c-0.24-2.26-0.54-5.51-0.59-9.46c-0.04-3.95-0.01-8.51,0-13.6v-18.33c-0.01-7.66-0.02-12.81,0-15.67c0.02-2.86,0.17-5.12,0.3-6.5
		c0.09-1.82,0.6-2.98,1.18-3.85c0.58-0.87,1.51-1.55,2.96-1.78c0.6-0.19,0.98-0.25,1.48-0.3c0.5,0,1.23,0,1.77,0
		c0.56,0,0.89-0.19,1.18-0.3c0.29-0.19,0.29-0.4,0.3-0.89c-0.01-0.3-0.2-0.74-0.59-0.89c-0.39-0.19-0.79,0-1.48,0
		c-2.24,0-4.63,0-7.39,0s-5,0.28-6.51,0.3c-1.7,0-3.91-0.26-6.8-0.3c-2.9,0-5.5,0.01-7.69,0c-0.86,0-1.64-0.19-2.07,0
		L1856.16,584.27z M1314.73,588.12c8.95,0.19,16.6,3.48,22.47,10.06c5.87,6.57,8.95,15.82,9.17,27.5
		c-0.17,9.78-1.73,17.08-4.73,21.88c-3,4.8-6.5,7.97-10.35,9.46c-3.85,1.49-7.05,2.21-9.76,2.07c-10.3-0.26-18.53-4.04-24.25-11.24
		c-5.71-7.19-8.49-16.48-8.58-27.5c0.34-12.64,3.19-21.17,8.58-25.73C1302.66,590.07,1308.36,587.85,1314.73,588.12z
		 M1947.24,588.12c8.95,0.19,16.6,3.48,22.47,10.06c5.87,6.57,8.66,15.82,8.87,27.5c-0.17,9.78-1.73,17.08-4.73,21.88
		c-3,4.8-6.21,7.97-10.05,9.46c-3.85,1.49-7.35,2.21-10.05,2.07c-10.3-0.26-18.24-4.04-23.95-11.24c-5.72-7.19-8.49-16.48-8.58-27.5
		c0.34-12.64,3.19-21.17,8.58-25.73C1935.17,590.07,1940.87,587.85,1947.24,588.12z M1397.52,589.01h2.66
		c4.65,0.21,8.16,2.04,10.35,5.32c2.19,3.28,3.27,6.63,3.25,10.35c-0.04,2.53-0.57,4.93-1.48,6.8c-0.9,1.87-2.11,3.32-3.55,4.44
		c-0.94,0.72-2.09,1.21-3.55,1.48c-1.46,0.26-3.23,0.32-5.03,0.3c-1.22,0-2.13,0-2.96,0c-0.83,0-1.58-0.19-2.07-0.3
		c-0.19,0-0.44-0.19-0.59-0.3c-0.15-0.19,0.01-0.47,0-0.89v-25.13c-0.01-0.55-0.15-1.21,0-1.48c0.15-0.26,0.52-0.25,0.89-0.3
		c0.59-0.19,1.19-0.26,2.07-0.3L1397.52,589.01z M1540.05,589.59c1.15,0,2.17,0,3.55,0c3.49-0.19,7.04,1.19,10.65,3.85
		c3.61,2.65,5.63,7.55,5.91,14.78c-0.09,4.27-0.94,7.59-2.37,10.06c-1.42,2.47-2.99,4.19-4.73,5.32c-0.86,0.66-1.59,1.23-2.66,1.48
		c-1.07,0.25-2.65,0.32-4.73,0.3c-1.38,0-2.98-0.19-4.44-0.3c-1.46-0.19-2.65-0.23-3.84-0.59c-0.36-0.19-0.74-0.34-0.89-0.59
		c-0.15-0.26-0.3-0.95-0.3-1.48v-31.05c-0.01-0.44,0.15-0.66,0.3-0.89c0.15-0.23,0.52-0.47,0.89-0.59
		C1537.97,589.71,1538.9,589.65,1540.05,589.59L1540.05,589.59z M1725.16,602.9c0.11,0,0.22,0.38,0.3,0.59
		c0.08,0.23,0.24,0.38,0.3,0.59l10.05,26.61c0.15,0.38,0.17,0.57-0.3,0.59h-20.99c-0.19,0-0.51-0.21-0.59-0.3
		c-0.09-0.19,0.19-0.36,0.3-0.59l10.35-26.32c0.06-0.19,0.21-0.38,0.3-0.59C1724.94,603.27,1724.98,602.91,1725.16,602.9
		L1725.16,602.9z M1395.16,622.42h4.73c2.08,0,3.8,0.4,5.32,0.89s2.75,0.97,3.84,1.78c3.98,2.9,6.82,6.28,8.28,9.76
		c1.46,3.48,2.15,6.34,2.07,8.87c-0.19,5.67-1.64,9.69-4.44,11.83c-2.79,2.14-5.79,3.07-8.87,2.96c-1.22,0-2.58-0.19-3.84-0.3
		c-1.27-0.19-2.44-0.34-3.84-0.89c-1.67-0.59-2.79-1.78-3.25-3.25c-0.47-1.48-0.65-3.74-0.59-7.1V623.3c0-0.3-0.11-0.49,0-0.59
		C1394.68,622.52,1394.97,622.41,1395.16,622.42L1395.16,622.42z"/>
	<path id="path3594_00000072257318861520590870000005507394897566624412_" class="st0" d="M403.34,0.09
		c-31.99,0.45-57.53,8.58-76.29,24.25c-18.76,15.67-28.26,36.07-28.68,61.51c-0.32,18.14,4.55,36.05,14.79,53.23
		c10.24,17.17,27.68,35.13,52.34,54.41l21,16.56c18.35,14.55,30.46,27.55,36.37,39.03c5.91,11.49,8.49,22.79,7.98,33.71
		c0.02,12.69-4.99,24.3-15.08,34.89c-10.09,10.59-25.41,16.2-45.83,16.86c-14.4,0.19-27.24-3.27-39.03-10.35
		c-11.79-7.08-20.41-19.16-25.73-35.78c-1.16-3.97-2.19-7.92-2.96-12.12c-0.77-4.2-1.15-7.88-1.18-10.94
		c0.08-1.91-0.33-3.75-0.89-5.32c-0.56-1.57-1.57-2.27-3.55-2.37c-1.79,0.08-3.32,1.09-4.14,3.25c-0.82,2.17-1.28,5.1-1.48,8.58
		c-0.29,4.1-0.61,11.76-1.18,23.06s-1.12,23.42-1.18,36.37c-0.09,4.82,0.62,8.32,1.77,10.35c1.15,2.03,3.56,3.62,7.1,5.03
		c9.66,4.27,19.72,7.34,30.46,9.17c10.74,1.83,22.71,2.71,35.78,2.66c12.12,0.13,24.38-1.14,36.67-3.84
		c12.29-2.71,24.04-7.65,35.48-14.79c16.09-10.99,27.39-23.45,33.71-37.55c6.32-14.11,9.43-27.92,9.17-41.4
		c0.33-21.12-5.43-40.61-16.86-58.55c-11.42-17.94-30.51-37.15-57.66-57.37l-12.72-9.46c-18.5-13.94-31.47-25.69-38.44-35.48
		c-6.97-9.79-10.11-19.79-9.76-29.87c0.15-13.87,5.03-25.18,14.49-33.71c9.46-8.53,22.67-12.76,39.62-13.01
		c14.55,0.39,25.49,2.81,33.12,7.69c7.63,4.87,13.07,9.79,16.26,14.49c4.66,6.16,7.81,12.28,9.46,18.04
		c1.66,5.76,2.47,9.53,2.37,11.83c-0.08,5.45,1.33,8.28,4.44,8.28c1.8,0.06,3.07-0.86,3.84-2.96c0.78-2.1,1.2-5.71,1.18-10.65
		c0.08-17.4,0.36-30.29,0.89-38.44c0.53-8.15,0.81-13.33,0.89-15.97c-0.01-1.56-0.39-2.72-1.48-3.55s-2.68-1.64-4.73-2.07
		c-5.84-1.71-13.79-3.37-23.66-5.03C430.14,1.1,418.04,0.22,403.34,0.09L403.34,0.09z M1024.02,0.09
		c-14.53,0.45-29.42,2.27-44.65,5.03c-20.31,3.67-41.2,11.79-62.98,24.54c-21.38,12.58-40,31.47-55.3,56.48
		c-15.3,25.01-23.24,55.54-23.95,91.96c0.53,41.66,10.61,75.76,29.87,102.02c19.25,26.25,44.67,45.34,76.29,57.66
		c31.62,12.32,66.17,18.46,103.79,18.33c18.21,0.11,37.03-1.37,56.78-4.44c19.75-3.07,37.37-8.36,52.64-15.97
		c2.63-1.31,4.33-2.86,5.03-4.73c0.7-1.87,0.98-5.68,0.89-11.53v-49.97c-0.08-22.71,0.21-40.78,0.59-54.41
		c0.15-7.89,1.49-13.89,4.14-18.04c2.65-4.14,6.95-6.91,13.01-7.98c2.67-0.45,4.93-0.66,6.8-0.89c1.87-0.23,3.56-0.59,5.32-0.59
		c1.64,0.02,3.01-0.04,4.14-0.59c1.13-0.55,1.73-1.61,1.77-2.96c-0.01-1.78-0.53-2.91-2.07-3.55c-1.54-0.64-3.84-0.93-6.8-0.89
		c-7.89,0.06-16.86,0.2-26.91,0.59c-10.05,0.4-18.88,0.54-26.32,0.59c-7.23-0.06-17.05-0.19-29.27-0.59
		c-12.23-0.4-24.44-0.53-36.67-0.59c-3.18-0.04-5.51,0.24-7.1,0.89c-1.59,0.64-2.37,1.77-2.37,3.55c0.02,1.34,0.55,2.41,1.77,2.96
		c1.22,0.55,2.95,0.61,5.03,0.59c3.29,0,6.47,0.37,9.76,0.59c3.29,0.23,6.05,0.43,7.98,0.89c7.34,1.51,12.28,4.22,15.08,8.28
		c2.8,4.06,4.36,10.11,4.44,17.74c0.22,6.77,0.25,14.54,0.3,23.36c0.04,8.82,0.3,18.85,0.3,30.16v42.58
		c0.08,3.88-0.54,7.2-1.77,10.05c-1.24,2.86-3.76,5.19-7.1,6.8c-5.64,2.39-11.92,3.92-18.93,4.44c-7,0.52-13.42,0.7-19.52,0.59
		c-48.51-1.01-86.9-17.29-115.03-48.79c-28.13-31.5-42.58-72.29-43.17-122.13c0.15-27.74,4.11-50.33,11.53-68.31
		c7.42-17.98,17.59-32.39,30.46-42.88c16.1-12.7,31.73-20.68,47.31-23.95c15.58-3.27,29.89-4.61,42.58-4.14
		c25.82,0.57,47.4,4.52,64.76,12.12c17.36,7.61,29.4,15.53,36.37,23.36c5.72,6.48,9.79,12.86,11.83,19.52
		c2.03,6.65,3.05,12.69,3.55,18.04c0.19,1.84,0.83,3.39,1.48,4.44c0.64,1.04,1.7,1.46,3.25,1.48c1.8,0.06,3.07-0.65,3.84-2.07
		c0.78-1.42,1.2-3.82,1.18-7.39c0.13-27.63,0.55-46.63,1.48-56.78c0.93-10.14,1.35-16,1.48-17.74c0.08-1.59-0.06-2.94-0.89-3.84
		c-0.83-0.91-2.67-1.25-5.32-1.48c-5.47-0.29-11.62-1.04-18.33-2.07c-6.72-1.03-12.43-1.98-17.45-2.96
		c-5.37-1.1-16.07-2.66-31.94-4.44c-15.87-1.78-32-2.77-48.5-2.96C1033.74,0,1028.86-0.06,1024.02,0.09L1024.02,0.09z M1434.76,0.09
		c-45.21,0.76-81.83,10.47-109.41,28.98c-27.58,18.51-47.59,41.17-60.03,68.31s-18.54,54.08-18.33,80.73
		c-0.15,27.51,6.15,54.82,18.63,81.91c12.48,27.09,32.18,49.86,59.14,68.01c26.96,18.15,61.97,27.38,105.27,28.09
		c58.31-1.26,104.29-19.3,137.5-54.11c33.21-34.81,49.94-78.62,50.57-131.88c-0.58-52.58-17.07-94.15-49.38-124.2
		C1536.4,15.89,1491.88,0.67,1434.76,0.09z M762.92,2.76c-1.15,0.06-2.28,0.44-3.55,0.89c-1.27,0.44-2.39,0.61-3.55,0.89
		c-1.86,0.45-4.59,1.02-7.98,1.48c-3.4,0.45-7.17,1.02-11.53,1.48c-3.85,0.15-13.98,0.23-30.16,0.3c-16.18,0.08-32.55-0.01-49.38,0
		c-16.84,0.02-28.19,0-34.01,0c-3.24-0.01-7.48-0.11-12.42-0.3c-4.94-0.19-10.3-0.35-16.26-0.59c-5.73-0.02-11.74-0.17-18.04-0.3
		c-6.3-0.13-12.44,0.02-18.63,0c-3.4-0.02-6.05,0.29-7.69,0.89c-1.64,0.6-2.38,1.4-2.37,2.96c0.01,1.56,0.46,2.66,1.77,3.25
		c1.32,0.6,3.41,0.92,5.91,0.89c3.29,0,6.47,0.08,9.76,0.3c3.29,0.23,6.05,0.73,7.98,1.18c7.31,1.51,12.37,4.22,15.08,8.28
		c2.72,4.06,4.16,9.81,4.44,17.45c0.44,6.06,0.79,15.38,0.89,27.8c0.09,12.41,0.02,35.3,0,68.6v79.84
		c0.04,21.12-0.06,40.27-0.3,57.07c-0.24,16.81-0.98,30.15-2.07,39.92c-0.78,6.69-2.05,12.08-3.84,16.56
		c-1.8,4.48-4.76,7.27-9.17,8.28c-2.04,0.47-4.67,0.82-7.39,1.18c-2.73,0.36-5.76,0.57-9.17,0.59c-2.69,0.01-4.52,0.25-5.62,0.89
		c-1.1,0.63-1.52,1.52-1.48,2.66c0.08,3.1,3.19,4.81,9.17,4.73c4.63-0.04,9.6-0.33,15.08-0.59c5.48-0.26,10.96-0.26,16.26-0.3
		c5.54-0.22,10.51-0.54,15.08-0.59c4.57-0.04,8.06-0.01,10.65,0c6.71,0,13.73,0.08,21.29,0.3c7.56,0.23,16.36,0.73,26.02,1.18
		c9.69,0.26,20.84,0.58,33.71,0.89c12.87,0.31,27.99,0.27,44.95,0.3c8.37,0.25,14.12-0.25,17.45-1.48c3.32-1.23,5.47-4.69,6.8-10.35
		c1.24-5.42,2.55-13.5,3.84-24.54c1.3-11.04,1.97-19.62,2.07-25.73c0.08-2.33,0.08-4.38-0.3-5.91c-0.38-1.53-1.51-2.31-3.25-2.37
		c-1.54-0.02-2.56,0.73-3.25,1.77c-0.69,1.05-1.37,2.56-1.77,5.03c-1.5,9.21-3.65,16.59-6.8,21.88c-3.15,5.29-7.78,9.21-13.6,11.83
		c-6.21,2.61-13.27,4.16-21.29,4.73c-8.02,0.57-15.08,0.71-21.29,0.59c-22.48,0.37-37.32-1.84-44.36-7.1
		c-7.04-5.25-10.58-15.75-10.35-31.05c-0.2-7.73-0.09-19.13,0-34.3c0.08-15.17-0.04-27.21,0-36.08v-35.78
		c-0.04-1.38,0.22-2.44,0.59-3.25c0.37-0.81,1.26-1.16,2.37-1.18c6.92,0,17.97,0.08,33.12,0.3c15.15,0.23,25.56,0.43,31.34,0.89
		c8.27,0.97,14.2,3.09,18.04,6.21c3.84,3.12,6.39,6.93,7.39,11.53c0.64,2.98,0.99,6.06,1.18,8.87c0.19,2.81,0.4,5.09,0.59,7.39
		c-0.04,1.16,0.29,2.19,0.89,2.96c0.6,0.77,1.69,1.15,3.25,1.18c1.96-0.13,3.12-1.12,3.55-2.96c0.43-1.84,0.68-3.67,0.59-5.62
		c0.04-2.09,0.15-6.44,0.59-13.01c0.44-6.58,0.91-12.4,1.18-17.45c0.95-11.35,1.65-19.43,2.37-24.25s1.14-7.74,1.18-8.87
		c-0.02-1.34-0.3-2.11-0.89-2.66s-1.44-0.91-2.37-0.89c-1.1,0.02-2.16,0.44-3.25,1.48c-1.1,1.04-2.29,2.6-3.84,4.44
		c-2.02,2.21-5.03,3.77-8.58,4.73c-3.55,0.97-7.88,1.67-13.31,2.07c-4,0.3-11.12,0.46-21.29,0.59c-10.17,0.13-20.33,0.27-30.46,0.3
		c-10.12,0.04-17.15,0-20.99,0c-1.32-0.01-2.25-0.62-2.66-1.48c-0.42-0.86-0.63-1.95-0.59-3.55V34.99c-0.08-3.1,1.06-4.51,3.25-4.44
		c3.51,0.01,10.04,0.11,19.22,0.3c9.18,0.17,18.17,0.32,27.2,0.59c9.03,0.28,14.98,0.58,18.04,0.89c11,1.36,18.75,3.48,22.77,6.21
		c4.02,2.72,6.45,5.97,7.69,10.05c1.11,2.87,2,6.02,2.37,9.17c0.37,3.15,0.32,5.66,0.3,7.39c-0.02,2.05,0.29,3.64,0.89,4.73
		c0.6,1.09,1.69,1.47,3.25,1.48c1.55-0.06,2.61-0.45,3.25-1.48c0.64-1.03,1.29-2.35,1.48-3.55c0.46-3.35,0.78-8.21,1.18-15.08
		c0.41-6.87,0.65-11.89,0.89-14.79c0.75-10.17,1.56-17.19,2.37-21.29s1.41-6.96,1.48-8.28c0.02-1.16-0.22-2.19-0.59-2.96
		C764.91,3.17,764.02,2.78,762.92,2.76L762.92,2.76z M1665.7,6.6c-1.26,0.15-2.14,0.59-2.96,0.89c-1.64,0.6-2.38,1.4-2.37,2.96
		c0.01,1.56,0.46,2.66,1.77,3.25c1.32,0.6,3.41,0.92,5.91,0.89c3.29,0,6.47,0.08,9.76,0.3c3.29,0.23,6.05,0.73,7.98,1.18
		c7.31,1.51,12.07,4.22,14.79,8.28c2.72,4.06,4.46,9.81,4.73,17.45c0.44,6.06,0.5,15.38,0.59,27.8c0.09,12.41,0.31,35.3,0.3,68.6
		v79.84c0.04,21.12-0.06,40.27-0.3,57.07c-0.24,16.81-0.98,30.15-2.07,39.92c-0.78,6.69-2.05,12.08-3.84,16.56
		c-1.8,4.48-5.05,7.27-9.46,8.28c-2.04,0.47-4.37,0.82-7.1,1.18c-2.73,0.36-5.76,0.57-9.17,0.59c-2.69,0.01-4.52,0.25-5.62,0.89
		c-1.1,0.63-1.52,1.52-1.48,2.66c0.08,3.1,2.89,4.81,8.87,4.73c4.63-0.04,9.9-0.33,15.38-0.59c5.48-0.26,10.66-0.26,15.97-0.3
		c5.54-0.22,10.81-0.54,15.38-0.59c4.57-0.04,8.06-0.01,10.65,0c3.55,0,8.39,0.08,14.49,0.3c6.1,0.23,12.56,0.73,19.52,1.18
		c6.75,0.26,13.14,0.58,18.93,0.89c5.78,0.31,10.12,0.27,13.01,0.3c41.62-1.09,72.26-11.28,91.96-31.05
		c19.7-19.77,29.44-42.33,29.27-67.72c-1.12-26.54-10.37-48.2-27.5-64.46c-17.13-16.27-35.56-27.38-55.3-33.71
		c12.86-9.73,23.7-20.96,32.53-33.41c8.83-12.45,13.53-27.77,13.9-46.13c1.11-13.37-4.94-27.81-17.74-43.17
		c-12.8-15.36-38.96-23.51-78.95-24.84c-7.67,0.06-16.04,0.2-25.13,0.59c-9.09,0.4-19.38,0.54-30.46,0.59
		c-5.04-0.06-13.34-0.19-25.13-0.59c-11.8-0.4-24.13-0.53-36.67-0.59C1668.44,6.59,1666.96,6.45,1665.7,6.6L1665.7,6.6z
		 M1411.4,21.98c3.36-0.19,6.62-0.15,10.05,0c38.13,0.51,69.78,15.34,94.63,44.36c24.85,29.01,37.55,68.97,38.44,120.35
		c-0.71,43.13-7.32,75.29-20.11,96.4c-12.79,21.11-27.44,35.16-43.76,41.69c-16.32,6.53-30.09,9.49-41.4,8.87
		c-43.96-1.15-78.29-17.68-102.61-49.38c-24.32-31.7-36.6-71.66-36.96-120.06c1.39-55.4,13.58-93.29,36.37-113.55
		C1365.99,32.93,1387.84,23.32,1411.4,21.98z M1771.56,25.23c2.33-0.09,5.16-0.02,8.28,0c19.45,1.03,33.64,8.83,42.88,23.66
		c9.23,14.83,13.97,30.47,13.9,46.72c-0.04,11.15-1.81,20.6-5.03,28.68c-3.22,8.08-7.66,14.43-13.6,19.22
		c-3.8,3.34-8.62,5.86-13.9,7.1c-5.28,1.24-11.49,1.84-18.93,1.77c-5.2,0-9.51-0.08-13.01-0.3c-3.5-0.23-6.25-0.73-8.28-1.18
		c-0.93-0.19-1.78-0.49-2.37-1.18c-0.59-0.69-0.87-2.07-0.89-3.84V33.8c-0.02-2.45,0.29-4.18,0.89-5.32
		c0.6-1.14,1.69-1.96,3.25-2.37C1766.98,25.68,1769.23,25.32,1771.56,25.23L1771.56,25.23z M1762.1,171.01
		c0.34-0.11,0.73-0.02,1.18,0c3.28-0.01,6.58-0.04,9.46,0c2.89,0.06,6.09,0.08,10.05,0.3c8.72,0.43,16,1.52,21.88,3.25
		c5.89,1.73,11.33,4.31,15.97,7.69c16.94,12.54,28.52,27.2,34.89,43.76c6.38,16.57,9.49,32.14,9.17,46.72
		c-1.01,23.09-7.62,38.62-19.81,46.72c-12.2,8.1-23.96,11.77-35.19,11.24c-5.19,0.09-10.56-0.23-15.97-0.89
		c-5.41-0.65-11.06-2.02-17.15-4.44c-7.02-2.53-11.69-6.73-13.6-12.72c-1.91-5.99-2.61-16.49-2.37-31.05V173.97
		C1760.62,172.32,1761.08,171.38,1762.1,171.01L1762.1,171.01z"/>
	<path id="path13269_00000128478837272407924280000013703409006977309878_" class="st0" d="M1012.49,451.17
		C446.8,451.74,0,457.9,0,465.36c0,7.46,446.8,13.62,1012.49,14.19V451.17z"/>
	<path id="path13790_00000114049431246518036170000000622805528016277951_" class="st0" d="M1182.82,451.17v28.39
		c565.69-0.57,1012.49-6.73,1012.49-14.19C2195.31,457.9,1748.51,451.74,1182.82,451.17z"/>
</g>
</svg>
