<?xml version="1.0" encoding="utf-8"?>
<!-- Generator: Adobe Illustrator 25.4.1, SVG Export Plug-In . SVG Version: 6.00 Build 0)  -->
<svg version="1.1" id="Capa_1" xmlns="http://www.w3.org/2000/svg" xmlns:xlink="http://www.w3.org/1999/xlink" x="0px" y="0px"
	 viewBox="0 0 1080 1080" style="enable-background:new 0 0 1080 1080;" xml:space="preserve">
<style type="text/css">
	.st0{fill:#FFFFFF;stroke:#FFFFFF;stroke-miterlimit:10;}
	.st1{fill:#FFFFFF;}
	.st2{fill:#263B4E;stroke:#263B4E;stroke-miterlimit:10;}
</style>
<symbol  id="Nuevo_símbolo_5" viewBox="-27.83 -27.29 55.67 54.58">
	<g>
		<path class="st0" d="M17.39,20.65c6.03-4.86,9.9-12.28,9.95-20.61C27.42-14.45,15.78-26.45,1.3-26.78
			c-13.34-0.31-24.52,9.19-26.85,21.79c0,0,3.75,10.83,9.77,5.39c0,0,5.94-5.64,11.25-3.12c0,0,3.8,1.84-0.94,10.64
			C-5.8,8.56-5.99,9.27-5.97,9.99c0.02,0.59,0.06,1.03,0.63,1.79c0,0,2.18,2.55,7.16-0.76c0,0,3.63-2.12,5.53,0
			c0,0,2.55,2.78-0.05,7.55c0,0-1.91,3.27-0.02,5.01c0,0,2.72,2.75,8.7-2.04L17.39,20.65z"/>
		<g>
			<g>
				<path class="st1" d="M12.46,24.02c0.12-0.07,1.2-0.64,2.19-1.15c-0.4,0.41-0.75,0.85-1.04,1.29c-0.18,0.12-0.32,0.2-0.32,0.2
					c-0.14,0.08-0.29,0.16-0.43,0.24c-4.06,2.24-6.45,3.45-8.39,2.19c-2.01-1.3-1.39-3.23-0.22-6.26c0.21-0.54,0.93-2.86,0.95-2.82
					c0.34-1.46,0.31-2.82-0.82-3.6c-0.02-0.01-0.03-0.02-0.05-0.03c-0.97-0.63-6.37,0.47-6.5,0.49c-2.63,0.5-4.19,1.75-6.41,0.31
					c-1.66-1.07-0.32-5.1-0.28-5.1c0.08-0.19,2.73-6.55,0.58-7.94c-1.88-1.22-8.36,1.95-8.71,2.03c-0.18,0.1-1.02,0.56-1.16,0.64
					c-4.06,2.24-6.45,3.45-8.39,2.19c-2.01-1.3-1.39-3.23-0.22-6.26c0.16-0.42,0.99-2.76,1-2.98c0-0.04,0-0.07,0-0.11
					c0.03-0.17,0.07-0.34,0.09-0.5c0.14-0.66,0.2-1.36,0.18-2.09c0.74,1.04,0.64,2.33,0.16,3.93c0,0,0.01,0,0.01,0
					c-0.01,0.02-0.27,0.83-0.28,0.87c0,0.02-0.14,0.35-0.19,0.5c-0.03,0.07-0.05,0.15-0.08,0.23c0-0.01,0-0.01,0-0.02
					c-0.07,0.19-0.14,0.38-0.22,0.57c-0.81,2.09-1.81,4.69-0.28,5.68c1.34,0.87,4.32-0.65,6.92-2.08l0.91-0.5
					c0.18-0.1,7.93-3.91,10.44-2.28c2.86,1.86-0.14,8.43-0.29,8.95c-0.06,0.22-1.01,3.44-0.02,4.08c1.49,0.97,5.05-0.57,5.54-0.62
					c0.14-0.05,5.37-1.48,7.37-0.18c0.03,0.02,0.06,0.04,0.1,0.06c1.67,1.16,1.7,2.71,1.07,4.8c0.02,0-0.16,0.49-0.21,0.65
					c0,0.2-0.48,1.31-0.55,1.5c-0.08,0.19-1.49,4.9-0.28,5.68C5.97,27.47,12.29,24.06,12.46,24.02z"/>
			</g>
			<g>
				<path class="st1" d="M9.4,25.98c-0.14,0.11-0.29,0.25-0.44,0.41c-0.75,0-1.46-0.22-2.22-0.74c-1.94-1.36-1.94-2.8-1.77-5.05
					c0.03-0.4,0.02-2.15,0.04-2.11c-0.1-1.11-0.47-2.21-1.57-3.01c-0.02-0.01-0.03-0.02-0.04-0.03c-0.94-0.66-4.98-0.62-5.07-0.62
					c-1.97-0.01-2.9,0.75-5.05-0.75c-1.6-1.12-1.55-4.13-1.52-4.12C-8.22,9.82-7.72,5.15-9.8,3.7c-1.82-1.27-6.19,0.25-6.45,0.26
					c-0.12,0.05-0.67,0.29-0.77,0.33c-2.68,1.16-4.28,1.75-6.16,0.44c-1.94-1.36-1.94-2.8-1.77-5.05c0.02-0.31,0.09-2.05,0.05-2.23
					c-0.01-0.03-0.02-0.06-0.03-0.09c-0.02-0.13-0.03-0.26-0.06-0.39c-0.05-0.5-0.19-1.06-0.39-1.65c0.85,0.94,1.11,1.96,1.13,3.17
					c0,0,0.01,0,0.01,0c0,0.02,0,0.62,0,0.65c0,0.01-0.02,0.26-0.03,0.37c0,0.05-0.01,0.11-0.01,0.17c0-0.01,0-0.01-0.01-0.02
					c-0.01,0.14-0.02,0.28-0.03,0.42c-0.11,1.55-0.26,3.47,1.22,4.51c1.29,0.9,3.29,0.15,5.01-0.58l0.6-0.26
					c0.12-0.05,5.35-1.89,7.77-0.19c2.77,1.93,2.03,6.73,2.05,7.12c0.01,0.16,0.07,2.6,1.02,3.26c1.44,1.01,3.89,0.33,4.28,0.37
					c0.1-0.02,3.92-0.34,5.85,1.01c0.03,0.02,0.06,0.04,0.09,0.07c1.63,1.19,2.05,2.44,2.08,4.01c0.01,0,0,0.37,0,0.49
					c0.06,0.16-0.05,0.97-0.06,1.12c-0.01,0.14,0.06,3.69,1.22,4.51c0.68,0.48,2.17,0.22,3.44-0.13C9.96,25.58,9.66,25.78,9.4,25.98
					z"/>
			</g>
			<path class="st1" d="M13.6,24.15c0,0,4.55-3.79,6.33-5.84l-4.11,2.44c0,0-2.99,3.24-5.43,4.27"/>
			<path class="st1" d="M-26.75,0.43c0,0,0.44-3.71,1.91-8.73l0.97,3.05l-1.51,2.46l-1.16,3.22"/>
		</g>
	</g>
	<g>
		<g>
			<path class="st2" d="M10.45,8H6.63H-3.83h-3.82c-1.17,0-2.12-0.95-2.12-2.12v-24.4c0-1.17,0.95-2.12,2.12-2.12h18.11
				c1.17,0,2.12,0.95,2.12,2.12v24.4C12.58,7.05,11.63,8,10.45,8z M-3.25,7.27h9.3V6c0-1.13-0.91-2.04-2.04-2.04H-1.2
				c-1.13,0-2.04,0.91-2.04,2.04V7.27z M12.01-18.24c0-0.92-0.75-1.67-1.67-1.67H-7.53c-0.92,0-1.67,0.75-1.67,1.67V5.6
				c0,0.92,0.75,1.67,1.67,1.67h3.7V5.6c0-1.19,0.96-2.15,2.15-2.15h6.15c1.19,0,2.15,0.96,2.15,2.15v1.67h3.7
				c0.92,0,1.67-0.75,1.67-1.67V-18.24z"/>
			
				<rect x="1.12" y="-1.69" transform="matrix(-1.836970e-16 1 -1 -1.836970e-16 1.2869 -1.5143)" class="st2" width="0.57" height="3.16"/>
			
				<rect x="7.21" y="-2.88" transform="matrix(-1.836970e-16 1 -1 -1.836970e-16 7.3813 -7.6087)" class="st2" width="0.57" height="5.53"/>
			
				<rect x="-4.98" y="-2.88" transform="matrix(-1.836970e-16 1 -1 -1.836970e-16 -4.8074 4.58)" class="st2" width="0.57" height="5.53"/>
			
				<rect x="-6.16" y="-6.87" transform="matrix(-1.836970e-16 1 -1 -1.836970e-16 -11.164 0.5933)" class="st2" width="0.57" height="3.16"/>
			
				<rect x="8.4" y="-6.87" transform="matrix(-1.836970e-16 1 -1 -1.836970e-16 3.3946 -13.9652)" class="st2" width="0.57" height="3.16"/>
			
				<rect x="1.12" y="-8.05" transform="matrix(-1.836970e-16 1 -1 -1.836970e-16 -3.8847 -6.6859)" class="st2" width="0.57" height="5.53"/>
			
				<rect x="1.12" y="-12.06" transform="matrix(-1.836970e-16 1 -1 -1.836970e-16 -9.0828 -11.8841)" class="st2" width="0.57" height="3.16"/>
			
				<rect x="7.21" y="-13.25" transform="matrix(-1.836970e-16 1 -1 -1.836970e-16 -2.9884 -17.9784)" class="st2" width="0.57" height="5.53"/>
			
				<rect x="-4.98" y="-13.25" transform="matrix(-1.836970e-16 1 -1 -1.836970e-16 -15.1771 -5.7897)" class="st2" width="0.57" height="5.53"/>
			
				<rect x="-6.16" y="-17.23" transform="matrix(-1.836970e-16 1 -1 -1.836970e-16 -21.5337 -9.7764)" class="st2" width="0.57" height="3.16"/>
			
				<rect x="8.4" y="-17.23" transform="matrix(-1.836970e-16 1 -1 -1.836970e-16 -6.9751 -24.335)" class="st2" width="0.57" height="3.16"/>
			
				<rect x="1.12" y="-18.42" transform="matrix(-1.836970e-16 1 -1 -1.836970e-16 -14.2544 -17.0557)" class="st2" width="0.57" height="5.53"/>
		</g>
		<path class="st0" d="M-5.63,8l0.38-0.73h-2.21c0,0-1.42,0.02-1.73-1.42v-9.03l-0.59,0.14v8.92c0,0-0.07,2.2,2.12,2.12H-5.63z"/>
		<rect x="-7.46" y="-0.28" class="st0" width="4.21" height="0.45"/>
	</g>
</symbol>
<use xlink:href="#Nuevo_símbolo_5"  width="55.67" height="54.58" x="-27.83" y="-27.29" transform="matrix(16.0744 0 0 -16.0744 540 540)" style="overflow:visible;"/>
</svg>
