<?xml version="1.0" encoding="utf-8"?>
<!-- Generator: Adobe Illustrator 25.4.1, SVG Export Plug-In . SVG Version: 6.00 Build 0)  -->
<svg version="1.1" id="Capa_1" xmlns="http://www.w3.org/2000/svg" xmlns:xlink="http://www.w3.org/1999/xlink" x="0px" y="0px"
	 viewBox="0 0 1080 1080" style="enable-background:new 0 0 1080 1080;" xml:space="preserve">
<style type="text/css">
	.st0{fill:#FFFFFF;stroke:#FFFFFF;stroke-miterlimit:10;}
	.st1{fill:#FFFFFF;}
	.st2{fill:#263B4E;stroke:#263B4E;stroke-miterlimit:10;}
</style>
<symbol  id="Nuevo_símbolo_1" viewBox="-27.83 -27.29 55.67 54.58">
	<g>
		<path class="st0" d="M17.39,20.65c6.03-4.86,9.9-12.28,9.95-20.61C27.42-14.45,15.78-26.45,1.3-26.78
			c-13.34-0.31-24.52,9.19-26.85,21.79c0,0,3.75,10.83,9.77,5.39c0,0,5.94-5.64,11.25-3.12c0,0,3.8,1.84-0.94,10.64
			C-5.8,8.56-5.99,9.27-5.97,9.99c0.02,0.59,0.06,1.03,0.63,1.79c0,0,2.18,2.55,7.16-0.76c0,0,3.63-2.12,5.53,0
			c0,0,2.55,2.78-0.05,7.55c0,0-1.91,3.27-0.02,5.01c0,0,2.72,2.75,8.7-2.04L17.39,20.65z"/>
		<g>
			<g>
				<path class="st1" d="M12.46,24.02c0.12-0.07,1.2-0.64,2.19-1.15c-0.4,0.41-0.75,0.85-1.04,1.29c-0.18,0.12-0.32,0.2-0.32,0.2
					c-0.14,0.08-0.29,0.16-0.43,0.24c-4.06,2.24-6.45,3.45-8.39,2.19c-2.01-1.3-1.39-3.23-0.22-6.26c0.21-0.54,0.93-2.86,0.95-2.82
					c0.34-1.46,0.31-2.82-0.82-3.6c-0.02-0.01-0.03-0.02-0.05-0.03c-0.97-0.63-6.37,0.47-6.5,0.49c-2.63,0.5-4.19,1.75-6.41,0.31
					c-1.66-1.07-0.32-5.1-0.28-5.1c0.08-0.19,2.73-6.55,0.58-7.94c-1.88-1.22-8.36,1.95-8.71,2.03c-0.18,0.1-1.02,0.56-1.16,0.64
					c-4.06,2.24-6.45,3.45-8.39,2.19c-2.01-1.3-1.39-3.23-0.22-6.26c0.16-0.42,0.99-2.76,1-2.98c0-0.04,0-0.07,0-0.11
					c0.03-0.17,0.07-0.34,0.09-0.5c0.14-0.66,0.2-1.36,0.18-2.09c0.74,1.04,0.64,2.33,0.16,3.93c0,0,0.01,0,0.01,0
					c-0.01,0.02-0.27,0.83-0.28,0.87c0,0.02-0.14,0.35-0.19,0.5c-0.03,0.07-0.05,0.15-0.08,0.23c0-0.01,0-0.01,0-0.02
					c-0.07,0.19-0.14,0.38-0.22,0.57c-0.81,2.09-1.81,4.69-0.28,5.68c1.34,0.87,4.32-0.65,6.92-2.08l0.91-0.5
					c0.18-0.1,7.93-3.91,10.44-2.28c2.86,1.86-0.14,8.43-0.29,8.95c-0.06,0.22-1.01,3.44-0.02,4.08c1.49,0.97,5.05-0.57,5.54-0.62
					c0.14-0.05,5.37-1.48,7.37-0.18c0.03,0.02,0.06,0.04,0.1,0.06c1.67,1.16,1.7,2.71,1.07,4.8c0.02,0-0.16,0.49-0.21,0.65
					c0,0.2-0.48,1.31-0.55,1.5c-0.08,0.19-1.49,4.9-0.28,5.68C5.97,27.47,12.29,24.06,12.46,24.02z"/>
			</g>
			<g>
				<path class="st1" d="M9.4,25.98c-0.14,0.11-0.29,0.25-0.44,0.41c-0.75,0-1.46-0.22-2.22-0.74c-1.94-1.36-1.94-2.8-1.77-5.05
					c0.03-0.4,0.02-2.15,0.04-2.11c-0.1-1.11-0.47-2.21-1.57-3.01c-0.02-0.01-0.03-0.02-0.04-0.03c-0.94-0.66-4.98-0.62-5.07-0.62
					c-1.97-0.01-2.9,0.75-5.05-0.75c-1.6-1.12-1.55-4.13-1.52-4.12C-8.22,9.82-7.72,5.15-9.8,3.7c-1.82-1.27-6.19,0.25-6.45,0.26
					c-0.12,0.05-0.67,0.29-0.77,0.33c-2.68,1.16-4.28,1.75-6.16,0.44c-1.94-1.36-1.94-2.8-1.77-5.05c0.02-0.31,0.09-2.05,0.05-2.23
					c-0.01-0.03-0.02-0.06-0.03-0.09c-0.02-0.13-0.03-0.26-0.06-0.39c-0.05-0.5-0.19-1.06-0.39-1.65c0.85,0.94,1.11,1.96,1.13,3.17
					c0,0,0.01,0,0.01,0c0,0.02,0,0.62,0,0.65c0,0.01-0.02,0.26-0.03,0.37c0,0.05-0.01,0.11-0.01,0.17c0-0.01,0-0.01-0.01-0.02
					c-0.01,0.14-0.02,0.28-0.03,0.42c-0.11,1.55-0.26,3.47,1.22,4.51c1.29,0.9,3.29,0.15,5.01-0.58l0.6-0.26
					c0.12-0.05,5.35-1.89,7.77-0.19c2.77,1.93,2.03,6.73,2.05,7.12c0.01,0.16,0.07,2.6,1.02,3.26c1.44,1.01,3.89,0.33,4.28,0.37
					c0.1-0.02,3.92-0.34,5.85,1.01c0.03,0.02,0.06,0.04,0.09,0.07c1.63,1.19,2.05,2.44,2.08,4.01c0.01,0,0,0.37,0,0.49
					c0.06,0.16-0.05,0.97-0.06,1.12c-0.01,0.14,0.06,3.69,1.22,4.51c0.68,0.48,2.17,0.22,3.44-0.13C9.96,25.58,9.66,25.78,9.4,25.98
					z"/>
			</g>
			<path class="st1" d="M13.6,24.15c0,0,4.55-3.79,6.33-5.84l-4.11,2.44c0,0-2.99,3.24-5.43,4.27"/>
			<path class="st1" d="M-26.75,0.43c0,0,0.44-3.71,1.91-8.73l0.97,3.05l-1.51,2.46l-1.16,3.22"/>
		</g>
	</g>
	<g>
		<g>
			<path class="st2" d="M-4.05,8.44c0,0.19,0,0.36,0,0.54c0,0.35,0.24,0.59,0.6,0.59c0.69,0,1.39,0,2.08,0
				c0.06,0,0.13,0.01,0.22,0.01c-0.16,1.11,0.14,2.06,1,2.77c0.65,0.54,1.43,0.74,2.27,0.6c1.56-0.26,2.62-1.72,2.33-3.38
				c0.08,0,0.15,0,0.22,0c0.67,0,1.35,0,2.02,0c0.45,0,0.67-0.21,0.67-0.67c0-0.15,0-0.3,0-0.47c0.56,0,1.09,0,1.62,0
				c1.12,0,2.23,0,3.35,0c0.15,0,0.32-0.03,0.45-0.1c0.18-0.09,0.27-0.26,0.27-0.47c0-1.12,0-2.24,0-3.35c0-1.39,0-2.78,0-4.17
				c0-1.39,0-2.78,0-4.17c0-1.39,0-2.78,0-4.17s0-2.78,0-4.17s0-2.78,0-4.17c0-0.68,0-1.36,0-2.04c0-0.35-0.22-0.58-0.58-0.58
				c-1.01-0.01-2.02,0-3.04,0c-1.39,0-2.78,0-4.17,0s-2.78,0-4.17,0c-1.39,0-2.78,0-4.17,0c-1.39,0-2.78,0-4.17,0
				c-0.61,0-1.22,0-1.83,0c-0.5,0-0.71,0.21-0.71,0.71c0,3.38,0,6.76,0,10.14c0,3.17,0,6.35,0,9.52c0,2.1,0,4.21,0,6.31
				c0,0.52,0.22,0.73,0.74,0.72c1.62,0,3.24,0,4.86,0C-4.13,8.44-4.1,8.44-4.05,8.44z M9.95-15.53c0,6.85,0,13.68,0,20.51
				c-0.76,0-1.82,0-2.58,0c0-0.15,0-0.29,0-0.43c0-0.48-0.21-0.69-0.69-0.69c-1.32,0-2.65-0.01-3.97-0.01c-1.16,0-2.32,0-3.48,0
				c-0.88,0-1.76,0-2.64,0c-0.41,0-0.64,0.23-0.64,0.64c0,0.16,0,0.33,0,0.49c-0.77,0-1.92,0-2.66,0c0-6.85,0-13.68,0-20.51
				C-1.39-15.53,4.63-15.53,9.95-15.53z M-9.2-18.25c6.85,0,14.95,0,21.78,0c0,8.37,0,17.51,0,25.87c-1.52,0-3.73,0-5.23,0
				c0-0.38,0.03-1.09,0.03-1.48c0.07,0,0.12,0,0.17,0c0.85,0,1.71,0,2.56,0c0.48,0,0.68-0.21,0.68-0.69c0-1.05,0-2.1,0-3.15
				c0-3.69,0-7.38,0-11.07c0-2.41,0-4.81,0-7.22c0-0.47-0.21-0.69-0.67-0.69c-1.68,0-3.36,0-5.04,0c-2.37,0-4.75,0-7.12,0
				c-1.59,0-3.17,0-4.76,0c-0.45,0-0.67,0.22-0.67,0.67c0,0.18,0,0.36,0,0.54c0,1.57,0,3.15,0,4.72c0,1.37,0,2.74,0,4.11
				c0,1.38,0,2.75,0,4.13c0,1.38,0,2.76,0,4.15c0,1.3,0,2.61,0,3.91c0,0.38,0.23,0.61,0.6,0.61c0.48,0,0.97,0,1.45,0
				c0.45,0,0.91,0,1.36,0c0,0.39-0.02,1.1-0.02,1.48c-1.52,0-3.6,0-5.12,0C-9.2-0.74-9.2-9.88-9.2-18.25z M6.21,8.43
				c-0.08,0-0.15,0-0.22,0c-0.77,0-1.55,0-2.32,0c-0.49,0-0.75,0.44-0.52,0.87c0.2,0.37,0.26,0.75,0.19,1.17
				c-0.14,0.8-0.92,1.42-1.76,1.38c-0.82-0.03-1.55-0.72-1.62-1.52C-0.08,9.95,0.01,9.6,0.17,9.26c0.2-0.42-0.12-0.86-0.55-0.83
				c-0.33,0.02-0.66,0-0.99,0c-0.51,0-1.01,0-1.52,0c0-1.15,0-2.28,0-3.41c3.04,0,6.07,0,9.1,0C6.21,6.16,6.21,7.28,6.21,8.43z"/>
			<path class="st2" d="M4.5-1.84c-1.13,0-2.26,0-3.39,0c-0.37,0-0.6,0.21-0.6,0.56c0,0.35,0.23,0.58,0.61,0.58c1.33,0,2.66,0,4,0
				c0.91,0,1.82,0,2.73,0c0.5,0,0.78-0.39,0.6-0.81c-0.1-0.23-0.28-0.34-0.53-0.33C6.77-1.84,5.63-1.84,4.5-1.84
				C4.5-1.84,4.5-1.84,4.5-1.84z"/>
			<path class="st2" d="M4.49-7.55c-1.12,0-2.25,0-3.37,0c-0.36,0-0.6,0.22-0.61,0.56C0.5-6.64,0.73-6.41,1.1-6.41
				c1.59,0,3.19,0,4.78,0c0.67,0,1.35,0,2.02,0c0.43,0,0.68-0.38,0.54-0.78C8.37-7.43,8.18-7.55,7.86-7.55c-0.96,0-1.92,0-2.88,0
				C4.82-7.55,4.65-7.55,4.49-7.55C4.49-7.55,4.49-7.55,4.49-7.55z"/>
			<path class="st2" d="M4.5-12.12c1.14,0,2.27,0,3.41,0c0.44,0,0.7-0.39,0.54-0.79c-0.1-0.27-0.33-0.35-0.59-0.35
				c-0.51,0-1.03,0-1.54,0c-1.69,0-3.38,0-5.06,0c-0.09,0-0.17,0-0.26,0.01c-0.32,0.04-0.5,0.28-0.48,0.61
				c0.01,0.3,0.22,0.52,0.54,0.52C2.2-12.11,3.35-12.12,4.5-12.12z"/>
			<path class="st2" d="M-3.46-11.92c0.26,0.28,0.49,0.54,0.74,0.79c0.38,0.38,0.76,0.76,1.14,1.13c0.25,0.24,0.59,0.23,0.81,0
				c0.23-0.24,0.23-0.57-0.01-0.81c-0.76-0.76-1.52-1.51-2.28-2.26c-0.25-0.24-0.56-0.25-0.81-0.01c-0.39,0.37-0.78,0.76-1.15,1.14
				c-0.24,0.25-0.24,0.57,0,0.81c0.23,0.23,0.54,0.23,0.8,0.01c0.13-0.12,0.26-0.25,0.38-0.38C-3.73-11.62-3.61-11.75-3.46-11.92z"
				/>
			<path class="st2" d="M-3.44-6.23c0.64,0.67,1.25,1.31,1.87,1.94c0.19,0.2,0.51,0.22,0.72,0.06C-0.61-4.4-0.53-4.7-0.66-4.95
				C-0.71-5.03-0.77-5.1-0.84-5.16c-0.72-0.72-1.45-1.45-2.18-2.17c-0.3-0.3-0.62-0.3-0.92,0c-0.35,0.35-0.7,0.7-1.05,1.05
				c-0.27,0.27-0.29,0.6-0.06,0.84c0.25,0.26,0.58,0.25,0.87-0.03C-3.94-5.7-3.72-5.94-3.44-6.23z"/>
			<path class="st2" d="M-3.47-0.52c0.64,0.65,1.24,1.27,1.85,1.88c0.11,0.11,0.27,0.18,0.43,0.21c0.25,0.04,0.43-0.09,0.54-0.32
				c0.11-0.23,0.07-0.45-0.11-0.64C-1.1,0.27-1.44-0.06-1.77-0.4c-0.4-0.4-0.81-0.8-1.21-1.2c-0.34-0.33-0.64-0.33-0.98,0
				C-4.31-1.25-4.65-0.91-5-0.56c-0.28,0.28-0.28,0.59-0.01,0.85c0.24,0.24,0.55,0.23,0.82-0.05C-3.96,0.01-3.74-0.24-3.47-0.52z"/>
			<path class="st2" d="M2.79,1.58c0.56,0,1.12,0,1.68,0c0.38,0,0.62-0.22,0.62-0.56c0-0.35-0.24-0.58-0.61-0.58
				c-1.15-0.01-2.29-0.01-3.44,0c-0.33,0-0.56,0.26-0.56,0.59C0.5,1.34,0.73,1.58,1.07,1.58C1.64,1.58,2.21,1.58,2.79,1.58
				C2.79,1.58,2.79,1.58,2.79,1.58z"/>
			<path class="st2" d="M2.78-10.97c-0.56,0-1.12,0-1.68,0c-0.35,0-0.59,0.21-0.6,0.55c-0.01,0.34,0.22,0.6,0.57,0.6
				c1.15,0.01,2.29,0.01,3.44,0c0.37,0,0.61-0.25,0.6-0.6c-0.01-0.34-0.24-0.55-0.62-0.55C3.91-10.97,3.34-10.97,2.78-10.97z"/>
			<path class="st2" d="M2.78-5.27c-0.57,0-1.13,0-1.7,0c-0.34,0-0.6,0.25-0.6,0.58c0,0.33,0.26,0.58,0.6,0.58c1.09,0,2.18,0,3.26,0
				c0.09,0,0.17,0,0.26-0.01C4.9-4.17,5.1-4.4,5.1-4.7c0-0.31-0.21-0.55-0.53-0.56C3.98-5.27,3.38-5.26,2.78-5.27
				C2.78-5.27,2.78-5.27,2.78-5.27z"/>
		</g>
		<path class="st0" d="M-6.71-3.33h-0.84l0.08,8.86c0,0-0.15,0.62,1.03,0.61l1.71,0l0.5-1.12l-2.47-0.04V-3.33z"/>
		<path class="st2" d="M-3.28-0.32l-0.19-0.19l-0.85,0.87c0,0-0.38,0.27-0.69-0.06c0,0-0.45-0.39,0.01-0.85l1.23-1.19
			C-3.77-1.76-3.38-1.21-3.28-0.32z"/>
		<path class="st0" d="M-9.76-2.91L-9.2-3.1v5.46v5.26h3.79l-0.43,0.82l-3.2,0c0,0-0.74,0.15-0.74-0.72l0-5.16L-9.76-2.91z"/>
		<path class="st0" d="M-0.22,12.29l1.16-0.6c0,0,1.25,0.69,2.21-0.73l0.18-0.5l1.16-0.23c0,0,0.04,1.53-1.46,2.4
			C3.04,12.64,1.25,13.68-0.22,12.29z"/>
	</g>
</symbol>
<use xlink:href="#Nuevo_símbolo_1"  width="55.67" height="54.58" x="-27.83" y="-27.29" transform="matrix(16.0744 0 0 -16.0744 540 540)" style="overflow:visible;"/>
</svg>
