<?xml version="1.0" encoding="utf-8"?>
<!-- Generator: Adobe Illustrator 27.1.0, SVG Export Plug-In . SVG Version: 6.00 Build 0)  -->
<svg version="1.1" xmlns="http://www.w3.org/2000/svg" xmlns:xlink="http://www.w3.org/1999/xlink" x="0px" y="0px"
	 viewBox="0 0 1080 1080" style="enable-background:new 0 0 1080 1080;" xml:space="preserve">
<style type="text/css">
	.st0{fill:url(#SVGID_1_);}
	.st1{fill:url(#SVGID_00000051353051808837845240000017881039212504207802_);}
	.st2{fill:url(#SVGID_00000020400192226875459660000003478866044934577583_);}
	.st3{fill:url(#SVGID_00000147932946336634658420000004815947056050241711_);}
</style>
<g id="Capa_2">
	<linearGradient id="SVGID_1_" gradientUnits="userSpaceOnUse" x1="123.4681" y1="540.9149" x2="953.2417" y2="540.9149">
		<stop  offset="0" style="stop-color:#913F94"/>
		<stop  offset="1" style="stop-color:#6DC729"/>
	</linearGradient>
	<polygon class="st0" points="123.47,197 411.47,545.13 123.47,897.09 368.57,915.47 540,696.4 707.13,915.47 953.24,915.47 
		662.92,540 953.24,178.62 696.4,166.36 538.35,379.3 360.91,166.36 	"/>
</g>
<g id="Capa_1">
	<g>
		<g>
			
				<linearGradient id="SVGID_00000121961675774451510820000003964961817101775774_" gradientUnits="userSpaceOnUse" x1="533.7501" y1="915.5106" x2="533.7501" y2="263.2983" gradientTransform="matrix(-1 0 0 -1 1067.5316 1090.2689)">
				<stop  offset="0" style="stop-color:#6DC729"/>
				<stop  offset="1" style="stop-color:#913F94"/>
			</linearGradient>
			<path style="fill:url(#SVGID_00000121961675774451510820000003964961817101775774_);" d="M107.54,150.57h258.37
				c9.22,0,17.95,4.14,23.78,11.28L983.8,889.57c7.5,9.18-11.92,50.11-23.78,50.11H701.65c-9.22,0-17.95-4.14-23.78-11.28
				L83.76,200.69C76.27,191.5,95.69,150.57,107.54,150.57z M351.34,211.97H172.23l543.98,666.32h179.11L351.34,211.97z"/>
		</g>
		
			<linearGradient id="SVGID_00000021841104254464540760000013648025965404395680_" gradientUnits="userSpaceOnUse" x1="370.0674" y1="548.5192" x2="112.2282" y2="944.077" gradientTransform="matrix(-1 0 0 -1 1067.5316 1090.2689)">
			<stop  offset="0" style="stop-color:#6DC729"/>
			<stop  offset="1" style="stop-color:#913F94"/>
		</linearGradient>
		<path style="fill:url(#SVGID_00000021841104254464540760000013648025965404395680_);" d="M662.92,496.52L895.3,211.95l57.94-61.39
			H960c11.82,0,31.23,40.9,23.79,50.11L702.6,545.1L662.92,496.52z"/>
		
			<linearGradient id="SVGID_00000020363360002602580330000011550078891118683535_" gradientUnits="userSpaceOnUse" x1="820.4436" y1="153.8548" x2="316.1778" y2="927.4619" gradientTransform="matrix(-1 0 0 -1 1067.5316 1090.2689)">
			<stop  offset="0" style="stop-color:#6DC729"/>
			<stop  offset="1" style="stop-color:#913F94"/>
		</linearGradient>
		<path style="fill:url(#SVGID_00000020363360002602580330000011550078891118683535_);" d="M389.48,831.58l-38.14,46.74H172.22
			L404.6,593.67l39.6-48.5l89.56-109.74l39.68-48.5l142.82-174.97H895.3l57.94-61.39H701.68c-9.21,0-17.96,4.14-23.79,11.28
			L533.76,338.35l-39.6,48.58L404.6,496.59l-39.68,48.5L83.74,889.6c-7.52,9.21,11.9,50.11,23.79,50.11h258.4
			c9.21,0,17.96-4.14,23.79-11.28l47.35-58.02l90.47-126.16l-29.23-35.8l-7.87-9.64L389.48,831.58z"/>
	</g>
</g>
</svg>
