<?xml version="1.0" encoding="utf-8"?>
<!-- Generator: Adobe Illustrator 27.1.0, SVG Export Plug-In . SVG Version: 6.00 Build 0)  -->
<svg version="1.1" id="Capa_1" xmlns="http://www.w3.org/2000/svg" xmlns:xlink="http://www.w3.org/1999/xlink" x="0px" y="0px"
	 viewBox="0 0 800 800" style="enable-background:new 0 0 800 800;" xml:space="preserve">
<style type="text/css">
	.st0{fill:#FFFFFF;}
</style>
<path class="st0" d="M695.33,793.66L6.34,104.67c-8.58-8.58-8.58-22.5,0-31.09L73.68,6.24c8.58-8.58,22.5-8.58,31.09,0
	l688.99,688.99c8.58,8.58,8.58,22.5,0,31.09l-67.34,67.34C717.84,802.24,703.92,802.24,695.33,793.66z"/>
<path class="st0" d="M6.34,695.23L695.33,6.24c8.58-8.58,22.5-8.58,31.09,0l67.34,67.34c8.58,8.58,8.58,22.5,0,31.09L104.77,793.66
	c-8.58,8.58-22.5,8.58-31.09,0L6.34,726.32C-2.24,717.74-2.24,703.82,6.34,695.23z"/>
</svg>
