<?xml version="1.0" encoding="utf-8"?>
<!-- Generator: Adobe Illustrator 27.1.0, SVG Export Plug-In . SVG Version: 6.00 Build 0)  -->
<svg version="1.1" id="Capa_1" xmlns="http://www.w3.org/2000/svg" xmlns:xlink="http://www.w3.org/1999/xlink" x="0px" y="0px"
	 viewBox="0 0 1080 1056.4" style="enable-background:new 0 0 1080 1056.4;" xml:space="preserve">

<style type="text/css">
	.st0{fill:#71b531;}
	.st1{fill:none;stroke:#FFFFFF;stroke-width:4;stroke-miterlimit:10;}
	.st2{fill:none;stroke:#71b531;stroke-width:4.5;stroke-miterlimit:10;}
</style>
<symbol  id="Nuevo_símbolo" viewBox="-101.21 -98.71 201.92 197.92">
	<g>
		<path class="st0" d="M64.31,74.9c22.06-17.77,36.22-44.95,36.4-75.44c0.31-53-42.3-96.92-95.28-98.14
			c-48.83-1.12-89.76,33.64-98.26,79.76c0,0,13.74,39.62,35.76,19.73c0,0,21.73-20.66,41.19-11.4c0,0,13.89,6.73-3.44,38.94
			c-1.25,2.32-1.94,4.92-1.85,7.56c0.07,2.15,0.2,3.77,2.3,6.54c0,0,7.99,9.34,26.19-2.77c0,0,13.27-7.74,20.25,0
			c0,0,9.34,10.19-0.17,27.65c0,0-6.98,11.96-0.09,18.33c0,0,9.96,10.05,31.83-7.46L64.31,74.9z"/>
		<g>
			<g>
				<path class="st0" d="M46.26,87.25c0.43-0.24,4.39-2.35,8-4.21c-1.46,1.5-2.73,3.11-3.81,4.71c-0.67,0.43-1.15,0.73-1.16,0.72
					c-0.52,0.29-1.04,0.58-1.56,0.86c-14.85,8.21-23.6,12.64-30.72,8.03c-7.36-4.77-5.1-11.82-0.81-22.92
					c0.76-1.97,3.41-10.48,3.47-10.32c1.26-5.34,1.14-10.32-2.99-13.17c-0.06-0.04-0.11-0.08-0.17-0.11
					c-3.56-2.31-23.32,1.71-23.78,1.8c-9.61,1.84-15.32,6.41-23.44,1.14c-6.07-3.93-1.16-18.65-1.01-18.65
					c0.3-0.69,10-23.96,2.14-29.05c-6.89-4.47-30.59,7.14-31.88,7.42c-0.65,0.35-3.73,2.05-4.25,2.33
					c-14.85,8.21-23.6,12.64-30.72,8.03c-7.36-4.77-5.1-11.82-0.81-22.92c0.59-1.54,3.61-10.1,3.67-10.89c0.01-0.13,0.01-0.26,0-0.4
					c0.13-0.62,0.24-1.24,0.32-1.85c0.53-2.41,0.72-4.99,0.64-7.66c2.7,3.79,2.36,8.51,0.6,14.38c0.01,0,0.02,0,0.04,0
					c-0.05,0.09-0.98,3.02-1.02,3.19c-0.02,0.07-0.5,1.27-0.7,1.82c-0.09,0.27-0.2,0.55-0.3,0.85c0-0.03,0-0.05,0-0.08
					c-0.26,0.69-0.52,1.38-0.8,2.09c-2.96,7.65-6.64,17.17-1.03,20.8c4.89,3.17,15.81-2.39,25.32-7.61l3.32-1.83
					c0.67-0.37,29.01-14.3,38.2-8.34c10.48,6.79-0.52,30.86-1.06,32.77c-0.22,0.79-3.68,12.6-0.07,14.93
					c5.45,3.53,18.47-2.09,20.29-2.25c0.5-0.2,19.66-5.41,26.98-0.66c0.12,0.08,0.23,0.15,0.35,0.23c6.12,4.23,6.22,9.93,3.93,17.58
					c0.06,0.01-0.57,1.81-0.76,2.38c0.01,0.75-1.75,4.79-2.02,5.5c-0.27,0.71-5.44,17.95-1.03,20.8
					C22.51,99.86,45.66,87.39,46.26,87.25z"/>
			</g>
			<g>
				<path class="st0" d="M35.06,94.44c-0.52,0.41-1.07,0.93-1.6,1.52c-2.76,0-5.36-0.79-8.12-2.72c-7.1-4.97-7.09-10.26-6.48-18.47
					c0.11-1.46,0.06-7.85,0.15-7.72c-0.35-4.08-1.72-8.08-5.74-11.01c-0.06-0.04-0.11-0.08-0.16-0.12
					c-3.44-2.41-18.23-2.28-18.57-2.28c-7.22-0.03-10.63,2.73-18.47-2.75c-5.86-4.1-5.68-15.11-5.55-15.08
					c0.06-0.5,1.91-17.61-5.69-22.92c-6.66-4.65-22.67,0.93-23.63,0.95c-0.43,0.18-2.47,1.06-2.81,1.2
					c-9.8,4.25-15.67,6.42-22.54,1.62c-7.11-4.97-7.09-10.26-6.48-18.47c0.08-1.14,0.32-7.52,0.17-8.14
					c-0.02-0.1-0.06-0.21-0.1-0.32c-0.06-0.48-0.12-0.96-0.21-1.43c-0.19-1.85-0.7-3.88-1.44-6.03c3.12,3.46,4.06,7.18,4.14,11.6
					c0.01,0,0.02,0.01,0.03,0.01c-0.02,0.06-0.01,2.27-0.01,2.39c0,0.05-0.08,0.94-0.1,1.35c-0.01,0.2-0.02,0.41-0.02,0.63
					c-0.01-0.02-0.02-0.04-0.02-0.06c-0.03,0.51-0.07,1.02-0.11,1.55c-0.42,5.66-0.94,12.71,4.47,16.49
					c4.72,3.3,12.04,0.56,18.33-2.13l2.19-0.95c0.44-0.19,19.58-6.9,28.46-0.7c10.12,7.08,7.44,24.62,7.5,26.06
					c0.02,0.6,0.26,9.51,3.74,11.94c5.26,3.68,14.25,1.22,15.67,1.37c0.35-0.08,14.36-1.25,21.43,3.69
					c0.11,0.08,0.23,0.16,0.34,0.24c5.97,4.34,7.51,8.92,7.62,14.69c0.05,0.01,0,1.36-0.01,1.78c0.2,0.6-0.18,3.56-0.22,4.08
					c-0.04,0.53,0.22,13.52,4.47,16.49c2.49,1.74,7.94,0.79,12.6-0.49C37.12,92.97,36.02,93.68,35.06,94.44z"/>
			</g>
			<path class="st0" d="M50.45,87.74c0,0,16.66-13.85,23.17-21.38L58.57,75.3c0,0-10.93,11.85-19.87,15.61"/>
			<path class="st0" d="M-97.23,0.92c0,0,1.61-13.57,6.98-31.97l3.56,11.18l-5.54,9.01l-4.24,11.78"/>
		</g>
	</g>
	<g>
		<rect x="-43.61" y="-51.24" class="st1" width="106.67" height="69.46"/>
		<rect x="-37.97" y="-46.44" class="st1" width="95.38" height="59.85"/>
		<g>
			<path class="st1" d="M35.6-66.93h-55.87c-0.85,0-1.53,0.69-1.53,1.53c0,0.85,0.69,1.53,1.53,1.53H35.6
				c0.85,0,1.53-0.69,1.53-1.53C37.13-66.24,36.45-66.93,35.6-66.93z"/>
		</g>
		<polygon class="st1" points="27.76,-65.4 -12.42,-65.4 -7.83,-51.24 23.17,-51.24 		"/>
	</g>
	<polyline class="st2" points="-13.45,13.41 -37.97,13.41 -37.97,-9.86 	"/>
	<polyline class="st2" points="-14.97,18.21 -43.61,18.21 -43.61,-7.75 	"/>
</symbol>
<use xlink:href="#Nuevo_símbolo"  width="201.92" height="197.92" id="XMLID_00000160160298437252281230000009904450391969230516_" x="-101.21" y="-98.71" transform="matrix(5.3375 0 0 -5.3375 540.1228 529.5365)" style="overflow:visible;"/>
</svg>
