<?xml version="1.0" encoding="utf-8"?>
<!-- Generator: Adobe Illustrator 27.1.0, SVG Export Plug-In . SVG Version: 6.00 Build 0)  -->
<svg version="1.1" id="Capa_1" xmlns="http://www.w3.org/2000/svg" xmlns:xlink="http://www.w3.org/1999/xlink" x="0px" y="0px"
	 viewBox="0 0 1080 1056.4" style="enable-background:new 0 0 1080 1056.4;" xml:space="preserve">
<style type="text/css">
	.st0{fill:#71B531;stroke:#71B531;stroke-miterlimit:10;}
	.st1{fill:#71B531;}
	.st2{fill:#FAFCFC;}
</style>
<g>
	<g>
		<path class="st0" d="M521.51,548.25c22.07,17.78,36.24,44.97,36.42,75.48c0.31,53.02-42.32,96.96-95.32,98.18
			c-48.85,1.12-89.8-33.65-98.3-79.79c0,0,13.75-39.64,35.77-19.74c0,0,21.74,20.67,41.2,11.41c0,0,13.9-6.73-3.44-38.96
			c-1.25-2.32-1.94-4.93-1.85-7.56c0.07-2.15,0.2-3.77,2.3-6.54c0,0,7.99-9.34,26.2,2.77c0,0,13.27,7.75,20.26,0
			c0,0,9.34-10.19-0.17-27.66c0,0-6.99-11.96-0.09-18.34c0,0,9.97-10.05,31.84,7.46L521.51,548.25z"/>
		<g>
			<g>
				<path class="st1" d="M503.46,535.9c0.43,0.24,4.39,2.35,8.01,4.22c-1.46-1.5-2.74-3.11-3.81-4.71
					c-0.67-0.43-1.15-0.73-1.16-0.72c-0.52-0.29-1.04-0.58-1.56-0.86c-14.86-8.22-23.61-12.64-30.73-8.03
					c-7.36,4.77-5.11,11.82-0.81,22.93c0.76,1.97,3.41,10.48,3.47,10.32c1.26,5.34,1.14,10.32-2.99,13.17
					c-0.06,0.04-0.11,0.08-0.17,0.11c-3.56,2.31-23.33-1.71-23.79-1.8c-9.62-1.84-15.33-6.41-23.45-1.14
					c-6.07,3.93-1.16,18.66-1.01,18.66c0.3,0.69,10.01,23.97,2.14,29.07c-6.9,4.47-30.6-7.14-31.89-7.42
					c-0.65-0.35-3.73-2.05-4.25-2.34c-14.86-8.22-23.61-12.64-30.73-8.03c-7.36,4.77-5.11,11.82-0.81,22.93
					c0.59,1.54,3.61,10.1,3.67,10.9c0.01,0.13,0.01,0.26,0,0.4c0.13,0.62,0.24,1.24,0.32,1.85c0.53,2.41,0.72,4.99,0.64,7.66
					c2.7-3.79,2.36-8.52,0.6-14.39c0.01,0,0.02,0,0.04,0c-0.05-0.09-0.98-3.03-1.02-3.19c-0.02-0.07-0.5-1.27-0.7-1.82
					c-0.09-0.27-0.2-0.55-0.3-0.85c0,0.03,0,0.05,0,0.08c-0.26-0.69-0.52-1.38-0.8-2.1c-2.96-7.65-6.64-17.18-1.03-20.81
					c4.89-3.17,15.81,2.39,25.33,7.62l3.32,1.83c0.67,0.37,29.02,14.3,38.22,8.34c10.49-6.8-0.52-30.87-1.06-32.78
					c-0.22-0.79-3.68-12.6-0.07-14.94c5.45-3.53,18.48,2.09,20.3,2.25c0.5,0.2,19.66,5.41,26.99,0.66c0.12-0.08,0.24-0.15,0.35-0.23
					c6.12-4.23,6.22-9.94,3.93-17.59c0.06-0.01-0.57-1.81-0.76-2.38c0.02-0.75-1.75-4.79-2.02-5.5c-0.27-0.71-5.44-17.96-1.03-20.81
					C479.7,523.28,502.86,535.76,503.46,535.9z"/>
			</g>
			<g>
				<path class="st1" d="M492.26,528.71c-0.52-0.41-1.07-0.93-1.6-1.52c-2.76,0-5.36,0.8-8.12,2.73c-7.11,4.97-7.1,10.26-6.49,18.48
					c0.11,1.46,0.06,7.85,0.15,7.72c-0.35,4.08-1.72,8.08-5.75,11.01c-0.06,0.04-0.11,0.08-0.16,0.12
					c-3.44,2.41-18.24,2.28-18.58,2.28c-7.23,0.03-10.64-2.73-18.48,2.76c-5.86,4.1-5.68,15.12-5.56,15.09
					c0.06,0.5,1.91,17.62-5.69,22.93c-6.66,4.66-22.68-0.93-23.63-0.95c-0.43-0.18-2.47-1.06-2.81-1.2
					c-9.8-4.25-15.68-6.42-22.55-1.62c-7.11,4.97-7.1,10.26-6.49,18.48c0.08,1.14,0.32,7.52,0.17,8.15c-0.02,0.1-0.06,0.21-0.1,0.32
					c-0.06,0.48-0.12,0.96-0.21,1.43c-0.19,1.85-0.7,3.88-1.44,6.03c3.13-3.46,4.06-7.19,4.14-11.61c0.01,0,0.02-0.01,0.03-0.01
					c-0.02-0.06-0.01-2.27-0.01-2.39c0-0.05-0.08-0.94-0.1-1.35c-0.01-0.2-0.02-0.41-0.02-0.63c-0.01,0.02-0.02,0.04-0.02,0.06
					c-0.03-0.51-0.07-1.03-0.11-1.55c-0.42-5.66-0.94-12.71,4.47-16.5c4.72-3.3,12.05-0.56,18.33,2.13l2.19,0.95
					c0.44,0.19,19.59,6.91,28.47,0.7c10.12-7.08,7.45-24.63,7.5-26.08c0.02-0.6,0.26-9.51,3.75-11.95
					c5.26-3.68,14.26-1.22,15.67-1.37c0.35,0.08,14.36,1.25,21.44-3.69c0.11-0.08,0.23-0.16,0.34-0.24
					c5.98-4.34,7.51-8.93,7.62-14.69c0.05-0.01,0-1.36-0.01-1.78c0.2-0.6-0.18-3.56-0.22-4.09c-0.04-0.53,0.22-13.52,4.47-16.5
					c2.49-1.74,7.95-0.8,12.61,0.49C494.31,530.18,493.22,529.47,492.26,528.71z"/>
			</g>
			<path class="st1" d="M507.65,535.41c0,0,16.66,13.86,23.18,21.39l-15.06-8.95c0,0-10.93-11.85-19.88-15.62"/>
			<path class="st1" d="M359.91,622.26c0,0,1.61,13.58,6.98,31.98l3.56-11.18l-5.54-9.01l-4.24-11.79"/>
		</g>
	</g>
	<g id="XMLID_00000170272180815845243620000016908493495552546490_">
		<path id="XMLID_00000159450649045020672170000011129530010670990269_" class="st2" d="M524.37,626.21
			c-10.25,37.29-43.22,64.67-82.03,68.11c-0.89,0.08-1.77,0.12-2.64,0.12c-3.7,0-7.24-0.72-10.38-2.11
			c-0.94-0.42-1.74-0.82-2.38-1.22c-1.72-0.98-3.24-2.2-4.54-3.63l-3.56-3.9c-0.71-0.77-1.37-1.66-2.02-2.72
			c-1.07-1.72-1.84-3.53-2.27-5.37c-1.57-6.57,0.58-13.44,5.61-17.95l0,0l6.01-5.38c2.42-2.17,5.39-3.67,8.61-4.35
			c1.31-0.28,2.62-0.42,3.88-0.42c5.25,0,10.29,2.21,13.81,6.07l3.56,3.9c1.42,1.55,2.54,3.3,3.35,5.22
			c14.37-5.94,26.15-16.62,33.39-30.28c-2.66-1.04-5.05-2.67-6.98-4.79l-3.56-3.9c-3.34-3.65-5.04-8.37-4.79-13.29
			c0.03-0.48,0.08-0.95,0.14-1.42c0.56-4.36,2.67-8.39,5.97-11.34l6.01-5.38c3.43-3.07,7.86-4.77,12.48-4.77
			c0.99,0,2.03,0.1,3.17,0.29c3.33,0.57,6.44,2.03,9,4.21c0.65,0.56,1.18,1.06,1.64,1.57l3.56,3.89c0.49,0.53,0.96,1.12,1.4,1.73
			c3.91,3.41,7,10.95,5.18,20.26C525.55,621.6,525.02,623.83,524.37,626.21z"/>
	</g>
</g>
</svg>
