<?xml version="1.0" encoding="utf-8"?>
<!-- Generator: Adobe Illustrator 25.4.1, SVG Export Plug-In . SVG Version: 6.00 Build 0)  -->
<svg version="1.1" id="Capa_1" xmlns="http://www.w3.org/2000/svg" xmlns:xlink="http://www.w3.org/1999/xlink" x="0px" y="0px"
	 viewBox="0 0 1080 1080" style="enable-background:new 0 0 1080 1080;" xml:space="preserve">
<style type="text/css">
	.st0{fill:#FFFFFF;stroke:#FFFFFF;stroke-miterlimit:10;}
	.st1{fill:#FFFFFF;}
	.st2{fill:#263B4E;stroke:#263B4E;stroke-miterlimit:10;}
</style>
<symbol  id="Nuevo_símbolo_2" viewBox="-27.83 -27.29 55.67 54.58">
	<g>
		<path class="st0" d="M17.39,20.65c6.03-4.86,9.9-12.28,9.95-20.61C27.42-14.45,15.78-26.45,1.3-26.78
			c-13.34-0.31-24.52,9.19-26.85,21.79c0,0,3.75,10.83,9.77,5.39c0,0,5.94-5.64,11.25-3.12c0,0,3.8,1.84-0.94,10.64
			C-5.8,8.56-5.99,9.27-5.97,9.99c0.02,0.59,0.06,1.03,0.63,1.79c0,0,2.18,2.55,7.16-0.76c0,0,3.63-2.12,5.53,0
			c0,0,2.55,2.78-0.05,7.55c0,0-1.91,3.27-0.02,5.01c0,0,2.72,2.75,8.7-2.04L17.39,20.65z"/>
		<g>
			<g>
				<path class="st1" d="M12.46,24.02c0.12-0.07,1.2-0.64,2.19-1.15c-0.4,0.41-0.75,0.85-1.04,1.29c-0.18,0.12-0.32,0.2-0.32,0.2
					c-0.14,0.08-0.29,0.16-0.43,0.24c-4.06,2.24-6.45,3.45-8.39,2.19c-2.01-1.3-1.39-3.23-0.22-6.26c0.21-0.54,0.93-2.86,0.95-2.82
					c0.34-1.46,0.31-2.82-0.82-3.6c-0.02-0.01-0.03-0.02-0.05-0.03c-0.97-0.63-6.37,0.47-6.5,0.49c-2.63,0.5-4.19,1.75-6.41,0.31
					c-1.66-1.07-0.32-5.1-0.28-5.1c0.08-0.19,2.73-6.55,0.58-7.94c-1.88-1.22-8.36,1.95-8.71,2.03c-0.18,0.1-1.02,0.56-1.16,0.64
					c-4.06,2.24-6.45,3.45-8.39,2.19c-2.01-1.3-1.39-3.23-0.22-6.26c0.16-0.42,0.99-2.76,1-2.98c0-0.04,0-0.07,0-0.11
					c0.03-0.17,0.07-0.34,0.09-0.5c0.14-0.66,0.2-1.36,0.18-2.09c0.74,1.04,0.64,2.33,0.16,3.93c0,0,0.01,0,0.01,0
					c-0.01,0.02-0.27,0.83-0.28,0.87c0,0.02-0.14,0.35-0.19,0.5c-0.03,0.07-0.05,0.15-0.08,0.23c0-0.01,0-0.01,0-0.02
					c-0.07,0.19-0.14,0.38-0.22,0.57c-0.81,2.09-1.81,4.69-0.28,5.68c1.34,0.87,4.32-0.65,6.92-2.08l0.91-0.5
					c0.18-0.1,7.93-3.91,10.44-2.28c2.86,1.86-0.14,8.43-0.29,8.95c-0.06,0.22-1.01,3.44-0.02,4.08c1.49,0.97,5.05-0.57,5.54-0.62
					c0.14-0.05,5.37-1.48,7.37-0.18c0.03,0.02,0.06,0.04,0.1,0.06c1.67,1.16,1.7,2.71,1.07,4.8c0.02,0-0.16,0.49-0.21,0.65
					c0,0.2-0.48,1.31-0.55,1.5c-0.08,0.19-1.49,4.9-0.28,5.68C5.97,27.47,12.29,24.06,12.46,24.02z"/>
			</g>
			<g>
				<path class="st1" d="M9.4,25.98c-0.14,0.11-0.29,0.25-0.44,0.41c-0.75,0-1.46-0.22-2.22-0.74c-1.94-1.36-1.94-2.8-1.77-5.05
					c0.03-0.4,0.02-2.15,0.04-2.11c-0.1-1.11-0.47-2.21-1.57-3.01c-0.02-0.01-0.03-0.02-0.04-0.03c-0.94-0.66-4.98-0.62-5.07-0.62
					c-1.97-0.01-2.9,0.75-5.05-0.75c-1.6-1.12-1.55-4.13-1.52-4.12C-8.22,9.82-7.72,5.15-9.8,3.7c-1.82-1.27-6.19,0.25-6.45,0.26
					c-0.12,0.05-0.67,0.29-0.77,0.33c-2.68,1.16-4.28,1.75-6.16,0.44c-1.94-1.36-1.94-2.8-1.77-5.05c0.02-0.31,0.09-2.05,0.05-2.23
					c-0.01-0.03-0.02-0.06-0.03-0.09c-0.02-0.13-0.03-0.26-0.06-0.39c-0.05-0.5-0.19-1.06-0.39-1.65c0.85,0.94,1.11,1.96,1.13,3.17
					c0,0,0.01,0,0.01,0c0,0.02,0,0.62,0,0.65c0,0.01-0.02,0.26-0.03,0.37c0,0.05-0.01,0.11-0.01,0.17c0-0.01,0-0.01-0.01-0.02
					c-0.01,0.14-0.02,0.28-0.03,0.42c-0.11,1.55-0.26,3.47,1.22,4.51c1.29,0.9,3.29,0.15,5.01-0.58l0.6-0.26
					c0.12-0.05,5.35-1.89,7.77-0.19c2.77,1.93,2.03,6.73,2.05,7.12c0.01,0.16,0.07,2.6,1.02,3.26c1.44,1.01,3.89,0.33,4.28,0.37
					c0.1-0.02,3.92-0.34,5.85,1.01c0.03,0.02,0.06,0.04,0.09,0.07c1.63,1.19,2.05,2.44,2.08,4.01c0.01,0,0,0.37,0,0.49
					c0.06,0.16-0.05,0.97-0.06,1.12c-0.01,0.14,0.06,3.69,1.22,4.51c0.68,0.48,2.17,0.22,3.44-0.13C9.96,25.58,9.66,25.78,9.4,25.98
					z"/>
			</g>
			<path class="st1" d="M13.6,24.15c0,0,4.55-3.79,6.33-5.84l-4.11,2.44c0,0-2.99,3.24-5.43,4.27"/>
			<path class="st1" d="M-26.75,0.43c0,0,0.44-3.71,1.91-8.73l0.97,3.05l-1.51,2.46l-1.16,3.22"/>
		</g>
	</g>
	<g>
		<g>
			<path class="st2" d="M-1,4.6c4.05-0.27,8.1-0.53,12.15-0.81c1.2-0.08,2.05-0.93,2.26-2.22c0.21-1.35-0.4-2.74-1.52-3.06
				c-0.83-0.24-1.72-0.25-2.58-0.35c-3.08-0.36-6.17-0.65-9.24-1.1c-1.79-0.26-3.46,0.08-5.15,0.46c-1.47,0.33-2.94,0.64-4.41,0.99
				C-9.67-1.44-9.91-1.25-9.93-1.1c-0.02,0.15,0.19,0.33,0.31,0.5c0.11,0.16,0.33,0.31,0.33,0.47c0.04,0.93,0.06,1.85,0.04,2.78
				c-0.01,0.3-0.05,0.66-0.53,0.64c-0.05,0-0.18,0.23-0.16,0.26c0.1,0.13,0.24,0.29,0.39,0.31c1.16,0.15,2.32,0.29,3.48,0.4
				c1.69,0.17,3.37,0.32,5.06,0.48C-1.01,4.7-1,4.65-1,4.6z M-8.99-0.83c0.11-0.02,0.32-0.07,0.53-0.11
				c1.74-0.28,3.48-0.55,5.22-0.84c1.19-0.2,2.08,0.19,2.69,1.23c0.52,0.89,0.61,1.86,0.37,2.83c-0.3,1.2-1.26,1.82-2.48,1.68
				c-0.7-0.08-1.4-0.13-2.09-0.2c-1.45-0.14-2.9-0.27-4.24-0.4C-8.99,1.95-8.99,0.61-8.99-0.83z"/>
			<path class="st2" d="M14.16-9.25c0.06-0.67,0.2-1.16-0.49-1.28c-0.09-0.02-0.2-0.23-0.21-0.35c-0.05-0.78-0.09-1.56-0.08-2.34
				c0.01-0.42,0.1-0.8,0.61-1.01c0.44-0.18,0.28-0.93-0.23-1.19c-2.4-1.22-4.81-2.44-7.22-3.65c-1.71-0.86-3.41-1.72-5.11-2.6
				c-0.33-0.17-0.55-0.16-0.83,0.09c-2.7,2.34-5.43,4.64-8.12,6.99c-1.47,1.29-1.58,3.04-1.29,4.82c0.12,0.74,0.84,0.99,1.47,1.18
				c0.85,0.25,1.73,0.42,2.61,0.58c0.21,0.04,0.45-0.06,0.66-0.14c2.47-1.03,4.94-2.06,7.4-3.11c0.5-0.21,0.95-0.25,1.47-0.11
				c2.65,0.71,5.29,1.4,7.95,2.07C13.19-9.22,13.67-9.28,14.16-9.25z M1.28-20.14c4.11,1.92,8.12,3.79,11.94,5.58
				c0,1.39,0,2.63,0,3.9C9.31-12,5.44-13.32,1.57-14.65c-0.16-0.06-0.35-0.26-0.39-0.42C0.78-16.74,0.96-18.39,1.28-20.14z
				 M0.92-20.11c-0.03,0.23-0.06,0.35-0.06,0.47c-0.02,1.44-0.09,2.88-0.02,4.31c0.02,0.48-0.06,0.7-0.44,0.95
				c-1.93,1.24-3.83,2.51-5.75,3.77c-0.46,0.3-0.91,0.63-1.39,0.9c-0.62,0.35-1.11,0.17-1.31-0.46c-0.37-1.11,0.14-2.84,1.05-3.58
				c1.39-1.12,2.78-2.24,4.17-3.36C-1.61-18.08-0.39-19.06,0.92-20.11z"/>
			<path class="st2" d="M-5.49-2.78c0-0.65,0.07-1.31-0.01-1.96c-0.16-1.21-0.19-1.2,0.94-1.68c2.82-1.18,5.64-2.36,8.58-3.6
				c0.14,0.71,0.3,1.38,0.39,2.05C4.6-6.69,4.55-5.43,4.21-4.17c-0.11,0.41-0.3,0.65-0.77,0.69C2.91-3.44,2.4-3.3,1.87-3.1
				C2.78-2.98,3.69-2.86,4.6-2.75C6.79-2.5,8.99-2.25,11.18-2c2.29,0.27,3.15-0.37,3.4-2.66c0.07-0.66-0.01-1.35-0.12-2.02
				c-0.23-1.35-0.91-2.17-2.39-2.47c-2.55-0.52-5.06-1.27-7.59-1.91c-0.25-0.06-0.56-0.07-0.79,0.03c-3.3,1.4-6.6,2.81-9.89,4.23
				c-0.3,0.13-0.74,0.22-0.58,0.68c0.07,0.21,0.4,0.32,0.58,0.5c0.15,0.15,0.33,0.33,0.36,0.52c0.11,0.76,0.17,1.54,0.25,2.31
				C-5.55-2.79-5.52-2.78-5.49-2.78z M4.27-10c2.9,0.69,5.68,1.34,8.46,2.02c0.24,0.06,0.51,0.24,0.65,0.44
				c0.79,1.12,0.77,3.34-0.07,4.4c-0.21,0.27-0.67,0.52-1,0.49c-1.84-0.16-3.67-0.41-5.5-0.63C5.98-3.39,5.15-3.5,4.28-3.61
				C5.02-5.76,4.83-7.83,4.27-10z"/>
			<path class="st2" d="M-0.72,5.96c-1.03-0.99-2.14-1.2-3.29-0.68c-1.3,0.58-2.1,1.65-1.91,2.93c0.16,1,0.53,2.01,0.99,2.91
				c0.48,0.93,1.39,1.2,2.34,0.95c1.05-0.28,1.76-1.08,1.83-2.12C-0.67,9.03-0.93,8.18-1.4,7.4c-0.49-0.82-1.24-1.06-1.93-0.68
				C-4.09,7.14-4.3,7.84-3.91,8.74C-3.85,8.87-3.77,9-3.68,9.16c0.84-0.22,1.67-0.45,2.5-0.67c0.02,0.07,0.04,0.13,0.05,0.2
				c-0.96,0.26-1.92,0.53-2.92,0.8C-4.45,8.74-4.79,8.01-4.4,7.22c0.39-0.8,1.17-1.06,2-1.16C-1.87,6.01-1.34,6-0.72,5.96z"/>
			<path class="st2" d="M-1.44,6.48c1.06,1.49,1.71,3.06,0.71,4.96c0.73-0.33,1.39-0.63,2.06-0.93C2.9,9.79,4.49,9.08,6.05,8.33
				c1.18-0.57,1.52-1.48,0.93-2.49C5.02,6.2,3.05,6.56,1.07,6.93C0.63,7.01,0.3,7.04-0.08,6.6c-0.25-0.29-0.87-0.25-1.32-0.35
				C-1.42,6.33-1.43,6.41-1.44,6.48z"/>
			<path class="st2" d="M6.86,5.49c-0.37-0.18-0.73-0.5-1.1-0.51C3.49,4.93,1.2,4.95-0.89,4.95c0.38,0.41,0.86,0.95,1.37,1.47
				C0.59,6.53,0.8,6.63,0.95,6.61c1.95-0.29,3.9-0.6,5.85-0.91C6.82,5.63,6.84,5.56,6.86,5.49z"/>
			<path class="st2" d="M10.25,5.51C9.46,5.66,8.72,5.8,8.1,5.92C7.92,6.55,7.76,7.07,7.59,7.64c0.7-0.16,1.45-0.29,2.17-0.51
				C10.32,6.97,10.48,6.35,10.25,5.51z"/>
			<path class="st2" d="M7.07,4.65C7.09,4.7,7.09,4.72,7.1,4.74c0.5,0.93,1.24,1.09,2.19,0.73c0.41-0.16,0.86-0.18,1.31-0.26
				c-0.41-0.82-0.87-1.07-1.7-0.93c-0.58,0.1-1.17,0.21-1.75,0.31C7.14,4.59,7.12,4.61,7.07,4.65z"/>
		</g>
		<path class="st0" d="M-4.02,4.46l0.2-0.6l-5.17-0.48v-4.21l5.27-0.87l-0.8-0.9l-4.97,1.11c0,0-0.45,0.15-0.43,0.43l0.61,0.83
			l0.05,3.11c0,0,0,0.26-0.59,0.48c0,0-0.41,0.18,0.3,0.5L-4.02,4.46z"/>
		<path class="st0" d="M-5.86,8.51c0,0,1.16-2.14,1.44-3.03C-4.42,5.48-6.32,6.32-5.86,8.51z"/>
	</g>
</symbol>
<use xlink:href="#Nuevo_símbolo_2"  width="55.67" height="54.58" x="-27.83" y="-27.29" transform="matrix(16.0744 0 0 -16.0744 540 540)" style="overflow:visible;"/>
</svg>
