<?xml version="1.0" encoding="utf-8"?>
<!-- Generator: Adobe Illustrator 25.4.1, SVG Export Plug-In . SVG Version: 6.00 Build 0)  -->
<svg version="1.1" id="Capa_1" xmlns="http://www.w3.org/2000/svg" xmlns:xlink="http://www.w3.org/1999/xlink" x="0px" y="0px"
	 viewBox="0 0 1080 1080" style="enable-background:new 0 0 1080 1080;" xml:space="preserve">
<style type="text/css">
	.st0{fill:#FFFFFF;}
</style>
<symbol  id="Nuevo_símbolo_4" viewBox="-10.75 -8.77 21.49 17.53">
	<g>
		<path class="st0" d="M-10.75-6.8c2.41-0.23,4.57,0.38,6.48,1.83c0,0.01,0,0.01,0,0.02c-0.06,0.01-0.12,0.02-0.17,0.02
			c-0.94,0.06-1.78,0.38-2.51,0.97c-0.66,0.53-1.12,1.2-1.4,1.99c-0.01,0.02-0.01,0.05-0.02,0.08C-7.71-2-7.05-1.98-6.41-1.79
			C-6.45-1.77-6.5-1.76-6.55-1.75C-8.13-1.38-9.46-0.1-9.83,1.61c-0.06,0.28-0.1,0.57-0.1,0.87c0,0.03,0,0.05,0,0.08
			c0,0.01,0.01,0.02,0.01,0.03c0.61-0.33,1.27-0.51,1.97-0.54c0,0.04-0.03,0.04-0.05,0.06c-0.31,0.22-0.59,0.47-0.83,0.75
			c-0.52,0.61-0.85,1.3-0.99,2.09C-9.9,5.36-9.91,5.78-9.87,6.2c0.06,0.6,0.24,1.16,0.54,1.69c0.01,0.01,0.02,0.03,0.03,0.05
			c1.13-1.38,2.49-2.48,4.08-3.28c1.58-0.8,3.26-1.24,5.05-1.34c-0.01,0.04-0.01,0.08-0.02,0.11c-0.07,0.33-0.1,0.66-0.09,1
			c0.05,1.7,1.02,3.19,2.55,3.91c0.38,0.18,0.78,0.3,1.19,0.36c0.32,0.05,0.65,0.06,0.97,0.04c0.55-0.03,1.07-0.17,1.57-0.4
			c0.48-0.22,0.91-0.52,1.28-0.91c0.06-0.06,0.11-0.08,0.2-0.06c0.75,0.16,1.47,0.41,2.16,0.76c0.16,0.08,0.31,0.17,0.47,0.25
			c0.01,0.01,0.03,0.01,0.06,0.03c-0.17-0.52-0.42-0.97-0.75-1.38C9.1,6.64,8.71,6.3,8.26,6.02c0.11-0.03,0.7,0.08,1.26,0.23
			c0.42,0.11,0.82,0.26,1.22,0.41c-0.02-0.03-0.03-0.05-0.05-0.08c-0.48-0.7-1.06-1.32-1.72-1.86C8.86,4.63,8.75,4.54,8.63,4.45
			C8.59,4.42,8.57,4.39,8.57,4.34C8.6,3.9,8.59,3.46,8.55,3.03C8.34,0.27,7.37-2.18,5.62-4.32c-1.59-1.95-3.6-3.27-6.03-3.96
			C-0.87-8.41-1.33-8.51-1.8-8.59C-2.09-8.63-2.39-8.67-2.69-8.7c-0.28-0.03-0.57-0.03-0.85-0.06c-0.37-0.03-0.74,0-1.11,0.01
			c-0.3,0.01-0.6,0.05-0.9,0.08c-0.54,0.06-1.07,0.16-1.6,0.3c-1.26,0.32-2.44,0.83-3.54,1.52c-0.01,0.01-0.03,0.02-0.04,0.03
			C-10.73-6.81-10.74-6.81-10.75-6.8z"/>
	</g>
</symbol>
<use xlink:href="#Nuevo_símbolo_4"  width="21.49" height="17.53" x="-10.75" y="-8.77" transform="matrix(35.0632 0 0 -35.0632 540.1275 588.7878)" style="overflow:visible;"/>
</svg>
