<?xml version="1.0" encoding="utf-8"?>
<!-- Generator: Adobe Illustrator 25.4.1, SVG Export Plug-In . SVG Version: 6.00 Build 0)  -->
<svg version="1.1" id="Capa_1" xmlns="http://www.w3.org/2000/svg" xmlns:xlink="http://www.w3.org/1999/xlink" x="0px" y="0px"
	 viewBox="0 0 1080 1080" style="enable-background:new 0 0 1080 1080;" xml:space="preserve">
<style type="text/css">
	.st0{fill:#FFFFFF;}
</style>
<symbol  id="Nuevo_símbolo_3" viewBox="-8.73 -8.77 17.45 17.53">
	<g>
		<path class="st0" d="M-8.73-8.77C-8.66-8.54-8.6-8.32-8.54-8.1c0.34,1.26,0.69,2.52,1.03,3.77C-7.5-4.28-7.5-4.25-7.52-4.21
			C-8.04-3.3-8.38-2.33-8.55-1.3c-0.12,0.73-0.14,1.46-0.07,2.2c0.22,2.19,1.14,4.03,2.74,5.54c1.18,1.11,2.58,1.83,4.18,2.16
			c0.75,0.16,1.51,0.21,2.27,0.16c3.6-0.22,6.71-2.67,7.77-6.12c0.3-0.99,0.42-2,0.37-3.03c-0.19-3.5-2.5-6.57-5.81-7.73
			C2.18-8.38,1.44-8.54,0.67-8.59c-1.67-0.12-3.25,0.22-4.73,1C-4.1-7.57-4.14-7.56-4.19-7.58c-1.49-0.39-2.99-0.78-4.48-1.18
			C-8.68-8.76-8.7-8.76-8.73-8.77z M-6.64-6.7C-6.62-6.7-6.61-6.69-6.6-6.69c0.86,0.23,1.73,0.45,2.59,0.68
			c0.07,0.02,0.13,0.02,0.19-0.03c0.05-0.03,0.1-0.06,0.15-0.09c1.54-0.9,3.18-1.21,4.94-0.91c1.31,0.22,2.49,0.77,3.48,1.65
			c1.8,1.6,2.63,3.61,2.48,6.01C7.19,1.34,7.03,2.04,6.77,2.71C5.8,5.18,3.44,7.09,0.52,7.28c-0.77,0.05-1.54-0.02-2.29-0.21
			c-3.03-0.79-5.2-3.4-5.41-6.52c-0.06-0.93,0.06-1.84,0.34-2.73c0.21-0.64,0.51-1.23,0.88-1.79c0.03-0.05,0.04-0.09,0.02-0.14
			C-6.15-4.9-6.36-5.7-6.58-6.49C-6.6-6.55-6.62-6.62-6.64-6.7z"/>
		<path class="st0" d="M-2.8,4.08c0.09,0,0.18,0,0.27,0c0.1,0,0.19-0.04,0.25-0.13c0.06-0.09,0.11-0.18,0.16-0.28
			c0.21-0.5,0.4-1,0.62-1.49c0.1-0.23,0.11-0.43-0.03-0.63c-0.14-0.2-0.29-0.39-0.45-0.57C-2.17,0.77-2.19,0.7-2.04,0.46
			C-1.5-0.44-0.8-1.17,0.12-1.68c0.27-0.15,0.55-0.27,0.83-0.4c0.17-0.08,0.28-0.05,0.4,0.1C1.58-1.7,1.81-1.41,2.04-1.12
			C2.14-0.99,2.24-0.95,2.4-1c0.16-0.06,0.32-0.12,0.48-0.2C3.32-1.41,3.76-1.63,4.2-1.84c0.19-0.09,0.26-0.21,0.25-0.42
			C4.43-2.53,4.37-2.8,4.27-3.06C4.22-3.2,4.13-3.32,4.02-3.42c-0.33-0.31-0.7-0.54-1.14-0.63c-0.45-0.1-0.91-0.08-1.35,0.05
			C0.92-3.81,0.33-3.6-0.22-3.31c-0.72,0.38-1.36,0.89-1.93,1.46c-0.49,0.49-0.92,1.02-1.32,1.58C-3.76,0.13-4.01,0.54-4.18,1
			C-4.4,1.58-4.45,2.16-4.27,2.76c0.13,0.45,0.4,0.82,0.73,1.13c0.15,0.14,0.33,0.2,0.53,0.2C-2.94,4.09-2.87,4.09-2.8,4.08
			C-2.8,4.09-2.8,4.08-2.8,4.08z"/>
	</g>
</symbol>
<use xlink:href="#Nuevo_símbolo_3"  width="17.45" height="17.53" x="-8.73" y="-8.77" transform="matrix(35.0632 0 0 -35.0632 554.1968 538.9712)" style="overflow:visible;"/>
</svg>
